<svg id="Layer_1" enable-background="new 0 0 512.134 512.134" height="512" viewBox="0 0 512.134 512.134" width="512" xmlns="http://www.w3.org/2000/svg"><g><path d="m375.121.273h-360.053c-8.284 0-15 6.716-15 15v481.86c0 8.284 6.716 15 15 15h360.053c8.284 0 15-6.716 15-15v-481.86c0-8.284-6.716-15-15-15zm-15 481.861h-330.053v-451.861h330.053z"/><path d="m74.976 452.001h240.843c8.284 0 15-6.716 15-15v-361.635c0-8.284-6.716-15-15-15h-240.843c-8.284 0-15 6.716-15 15v361.635c0 8.284 6.716 15 15 15zm105.932-244.778v31.194h-30.466v-31.194zm60.466 0v31.194h-30.466v-31.194zm59.445 0v31.194h-29.445v-31.194zm-180.377 92.388h-30.466v-31.194h30.466zm30-31.194h30.466v31.194h-30.466zm-30 61.194v31.194h-30.466v-31.194zm30 0h30.466v31.194h-30.466zm30.466 61.195v31.195h-30.466v-31.195zm30 0h30.466v31.195h-30.466zm30.466-30h-30.466v-31.194h30.466zm-30.466-61.195v-31.194h30.466v31.194zm60.466-31.194h29.445v31.194h-29.445zm-150.932-30h-30.466v-31.194h30.466zm-30.466 152.389h30.466v31.195h-30.466zm181.398 31.195v-92.39h29.445v92.39zm29.445-331.635v86.856h-210.843v-86.856z"/><path d="m512.055 378.794v-249.284c.014-.168.014-.335 0-.503v-70.121c0-8.284-6.716-15-15-15h-11.965v-28.965c-.793-19.902-29.215-19.887-30 0v28.965h-11.979c-8.284 0-15 6.716-15 15v369.777c0 17.972 4.85 35.638 14.024 51.091l14.591 24.574c2.682 4.517 7.531 7.302 12.784 7.342h.113c5.21 0 10.051-2.704 12.781-7.148l14.847-24.168c9.685-15.767 14.804-33.879 14.804-52.381v-48.675c.014-.169.014-.336 0-.504zm-53.944-234.535h23.944v219.787h-23.944zm23.944-70.373v40.373h-23.944v-40.373zm-10.366 390.764-1.847 3.007-1.912-3.22c-6.424-10.819-9.819-23.19-9.819-35.774v-34.617h23.944v33.927c0 12.955-3.585 25.637-10.366 36.677z"/></g></svg>