<?xml version="1.0" encoding="iso-8859-1"?>
<!-- Generator: Adobe Illustrator 19.0.0, SVG Export Plug-In . SVG Version: 6.00 Build 0)  -->
<svg version="1.1" id="Layer_1" xmlns="http://www.w3.org/2000/svg" xmlns:xlink="http://www.w3.org/1999/xlink" x="0px" y="0px"
	 viewBox="0 0 492.308 492.308" enable-background="new 0 0 492.308 492.308;" xml:space="preserve">
<g>
	<g>
		<path d="M411.149,179.692c-27.594,0.053-55.824,0.449-84.941,1.181L199.558,0h-87.322l85.736,186
			c-27.406,1.466-55.813,3.203-85.326,5.202L59.755,98.183H4.462l35.15,100.257c-16.6,6.889-28.621,25.557-28.621,47.695
			c0,22.186,12.072,40.877,28.626,47.714L4.462,394.125h55.293l52.917-93.064c29.541,2.007,57.941,3.749,85.308,5.222
			l-85.744,186.025h87.322l126.635-180.856c29.209,0.742,57.477,1.142,85.057,1.193c41.519-0.337,76.596-30.731,76.596-66.361
			v-0.149C487.846,210.385,452.76,179.957,411.149,179.692z M142.995,19.692h46.313l113.321,161.846
			c-26.933,0.835-54.677,1.953-83.475,3.375L142.995,19.692z M32.231,117.875h16.072l42.553,74.838
			c-10.386,0.736-20.897,1.499-31.575,2.3L32.231,117.875z M48.303,374.433H32.231l27.069-77.194
			c10.685,0.803,21.2,1.569,31.585,2.307L48.303,374.433z M189.308,472.615h-46.313l76.167-165.239
			c28.837,1.434,56.576,2.562,83.462,3.403L189.308,472.615z M468.154,246.284c0,24.611-26.668,46.418-56.966,46.668
			c-103.707-0.192-216.976-5.212-356.462-15.798l-1.293-0.029c-12.332,0-22.75-14.192-22.75-30.99
			c0-16.803,10.418-30.995,22.75-30.995l1.293-0.029c138.784-10.524,252.053-15.524,356.38-15.726
			c30.923,0.197,57.048,21.606,57.048,46.75V246.284z"/>
	</g>
</g>
<g>
</g>
<g>
</g>
<g>
</g>
<g>
</g>
<g>
</g>
<g>
</g>
<g>
</g>
<g>
</g>
<g>
</g>
<g>
</g>
<g>
</g>
<g>
</g>
<g>
</g>
<g>
</g>
<g>
</g>
</svg>
