<svg id="Layer_1" enable-background="new 0 0 512 512" height="512" viewBox="0 0 512 512" width="512" xmlns="http://www.w3.org/2000/svg"><g><path d="m505.357 364.816-22.132-14.843c-.163-.109-.328-.215-.494-.318-13.432-8.263-30.335-13.427-47.271-14.561v-320.097c-.001-8.283-6.706-14.997-14.977-14.997h-328.968c-8.27 0-14.975 6.714-14.975 14.997v264.648h-30.593c-25.112 0-45.66 20.458-45.806 45.605l-.141 24.515c0 .016.002.03.002.046 0 .014-.002.027-.002.041v53.933c0 8.282 6.705 14.997 14.976 14.997h61.564v78.222c0 8.282 6.705 14.997 14.976 14.997h328.968c8.271 0 14.976-6.714 14.976-14.997v-78.424c16.662-1.006 33.373-5.912 46.673-13.82.163-.097.325-.197.484-.3l22.538-14.589c4.232-2.74 6.805-7.427 6.846-12.473.038-5.046-2.457-9.774-6.644-12.582zm-398.866-334.822h299.016v304.861c-70.815 0-229.772 0-299.016 0v-25.217h89.396c8.271 0 14.976-6.714 14.976-14.997 0-8.282-6.705-14.997-14.976-14.997h-89.396zm98.542 358.794v-23.939h161.577v23.939zm-159.086-79.15h30.593v25.217h-46.501l.054-9.433c.051-8.703 7.162-15.784 15.854-15.784zm-15.995 55.211h145.13v23.939h-145.13zm76.539 117.157v-63.225h299.016v63.225zm360.118-102.899c-10.318 6.065-24.305 9.681-37.482 9.681h-32.565v-23.939h23.844c.052.004.103.004.155 0h7.877c13.531 0 27.853 3.817 38.38 10.22l2.962 1.987z"/><path d="m367.219 199.349v-111.088c0-8.282-6.705-14.997-14.976-14.997h-192.486c-8.271 0-14.976 6.714-14.976 14.997v111.088c0 8.282 6.705 14.997 14.976 14.997h192.486c8.271 0 14.976-6.714 14.976-14.997zm-29.952-96.091v25.55h-162.534v-25.55zm-162.534 81.095v-25.551h162.534v25.551z"/></g></svg>