<?xml version="1.0" encoding="iso-8859-1"?>
<!-- Generator: Adobe Illustrator 19.0.0, SVG Export Plug-In . SVG Version: 6.00 Build 0)  -->
<svg version="1.1" id="Layer_1" xmlns="http://www.w3.org/2000/svg" xmlns:xlink="http://www.w3.org/1999/xlink" x="0px" y="0px"
	 viewBox="0 0 492.308 492.308" enable-background="new 0 0 492.308 492.308;" xml:space="preserve">
<g>
	<g>
		<path d="M465.784,407.692c-37.529-31.183-75.394-87.663-75.394-143.538v-70.942c0-15.279-2.43-29.99-6.852-43.821l56.746-56.746
			l-13.923-13.923l-50.927,50.928c-16.873-34.178-46.803-60.718-83.323-73.041V45.962C292.111,20.615,271.495,0,246.149,0
			c-25.346,0-45.961,20.615-45.961,45.962v10.649c-57.035,19.249-98.269,73.147-98.269,136.601v70.942
			c0,55.875-37.865,112.356-75.394,143.538L5.553,425.115h74.413l-43.067,43.067l13.923,13.923l56.99-56.99h61.999
			c4.859,37.837,37.2,67.192,76.337,67.192c39.138,0,71.478-29.356,76.337-67.192h164.269L465.784,407.692z M219.88,45.962
			c0-14.481,11.788-26.269,26.269-26.269c14.481,0,26.269,11.788,26.269,26.269v5.522c-8.531-1.577-17.288-2.512-26.269-2.512
			c-8.981,0-17.738,0.935-26.269,2.513V45.962z M99.659,405.423H57.716c34.096-35.644,63.894-88.471,63.894-141.269v-70.942
			c0-68.673,55.865-124.548,124.538-124.548c51.347,0,95.522,31.248,114.552,75.716L99.659,405.423z M246.149,472.615
			c-28.262,0-51.75-20.56-56.439-47.5h112.877C297.899,452.055,274.411,472.615,246.149,472.615z M127.505,405.423L367.47,165.458
			c2.046,8.939,3.227,18.203,3.227,27.754v70.942c0,52.798,29.798,105.625,63.894,141.269H127.505z"/>
	</g>
</g>
<g>
</g>
<g>
</g>
<g>
</g>
<g>
</g>
<g>
</g>
<g>
</g>
<g>
</g>
<g>
</g>
<g>
</g>
<g>
</g>
<g>
</g>
<g>
</g>
<g>
</g>
<g>
</g>
<g>
</g>
</svg>
