<?xml version="1.0" encoding="iso-8859-1"?>
<!-- Generator: Adobe Illustrator 19.0.0, SVG Export Plug-In . SVG Version: 6.00 Build 0)  -->
<svg version="1.1" id="Layer_1" xmlns="http://www.w3.org/2000/svg" xmlns:xlink="http://www.w3.org/1999/xlink" x="0px" y="0px"
	 viewBox="0 0 492.308 492.308" enable-background="new 0 0 492.308 492.308;" xml:space="preserve">
<g>
	<g>
		<path d="M147.276,193.216h19.692c0-43.663,35.524-79.183,79.192-79.183V94.341C191.637,94.341,147.276,138.697,147.276,193.216z"
			/>
	</g>
</g>
<g>
	<g>
		<path d="M465.791,407.697c-37.529-31.183-75.399-87.663-75.399-143.538v-70.942c0-63.451-41.235-117.349-98.274-136.597V0h-91.923
			v56.619c-57.039,19.249-98.274,73.146-98.274,136.597v70.942c0,55.88-37.87,112.356-75.399,143.538L5.555,425.115h164.264
			c4.859,37.837,37.2,67.192,76.337,67.192c39.138,0,71.482-29.356,76.342-67.192h164.254L465.791,407.697z M219.887,19.692h52.539
			v31.801c-8.531-1.578-17.288-2.513-26.269-2.513c-8.981,0-17.738,0.935-26.269,2.513V19.692z M246.156,472.615
			c-28.257,0-51.749-20.564-56.439-47.5H302.6C297.91,452.052,274.418,472.615,246.156,472.615z M57.719,405.423
			c34.101-35.644,63.894-88.466,63.894-141.264v-70.942c0-68.673,55.87-124.543,124.543-124.543S370.7,124.543,370.7,193.216v70.942
			c0,52.793,29.793,105.615,63.894,141.264H57.719z"/>
	</g>
</g>
<g>
</g>
<g>
</g>
<g>
</g>
<g>
</g>
<g>
</g>
<g>
</g>
<g>
</g>
<g>
</g>
<g>
</g>
<g>
</g>
<g>
</g>
<g>
</g>
<g>
</g>
<g>
</g>
<g>
</g>
</svg>
