<?xml version="1.0" encoding="iso-8859-1"?>
<!-- Generator: Adobe Illustrator 19.0.0, SVG Export Plug-In . SVG Version: 6.00 Build 0)  -->
<svg version="1.1" id="Layer_1" xmlns="http://www.w3.org/2000/svg" xmlns:xlink="http://www.w3.org/1999/xlink" x="0px" y="0px"
	 viewBox="0 0 493.047 493.047" enable-background="new 0 0 493.047 493.047;" xml:space="preserve">
<g>
	<g>
		<path d="M481.412,18.778l-1.433-5.712l-5.712-1.433c-9.337-2.346-230.404-55.856-374.447,88.192
			C-44.213,243.855,9.287,464.922,11.638,474.268l1.433,5.712l5.716,1.433c4.043,1.019,47.803,11.635,107.846,11.635
			c78.553,0,184.962-18.183,266.596-99.827C537.258,249.191,483.758,28.124,481.412,18.778z M379.307,379.297
			C265.835,492.768,95.795,475.081,41.19,465.784l62.4-62.4L89.667,389.46l-62.415,62.415
			c-9.346-54.557-27.129-224.505,86.492-338.127C227.212,0.281,397.276,17.971,451.86,27.263l-62.4,62.4l13.923,13.923
			l62.412-62.412C475.144,95.735,492.926,265.678,379.307,379.297z"/>
	</g>
</g>
<g>
	<g>
		<polygon points="357.441,251.528 371.364,237.605 320.362,186.607 368.047,138.922 354.124,124.999 306.439,172.684 
			255.441,121.691 241.518,135.614 292.516,186.607 246.523,232.6 195.528,181.605 181.605,195.528 232.6,246.523 186.608,292.515 
			135.609,241.518 121.686,255.441 172.684,306.439 124.999,354.124 138.922,368.047 186.607,320.362 237.6,371.355 
			251.528,357.432 200.531,306.438 246.523,260.446 297.518,311.441 311.441,297.518 260.446,246.523 306.439,200.53 		"/>
	</g>
</g>
<g>
</g>
<g>
</g>
<g>
</g>
<g>
</g>
<g>
</g>
<g>
</g>
<g>
</g>
<g>
</g>
<g>
</g>
<g>
</g>
<g>
</g>
<g>
</g>
<g>
</g>
<g>
</g>
<g>
</g>
</svg>
