<?xml version="1.0" encoding="iso-8859-1"?>
<!-- Generator: Adobe Illustrator 19.0.0, SVG Export Plug-In . SVG Version: 6.00 Build 0)  -->
<svg version="1.1" id="Layer_1" xmlns="http://www.w3.org/2000/svg" xmlns:xlink="http://www.w3.org/1999/xlink" x="0px" y="0px"
	 viewBox="0 0 492.308 492.308" enable-background="new 0 0 492.308 492.308;" xml:space="preserve">
<g>
	<g>
		<path d="M314.851,280.913v19.692h58.495c-5.519,23.877-28.185,82.879-117.346,113.851V220.106h54.154v-19.692H256v-42.438
			c24.142-4.626,42.461-25.838,42.461-51.312c0-28.846-23.466-52.308-52.308-52.308c-28.841,0-52.308,23.462-52.308,52.308
			c0,25.474,18.32,46.687,42.462,51.312v42.438h-54.154v19.692h54.154v194.358c-89.985-31.162-112.163-89.936-117.452-113.858
			h58.606v-19.692H96.981l0.572,10.385c0.236,4.288,7.375,105.327,145.808,146.25l2.793,0.827l2.793-0.827
			c138.433-40.923,145.572-141.962,145.808-146.25l0.572-10.385H314.851z M246.154,139.279c-17.986,0-32.615-14.635-32.615-32.615
			s14.63-32.615,32.615-32.615s32.615,14.635,32.615,32.615S264.139,139.279,246.154,139.279z"/>
	</g>
</g>
<g>
	<g>
		<path d="M0,0v492.308h492.308V0H0z M472.615,472.615H19.692V19.692h452.923V472.615z"/>
	</g>
</g>
<g>
</g>
<g>
</g>
<g>
</g>
<g>
</g>
<g>
</g>
<g>
</g>
<g>
</g>
<g>
</g>
<g>
</g>
<g>
</g>
<g>
</g>
<g>
</g>
<g>
</g>
<g>
</g>
<g>
</g>
</svg>
