<svg id="Capa_1" enable-background="new 0 0 507 507" height="512" viewBox="0 0 507 507" width="512" xmlns="http://www.w3.org/2000/svg"><g><path d="m53.939 186.197c9.244 33.403 35.767 59.784 69.224 68.85l77.376 20.919c5.327 1.44 10.822-1.712 12.264-7.043s-1.712-10.822-7.043-12.263l-77.371-20.918c-26.664-7.225-47.806-28.253-55.174-54.878l-19.694-71.164 31.818 4.844 38.836 63.449c1.34 2.188 3.47 3.778 5.948 4.44l89.847 23.999c3.354.896 6.92-.008 9.441-2.385s3.632-5.889 2.936-9.284l-23.73-115.784 39.471 9.218 93.498 148.098c1.343 2.126 3.438 3.669 5.866 4.32l119.228 31.97c13.039 4.103 20.979 18.355 17.716 31.857-1.67 6.904-5.955 12.699-12.067 16.317-6.112 3.619-13.254 4.587-20.112 2.729l-159.904-43.261c-5.333-1.446-10.822 1.711-12.265 7.042-1.442 5.331 1.711 10.822 7.042 12.264l159.9 43.26c4.021 1.09 8.098 1.629 12.146 1.629 8.144 0 16.168-2.182 23.381-6.452 10.799-6.393 18.37-16.63 21.319-28.828 5.716-23.641-8.387-48.639-31.437-55.724-.115-.036-.231-.069-.349-.1l-115.64-31.008-93.6-148.258c-1.402-2.222-3.623-3.802-6.182-4.399l-58.668-13.701c-3.32-.776-6.805.194-9.248 2.571s-3.507 5.835-2.822 9.175l23.619 115.238-70.361-18.794-39.177-64.005c-1.539-2.515-4.109-4.222-7.024-4.666l-51.675-7.866c-3.354-.507-6.732.712-8.983 3.248-2.251 2.535-3.063 6.038-2.159 9.305z"/><path d="m236.804 275.308c-1.441 5.325 1.708 10.81 7.033 12.25 5.325 1.441 10.81-1.708 12.25-7.033 1.441-5.325-1.708-10.81-7.033-12.25-5.324-1.441-10.809 1.708-12.25 7.033z"/><path d="m497 431.31h-487c-5.522 0-10 4.477-10 10s4.478 10 10 10h487c5.522 0 10-4.477 10-10s-4.478-10-10-10z"/></g></svg>