<?xml version="1.0" encoding="iso-8859-1"?>
<!-- Generator: Adobe Illustrator 18.0.0, SVG Export Plug-In . SVG Version: 6.00 Build 0)  -->
<!DOCTYPE svg PUBLIC "-//W3C//DTD SVG 1.1//EN" "http://www.w3.org/Graphics/SVG/1.1/DTD/svg11.dtd">
<svg version="1.1" id="Capa_1" xmlns="http://www.w3.org/2000/svg" xmlns:xlink="http://www.w3.org/1999/xlink" x="0px" y="0px"
	 viewBox="0 0 200.814 200.814"  xml:space="preserve">
<path d="M100.407,0C45.043,0,0.001,45.042,0.001,100.406c0,55.366,45.042,100.409,100.406,100.409c4.143,0,7.5-3.358,7.5-7.5
	c0-4.142-3.357-7.5-7.5-7.5c-47.093,0-85.406-38.314-85.406-85.409C15.001,53.313,53.314,15,100.407,15s85.406,38.313,85.406,85.406
	v23.23c0,8.672-7.056,15.727-15.729,15.727c-8.672,0-15.727-7.055-15.727-15.727v-23.23c0-29.75-24.202-53.953-53.951-53.953
	c-29.75,0-53.953,24.203-53.953,53.953c0,29.752,24.203,53.957,53.953,53.957c16.511,0,31.305-7.463,41.209-19.185
	c4.572,11.238,15.607,19.185,28.469,19.185c16.943,0,30.729-13.784,30.729-30.727v-23.23C200.813,45.042,155.771,0,100.407,0z
	 M100.407,139.363c-21.479,0-38.953-17.476-38.953-38.957c0-21.479,17.475-38.953,38.953-38.953
	c21.478,0,38.951,17.474,38.951,38.953C139.358,121.887,121.885,139.363,100.407,139.363z"/>
<g>
</g>
<g>
</g>
<g>
</g>
<g>
</g>
<g>
</g>
<g>
</g>
<g>
</g>
<g>
</g>
<g>
</g>
<g>
</g>
<g>
</g>
<g>
</g>
<g>
</g>
<g>
</g>
<g>
</g>
</svg>
