<svg id="Capa_1" enable-background="new 0 0 507.971 507.971" height="512" viewBox="0 0 507.971 507.971" width="512" xmlns="http://www.w3.org/2000/svg"><g><path d="m426.958 211.034h-31.972v-71.758c0-7.886-1.542-15.745-4.445-23.045 2.835-5.653 4.441-12.024 4.441-18.767v-55.45c-.001-23.166-18.848-42.014-42.015-42.014h-197.423c-23.167 0-42.015 18.848-42.015 42.014v55.449c0 6.743 1.606 13.114 4.441 18.767-2.903 7.3-4.445 15.16-4.445 23.046v71.758h-32.512c-15.133 0-27.445 13.83-27.445 30.828v76.105c0 16.999 12.312 30.828 27.445 30.828h32.512v13.871c0 16.315 6.313 31.178 16.613 42.296h-2.444c-20.867 0-37.213 22.624-37.213 51.504s16.346 51.504 37.213 51.504h80.791c5.523 0 10-4.477 10-10s-4.477-10-10-10h-80.791c-9.852 0-17.213-16.633-17.213-31.504s7.361-31.504 17.213-31.504h47.996c.045 0 .09.003.135.003h156.86c.045 0 .09-.003.135-.003h47.997c9.852 0 17.213 16.633 17.213 31.504s-7.361 31.504-17.213 31.504h-83.082c-5.523 0-10 4.477-10 10s4.477 10 10 10h83.082c20.867 0 37.213-22.624 37.213-51.504s-16.346-51.504-37.213-51.504h-2.445c10.301-11.118 16.613-25.981 16.613-42.296v-13.871h31.972c15.133 0 27.445-13.83 27.445-30.828v-76.105c0-16.999-12.311-30.828-27.444-30.828zm-99.973 193.928h-146v-20.477c0-33.084 32.748-60 73-60s73 26.916 73 60zm-73-100.477c-51.28 0-93 35.888-93 80v17.786c-16.025-6.024-27.46-21.502-27.46-39.606v-223.39c0-1.961.146-3.893.406-5.799 6.319 3.807 13.714 6.001 21.613 6.001h7.181v99.831c0 16.824 13.687 30.511 30.51 30.511s30.51-13.687 30.51-30.511v-99.831h60.479v99.831c0 16.824 13.687 30.511 30.51 30.511s30.51-13.687 30.51-30.511v-99.831h7.722c7.899 0 15.293-2.194 21.612-6.001.26 1.906.406 3.838.406 5.799v81.681c0 .026-.004.051-.004.077s.004.051.004.077v117.607c0 .026-.004.051-.004.077s.004.051.004.077v23.793c0 18.307-11.692 33.93-28 39.807v-17.987c.001-44.111-41.718-79.999-92.999-79.999zm-71.26-165.007h21.021v99.831c0 5.795-4.715 10.511-10.51 10.511s-10.51-4.715-10.51-10.511v-99.831zm121.5 0h21.021v99.831c0 5.795-4.715 10.511-10.51 10.511s-10.51-4.715-10.51-10.511v-99.831zm-170.695-97.464c0-12.139 9.875-22.014 22.015-22.014h197.423c12.139 0 22.014 9.875 22.014 22.014v55.449c0 12.139-9.875 22.015-22.014 22.015h-17.722-41.021-80.479-41.021-17.181c-12.139 0-22.015-9.875-22.015-22.015v-55.449zm-52.517 286.781c-3.966 0-7.445-5.06-7.445-10.828v-76.105c0-5.768 3.479-10.828 7.445-10.828h32.512v97.761zm353.389-10.828c0 5.768-3.479 10.828-7.445 10.828h-31.972v-97.761h31.972c3.966 0 7.445 5.06 7.445 10.828z"/><path d="m163.486 59.667h135.885c5.523 0 10-4.477 10-10s-4.477-10-10-10h-135.885c-5.523 0-10 4.477-10 10s4.477 10 10 10z"/><circle cx="344.704" cy="49.485" r="10"/><circle cx="253.985" cy="497.652" r="10"/></g></svg>