<svg id="Layer_1" enable-background="new 0 0 512.001 512.001" height="512" viewBox="0 0 512.001 512.001" width="512" xmlns="http://www.w3.org/2000/svg"><path d="m458.769 50.223-157.54-43.965c-29.958-8.36-61.624-8.344-91.571.051l-156.609 43.889c-80.628 24.672-64.793 140.849 19.626 142.803h366.545c84.494-1.98 100.222-118.209 19.549-142.778zm-19.549 102.778h-366.545c-37.983-.878-45.119-53.193-8.832-64.287l156.608-43.89c22.902-6.419 47.116-6.432 70.025-.039l157.54 43.965c36.327 11.074 29.2 63.369-8.796 64.251zm-143.272 279c-11.046 0-20-8.954-20-20v-161c1.056-26.536 38.953-26.516 40 0v161c0 11.046-8.954 20-20 20zm-81 0c-11.046 0-20-8.954-20-20v-161c1.056-26.536 38.953-26.516 40 0v161c0 11.046-8.954 20-20 20zm-160 1c-11.046 0-20-8.954-20-20v-162c1.056-26.536 38.953-26.516 40 0v162c0 11.046-8.954 20-20 20zm81-1c-11.046 0-20-8.954-20-20v-161c1.056-26.536 38.953-26.516 40 0v161c0 11.046-8.954 20-20 20zm206 60c0 11.046-8.954 20-20 20h-302c-26.536-1.056-26.516-38.953 0-40h302c11.046 0 20 8.954 20 20zm170-80.423c0 17.404-7.062 33.796-19.887 46.154-9.063 8.734-20.147 14.633-32.113 17.237v17.032c-1.056 26.536-38.953 26.516-40 0v-18.477c-13.336-2.556-28.975-6.811-44.388-12.937-10.265-4.081-15.278-15.709-11.198-25.974 4.081-10.265 15.71-15.274 25.973-11.198 22.677 9.015 46.095 13.069 55.481 13.069 14.165 0 26.131-11.405 26.131-24.906 0-13.733-14.073-24.906-31.37-24.906-20.688 0-38.766-6.201-52.277-17.934-40.967-34.868-18.979-104.659 32.647-111.23v-19.508c1.056-26.536 38.953-26.516 40 0v21.883c10.021 1.981 21.727 5.218 35.249 10.477 24.349 10.601 10.594 45.917-14.498 37.279-24.575-9.557-40.484-10.782-51.599-10.782-13.199 0-23.152 10.809-23.152 25.143 0 14.757 13.515 24.671 33.63 24.671 39.354.001 71.371 29.118 71.371 64.907zm-256-337.577c-13.807 0-25 11.193-25 25 1.317 33.162 48.688 33.153 50 0 0-13.807-11.193-25-25-25z"/></svg>