<svg id="Layer_1" enable-background="new 0 0 511.929 511.929" height="512" viewBox="0 0 511.929 511.929" width="512" xmlns="http://www.w3.org/2000/svg"><path d="m497.02 481.804h-25.701v-285.217h25.322c8.277 0 14.987-6.716 14.987-15v-54.23c0-4.232-1.787-8.267-4.919-11.11l-83.132-75.468c-5.73-5.2-14.468-5.185-20.179.037l-82.531 75.468c-3.108 2.842-4.878 6.86-4.878 11.074v54.23c0 8.284 6.71 15 14.987 15h24.721v285.218h-32.024v-210.478c0-8.284-6.71-15-14.987-15h-85.646c-8.277 0-14.987 6.716-14.987 15v210.477h-31.779v-149.143c0-8.284-6.71-15-14.987-15h-85.647c-8.277 0-14.987 6.716-14.987 15v149.142h-30.678v-192.804h48.256c19.885-.792 19.87-29.215 0-30h-48.256v-26.022h29.224c19.885-.792 19.87-29.215 0-30h-29.224v-26.022h29.224c19.885-.792 19.87-29.215 0-30h-29.224v-26.022h29.224c19.885-.792 19.87-29.215 0-30h-29.224v-26.023h48.256c19.885-.792 19.87-29.215 0-30h-48.256v-19.866c-.792-19.902-29.19-19.887-29.975 0v481.759c0 8.284 6.71 15 14.987 15h482.033c19.886-.792 19.87-29.215 0-30zm-406.392 0v-134.142h55.672v134.142zm147.4 0v-195.476h55.672v195.477h-55.672zm147.645 0v-300.217c0-8.284-6.71-15-14.987-15h-24.721v-32.617l67.581-61.797 68.108 61.829v32.584h-25.322c-8.277 0-14.987 6.716-14.987 15v300.218z"/></svg>