<svg id="Capa_1" enable-background="new 0 0 505.833 505.833" height="512" viewBox="0 0 505.833 505.833" width="512" xmlns="http://www.w3.org/2000/svg"><g><path d="m505.734 472.322c-.184-1.295-4.692-32.072-20.765-63.838-22.008-43.497-55.07-67.607-95.614-69.725-59.866-3.128-89.852 20.476-102.329 34.681-30.639-27.095-69.282-56.262-131.756-58.513l-17.929-58.289 77.898-23.961c5.202-1.6 8.221-7.29 6.618-12.499-4.659-15.145-13.233-28.812-24.796-39.522-4.053-3.753-10.378-3.512-14.132.541-3.753 4.051-3.512 10.378.54 14.131 6.536 6.055 11.845 13.33 15.648 21.383l-154.423 47.498c-5.193-33.359 14.354-67.189 46.263-77.004l17.202-5.392c5.27-1.652 8.203-7.263 6.551-12.533-1.651-5.27-7.256-8.2-12.533-6.552l-17.151 5.376c-21.99 6.764-40.122 22.165-51.057 43.364-10.978 21.284-13.158 45.572-6.14 68.391 1.599 5.201 7.287 8.218 12.498 6.618l77.898-23.961 16.247 52.822c-48.128 4.118-86.247 31.332-110.754 79.366-19.637 38.487-23.516 76.459-23.671 78.056-.273 2.807.652 5.6 2.548 7.688s4.585 3.28 7.405 3.28h485.833c2.897 0 5.653-1.257 7.553-3.445 1.898-2.188 2.756-5.093 2.348-7.961zm-484.112-8.593c2.433-13.243 8.028-36.646 19.91-59.934 22.193-43.497 55.473-66.614 98.976-68.832l15.913 51.735c-9.31 4.903-19.245 12.871-24.129 22.486-2.759 5.431-.51 12.356 5.488 14.363 5.257 1.759 9.445-1.007 12.31-5.16 7.271-10.541 18.719-17.333 31.413-18.903 7.401-.915 14.817-.102 22.06 1.51 6.569 1.462 13.809-1.397 13.938-9.175.153-9.287-9.851-10.692-16.931-11.749-8.349-1.246-16.889-1.326-25.212.165l-13.822-44.935c56.361 4.16 90.079 33.065 119.638 59.741.418.457 44.326 48.158 85.006 48.158 5.512 0 10.139-4.155 10.315-9.674.177-5.52-4.154-10.138-9.675-10.315-24.017-.771-43.313-16.94-64.965-36.439 9.156-10.597 33.718-30.794 86.456-28.041 33.306 1.74 59.747 21.369 78.588 58.342 9.047 17.753 14.151 35.536 16.749 46.656h-462.026z"/><circle cx="149.667" cy="167.938" r="10"/><path d="m275.941 112.484h38.055c1.724 9.312 5.265 22.521 12.059 29.316 8.956 8.957 23.329 14.304 38.446 14.304h45c28.673 0 52-23.327 52-52 0-13.891-5.408-26.95-15.229-36.771-9.821-9.82-22.88-15.229-36.771-15.229h-4.631c-6.324-17.586-23.311-30-42.56-30h-86.369c-12.073 0-23.421 4.698-31.952 13.229-8.537 8.538-13.238 19.888-13.238 31.96-.001 24.919 20.272 45.191 45.19 45.191zm-17.811-63.008c4.754-4.753 11.079-7.371 17.811-7.371h86.369c12.397 0 23.109 9.227 24.918 21.462.725 4.905 4.935 8.538 9.893 8.538h12.38c8.549 0 16.586 3.328 22.629 9.371s9.371 14.08 9.371 22.629c0 17.645-14.355 32-32 32h-45c-9.782 0-19.095-3.236-24.304-8.446-3.467-3.467-6.979-18.84-7.688-25.844-.345-5.168-4.788-9.331-9.978-9.331h-46.59c-13.89 0-25.19-11.3-25.19-25.19-.001-6.73 2.62-13.059 7.379-17.818z"/></g></svg>