<svg id="Capa_1" enable-background="new 0 0 501.197 501.197" height="512" viewBox="0 0 501.197 501.197" width="512" xmlns="http://www.w3.org/2000/svg"><g><path d="m500.841 315.864c-.478-3.364-1.147-6.331-3.949-8.562-2.582-2.057-6.093-2.71-9.243-1.719-3.08.969-5.553 3.45-6.526 6.527-.962 3.044.074 6.075.074 9.164 0 40.728-33.135 73.862-73.862 73.862-40.729 0-73.863-33.135-73.863-73.862 0-23.991 11.505-45.339 29.279-58.84l39.615 68.617c2.916 5.05 9.73 6.514 14.479 3.131 4.137-2.947 5.378-8.737 2.841-13.131l-39.514-68.442c8.414-3.34 17.573-5.197 27.162-5.197 11.198 0 21.95 2.439 31.957 7.25 4.979 2.393 10.951.298 13.346-4.68 2.393-4.978.298-10.953-4.68-13.346-12.732-6.121-26.4-9.225-40.623-9.225-13.258 0-25.879 2.769-37.325 7.749l-49.862-85.591c17.76-4.713 46.158-17.38 57.648-51.011 1.762-5.156-1.074-10.934-6.229-12.696-5.156-1.762-10.934 1.073-12.696 6.229-12.56 36.761-53.471 40.125-55.173 40.248-7.269.474-11.665 8.7-7.988 15.013l18.208 31.254h-137.583l-13.577-22.252h31.427c8.076 0 12.864-9.546 7.986-16.019-15.797-20.959-42.324-46.049-78.991-46.549-22.331-.297-37.81 8.927-38.457 9.32-2.986 1.813-4.809 5.054-4.809 8.547 0 11.094 5.427 22.502 14.889 31.301 9.158 8.516 20.735 13.399 31.762 13.399h12.775c.032.054.057.111.09.165l19.663 32.228-27.352 47.376c-11.592-5.133-24.406-7.991-37.878-7.991-51.756.002-93.862 42.108-93.862 93.864s42.106 93.862 93.862 93.862c46.98 0 86.007-34.694 92.81-79.807h63.401c3.518 0 6.922-1.947 8.685-5l71.66-124.119 22.207 38.119c-23.694 17.055-39.153 44.866-39.153 76.223 0 51.756 42.106 93.862 93.863 93.862 51.756 0 93.862-42.106 93.862-93.862 0-2.639-.114-3.722-.356-5.409zm-392.42-187.554c-3.478-3.234-6.041-7.01-7.401-10.765 4.906-1.82 12.584-3.903 21.885-3.759 17.455.238 33.958 7.813 49.252 22.569h-45.593c-5.942.001-12.724-3.007-18.143-8.045zm62.311 80.277 62.045 107.464h-45.246c-1.803-28.698-16.557-53.935-38.473-69.924zm-3.267 107.464h-58.777l30.296-52.473c15.992 12.38 26.774 31.161 28.481 52.473zm-73.603 79.807c-40.728 0-73.862-33.135-73.862-73.863s33.134-73.862 73.862-73.862c9.831 0 19.212 1.947 27.799 5.448l-38.953 67.469c-3.784 6.553 1.118 15 8.66 15h74.999c-6.584 34.027-36.583 59.808-72.505 59.808zm156.236-89.807-62.033-107.443h124.065z"/><circle cx="477.583" cy="273.691" r="10"/></g></svg>