<svg id="Layer_1" enable-background="new 0 0 512 512" height="512" viewBox="0 0 512 512" width="512" xmlns="http://www.w3.org/2000/svg"><path d="m363.5 512h-115c-26.536-1.056-26.516-38.953 0-40h115c44.112 0 80-35.888 80-80v-272c0-25.398-11.665-48.729-32.005-64.01-8.831-6.635-10.611-19.172-3.977-28.003s19.172-10.613 28.004-3.977c30.491 22.907 47.978 57.894 47.978 95.99v272c0 66.168-53.832 120-120 120zm-175-20v-472c0-11.046-8.954-20-20-20h-20c-66.168 0-120 53.832-120 120v272c0 66.168 53.832 120 120 120h20c11.046 0 20-8.954 20-20zm-40-20c-44.112 0-80-35.888-80-80v-272c0-44.112 35.888-80 80-80zm185.83-240.024c-8.496 0-16.864-3.17-23.32-9.201l-12.51-11.552-12.51 11.552c-21.566 20.331-57.627 4.658-57.49-24.972v-177.803c0-11.046 8.954-20 20-20h100c11.046 0 20 8.954 20 20v177.803c0 13.638-8.089 25.948-20.606 31.362-4.372 1.89-8.987 2.811-13.564 2.811zm-35.83-67.976c4.869 0 9.737 1.769 13.568 5.307l16.432 15.173v-144.48h-60v144.48l16.432-15.174c3.831-3.537 8.699-5.306 13.568-5.306z"/></svg>