<svg id="Layer_1" enable-background="new 0 0 512 512" height="512" viewBox="0 0 512 512" width="512" xmlns="http://www.w3.org/2000/svg"><path d="m465.838 425.365c8.595-11.487 13.691-25.737 13.691-41.155 0-9.287 0-28.945 0-38.044 0-30.709-24.984-55.692-55.693-55.692h-26.274c-30.709 0-55.692 24.983-55.692 55.692v38.044c0 15.418 5.095 29.668 13.691 41.155-9.483 2.645-18.074 7.443-25.202 13.85l-59.573-41.256v-160.756h82.241c8.284 0 15-6.716 15-15v-9.894c0-16.612-6.423-32.372-18.087-44.376-9.476-9.753-21.426-15.987-34.359-18.089 9.975-12.801 15.939-28.874 15.939-46.323 0-10.313 0-30.011 0-40.389 0-34.811-28.322-63.132-63.133-63.132h-24.774c-33.219 0-60.509 25.795-62.937 58.405-.38.039-.125 43.851-.196 45.117 0 17.449 5.964 33.521 15.939 46.323-12.934 2.103-24.884 8.336-34.359 18.089-11.664 12.004-18.087 27.764-18.087 44.376v9.894c0 8.284 6.716 15 15 15h81.812v160.435l-65.688 42.338c-6.16-4.802-13.226-8.487-20.901-10.749 8.411-11.3 13.397-25.293 13.397-40.431-.665-23.72 4.587-53.928-13.188-73.01.164-1.881.181-3.775.177-5.938l-.001-1.015c0-30.486-24.797-55.531-55.277-55.829-14.726-.136-28.766 5.607-39.439 16.193-10.795 10.707-16.972 25.506-16.947 40.603.005 2.898.064 5.444.446 8.084-7.188 9.291-11.481 20.929-11.481 33.558v37.354c0 15.138 4.986 29.131 13.397 40.431-26.141 7.705-45.28 31.907-45.28 60.509v7.263c0 8.284 6.716 15 15 15h169.476c8.284 0 15-6.716 15-15v-7.263c0-9.314-2.045-18.154-5.684-26.119l61.694-39.765 57.936 40.124c-2.594 6.896-4.024 14.357-4.024 22.148v10.875c0 8.284 6.716 15 15 15h172.602c8.284 0 15-6.716 15-15v-10.874c0-28.923-19.572-53.345-46.162-60.761zm-255.359-321.844v-18.35c17.697 8.016 58.308 16.208 91.04 13.459v4.891c0 25.1-20.42 45.521-45.52 45.521h-.001c-25.099 0-45.519-20.421-45.519-45.521zm33.133-73.521h24.774c18.27 0 33.133 14.863 33.133 33.133v5.438c-45.394 2.87-75.964-8.836-89.45-15.569 4.292-13.329 16.806-23.002 31.543-23.002zm-37.371 149.042h99.517c15.812 0 29.406 12.449 31.87 28.161h-163.257c2.464-15.712 16.058-28.161 31.87-28.161zm165.628 205.168v-16.146l77.66 13.793v2.353c-2.139 51.526-75.54 51.486-77.66 0zm25.693-63.736h26.274c14.167 0 25.693 11.525 25.693 25.692v5.223l-76.269-13.546c3.467-10.093 13.047-17.369 24.302-17.369zm-335.68 68.322v-8.641h75.711v8.641c-2.085 50.233-73.645 50.194-75.711 0zm75.678-38.641h-75.645c.672-13.165 11.594-23.67 24.923-23.67h25.799c13.329 0 24.251 10.505 24.923 23.67zm-38.549-67.153c9.951.098 18.587 5.902 22.81 14.266-2.989-.505-6.054-.782-9.184-.782h-25.799c-3.763 0-7.439.382-10.991 1.106 1.315-2.602 3.042-5.01 5.144-7.094 4.939-4.899 11.332-7.58 18.02-7.496zm-68.098 198.998c3.493-14.523 16.593-25.349 32.173-25.349h73.304c9.787 0 18.594 4.274 24.657 11.051.458.645.957 1.246 1.495 1.796 2.825 3.641 4.91 7.883 6.021 12.502zm308.741 0c2.038-16.303 15.984-28.96 32.83-28.96h76.429c16.847 0 30.793 12.657 32.831 28.96z"/></svg>