<svg id="Layer_1" enable-background="new 0 0 511.882 511.882" height="512" viewBox="0 0 511.882 511.882" width="512" xmlns="http://www.w3.org/2000/svg"><path d="m511.881 255.515c0-33.982-16.631-65.237-44.129-84.239 1.958-7.979 2.942-16.179 2.938-24.501-.035-55.628-45.305-101.546-100.914-102.359-9.216-.132-18.25.937-27.024 3.191-38.966-63.061-133.38-63.373-172.907-.69-7.753-1.752-15.708-2.603-23.763-2.505-64.592-.11-114.359 63.823-98.492 126.377-12.225 7.771-22.709 18.075-30.738 30.29-45.032 68.146 5.715 158.861 86.795 158.626h126.612c6.778 46.76 44.682 83.573 91.955 88.68v18.148c0 24.946 20.295 45.242 45.241 45.242h29.993c8.284 0 15-6.716 15-15v-49.405c35.302-7.334 61.912-38.677 61.912-76.122v-35.455c2.511-2.091 4.94-4.306 7.275-6.651 19.624-19.71 30.366-45.88 30.246-73.627zm-460.867 52.096c-35.397-34.599-23.694-95.66 20.848-115.992 7.121-3.331 10.461-11.595 7.656-18.939-3.161-8.275-4.758-16.999-4.747-25.931.049-39.463 32.184-71.914 71.634-72.339 8.771-.097 17.399 1.364 25.565 4.337 7.264 2.643 15.346-.667 18.669-7.645 26.314-55.183 105.773-54.679 131.287.894 3.345 7.277 11.814 10.641 19.242 7.645 8.948-3.61 18.433-5.369 28.169-5.228 49.283.07 84.892 52.469 66.609 98.256-2.711 7.102.318 15.109 7.053 18.637 23.982 12.564 38.881 37.167 38.881 64.273.086 19.774-7.551 38.381-21.503 52.394-13.953 14.013-32.526 21.73-52.301 21.73h-163.256c-.43-.038-.865-.038-1.296 0h-5.889c13.355-13.977 22.579-31.932 25.693-51.885h70.016c72.138-2.992 72.098-105.766 0-108.738-8.284 0-15 6.716-15 15s6.716 15 15 15c13.438 0 24.369 10.932 24.369 24.369s-10.932 24.369-24.369 24.369h-70.016c-7.231-46.325-47.401-81.885-95.723-81.885-8.284 0-15 6.716-15 15s6.716 15 15 15c88.735 3.672 88.703 130.114 0 133.77h-63.958c-19.861.001-38.554-7.845-52.633-22.092zm316.442 174.163c-8.404 0-15.241-6.837-15.241-15.242v-17.537h30.234v32.778h-14.993zm76.905-110.526c0 26.328-21.419 47.748-47.747 47.748h-63.118c-35.834 0-65.824-25.491-72.795-59.292h147.376c12.59 0 24.832-2.232 36.284-6.495z"/></svg>