<svg id="Layer_1" enable-background="new 0 0 511.684 511.684" height="512" viewBox="0 0 511.684 511.684" width="512" xmlns="http://www.w3.org/2000/svg"><path d="m496.684 114.515h-107.045v-38.15c0-41.118-33.452-74.569-74.569-74.569h-118.451c-41.118 0-74.569 33.451-74.569 74.569v38.15h-107.046c-7.66-.095-15.209 6.619-15 15v365.375c0 8.284 6.716 15 15 15h481.68c8.284 0 15-6.716 15-15v-365.375c0-8.285-6.715-15-15-15zm-110.38 235.349h-35.181c.036-11.911-.01-43.674 0-56.011h35.181zm-35.181 30h35.181v15.389c-.969 23.343-34.221 23.324-35.181 0zm50.181-116.011h-65.181c-8.284 0-15 6.716-15 15v39.594h-120.838v-39.594c0-8.284-6.716-15-15-15h-65.181c-8.284 0-15 6.716-15 15v39.594h-24.287c-2.482 0-4.665-1.652-5.346-4.03l-41.375-169.902h442.8l-38.193 169.793c-.646 2.442-2.842 4.14-5.376 4.14h-17.021v-39.594c-.002-8.285-6.718-15.001-15.002-15.001zm-231.019 86.011h-35.181v-56.011h35.181zm-35.181 30h35.181v15.389c-.969 23.342-34.22 23.325-35.181 0zm61.515-348.069h118.451c19.314 0 35.792 12.352 41.965 29.569h-202.382c6.173-17.217 22.651-29.569 41.966-29.569zm-44.57 59.569h207.59v23.15h-207.59zm-122.045 388.526v-225.383l16.366 67.206c.025.102.05.202.077.302 4.134 15.563 18.267 26.433 34.369 26.433h24.287v46.806c0 26.241 21.349 47.591 47.59 47.591 26.242 0 47.591-21.35 47.591-47.591 0-10.82 0-36.468 0-46.806h120.838v46.806c0 26.241 21.349 47.591 47.591 47.591 26.241 0 47.59-21.35 47.59-47.591v-46.806h17.021c16.42 0 30.623-11.138 34.537-27.086.023-.094.045-.188.066-.283l13.756-61.153v219.964z"/></svg>