<svg id="Layer_1" enable-background="new 0 0 512.332 512.332" height="512" viewBox="0 0 512.332 512.332" width="512" xmlns="http://www.w3.org/2000/svg"><path d="m432.161 256.001c0 11.046-8.954 20-20 20h-222.625c2.6 51.008 15.009 96.221 24.604 127.012 3.286 10.546-2.599 21.759-13.145 25.045-10.26 3.282-21.786-2.503-25.044-13.145-10.394-33.358-23.869-82.615-26.462-138.913h-49.327c-26.536-1.056-26.516-38.953 0-40h49.424c2.826-55.489 16.193-104.024 26.532-137.018 3.303-10.541 14.527-16.411 25.065-13.104 10.541 3.303 16.408 14.524 13.105 25.065-9.528 30.407-21.816 74.871-24.642 125.057h133.803c-2.827-50.186-15.115-94.65-24.642-125.057-3.303-10.541 2.564-21.763 13.105-25.065 10.542-3.299 21.762 2.565 25.065 13.104 10.338 32.994 23.706 81.529 26.532 137.018h48.655c11.043.001 19.997 8.955 19.997 20.001zm5.019-181.019c-160.878-160.527-436.793-46.196-437.018 181.021-2.205 150.323 136.209 273.592 285.261 254.342 26.246-4.056 21.942-41.686-4.524-39.743-126.875 15.33-241.587-86.68-240.737-214.601-.001-119.102 96.896-216 215.999-216 127.24-.783 228.942 112.552 214.801 238.905-1.157 10.984 6.81 20.828 17.795 21.984 10.989 1.156 20.828-6.81 21.985-17.795 8.225-76.793-18.728-153.663-73.562-208.113zm-100.019 377.019c-11.046 0-20-8.954-20-20v-56c0-33.084 26.916-60 60-60h57c26.536 1.056 26.516 38.953 0 40h-57c-11.028 0-20 8.972-20 20v56c0 11.046-8.954 20-20 20zm169.142 54.143c7.811-7.811 7.811-20.475 0-28.285l-86-86c-19.512-18.017-46.293 8.795-28.284 28.285l86 86c3.905 3.905 9.023 5.857 14.142 5.857s10.237-1.952 14.142-5.857z"/></svg>