<?xml version="1.0" encoding="iso-8859-1"?>
<!-- Generator: Adobe Illustrator 18.0.0, SVG Export Plug-In . SVG Version: 6.00 Build 0)  -->
<!DOCTYPE svg PUBLIC "-//W3C//DTD SVG 1.1//EN" "http://www.w3.org/Graphics/SVG/1.1/DTD/svg11.dtd">
<svg version="1.1" id="Capa_1" xmlns="http://www.w3.org/2000/svg" xmlns:xlink="http://www.w3.org/1999/xlink" x="0px" y="0px"
	 viewBox="0 0 232.974 232.974"  xml:space="preserve">
<g>
	<path d="M212.261,20.678H20.699C9.286,20.678,0,29.964,0,41.378v150.205c0,11.421,9.286,20.713,20.699,20.713h191.561
		c11.421,0,20.713-9.292,20.713-20.713V41.378C232.974,29.964,223.682,20.678,212.261,20.678z M20.699,35.678h191.561
		c3.15,0,5.713,2.557,5.713,5.7v25.871H15V41.378C15,38.235,17.557,35.678,20.699,35.678z M212.261,197.296H20.699
		c-3.143,0-5.699-2.563-5.699-5.713V82.249h202.974v109.334C217.974,194.733,215.411,197.296,212.261,197.296z"/>
	<path d="M38.615,57.463h56.743c3.313,0,6-2.687,6-6s-2.687-6-6-6H38.615c-3.313,0-6,2.687-6,6S35.302,57.463,38.615,57.463z"/>
	<path d="M191.846,58.967c1.971,0,3.9-0.8,5.301-2.2c1.399-1.4,2.199-3.33,2.199-5.3c0-1.98-0.8-3.91-2.199-5.31
		c-1.4-1.39-3.33-2.19-5.301-2.19c-1.98,0-3.909,0.8-5.31,2.19c-1.4,1.4-2.2,3.33-2.2,5.31c0,1.97,0.8,3.9,2.2,5.3
		C187.936,58.167,189.866,58.967,191.846,58.967z"/>
	<path d="M164.846,58.967c1.971,0,3.9-0.8,5.301-2.2c1.399-1.4,2.199-3.33,2.199-5.3c0-1.98-0.8-3.91-2.199-5.31
		c-1.4-1.39-3.33-2.19-5.301-2.19c-1.98,0-3.909,0.8-5.31,2.19c-1.39,1.4-2.19,3.33-2.19,5.31c0,1.97,0.801,3.9,2.19,5.3
		C160.936,58.167,162.866,58.967,164.846,58.967z"/>
	<path d="M137.846,58.967c1.971,0,3.9-0.8,5.301-2.2c1.39-1.4,2.199-3.33,2.199-5.3c0-1.98-0.81-3.91-2.199-5.31
		c-1.4-1.39-3.33-2.19-5.301-2.19c-1.98,0-3.909,0.8-5.31,2.19c-1.39,1.4-2.19,3.33-2.19,5.31c0,1.97,0.801,3.9,2.19,5.3
		C133.936,58.167,135.866,58.967,137.846,58.967z"/>
	<path d="M88.115,114.761h56.743c4.143,0,7.5-3.358,7.5-7.5c0-4.142-3.357-7.5-7.5-7.5H88.115c-4.143,0-7.5,3.358-7.5,7.5
		C80.615,111.403,83.973,114.761,88.115,114.761z"/>
	<path d="M180.324,132.272H52.65c-4.143,0-7.5,3.358-7.5,7.5c0,4.142,3.357,7.5,7.5,7.5h127.674c4.143,0,7.5-3.358,7.5-7.5
		C187.824,135.63,184.467,132.272,180.324,132.272z"/>
	<path d="M180.324,164.784H52.65c-4.143,0-7.5,3.358-7.5,7.5c0,4.142,3.357,7.5,7.5,7.5h127.674c4.143,0,7.5-3.358,7.5-7.5
		C187.824,168.142,184.467,164.784,180.324,164.784z"/>
</g>
<g>
</g>
<g>
</g>
<g>
</g>
<g>
</g>
<g>
</g>
<g>
</g>
<g>
</g>
<g>
</g>
<g>
</g>
<g>
</g>
<g>
</g>
<g>
</g>
<g>
</g>
<g>
</g>
<g>
</g>
</svg>
