<svg id="Capa_1" enable-background="new 0 0 499.642 499.642" height="512" viewBox="0 0 499.642 499.642" width="512" xmlns="http://www.w3.org/2000/svg"><g><path d="m467.734 163.413h-9.484v-10.857c0-22.056-17.944-40-40-40h-145.75c-5.522 0-10 4.477-10 10s4.478 10 10 10h145.75c11.028 0 20 8.972 20 20v59.333h-138.6v-47.803c0-5.523-4.478-10-10-10s-10 4.477-10 10v47.803h-98.67v-47.803c0-5.523-4.478-10-10-10s-10 4.477-10 10v47.803h-140.98v-59.333c0-11.028 8.972-20 20-20h143c5.522 0 10-4.477 10-10s-4.478-10-10-10h-143c-22.056 0-40 17.944-40 40v154.96c0 22.056 17.944 40 40 40h10.523c5.013 22.607 25.207 39.569 49.3 39.569s44.288-16.962 49.3-39.569h153.334c5.013 22.607 25.207 39.569 49.3 39.569s44.288-16.962 49.3-39.569h14.751c23.401 0 42.44-19.034 42.44-42.43v-121.673h9.484c6.565 0 11.907 5.341 11.907 11.907v24.766c0 5.523 4.478 10 10 10s10-4.477 10-10v-24.766c.003-17.593-14.311-31.907-31.905-31.907zm-367.911 203.672c-16.821 0-30.507-13.685-30.507-30.507s13.686-30.507 30.507-30.507 30.507 13.685 30.507 30.507-13.685 30.507-30.507 30.507zm251.935 0c-16.821 0-30.507-13.685-30.507-30.507s13.686-30.507 30.507-30.507 30.507 13.685 30.507 30.507-13.686 30.507-30.507 30.507zm64.052-39.569h-14.375c-4.284-23.538-24.922-41.444-49.677-41.444s-45.392 17.907-49.677 41.444h-152.581c-4.284-23.538-24.922-41.444-49.677-41.444s-45.392 17.907-49.677 41.444h-10.146c-11.028 0-20-8.972-20-20v-75.627h418.25v73.197c0 12.368-10.066 22.43-22.44 22.43z"/><circle cx="99.74" cy="336.911" r="10"/><circle cx="351.823" cy="336.911" r="10"/><circle cx="227" cy="122.586" r="10"/><path d="m267.25 251.557h-118.622c-5.522 0-10 4.477-10 10s4.478 10 10 10h118.622c5.522 0 10-4.477 10-10s-4.478-10-10-10z"/><circle cx="311.833" cy="261.753" r="10"/></g></svg>