<svg id="Capa_1" enable-background="new 0 0 510 510" height="512" viewBox="0 0 510 510" width="512" xmlns="http://www.w3.org/2000/svg"><g><path d="m337.834 197.302h-165.668c-22.056 0-40 17.944-40 40v187.487c0 22.056 17.944 40 40 40h165.668c22.056 0 40-17.944 40-40v-187.487c0-22.056-17.944-40-40-40zm-165.668 20h165.668c11.028 0 20 8.972 20 20v81h-92.834v-48.887c0-5.522-4.477-10-10-10s-10 4.478-10 10v48.887h-92.834v-81c0-11.029 8.972-20 20-20zm165.668 227.487h-165.668c-11.028 0-20-8.972-20-20v-86.487h205.668v86.487c0 11.028-8.972 20-20 20z"/><path d="m268.386 403.539h-72.272c-5.523 0-10 4.478-10 10s4.477 10 10 10h72.272c5.523 0 10-4.478 10-10s-4.477-10-10-10z"/><circle cx="313.886" cy="413.723" r="10"/><path d="m500 66.723h-215.652c-4.009-12.464-15.711-21.512-29.491-21.512s-25.482 9.047-29.491 21.512h-215.366c-5.523 0-10 4.478-10 10s4.477 10 10 10h215.73c3.208 8.84 10.333 15.81 19.266 18.819v52.095h-48.883c-5.523 0-10 4.478-10 10s4.477 10 10 10h117.773c5.523 0 10-4.478 10-10s-4.477-10-10-10h-48.891v-52.19c8.802-3.059 15.813-9.977 18.987-18.724h216.018c5.523 0 10-4.478 10-10s-4.477-10-10-10zm-245.143 20.437c-6.051 0-10.975-4.923-10.975-10.975s4.923-10.975 10.975-10.975 10.975 4.923 10.975 10.975-4.924 10.975-10.975 10.975z"/></g></svg>