<svg id="Layer_1" enable-background="new 0 0 512 512" height="512" viewBox="0 0 512 512" width="512" xmlns="http://www.w3.org/2000/svg"><path d="m153 321c0 13.807-11.193 25-25 25-33.162-1.317-33.153-48.688 0-50 13.807 0 25 11.193 25 25zm61-25c-13.807 0-25 11.193-25 25 1.317 33.162 48.688 33.153 50 0 0-13.807-11.193-25-25-25zm86 0c-13.807 0-25 11.193-25 25 1.317 33.162 48.688 33.153 50 0 0-13.807-11.193-25-25-25zm-172 86c-13.807 0-25 11.193-25 25 1.317 33.162 48.688 33.153 50 0 0-13.807-11.193-25-25-25zm86 0c-13.807 0-25 11.193-25 25 1.317 33.162 48.688 33.153 50 0 0-13.807-11.193-25-25-25zm86 0c-13.807 0-25 11.193-25 25 1.317 33.162 48.688 33.153 50 0 0-13.807-11.193-25-25-25zm86 0c-13.807 0-25 11.193-25 25 1.317 33.162 48.688 33.153 50 0 0-13.807-11.193-25-25-25zm126-154v164c0 66.168-53.832 120-120 120h-272c-66.168 0-120-53.832-120-120v-164c0-66.168 53.832-120 120-120h272c66.168 0 120 53.832 120 120zm-40 0c0-44.112-35.888-80-80-80h-272c-44.112 0-80 35.888-80 80v164c0 44.112 35.888 80 80 80h272c44.112 0 80-35.888 80-80zm-60-10h-312c-26.536 1.056-26.516 38.953 0 40h312c26.536-1.056 26.516-38.953 0-40zm-210-158c0 11.046-8.954 20-20 20s-20-8.954-20-20c0-11.028-8.972-20-20-20s-20 8.972-20 20c0 11.046-8.954 20-20 20s-20-8.954-20-20c3.298-79.601 116.717-79.572 120 0zm170-60c-33.084 0-60 26.916-60 60 0 11.046 8.954 20 20 20s20-8.954 20-20c0-11.028 8.972-20 20-20s20 8.972 20 20c0 11.046 8.954 20 20 20s20-8.954 20-20c0-33.084-26.916-60-60-60zm14 296c-13.807 0-25 11.193-25 25 1.317 33.162 48.688 33.153 50 0 0-13.807-11.193-25-25-25z"/></svg>