<svg id="Capa_1" enable-background="new 0 0 507.333 507.333" height="512" viewBox="0 0 507.333 507.333" width="512" xmlns="http://www.w3.org/2000/svg"><g><circle cx="351.417" cy="310.217" r="10"/><path d="m497.333 476.34h-35.413l-79.509-132.855c-2.836-4.739-8.977-6.283-13.716-3.445-4.739 2.836-6.282 8.977-3.445 13.716l73.362 122.585h-42.309l-134.63-234.601c-1.783-3.106-5.091-5.022-8.673-5.022s-6.891 1.916-8.673 5.022l-134.631 234.6h-42.309l185.593-310.118 66.595 111.78c2.826 4.744 8.964 6.299 13.709 3.473s6.299-8.964 3.473-13.709l-75.167-126.167c-1.802-3.024-5.061-4.878-8.581-4.882-.003 0-.006 0-.01 0-3.516 0-6.775 1.847-8.581 4.865l-200.338 334.758h-32.58c-5.523 0-10 4.477-10 10s4.477 10 10 10h485.833c5.523 0 10-4.477 10-10s-4.477-10-10-10zm-244.333-209.532 120.244 209.532h-110.244v-100.29c0-5.523-4.477-10-10-10s-10 4.477-10 10v100.29h-110.244z"/><path d="m45.855 139.715h87.903c12.247 0 23.762-4.77 32.424-13.431 6.538-6.539 10.858-14.703 12.584-23.581h28.379c12.248 0 23.763-4.77 32.424-13.431s13.431-20.176 13.431-32.423c0-25.285-20.57-45.855-45.855-45.855h-98.833c-12.248 0-23.763 4.77-32.424 13.431-6.538 6.539-10.859 14.703-12.584 23.581h-17.449c-12.248 0-23.763 4.77-32.424 13.431s-13.431 20.176-13.431 32.423c0 25.285 20.57 45.855 45.855 45.855zm-18.282-64.136c4.883-4.884 11.376-7.573 18.282-7.573h26.625c2.706 0 5.295-1.096 7.179-3.038 1.883-1.942 2.899-4.564 2.816-7.269-.008-.281-.019-.569-.019-.85 0-6.905 2.689-13.398 7.574-18.282 4.883-4.883 11.375-7.573 18.281-7.573h98.833c14.256 0 25.855 11.599 25.855 25.855 0 6.905-2.689 13.398-7.573 18.282-4.883 4.884-11.376 7.573-18.282 7.573h-37.554c-2.703 0-5.291 1.102-7.174 3.042-1.883 1.939-2.901 4.566-2.821 7.268.008.28.018.567.018.847 0 6.905-2.689 13.398-7.573 18.282s-11.377 7.573-18.282 7.573h-87.903c-14.256-.001-25.855-11.599-25.855-25.856 0-6.905 2.689-13.398 7.573-18.281z"/><path d="m350.002 148.715h26.033c4.769 17.424 20.603 30 39.527 30h49.44c10.951 0 21.247-4.265 28.991-12.009s12.009-18.04 12.009-28.991c0-22.431-18.107-40.712-40.472-40.997-4.767-17.426-20.602-30.003-39.528-30.003h-76c-10.951 0-21.247 4.265-28.991 12.009s-12.009 18.04-12.009 28.991c0 22.608 18.393 41 41 41zm-14.848-55.848c3.966-3.967 9.24-6.151 14.849-6.151h76c11.412 0 20.629 8.922 20.985 20.312.168 5.399 4.594 9.688 9.995 9.688h8.02c11.58 0 21 9.42 21 21 0 5.609-2.185 10.882-6.151 14.849s-9.24 6.151-14.849 6.151h-49.44c-11.412 0-20.629-8.922-20.985-20.312-.168-5.399-4.594-9.688-9.995-9.688h-34.58c-11.58 0-21-9.42-21-21-.001-5.61 2.184-10.883 6.151-14.849z"/></g></svg>