<svg id="Capa_1" enable-background="new 0 0 502.921 502.921" height="512" viewBox="0 0 502.921 502.921" width="512" xmlns="http://www.w3.org/2000/svg"><g><path d="m502.378 317.749c-.226-16.244-10.127-30.618-25.224-36.617l-98.069-38.971c-.023-.033-.049-.064-.072-.096l-37.699-95.222h28.024c5.522 0 10-4.477 10-10s-4.478-10-10-10h-21.335v-40.341c0-15.856-12.899-28.756-28.756-28.756h-113.375c-12.179 0-22.607 7.614-26.792 18.33h-85.87c-15.858 0-28.76 12.902-28.76 28.76v22.006h-14.446c-5.523 0-10 4.477-10 10s4.477 10 10 10l31.114.004-42.945 102.79c-21.211.959-38.173 18.516-38.173 39.959v67.58c0 22.056 17.944 40 40 40h7.659c5.033 27.271 28.972 48 57.677 48s52.645-20.729 57.677-48h30.323c5.523 0 10-4.477 10-10s-4.477-10-10-10h-30.084c-4.485-27.928-28.744-49.333-57.916-49.333s-53.431 21.406-57.916 49.333h-7.42c-11.028 0-20-8.972-20-20v-67.58c0-11.028 8.972-20 20-20 0 0 271.012.005 271.032.001l56.054-10.717c.185.087 102.682 40.838 102.682 40.838 7.549 3 12.499 10.187 12.612 18.309l.539 38.872c.075 5.394-1.97 10.48-5.758 14.321s-8.846 5.957-14.24 5.957h-27.669c-4.485-27.928-28.743-49.333-57.915-49.333s-53.431 21.406-57.916 49.333h-35.418c-5.522 0-10 4.477-10 10s4.478 10 10 10h35.656c5.033 27.271 28.972 48 57.677 48s52.644-20.729 57.677-48h27.907c10.79 0 20.904-4.231 28.48-11.913s11.665-17.854 11.516-28.642zm-397.042 30.093c21.321 0 38.667 17.346 38.667 38.667s-17.346 38.667-38.667 38.667-38.667-17.346-38.667-38.667c.001-21.321 17.347-38.667 38.667-38.667zm71.779-221.001h-31.165v-30.766h31.166v30.766zm150.888-40.339v40.339h-54v-49.095h45.244c4.828 0 8.756 3.928 8.756 8.756zm-122.131-8.756h48.131v49.096h-56.888v-40.34c0-4.828 3.928-8.756 8.757-8.756zm-121.422 27.089c0-4.831 3.93-8.76 8.76-8.76h32.74v30.766h-41.5zm-24.834 145.357 42.893-102.667h99.838v102.667h-86.643zm162.732 0v-102.667h97.726l36.813 92.985-48.878 9.682zm154.989 174.983c-21.321 0-38.667-17.346-38.667-38.667s17.346-38.667 38.667-38.667c21.32 0 38.666 17.346 38.666 38.667 0 21.322-17.346 38.667-38.666 38.667z"/><circle cx="377.67" cy="387.175" r="10"/><circle cx="104.67" cy="387.175" r="10"/><circle cx="238.837" cy="387.675" r="10"/></g></svg>