<svg id="Capa_1" enable-background="new 0 0 504.84 504.84" height="512" viewBox="0 0 504.84 504.84" width="512" xmlns="http://www.w3.org/2000/svg"><g><circle cx="122.115" cy="378.87" r="10"/><circle cx="374.198" cy="378.87" r="10"/><path d="m499.569 294.673-81.351-128.878h33.282c24.813 0 45-20.187 45-45s-20.187-45-45-45h-154.5c-5.522 0-10 4.478-10 10s4.478 10 10 10h154.5c13.785 0 25 11.215 25 25s-11.215 25-25 25h-86.286c-18.59 0-33.714 15.124-33.714 33.714v55.572c0 18.59 15.124 33.714 33.714 33.714h86.265c5.401 0 10.512 2.86 13.336 7.465l13.617 22.202h-40.932c-5.522 0-10 4.478-10 10s4.478 10 10 10h46.559l-8.788 38.823c-1.625 7.177-7.899 12.189-15.258 12.189h-36.204c-4.284-23.537-24.922-41.443-49.676-41.443-24.755 0-45.392 17.907-49.677 41.444h-15.956v-182.68c0-5.522-4.478-10-10-10h-86.5c-5.522 0-10 4.478-10 10v182.681h-30.125c-4.284-23.538-24.922-41.444-49.677-41.444s-45.392 17.907-49.677 41.444h-52.521v-273.681h186.5c5.522 0 10-4.478 10-10s-4.478-10-10-10h-196.5c-5.522 0-10 4.478-10 10v293.681c0 5.522 4.478 10 10 10h62.898c5.013 22.607 25.207 39.569 49.3 39.569s44.288-16.962 49.3-39.569h153.334c5.013 22.607 25.207 39.569 49.3 39.569 24.094 0 44.288-16.963 49.301-39.57h36.579c16.767 0 31.062-11.421 34.764-27.773l9.173-40.521c2.066-9.124.51-18.537-4.38-26.508zm-277.569-97.878h66.5v172.681h-66.5zm-99.802 212.25c-16.821 0-30.507-13.686-30.507-30.507s13.686-30.507 30.507-30.507 30.507 13.686 30.507 30.507-13.685 30.507-30.507 30.507zm251.935 0c-16.821 0-30.507-13.686-30.507-30.507s13.686-30.507 30.507-30.507 30.507 13.686 30.507 30.507-13.686 30.507-30.507 30.507zm-22.633-173.964v-55.572c0-7.562 6.152-13.714 13.714-13.714h29.352l52.399 83h-81.751c-7.562 0-13.714-6.153-13.714-13.714z"/><path d="m179.952 133.295c0-5.522-4.478-10-10-10h-106.404c-5.522 0-10 4.478-10 10v110c0 5.522 4.478 10 10 10h106.404c5.522 0 10-4.478 10-10zm-20 100h-86.404v-90h86.404z"/><path d="m63.548 273.295c-5.522 0-10 4.478-10 10s4.478 10 10 10h61.119c5.522 0 10-4.478 10-10s-4.478-10-10-10z"/><circle cx="251.5" cy="86.295" r="10"/><circle cx="169.833" cy="283.128" r="10"/></g></svg>