<svg id="Layer_1" enable-background="new 0 0 512.178 512.178" height="512" viewBox="0 0 512.178 512.178" width="512" xmlns="http://www.w3.org/2000/svg"><g><path d="m497.178.166h-337.866c-3.994 0-7.823 1.593-10.639 4.425l-144.312 145.182c-2.793 2.81-4.361 6.612-4.361 10.574v336.665c0 8.284 6.716 15 15 15h482.178c8.284 0 15-6.716 15-15v-481.846c0-8.284-6.716-15-15-15zm-408.089 392.589h93.989c2.245 11.211 7.008 21.787 13.981 31.042h-107.97zm125.012 0h83.228c-14.599 41.151-68.647 41.122-83.228 0zm114.25 0h93.99v31.042h-107.971c6.973-9.255 11.736-19.831 13.981-31.042zm-298.351-30v-87.344h29.089v44.13c0 8.284 6.716 15 15 15h363.252c8.284 0 15-6.716 15-15v-44.13h29.837v87.344zm392.341-87.344v29.13h-107.105c6.319-8.501 10.865-18.394 13.08-29.13zm-166.626 29.13c-19.069 0-35.348-12.159-41.501-29.13h83c-6.152 16.971-22.431 29.13-41.499 29.13zm-72.602-29.13c2.215 10.736 6.761 20.629 13.08 29.13h-107.104v-29.13zm-17.562-245.245h316.627v215.246h-452.178v-78.877l12.933-13.011h16.156v45.048c0 8.284 6.716 15 15 15h363.252c8.284 0 15-6.716 15-15v-121.567c0-8.284-6.716-15-15-15-68.544 0-222.32-.001-289.214 0v-14.31zm91.799 61.839c58.614 4.173 58.569 87.415 0 91.566h-3.271c-58.615-4.173-58.57-87.416 0-91.566zm58.756 0h106.235v91.566h-106.235c20.406-25.668 20.402-65.901 0-91.566zm-120.783 91.567h-106.234v-30.048h44.038c8.284 0 15-6.716 15-15v-46.519h47.196c-20.406 25.669-20.402 65.902 0 91.567zm-77.196-60.049h-45.374l45.374-45.647zm-88.127 358.489v-89.257h29.089v46.042c0 8.284 6.716 15 15 15h363.252c8.284 0 15-6.716 15-15v-46.042h29.837v89.257z"/><path d="m376.677 152.788c8.284 0 15-6.716 15-15-.79-19.897-29.213-19.892-30 0 0 8.285 6.715 15 15 15z"/></g></svg>