<svg id="Layer_1" enable-background="new 0 0 512 512" height="512" viewBox="0 0 512 512" width="512" xmlns="http://www.w3.org/2000/svg"><g><path d="m440.717 155.426 12.312-13.806c15.953-17.773 14.471-45.213-3.304-61.166-17.774-15.953-45.214-14.47-61.165 3.303l-10.504 11.701c-22.668-14.606-47.68-24.955-74.043-30.637v-34.821h28.608c8.284 0 15-6.716 15-15s-6.716-15-15-15h-153.417c-8.284 0-15 6.716-15 15s6.716 15 15 15h28.472v34.85c-32.264 6.975-62.501 20.944-88.889 41.148l-19.582-21.121 10.088-9.894c5.915-5.801 6.007-15.298.206-21.212-5.8-5.914-15.297-6.007-21.212-.206-10.314 10.116-30.947 30.353-41.036 40.247-5.915 5.801-6.007 15.298-.206 21.212 5.803 5.917 15.301 6.004 21.212.206l9.521-9.338 18.419 19.866c-.064.064-.13.125-.193.189-141.807 142.112-40.809 385.854 159.911 386.052 182.545.598 290.244-208.157 184.802-356.573zm-29.831-51.63c4.904-5.461 13.338-5.917 18.801-1.016 5.464 4.904 5.919 13.339.984 18.838l-9.149 10.259c-1.865-2.002-3.756-3.986-5.701-5.931-4.38-4.38-8.916-8.547-13.581-12.519zm-173.21-73.796h36.338v30.431c-12.007-.96-24.332-.956-36.338.012zm18.237 452c-108.155 0-196.146-87.99-196.146-196.145 10.774-260.214 381.556-260.138 392.291.001 0 108.154-87.991 196.144-196.145 196.144z"/><path d="m255.636 207.984c-8.284 0-15 6.716-15 15v63.183c0 8.284 6.716 15 15 15h26.098c19.902-.793 19.887-29.215 0-30h-11.098v-48.183c0-8.284-6.716-15-15-15z"/><path d="m311.014 410.933c-12.81 5.652-26.247 9.244-40.102 10.747v-15.429c-.793-19.902-29.215-19.887-30 0v15.425c-13.022-1.415-25.689-4.673-37.81-9.757-7.64-3.205-16.43.393-19.634 8.031-3.204 7.64.392 16.431 8.031 19.635 41.484 17.6 90.481 17.172 131.625-1.205 7.58-3.345 11.013-12.199 7.668-19.779-3.344-7.58-12.201-11.009-19.778-7.668z"/><path d="m412.102 227.656c-7.69-18.37-34.321-8.434-28.11 10.479 3.938 10.563 6.527 21.52 7.746 32.721h-19.569c-19.902.793-19.887 29.215 0 30h19.565c-1.286 11.815-4.091 23.353-8.401 34.448-2.999 7.723.83 16.414 8.552 19.413 7.522 2.981 16.419-.752 19.413-8.552 14.71-37.502 14.993-80.803.804-118.509z"/><path d="m207.263 158.127c10.849-4.136 22.119-6.84 33.65-8.095v18.025c.793 19.902 29.215 19.887 30 0v-18.023c12.035 1.31 23.78 4.195 35.065 8.642 7.51 3.017 16.422-.673 19.455-8.457 3.037-7.708-.75-16.418-8.458-19.455-38.059-15.148-82.169-15.385-120.398-.67-18.313 7.83-8.179 34.379 10.686 28.033z"/><path d="m137.996 270.855h-17.906c1.251-11.488 3.94-22.716 8.049-33.529 2.943-7.744-.949-16.408-8.693-19.351-7.744-2.946-16.407.949-19.35 8.692-14.389 37.498-14.414 80.668-.072 118.184 2.926 7.825 11.794 11.633 19.34 8.717 7.748-2.934 11.65-11.593 8.717-19.34-4.076-10.765-6.746-21.941-7.99-33.373h17.906c19.901-.792 19.886-29.214-.001-30z"/></g></svg>