<?xml version="1.0" encoding="UTF-8"?>
<!-- Generator: Adobe Illustrator 24.2.3, SVG Export Plug-In . SVG Version: 6.00 Build 0)  -->
<svg xmlns="http://www.w3.org/2000/svg" xmlns:xlink="http://www.w3.org/1999/xlink" version="1.1" id="Capa_1" x="0px" y="0px" viewBox="0 0 512 512" xml:space="preserve" width="512" height="512">
<g>
	<g>
		<path style="fill:#33CCCC;" d="M171.772,191.021v-25.267c-8.145-5.433-15.239-12.371-20.931-20.552    c-9.158-13.165-13.999-28.637-13.999-44.742c0-43.263,35.197-78.46,78.46-78.46s78.46,35.197,78.46,78.46    c0,26.819-13.299,51.005-34.929,65.326v11.726c6.353-3.63,13.705-5.707,21.531-5.707c1.81,0,3.594,0.113,5.346,0.329    c4.443-4.372,8.5-9.174,12.113-14.368c11.736-16.871,17.939-36.686,17.939-57.305C315.763,45.066,270.697,0,215.303,0    s-100.46,45.066-100.46,100.46c0,20.619,6.203,40.435,17.939,57.305C142.777,172.135,156.155,183.519,171.772,191.021z"/>
		<path style="fill:#33CCCC;" d="M439.359,512H162.845c-6.075,0-11-4.925-11-11s4.925-11,11-11h276.515c6.075,0,11,4.925,11,11    S445.435,512,439.359,512z"/>
	</g>
	<path d="M410.49,220.602c-8.57,0-16.571,2.49-23.315,6.784c-5.336-18.007-22.033-31.182-41.748-31.182   c-8.57,0-16.571,2.49-23.315,6.784c-5.336-18.007-22.032-31.182-41.747-31.182c-7.826,0-15.178,2.077-21.531,5.707v-76.035   c0-24.003-19.528-43.531-43.531-43.531s-43.531,19.528-43.531,43.531v196.381c-9.71-11.938-16.579-19.931-21.885-25.238   c-12.203-12.202-27.271-19.487-40.31-19.487c-33.666,0-47.292,17.464-49.682,20.965c-2.47,3.618-2.558,8.357-0.223,12.064   c0.436,0.691,13.892,24.178,56.093,120.636c9.573,21.883,22.055,36.217,33.067,48.863c10.525,12.086,18.719,21.536,21.702,34.338   h22.424c-3.146-20.761-15.039-34.436-27.534-48.786c-10.462-12.014-21.281-24.438-29.503-43.233   c-21.637-49.457-37.625-84.839-47.52-105.165c-2.094-4.303-3.903-7.899-5.409-10.757c4.688-3.195,13.059-6.926,26.585-6.926   c7.113,0,16.829,5.12,24.753,13.044c7.536,7.536,19.811,22.632,39.825,47.855c2.908,3.666,7.818,5.089,12.237,3.55   c4.419-1.541,7.379-5.708,7.379-10.387V101.477c0-11.872,9.659-21.531,21.531-21.531s21.531,9.659,21.531,21.531v178.921   c0,6.075,4.925,11,11,11s11-4.925,11-11v-65.062c0-11.872,9.659-21.531,21.531-21.531c11.872,0,21.531,9.659,21.531,21.531v65.062   c0,6.075,4.925,11,11,11s11-4.925,11-11v-40.664c0-11.873,9.659-21.531,21.531-21.531s21.531,9.659,21.531,21.531v40.664   c0,6.075,4.925,11,11,11s11-4.925,11-11v-16.266c0-11.873,9.659-21.531,21.531-21.531c11.872,0,21.531,9.659,21.531,21.531v130.125   c0,23.417-5.957,38.514-12.264,54.496c-4.898,12.412-9.926,25.178-11.571,41.247h22.145c1.549-11.996,5.481-21.998,9.89-33.171   c6.468-16.392,13.8-34.97,13.8-62.571V264.133C454.021,240.129,434.493,220.602,410.49,220.602z"/>
</g>















</svg>
