<svg id="Layer_1" enable-background="new 0 0 512.105 512.105" height="512" viewBox="0 0 512.105 512.105" width="512" xmlns="http://www.w3.org/2000/svg"><g><path d="m465.087 285.112v-63.301c0-20.948-14.188-39.843-39.953-53.206-48.598-25.503-131.318-24.729-177.591 5.818v-86.807c0-20.948-14.188-39.843-39.952-53.205-44.55-24.098-123.088-24.099-167.638 0-25.765 13.361-39.953 32.256-39.953 53.205v336.803c0 20.948 14.188 39.843 39.953 53.206 44.55 24.099 123.088 24.098 167.638 0 10.182-5.281 18.547-11.429 24.952-18.223 33.26 33.234 91.338 40.69 140.001 34.222 123.064 22.199 190.785-133.463 92.543-208.512zm-247.544-130.136c0 19.549-40.103 41.413-93.771 41.413s-93.772-21.864-93.772-41.413v-19.974c46.255 30.545 129.008 31.323 177.591 5.818 3.541-1.837 6.855-3.781 9.952-5.818zm-177.59 53.206c44.55 24.099 123.087 24.098 167.638 0 3.541-1.837 6.855-3.781 9.952-5.818v19.973c0 19.548-40.103 41.412-93.771 41.412s-93.772-21.863-93.772-41.412v-19.974c3.097 2.037 6.412 3.982 9.953 5.819zm0 67.36c48.602 25.504 131.315 24.728 177.59-5.818v19.973c0 19.549-40.103 41.413-93.771 41.413s-93.772-21.864-93.772-41.412v-19.973c3.097 2.036 6.412 3.981 9.953 5.817zm-9.953 61.543c46.255 30.545 129.008 31.323 177.591 5.818 3.541-1.837 6.855-3.781 9.952-5.818v19.973c0 19.549-40.103 41.413-93.771 41.413s-93.772-21.864-93.772-41.413zm217.543-.341c9.386 6.259 20.74 11.574 33.685 15.667-2.539 10.856-3.535 22.711-2.757 34.114-20.22-8.958-30.928-20.738-30.928-29.467zm44.206-12.459c-29.064-8.755-44.206-23.389-44.206-34.587v-20.499c3.097 2.037 6.412 3.981 9.953 5.818 16.699 8.661 37.282 14.439 59.538 16.882-10.214 9.188-18.803 20.147-25.285 32.386zm49.566-143.886c53.669 0 93.771 21.864 93.771 41.413 0 19.548-40.103 41.412-93.771 41.412-53.67 0-93.772-21.864-93.772-41.412 0-19.55 40.103-41.413 93.772-41.413zm-217.544-134.196c53.669 0 93.771 21.864 93.771 41.412 0 19.549-40.103 41.413-93.771 41.413s-93.771-21.864-93.771-41.412c0-19.549 40.103-41.413 93.771-41.413zm0 419.628c-53.668 0-93.771-21.863-93.771-41.412v-19.973c46.255 30.545 129.008 31.323 177.591 5.818 3.541-1.837 6.855-3.781 9.952-5.818v19.973c0 19.549-40.103 41.412-93.772 41.412zm123.772-41.412v-20.774c10.566 7.111 23.597 13.102 38.592 17.52 6.384 16.398 16.365 31.011 28.968 42.868-40.001-5.613-67.56-23.409-67.56-39.614zm147.647 41.412c-47.96 0-86.978-39.018-86.978-86.977 4.777-115.386 169.194-115.354 173.954.001.001 47.959-39.017 86.976-86.976 86.976z"/><path d="m395.19 320.363c-32.253 0-58.492 26.239-58.492 58.492 3.213 77.598 113.784 77.575 116.984 0 .001-32.253-26.239-58.492-58.492-58.492zm0 86.984c-15.711 0-28.492-12.782-28.492-28.492 1.565-37.799 55.425-37.788 56.984 0 .001 15.71-12.781 28.492-28.492 28.492z"/></g></svg>