<svg id="Capa_1" enable-background="new 0 0 510 510" height="512" viewBox="0 0 510 510" width="512" xmlns="http://www.w3.org/2000/svg"><g><path d="m466.47 112.9c-3.027-4.62-9.225-5.911-13.846-2.883-4.619 3.027-5.91 9.226-2.883 13.845 25.961 39.616 40.259 86.188 40.259 131.138 0 62.77-24.444 121.783-68.831 166.169-44.386 44.387-103.399 68.831-166.169 68.831s-121.783-24.444-166.169-68.831c-44.387-44.386-68.831-103.399-68.831-166.169s24.444-121.783 68.831-166.169c44.386-44.387 103.399-68.831 166.169-68.831 46.055 0 95.307 15.597 135.126 42.792 4.561 3.114 10.782 1.944 13.897-2.618 3.115-4.561 1.942-10.783-2.618-13.897-43.694-29.842-95.689-46.277-146.405-46.277-68.112 0-132.147 26.525-180.312 74.688-48.163 48.164-74.688 112.2-74.688 180.312s26.525 132.148 74.688 180.312c48.165 48.163 112.2 74.688 180.312 74.688s132.147-26.525 180.312-74.688c48.163-48.164 74.688-112.2 74.688-180.312 0-48.799-15.459-99.265-43.53-142.1z"/><path d="m405.145 103.136c-38.62-38.186-91.673-61.803-150.145-61.803-58.802 0-112.129 23.878-150.802 62.445-.777.578-1.447 1.261-2.01 2.049-37.627 38.535-60.855 91.189-60.855 149.173 0 57.85 23.12 110.394 60.593 148.905.555.781 1.216 1.459 1.984 2.032 38.696 38.734 92.143 62.729 151.09 62.729 59.007 0 112.501-24.045 151.206-62.848.772-.575 1.436-1.255 1.993-2.041 37.399-38.5 60.468-90.991 60.468-148.777 0-58.293-23.475-111.199-61.455-149.788-.579-.802-1.268-1.494-2.067-2.076zm43.114 139.461-114.871-23.821 66.688-91.921c27.653 31.271 45.373 71.511 48.183 115.742zm-47.377 139.639-67.494-91.012 114.871-23.821c-2.783 43.802-20.183 83.694-47.377 114.833zm-339.141-114.833 114.871 23.821-67.392 91.128c-27.251-31.157-44.692-71.092-47.479-114.949zm47.695-139.996 67.177 91.37-114.872 23.82c2.794-43.971 20.32-83.999 47.695-115.19zm244.48 225.511-58.458-40.75 2.78-13.935 13.929-2.778zm-197.667-196.007 58.868 41.304-2.843 13.45-14.44 2.88zm128.054 87.95h-58.606l29.303-142.092zm-76.531-11.905-3.99 18.875c-.482 1.51-.614 3.156-.309 4.825l4.057 20.34-107.523-21.996zm-9.939 62.5 13.932 2.778 2.779 13.934-58.407 40.806zm27.665-30.595h59.001l-29.499 145.132zm76.976 12.134 3.989-19.994c.373-1.693.281-3.521-.245-5.17l-3.99-18.875 107.765 22.044zm9.693-62.451-14.44-2.88-2.843-13.45 58.613-41.565zm-21.738-37.401-23.173-115.41c44.436 2.789 84.85 20.626 116.199 48.468zm-70.858 0-93.578-66.453c31.426-28.123 72.055-46.153 116.751-48.958zm-.795 156.244 5.573 27.94c.006.033.013.066.02.099l18.228 86.831c-44.753-2.843-85.422-20.948-116.846-49.164zm66.856 28.04c.007-.033.014-.066.02-.099l5.573-27.939 93.141 65.603c-31.44 28.275-72.155 46.42-116.962 49.267z"/><circle cx="429.25" cy="84" r="10"/></g></svg>