<svg id="Layer_1" enable-background="new 0 0 511.911 511.911" height="512" viewBox="0 0 511.911 511.911" width="512" xmlns="http://www.w3.org/2000/svg"><g><path d="m384.896 236.437c5.858 5.858 15.355 5.858 21.213 0 13.511-14.628-6.591-34.722-21.213-21.213-5.858 5.858-5.858 15.355 0 21.213z"/><path d="m418.512 43.606c-14.633-13.513-34.72 6.596-21.213 21.213 5.858 5.858 15.355 5.858 21.213 0 5.857-5.858 5.857-15.355 0-21.213z"/><path d="m466.687 188.716c24.937 0 45.224-20.288 45.224-45.225-2.484-59.995-87.973-59.978-90.448 0 0 24.937 20.288 45.225 45.224 45.225zm0-60.448c8.395 0 15.224 6.829 15.224 15.224-.837 20.197-29.615 20.192-30.448 0 0-8.395 6.83-15.224 15.224-15.224z"/><path d="m285.607 128.085c11.127 0 22.254-4.235 30.726-12.706 16.941-16.941 16.941-44.508-.001-61.45l-5.253-5.253c-9.816-10.667 4.781-25.249 15.436-15.437 5.858 5.859 15.356 5.857 21.213 0 5.857-5.858 5.857-15.355 0-21.213-15.953-15.953-41.91-15.953-57.862 0-15.952 15.952-15.952 41.909.001 57.863l5.253 5.253c5.245 5.245 5.245 13.778 0 19.023-5.244 5.245-13.779 5.245-19.023 0-5.858-5.859-15.355-5.857-21.213 0-5.857 5.858-5.857 15.355 0 21.213 8.469 8.471 19.596 12.707 30.723 12.707z"/><path d="m320.294 187.404c5.858 5.858 15.355 5.858 21.213 0l37.172-37.172c5.858-5.857 5.858-15.355 0-21.213-5.857-5.857-15.355-5.857-21.213 0l-37.172 37.172c-5.857 5.857-5.857 15.355 0 21.213z"/><path d="m496.869 269.097h-59.88c-19.902.793-19.887 29.215 0 30h59.88c19.902-.792 19.887-29.215 0-30z"/><path d="m186.602 105.263c-5.858-5.858-15.356-5.858-21.213 0-5.858 5.857-5.858 15.355 0 21.213l18.723 18.723c-19.827 46.05-83.634 194.245-104.379 242.427-2.879 6.835-.542 13.587 4.923 18.29l-19.05 19.05c-16.985-8.476-39.004-4.868-52.297 8.828-17.744 17.024-17.744 47.658 0 64.683 17.833 17.832 46.848 17.832 64.681 0 13.697-13.291 17.306-35.315 8.829-52.298l19.05-19.05 2.253 2.253c2.872 2.872 6.709 4.395 10.61 4.394 75.025-28.711 173.581-75.085 247.91-106.046l21.526 21.526c5.857 5.859 15.355 5.858 21.213 0 5.858-5.857 5.858-15.355 0-21.213zm-129.826 372c-6.136 6.133-16.12 6.136-22.255 0-6.105-5.859-6.106-16.398 0-22.256 5.858-6.106 16.397-6.105 22.255.001 6.106 5.857 6.104 16.398 0 22.255zm141.821-109.433-54.3-54.3 28.746-66.764 92.196 92.196zm-76.473 33.128-10.813-10.813 20.218-46.957 37.467 37.466zm172.717-74.819-109.029-109.029 21.131-49.079 136.887 136.887z"/></g></svg>