<svg id="Layer_1" enable-background="new 0 0 512 512" height="512" viewBox="0 0 512 512" width="512" xmlns="http://www.w3.org/2000/svg"><path d="m466.252 275.005c-11.943 0-22.826 4.61-30.977 12.137l-74.352-35.265c6.675-26.683.307-57.374-15.416-78.721l75.073-64.287c38.547 25.666 91.665-2.867 91.38-49.49 0-32.594-26.517-59.112-59.112-59.112-43.873-.424-73.053 47.877-52.427 86.367l-75.937 65.026c-35.003-27.39-89.649-25.032-122.155 4.927l-104.626-88.458c12.617-32.125-12.606-68.642-47.228-68.124-27.81 0-50.436 22.626-50.436 50.436-.229 40.482 46.454 64.642 79.221 41.38l103.859 87.811c-13.218 21.311-17.469 50.649-10.36 75.42l-68.158 39.058c-10.982-12.326-26.96-20.108-44.728-20.108-79.479 3.288-79.466 116.547 0 119.828 37.794.479 67.156-36.303 58.455-73.01l66.825-38.295c12.573 19.192 31.75 33.683 54.28 40.215l-3.689 87.531c-22.547 5.588-39.313 25.986-39.313 50.236 2.844 68.667 100.686 68.644 103.519 0 0-22.394-14.299-41.506-34.244-48.701l3.595-85.288c33.986-.99 63.648-19.526 80.22-46.847l71.575 33.948c-4.522 27.339 17.407 53.053 45.155 52.802 60.637-2.508 60.625-88.913.001-91.416zm-406.377 88.826c-16.495 0-29.914-13.419-29.914-29.914 1.643-39.685 58.191-39.674 59.828 0 0 16.495-13.42 29.914-29.914 29.914zm392.974-333.563c16.053 0 29.112 13.06 29.112 29.112-1.599 38.62-56.63 38.609-58.224 0 0-16.053 13.06-29.112 29.112-29.112zm-422.81 20.174c0-11.269 9.168-20.437 20.437-20.437 16.254-.157 26.142 18.714 16.885 31.93-.031.036-.065.066-.096.102-.391.463-.739.946-1.065 1.44-12.077 14.581-36.078 6.124-36.161-13.035zm218.153 431.826c-11.998 0-21.759-9.761-21.759-21.759 1.195-28.866 42.328-28.857 43.519 0-.001 11.998-9.762 21.759-21.76 21.759zm18.244-185.703c-37.002 0-67.105-30.104-67.105-67.105 3.686-89.023 130.538-88.998 134.21.001-.001 37-30.103 67.104-67.105 67.104zm199.816 39.857c-11.604.217-19.488-12.93-13.889-23.025.098-.166.193-.333.286-.504 8.016-13.763 29.135-8.312 29.312 7.821 0 8.661-7.047 15.708-15.709 15.708z"/></svg>