<?xml version="1.0" encoding="iso-8859-1"?>
<!-- Generator: Adobe Illustrator 18.0.0, SVG Export Plug-In . SVG Version: 6.00 Build 0)  -->
<!DOCTYPE svg PUBLIC "-//W3C//DTD SVG 1.1//EN" "http://www.w3.org/Graphics/SVG/1.1/DTD/svg11.dtd">
<svg version="1.1" id="Capa_1" xmlns="http://www.w3.org/2000/svg" xmlns:xlink="http://www.w3.org/1999/xlink" x="0px" y="0px"
	 viewBox="0 0 217.997 217.997"  xml:space="preserve">
<g>
	<path d="M199.399,0H35.514c-4.143,0-7.5,3.358-7.5,7.5v43.249h-9.416c-4.143,0-7.5,3.358-7.5,7.5s3.357,7.5,7.5,7.5h9.416v35.75
		h-9.416c-4.143,0-7.5,3.358-7.5,7.5c0,4.142,3.357,7.5,7.5,7.5h9.416v35.749h-9.416c-4.143,0-7.5,3.358-7.5,7.5
		c0,4.142,3.357,7.5,7.5,7.5h9.416v43.249c0,4.142,3.357,7.5,7.5,7.5h163.886c4.143,0,7.5-3.358,7.5-7.5V7.5
		C206.899,3.358,203.542,0,199.399,0z M191.899,202.997H43.014v-35.749h9.416c4.143,0,7.5-3.358,7.5-7.5c0-4.142-3.357-7.5-7.5-7.5
		h-9.416v-35.749h9.416c4.143,0,7.5-3.358,7.5-7.5c0-4.142-3.357-7.5-7.5-7.5h-9.416v-35.75h9.416c4.143,0,7.5-3.358,7.5-7.5
		s-3.357-7.5-7.5-7.5h-9.416V15h148.886V202.997z"/>
	<path d="M122.822,112.447c17.004,0,30.838-13.839,30.838-30.849c0-17.011-13.834-30.85-30.838-30.85
		c-17.009,0-30.847,13.839-30.847,30.85C91.975,98.608,105.813,112.447,122.822,112.447z M122.822,65.749
		c8.733,0,15.838,7.11,15.838,15.85c0,8.739-7.104,15.849-15.838,15.849c-8.738,0-15.847-7.11-15.847-15.849
		C106.975,72.859,114.084,65.749,122.822,65.749z"/>
	<path d="M88.484,168.54c4.143,0,7.5-3.358,7.5-7.5v-12.961c0-8.319,6.77-15.088,15.09-15.088h23.682
		c8.32,0,15.09,6.768,15.09,15.088v12.961c0,4.142,3.357,7.5,7.5,7.5c4.142,0,7.5-3.358,7.5-7.5v-12.961
		c0-16.59-13.498-30.088-30.09-30.088h-23.682c-16.592,0-30.09,13.497-30.09,30.088v12.961
		C80.984,165.182,84.342,168.54,88.484,168.54z"/>
</g>
<g>
</g>
<g>
</g>
<g>
</g>
<g>
</g>
<g>
</g>
<g>
</g>
<g>
</g>
<g>
</g>
<g>
</g>
<g>
</g>
<g>
</g>
<g>
</g>
<g>
</g>
<g>
</g>
<g>
</g>
</svg>
