<svg id="Layer_1" enable-background="new 0 0 512.003 512.003" height="512" viewBox="0 0 512.003 512.003" width="512" xmlns="http://www.w3.org/2000/svg"><path d="m392 432.002h-272c-66.168 0-120-53.832-120-120v-192c0-66.168 53.832-120 120-120h192c26.536 1.056 26.516 38.953 0 40h-192c-44.112 0-80 35.888-80 80v192c0 44.112 35.888 80 80 80h272c44.112 0 80-35.888 80-80v-8c1.056-26.536 38.953-26.516 40 0v8c0 66.168-53.832 120-120 120zm74.227 63.819c17.656-10.258 32.51-24.955 42.958-42.502 5.651-9.491 2.538-21.766-6.953-27.417-9.488-5.65-21.765-2.539-27.416 6.953-14.377 24.146-40.739 39.146-68.8 39.146h-300.016c-28.061 0-54.423-15-68.8-39.146-5.65-9.492-17.93-12.603-27.416-6.953-9.491 5.651-12.604 17.926-6.953 27.417 10.448 17.547 25.302 32.244 42.958 42.502 18.219 10.585 39.039 16.18 60.211 16.18h300.016c21.172.001 41.992-5.595 60.211-16.18zm-190.227-163.819v-232c-1.056-26.536-38.953-26.516-40 0v232c0 11.046 8.954 20 20 20s20-8.954 20-20zm-80-193c0-11.046-8.954-20-20-20h-76c-26.536 1.056-26.516 38.953 0 40h76c11.046 0 20-8.954 20-20zm0 80c0-11.046-8.954-20-20-20h-76c-26.536 1.056-26.516 38.953 0 40h76c11.046 0 20-8.954 20-20zm236 80c0-11.046-8.954-20-20-20h-76c-26.536 1.056-26.516 38.953 0 40h76c11.046 0 20-8.954 20-20zm-236 0c0-11.046-8.954-20-20-20h-76c-26.536 1.056-26.516 38.953 0 40h76c11.046 0 20-8.954 20-20zm227-179c-33.084 0-60-26.916-60-60 3.296-79.598 116.716-79.575 120 0 0 33.084-26.916 60-60 60zm0-80c-11.028 0-20 8.972-20 20 1.099 26.533 38.905 26.525 40 0 0-11.028-8.972-20-20-20zm89 184c0-45.215-37.302-82-83.152-82h-11.695c-45.851 0-83.152 36.785-83.152 82 0 11.046 8.954 20 20 20s20-8.954 20-20c0-23.159 19.358-42 43.152-42h11.695c23.794 0 43.152 18.841 43.152 42 0 11.046 8.954 20 20 20s20-8.954 20-20z"/></svg>