<svg id="Capa_1" enable-background="new 0 0 507.344 507.344" height="512" viewBox="0 0 507.344 507.344" width="512" xmlns="http://www.w3.org/2000/svg"><g><path d="m390.217 141.937c-1.198-2.55-3.416-4.476-6.108-5.305-27.078-8.34-54.81-14.034-82.873-17.062l22.754-46.218c1.379-2.801 1.371-6.085-.022-8.879s-4.011-4.777-7.078-5.361c-17.46-3.327-35.315-5.252-53.218-5.78v-43.332c0-5.523-4.477-10-10-10s-10 4.477-10 10v43.328c-17.903.528-35.764 2.459-53.218 5.784-3.067.584-5.685 2.567-7.078 5.361s-1.401 6.078-.022 8.879l22.754 46.218c-28.063 3.028-55.795 8.721-82.873 17.062-2.692.83-4.91 2.755-6.107 5.305-1.198 2.55-1.265 5.486-.184 8.088l56.693 136.493c1.565 3.768 5.235 6.165 9.23 6.165.438 0 22.054-2.334 32.806-3.291v207.952c0 5.523 4.477 10 10 10h56c5.523 0 10-4.477 10-10v-69.844c0-5.523-4.477-10-10-10s-10 4.477-10 10v59.844h-36v-199.025c6.334-.217 12.666-.33 18.981-.319 5.662.01 11.339.115 17.019.309v47.691c0 5.523 4.477 10 10 10s10-4.477 10-10v-46.612c10.541.761 21.057 1.821 31.483 3.207 4.492.596 8.816-1.897 10.552-6.077l56.692-136.493c1.081-2.602 1.015-5.538-.183-8.088zm-32.407 34.412c-30.68-8.725-62.282-13.554-94.138-14.39v-24.826c35.198.83 70.085 6.024 103.985 15.509zm-21.08 50.753c-24.037-5.316-48.544-8.324-73.058-8.967v-36.166c29.223.81 58.216 5.175 86.407 12.994zm-179.465-32.138c28.21-7.823 57.184-12.168 86.407-12.988v36.153c-24.517.645-49.016 3.655-73.058 8.972zm49.961-118.403c15.107-2.223 30.46-3.363 45.8-3.394 15.748-.058 31.56 1.107 47.092 3.393l-20.294 41.22c-5.376-.317-10.761-.534-16.153-.656v-13.792c0-5.523-4.477-10-10-10s-10 4.477-10 10v13.792c-5.392.121-10.777.339-16.153.656zm36.446 60.571v24.832c-31.86.829-63.437 5.656-94.137 14.388l-9.848-23.71c33.9-9.486 68.787-14.68 103.985-15.51zm-65.261 108.741c21.506-4.538 43.376-7.126 65.261-7.733v29.969c-18.177.339-36.438 1.563-54.488 3.701zm139.749 25.938c-18.05-2.138-36.312-3.378-54.488-3.713v-29.955c21.882.606 43.76 3.191 65.263 7.728z"/><circle cx="281.672" cy="381.83" r="10"/></g></svg>