<?xml version="1.0" encoding="iso-8859-1"?>
<!-- Generator: Adobe Illustrator 19.0.0, SVG Export Plug-In . SVG Version: 6.00 Build 0)  -->
<svg version="1.1" id="Layer_1" xmlns="http://www.w3.org/2000/svg" xmlns:xlink="http://www.w3.org/1999/xlink" x="0px" y="0px"
	 viewBox="0 0 472.615 472.615" enable-background="new 0 0 472.615 472.615;" xml:space="preserve">
<g>
	<g>
		<path d="M246.154,94.852V53.198h58.077V33.506H168.389v19.692h58.072v41.654C100.769,100.037,0.096,203.866,0.096,330.813
			c0,6.288,0.337,13.01,1.063,21.135l0.803,8.971h468.702l0.798-8.971c0.721-8.096,1.058-14.808,1.058-21.135
			C472.519,203.866,371.85,100.037,246.154,94.852z M452.51,341.227H20.106c-0.216-3.74-0.317-7.154-0.317-10.413
			c0-119.385,97.13-216.519,216.519-216.519c119.385,0,216.519,97.135,216.519,216.519
			C452.827,334.083,452.721,337.506,452.51,341.227z"/>
	</g>
</g>
<g>
	<g>
		<rect y="419.417" width="472.615" height="19.692"/>
	</g>
</g>
<g>
</g>
<g>
</g>
<g>
</g>
<g>
</g>
<g>
</g>
<g>
</g>
<g>
</g>
<g>
</g>
<g>
</g>
<g>
</g>
<g>
</g>
<g>
</g>
<g>
</g>
<g>
</g>
<g>
</g>
</svg>
