<svg id="Capa_1" enable-background="new 0 0 503.266 503.266" height="512" viewBox="0 0 503.266 503.266" width="512" xmlns="http://www.w3.org/2000/svg"><g><path d="m468.343 97.877h-172.043c-5.522 0-10 4.478-10 10s4.478 10 10 10h172.043c8.229 0 14.923 6.694 14.923 14.923v237.666c0 8.229-6.694 14.923-14.923 14.923h-433.42c-8.229 0-14.923-6.694-14.923-14.923v-237.666c0-8.229 6.694-14.923 14.923-14.923h172.377c5.522 0 10-4.478 10-10s-4.478-10-10-10h-172.377c-19.257 0-34.923 15.666-34.923 34.923v237.666c0 19.257 15.666 34.923 34.923 34.923h433.42c19.257 0 34.923-15.666 34.923-34.923v-237.666c0-19.257-15.666-34.923-34.923-34.923z"/><path d="m176.915 221.36c5.035 2.097 10.981-.358 13.076-5.387 2.947-7.076 4.411-14.545 4.353-22.199-.058-7.354-1.521-14.53-4.353-21.327-2.124-5.099-7.978-7.511-13.076-5.387s-7.51 7.979-5.387 13.076c1.832 4.397 2.779 9.038 2.815 13.792.038 4.879-.936 9.843-2.815 14.355-2.123 5.099.288 10.953 5.387 13.077z"/><path d="m210.276 169.266c2.78 7.78 4.235 15.906 4.323 24.155.094 8.782-1.361 17.441-4.324 25.736-1.76 4.925.697 10.52 5.506 12.566 5.227 2.223 11.419-.495 13.328-5.838 3.762-10.529 5.608-21.523 5.488-32.679-.11-10.476-1.958-20.796-5.489-30.674-1.858-5.2-7.583-7.912-12.782-6.05-5.2 1.86-7.909 7.583-6.05 12.784z"/><path d="m254.175 146.386c-5.235 1.76-8.053 7.43-6.294 12.665 3.707 11.03 5.642 22.514 5.75 34.131.115 12.315-1.819 24.49-5.75 36.188-1.665 4.958.897 10.505 5.744 12.459 5.266 2.123 11.407-.713 13.215-6.09 4.641-13.814 6.926-28.195 6.791-42.744-.129-13.724-2.413-27.288-6.791-40.315-1.76-5.235-7.427-8.052-12.665-6.294z"/><path d="m69.966 153.3c-12.131 0-22 9.869-22 22v37.333c0 12.131 9.869 22 22 22h58.667c12.131 0 22-9.869 22-22v-37.333c0-12.131-9.869-22-22-22zm60.667 22v37.333c0 1.084-.916 2-2 2h-58.667c-1.084 0-2-.916-2-2v-37.333c0-1.084.916-2 2-2h58.667c1.084 0 2 .916 2 2z"/><path d="m398.633 138.303h-58.673c-5.522 0-10 4.478-10 10s4.478 10 10 10h58.673c5.522 0 10-4.478 10-10s-4.478-10-10-10z"/><circle cx="251.633" cy="107.966" r="10"/><circle cx="443.133" cy="148.133" r="10"/><path d="m423.098 303.452c-17.079 0-30.975 13.896-30.975 30.975s13.896 30.975 30.975 30.975 30.975-13.896 30.975-30.975-13.896-30.975-30.975-30.975zm0 41.949c-6.052 0-10.975-4.923-10.975-10.975s4.923-10.975 10.975-10.975 10.975 4.923 10.975 10.975-4.924 10.975-10.975 10.975z"/></g></svg>