<svg id="Capa_1" enable-background="new 0 0 506.942 506.942" height="512" viewBox="0 0 506.942 506.942" width="512" xmlns="http://www.w3.org/2000/svg"><g><path d="m401.173 325.02c-12.612-6.759-28.303-3.01-36.497 8.72l-34.104 48.816-49.446 8.697 18.381-21.9c6.048-7.207 7.983-16.87 5.178-25.853-2.407-7.699-8.045-13.927-15.469-17.084-7.422-3.157-15.819-2.899-23.034.709l-46.249 23.124c-1.027.514-1.958 1.199-2.751 2.028l-24.955 26.064v-.752c0-5.522-4.478-10-10-10h-42.51c-5.522 0-10 4.478-10 10v13.011c0 5.522 4.478 10 10 10s10-4.478 10-10v-3.011h22.51v99.353h-22.51v-6.665c0-5.522-4.478-10-10-10s-10 4.478-10 10v16.665c0 5.522 4.478 10 10 10h42.51c5.522 0 10-4.478 10-10v-9.294h101.276c1.889 0 3.739-.535 5.336-1.543l75.38-47.562c1.567-.988 2.829-2.394 3.645-4.059l35.336-72.143c6.717-13.713 1.435-30.108-12.027-37.321zm-5.936 28.525-34.089 69.598-70.537 44.506h-98.386v-60.387l38.201-39.899 44.697-22.349c2.688-1.344 5.079-.696 6.264-.192 1.187.504 3.311 1.778 4.206 4.644.763 2.442.236 5.071-1.408 7.03l-36.034 42.935c-2.702 3.22-3.103 7.785-1.001 11.427 2.1 3.642 6.257 5.585 10.394 4.851l80.58-14.173c2.617-.46 4.943-1.943 6.465-4.121l36.481-52.219c2.393-3.425 6.974-4.521 10.655-2.546 3.931 2.105 5.473 6.89 3.512 10.895z"/><path d="m144.624 181.923c4.228 2.265 8.799 3.35 13.319 3.35 8.968 0 17.73-4.271 23.178-12.069l34.104-48.815 49.445-8.697-18.38 21.899c-6.048 7.207-7.983 16.871-5.178 25.853 2.407 7.7 8.045 13.928 15.47 17.085 7.425 3.155 15.819 2.896 23.033-.71l46.249-23.124c1.027-.514 1.958-1.199 2.751-2.028l24.955-26.064v.752c0 5.522 4.478 10 10 10h42.51c5.522 0 10-4.478 10-10v-15.248c0-5.522-4.478-10-10-10s-10 4.478-10 10v5.248h-22.51v-99.355h22.51v4.604c0 5.522 4.478 10 10 10s10-4.478 10-10v-14.604c0-5.522-4.478-10-10-10h-42.51c-5.522 0-10 4.478-10 10v9.294h-101.275c-1.889 0-3.739.535-5.336 1.543l-75.38 47.562c-1.567.989-2.829 2.394-3.645 4.059l-35.335 72.142c-6.719 13.715-1.437 30.11 12.025 37.323zm5.936-28.526 34.088-69.597 70.537-44.506h98.386v60.387l-38.201 39.899-44.698 22.349c-2.686 1.344-5.076.698-6.263.193s-3.311-1.779-4.206-4.646c-.763-2.441-.236-5.07 1.408-7.029l36.034-42.934c2.702-3.22 3.103-7.785 1.001-11.427-2.1-3.642-6.256-5.579-10.394-4.851l-80.58 14.173c-2.617.46-4.943 1.943-6.465 4.121l-36.482 52.219c-2.391 3.426-6.972 4.519-10.655 2.545-3.929-2.105-5.472-6.891-3.51-10.896z"/><path d="m168.692 347.042c5.522 0 10-4.478 10-10s-4.478-10-10-10c-16.481 0-31.083-8.604-40.009-21.767h38.213c5.522 0 10-4.478 10-10s-4.478-10-10-10h-46.431c-.612-3.261-.94-6.629-.94-10.076s.328-6.815.94-10.076h46.431c5.522 0 10-4.478 10-10s-4.478-10-10-10h-38.214c8.926-13.163 23.528-21.768 40.009-21.768 5.522 0 10-4.478 10-10s-4.478-10-10-10c-27.803 0-51.812 17.137-62.791 41.768h-14.616c-5.522 0-10 4.478-10 10s4.478 10 10 10h8.935c-.447 3.295-.694 6.655-.694 10.076s.247 6.781.694 10.076h-8.935c-5.522 0-10 4.478-10 10s4.478 10 10 10h14.618c10.979 24.631 34.987 41.767 62.79 41.767z"/><circle cx="406.232" cy="69.106" r="10"/><circle cx="139.565" cy="435.271" r="10"/><path d="m403.318 170.034c0-5.522-4.478-10-10-10s-10 4.478-10 10v3.963c-.964.218-20.17 3.982-24.002 24.835-1.964 10.685 1.479 21.026 9.112 27.015 6.263 4.911 14.913 9.07 29.859 14.354 5.316 1.879 6.79 6.858 7.195 9.659.723 5-.867 11.725-6.048 15.479-6.341 4.595-16.653 3.74-29.036-2.402-4.948-2.456-10.947-.434-13.402 4.514s-.434 10.948 4.514 13.402c8.249 4.092 15.506 6.197 21.808 6.996v4.757c0 5.522 4.478 10 10 10s10-4.478 10-10v-6.857c3.267-1.247 5.883-2.788 7.851-4.213 10.504-7.609 16.042-21.166 14.108-34.537-1.763-12.188-9.36-21.778-20.324-25.654-8.875-3.137-18.688-6.925-24.182-11.233-5.701-4.47.068-14.6 5.402-16.207 11.479-3.459 21.977 3.469 22.268 3.663 4.507 3.134 10.706 2.047 13.876-2.443 3.186-4.512 2.11-10.752-2.401-13.937-.444-.314-6.944-4.813-16.598-7.032z"/></g></svg>