<?xml version="1.0" encoding="iso-8859-1"?>
<!-- Generator: Adobe Illustrator 19.0.0, SVG Export Plug-In . SVG Version: 6.00 Build 0)  -->
<svg version="1.1" id="Layer_1" xmlns="http://www.w3.org/2000/svg" xmlns:xlink="http://www.w3.org/1999/xlink" x="0px" y="0px"
	 viewBox="0 0 507.601 507.601" enable-background="new 0 0 507.601 507.601;" xml:space="preserve">
<g>
	<g>
		<path d="M394.142,18.471c-66.409,71.832-102.986,165.274-102.986,263.101v21.923h31.462v159.798
			c0,24.428,19.875,44.298,44.303,44.298c24.428,0,44.298-19.87,44.298-44.298V0L394.142,18.471z M391.526,463.293
			c0,13.567-11.038,24.606-24.606,24.606c-13.572,0-24.611-11.038-24.611-24.606v-179.49h-31.462v-2.231
			c0-84.101,28.476-164.779,80.678-229.909V463.293z"/>
	</g>
</g>
<g>
	<g>
		<path d="M225.272,25.144v138.769c0,22.043-10.721,42.841-28.673,55.63l-4.135,2.942v243.63c0,12.014-9.774,21.793-21.793,21.793
			c-12.014,0-21.788-9.779-21.788-21.793v-243.63l-4.135-2.942c-17.952-12.788-28.673-33.587-28.673-55.63V25.144H96.382v138.769
			c0,26.663,12.173,51.913,32.808,68.534v233.668c0,22.875,18.606,41.486,41.481,41.486s41.486-18.611,41.486-41.486V232.447
			c20.635-16.62,32.808-41.87,32.808-68.534V25.144H225.272z"/>
	</g>
</g>
<g>
	<g>
		<rect x="182.455" y="25.143" width="19.692" height="156.554"/>
	</g>
</g>
<g>
	<g>
		<rect x="139.201" y="25.143" width="19.692" height="156.554"/>
	</g>
</g>
<g>
</g>
<g>
</g>
<g>
</g>
<g>
</g>
<g>
</g>
<g>
</g>
<g>
</g>
<g>
</g>
<g>
</g>
<g>
</g>
<g>
</g>
<g>
</g>
<g>
</g>
<g>
</g>
<g>
</g>
</svg>
