<svg id="Capa_1" enable-background="new 0 0 507 507" height="512" viewBox="0 0 507 507" width="512" xmlns="http://www.w3.org/2000/svg"><g><path d="m497 406.966h-487c-5.522 0-10 4.477-10 10s4.478 10 10 10h487c5.522 0 10-4.477 10-10s-4.478-10-10-10z"/><path d="m4.857 251.845 73.703 50.375c16.598 11.345 36.11 17.133 55.705 17.132 14.185 0 28.414-3.034 41.604-9.19l72.615-33.938c5.003-2.339 7.163-8.291 4.825-13.293-2.338-5.003-8.289-7.162-13.294-4.826l-72.609 33.937c-25.037 11.682-54.755 9.256-77.562-6.333l-60.959-41.665 27.436-16.828 70.607 23.42c2.435.809 5.088.649 7.41-.445l84.13-39.63c3.135-1.477 5.281-4.47 5.674-7.913.393-3.442-1.024-6.843-3.746-8.988l-92.832-73.153 36.104-18.422 166.985 52.83c2.398.759 4.993.585 7.27-.483l111.72-52.497c12.609-5.278 27.873.489 34.09 12.911 3.179 6.352 3.644 13.544 1.308 20.252-2.335 6.708-7.166 12.056-13.605 15.062l-150.084 70.113c-5.004 2.337-7.165 8.289-4.828 13.292 2.338 5.003 8.289 7.167 13.293 4.828l150.081-70.111c11.371-5.307 19.905-14.756 24.031-26.607 4.127-11.851 3.306-24.558-2.311-35.779-10.885-21.75-37.791-31.75-59.971-22.292-.111.047-.222.097-.331.148l-108.358 50.917-167.166-52.889c-2.503-.792-5.221-.568-7.562.627l-53.665 27.383c-3.036 1.549-5.074 4.539-5.407 7.931s1.085 6.721 3.763 8.831l92.395 72.808-65.884 31.035-71.227-23.626c-2.799-.927-5.863-.574-8.377.967l-44.557 27.329c-2.89 1.772-4.685 4.889-4.769 8.277-.083 3.39 1.557 6.59 4.355 8.503z"/><path d="m280.589 239.047c-4.998 2.335-7.157 8.279-4.822 13.277s8.279 7.157 13.277 4.822 7.157-8.279 4.822-13.277c-2.335-4.997-8.279-7.156-13.277-4.822z"/></g></svg>