<?xml version="1.0" encoding="iso-8859-1"?>
<!-- Generator: Adobe Illustrator 18.0.0, SVG Export Plug-In . SVG Version: 6.00 Build 0)  -->
<!DOCTYPE svg PUBLIC "-//W3C//DTD SVG 1.1//EN" "http://www.w3.org/Graphics/SVG/1.1/DTD/svg11.dtd">
<svg version="1.1" id="Capa_1" xmlns="http://www.w3.org/2000/svg" xmlns:xlink="http://www.w3.org/1999/xlink" x="0px" y="0px"
	 viewBox="0 0 230.359 230.359"  xml:space="preserve">
<path d="M210.322,5.604H20.023C8.982,5.604,0,14.587,0,25.628v142.519c0,11.048,8.982,20.037,20.023,20.037h62.14v21.572H58.241
	c-4.142,0-7.5,3.358-7.5,7.5c0,4.142,3.358,7.5,7.5,7.5h31.422h51.01h31.432c4.143,0,7.5-3.358,7.5-7.5c0-4.142-3.357-7.5-7.5-7.5
	h-23.932v-21.572h62.149c11.049,0,20.037-8.988,20.037-20.037V25.628C230.359,14.587,221.371,5.604,210.322,5.604z M15,51.128
	h200.359v91.521H15V51.128z M20.023,20.604h190.299c2.777,0,5.037,2.254,5.037,5.024v10.501H15V25.628
	C15,22.858,17.253,20.604,20.023,20.604z M133.173,209.755h-36.01v-21.572h36.01V209.755z M210.322,173.183h-69.649h-51.01h-69.64
	c-2.77,0-5.023-2.259-5.023-5.037V157.65h200.359v10.497C215.359,170.924,213.099,173.183,210.322,173.183z"/>
<g>
</g>
<g>
</g>
<g>
</g>
<g>
</g>
<g>
</g>
<g>
</g>
<g>
</g>
<g>
</g>
<g>
</g>
<g>
</g>
<g>
</g>
<g>
</g>
<g>
</g>
<g>
</g>
<g>
</g>
</svg>
