<svg id="Capa_1" enable-background="new 0 0 498 498" height="512" viewBox="0 0 498 498" width="512" xmlns="http://www.w3.org/2000/svg"><g><path d="m10 346.501h478c5.522 0 10-4.477 10-10 0-32.191-7.522-65.104-21.755-95.182-15.283-32.3-38.172-60.677-66.19-82.061-25.635-19.565-62.598-38.842-113.205-46.016-1.843-24.427-22.292-43.743-47.183-43.743h-1.334c-25.248 0-45.939 19.871-47.263 44.795-17.589 2.557-36.222 6.413-55.958 11.812-5.327 1.457-8.464 6.957-7.007 12.284 1.458 5.327 6.959 8.468 12.284 7.007 126.887-34.703 204.644-2.972 247.532 29.761 25.49 19.455 46.323 45.291 60.246 74.716 11.5 24.302 18.194 50.597 19.568 76.627h-457.505c2.467-53.316 24.64-102.211 63.065-138.565 4.012-3.796 4.187-10.125.391-14.137-3.796-4.013-10.124-4.188-14.137-.392-44.849 42.433-69.549 100.355-69.549 163.094 0 5.523 4.478 10 10 10zm211.463-234.648c2.349-12.701 13.5-22.354 26.87-22.354h1.334c13.098 0 24.068 9.262 26.718 21.58-16.923-1.193-35.207-1.055-54.922.774z"/><path d="m488 366.503h-478c-5.522 0-10 4.477-10 10v41.998c0 5.523 4.478 10 10 10h478c5.522 0 10-4.477 10-10v-41.998c0-5.523-4.478-10-10-10zm-10 41.998h-458v-21.998h458z"/><path d="m57.125 295.835c0 5.523 4.478 10 10 10h309c5.522 0 10-4.477 10-10s-4.478-10-10-10h-309c-5.522 0-10 4.478-10 10z"/><circle cx="420.875" cy="296.001" r="10"/><circle cx="111.333" cy="153.834" r="10"/></g></svg>