<svg id="Capa_1" enable-background="new 0 0 509.12 509.12" height="512" viewBox="0 0 509.12 509.12" width="512" xmlns="http://www.w3.org/2000/svg"><g><path d="m460.849 15.383c-26.617 0-48.271 22.43-48.271 50 0 23.22 34.917 117.78 38.898 128.486 1.457 3.916 5.195 6.514 9.373 6.514s7.917-2.598 9.373-6.514c3.981-10.706 38.898-105.266 38.898-128.486 0-27.57-21.654-50-48.271-50zm0 145.638c-13.397-37.888-28.271-83.775-28.271-95.637 0-16.542 12.683-30 28.271-30s28.271 13.458 28.271 30c0 11.861-14.874 57.748-28.271 95.637z"/><circle cx="460.849" cy="61.717" r="10"/><path d="m248.885 185.967h-10v-5.5c0-5.523-4.477-10-10-10s-10 4.477-10 10v15.5c0 5.523 4.477 10 10 10h20c5.523 0 10-4.477 10-10s-4.477-10-10-10z"/><path d="m350.075 185.967h-50.595c-5.523 0-10 4.477-10 10s4.477 10 10 10h50.595c5.523 0 10-4.477 10-10s-4.477-10-10-10z"/><path d="m420.67 185.967h-20c-5.523 0-10 4.477-10 10s4.477 10 10 10h20c5.523 0 10-4.477 10-10s-4.477-10-10-10z"/><path d="m266.218 345.051h10v8.75c0 5.523 4.477 10 10 10s10-4.477 10-10v-18.75c0-5.523-4.477-10-10-10h-20c-5.523 0-10 4.477-10 10s4.477 10 10 10z"/><path d="m172.618 335.051c0-5.523-4.477-10-10-10h-34.533c-5.523 0-10 4.477-10 10s4.477 10 10 10h34.533c5.523 0 10-4.477 10-10z"/><path d="m231.685 325.051h-34.533c-5.523 0-10 4.477-10 10s4.477 10 10 10h34.533c5.523 0 10-4.477 10-10s-4.477-10-10-10z"/><path d="m103.552 335.051c0-5.523-4.477-10-10-10h-10v-10c0-5.523-4.477-10-10-10s-10 4.477-10 10v20c0 5.523 4.477 10 10 10h20c5.523 0 10-4.477 10-10z"/><path d="m73.552 281.984c5.523 0 10-4.477 10-10v-43.067c0-5.523-4.477-10-10-10s-10 4.477-10 10v43.067c0 5.523 4.477 10 10 10z"/><path d="m73.552 195.851c5.523 0 10-4.477 10-10v-43.067c0-5.523-4.477-10-10-10s-10 4.477-10 10v43.067c0 5.523 4.477 10 10 10z"/><path d="m73.552 109.717c5.523 0 10-4.477 10-10v-10h10c5.523 0 10-4.477 10-10s-4.477-10-10-10h-20c-5.523 0-10 4.477-10 10v20c0 5.523 4.477 10 10 10z"/><path d="m131.996 89.717h38.444c5.523 0 10-4.477 10-10s-4.477-10-10-10h-38.444c-5.523 0-10 4.477-10 10s4.477 10 10 10z"/><path d="m208.885 89.717h10v1.416c0 5.523 4.477 10 10 10s10-4.477 10-10v-11.416c0-5.523-4.477-10-10-10h-20c-5.523 0-10 4.477-10 10s4.477 10 10 10z"/><path d="m111.67 454.384h-20c-5.523 0-10 4.477-10 10s4.477 10 10 10h20c5.523 0 10-4.477 10-10s-4.477-10-10-10z"/><path d="m214.702 454.384h-51.516c-5.523 0-10 4.477-10 10s4.477 10 10 10h51.516c5.523 0 10-4.477 10-10s-4.477-10-10-10z"/><path d="m286.218 434.134c-5.523 0-10 4.477-10 10v10.25h-10c-5.523 0-10 4.477-10 10s4.477 10 10 10h20c5.523 0 10-4.477 10-10v-20.25c0-5.523-4.477-10-10-10z"/><path d="m30.975 431.788c-17.08 0-30.975 13.895-30.975 30.974s13.895 30.975 30.975 30.975 30.975-13.895 30.975-30.975-13.896-30.974-30.975-30.974zm0 41.949c-6.051 0-10.975-4.923-10.975-10.975s4.923-10.975 10.975-10.975 10.975 4.923 10.975 10.975-4.924 10.975-10.975 10.975z"/><circle cx="286.67" cy="399.301" r="10"/><circle cx="229.837" cy="135.634" r="10"/></g></svg>