<?xml version="1.0" encoding="iso-8859-1"?>
<!-- Generator: Adobe Illustrator 19.0.0, SVG Export Plug-In . SVG Version: 6.00 Build 0)  -->
<svg version="1.1" id="Layer_1" xmlns="http://www.w3.org/2000/svg" xmlns:xlink="http://www.w3.org/1999/xlink" x="0px" y="0px"
	 viewBox="0 0 492.313 492.313" enable-background="new 0 0 492.313 492.313;" xml:space="preserve">
<g>
	<g>
		<path d="M455.091,0.002H37.221C16.697,0.002,0,16.704,0,37.224v417.865c0,20.519,16.697,37.221,37.221,37.221h417.87
			c20.519,0,37.221-16.702,37.221-37.221V37.224C492.313,16.704,475.611,0.002,455.091,0.002z M472.62,455.089
			c0,9.663-7.865,17.529-17.529,17.529H37.221c-9.663,0-17.529-7.865-17.529-17.529V37.224c0-9.663,7.865-17.529,17.529-17.529
			h417.87c9.663,0,17.529,7.865,17.529,17.529V455.089z"/>
	</g>
</g>
<g>
	<g>
		<path d="M370.803,62.377c-32.606,0-59.125,26.519-59.125,59.125c0,32.606,26.519,59.125,59.125,59.125
			s59.135-26.519,59.135-59.125C429.938,88.897,403.409,62.377,370.803,62.377z M370.803,160.935
			c-21.74,0-39.433-17.692-39.433-39.433c0-21.74,17.692-39.433,39.433-39.433c21.75,0,39.442,17.692,39.442,39.433
			C410.245,143.243,392.553,160.935,370.803,160.935z"/>
	</g>
</g>
<g>
	<g>
		<path d="M121.505,62.377c-32.606,0-59.13,26.519-59.13,59.125c0,32.606,26.524,59.125,59.13,59.125
			c32.601,0,59.125-26.519,59.125-59.125C180.63,88.897,154.106,62.377,121.505,62.377z M121.505,160.935
			c-21.745,0-39.438-17.692-39.438-39.433c0-21.74,17.692-39.433,39.438-39.433s39.433,17.692,39.433,39.433
			C160.938,143.243,143.25,160.935,121.505,160.935z"/>
	</g>
</g>
<g>
	<g>
		<path d="M370.803,311.675c-32.606,0-59.125,26.519-59.125,59.125s26.519,59.135,59.125,59.135s59.135-26.529,59.135-59.135
			S403.409,311.675,370.803,311.675z M370.803,410.243c-21.74,0-39.433-17.692-39.433-39.442c0-21.74,17.692-39.433,39.433-39.433
			c21.75,0,39.442,17.692,39.442,39.433C410.245,392.55,392.553,410.243,370.803,410.243z"/>
	</g>
</g>
<g>
	<g>
		<path d="M246.154,187.022c-32.601,0-59.125,26.529-59.125,59.135s26.524,59.125,59.125,59.125s59.13-26.519,59.13-59.125
			S278.755,187.022,246.154,187.022z M246.154,285.589c-21.745,0-39.433-17.692-39.433-39.433c0-21.75,17.688-39.442,39.433-39.442
			s39.438,17.692,39.438,39.442C285.591,267.897,267.899,285.589,246.154,285.589z"/>
	</g>
</g>
<g>
	<g>
		<path d="M121.505,311.675c-32.606,0-59.13,26.519-59.13,59.125s26.524,59.135,59.13,59.135c32.601,0,59.125-26.529,59.125-59.135
			S154.106,311.675,121.505,311.675z M121.505,410.243c-21.745,0-39.438-17.692-39.438-39.442c0-21.74,17.692-39.433,39.438-39.433
			s39.433,17.692,39.433,39.433C160.938,392.55,143.25,410.243,121.505,410.243z"/>
	</g>
</g>
<g>
</g>
<g>
</g>
<g>
</g>
<g>
</g>
<g>
</g>
<g>
</g>
<g>
</g>
<g>
</g>
<g>
</g>
<g>
</g>
<g>
</g>
<g>
</g>
<g>
</g>
<g>
</g>
<g>
</g>
</svg>
