<svg id="Layer_1" enable-background="new 0 0 511.89 511.89" height="512" viewBox="0 0 511.89 511.89" width="512" xmlns="http://www.w3.org/2000/svg"><g><path d="m255.945 178.509c23.521 0 42.656-19.135 42.656-42.656-2.343-56.588-82.976-56.572-85.311 0 0 23.521 19.135 42.656 42.655 42.656zm0-55.351c7.001 0 12.695 5.695 12.695 12.695-.697 16.842-24.695 16.837-25.39 0 0-7 5.695-12.695 12.695-12.695z"/><path d="m507.722 303.273-47.589-52.467c-2.839-3.131-6.869-4.916-11.096-4.916h-34.197c-8.273 0-14.98 6.707-14.98 14.98v10.46h-28.985c-10.061 0-18.246-8.184-18.246-18.245v-23.398c1.63.016 3.266-.217 4.844-.738 3.772-1.245 6.896-3.938 8.684-7.486l24.249-48.129c1.788-3.548 2.093-7.661.849-11.434-1.245-3.772-3.938-6.896-7.486-8.684l-19.471-9.811c.51-7.35.273-14.759-.706-22.052l18.672-10.924c3.43-2.006 5.922-5.293 6.927-9.136 1.007-3.844.445-7.93-1.562-11.359l-27.216-46.516c-4.178-7.142-13.355-9.542-20.494-5.365l-18.744 10.967c-7.186-5.393-15.038-9.899-23.301-13.37v-20.67c0-8.273-6.707-14.98-14.98-14.98h-53.893c-8.273 0-14.98 6.707-14.98 14.98v20.662c-10.375 4.349-20.039 10.301-28.615 17.627l-19.552-9.851c-3.548-1.788-7.659-2.092-11.434-.848-3.773 1.245-6.897 3.938-8.684 7.486l-24.25 48.129c-1.788 3.548-2.093 7.661-.848 11.433 1.244 3.773 3.937 6.897 7.485 8.685l19.484 9.817c-.521 7.351-.297 14.762.67 22.06l-18.972 11.102c-7.141 4.178-9.543 13.353-5.364 20.494l27.215 46.515c1.893 3.235 4.816 5.486 8.107 6.604v18.19c0 10.061-8.185 18.245-18.246 18.245h-28.987v-10.46c0-8.273-6.707-14.98-14.98-14.98h-34.197c-4.226 0-8.256 1.786-11.096 4.915l-47.59 52.467c-5.193 5.726-5.178 14.462.037 20.17l47.59 52.086c2.838 3.106 6.852 4.875 11.059 4.875h34.196c8.273 0 14.98-6.707 14.98-14.98v-10.08h22.353c31.293 0 59.562-13.119 79.552-34.117l-.107 78.917h-10.48c-8.273 0-14.98 6.707-14.98 14.98v34.197c0 4.227 1.785 8.257 4.916 11.096l52.467 47.589c5.725 5.193 14.461 5.177 20.169-.036l52.086-47.589c3.106-2.838 4.875-6.852 4.875-11.06v-34.197c0-8.273-6.707-14.98-14.98-14.98h-10.076l.027-79.03c19.996 21.063 48.309 34.229 79.657 34.229h22.352v10.08c0 8.273 6.707 14.98 14.98 14.98h34.197c4.207 0 8.222-1.769 11.06-4.875l47.589-52.086c5.214-5.707 5.23-14.443.036-20.168zm-328.25-148.967c-2.528-10.482-2.858-21.604-.978-32.227 1.148-6.512-2.107-13.006-8.012-15.981l-15.502-7.811 10.769-21.372 15.561 7.84c5.9 2.976 13.052 1.73 17.601-3.06 9.444-9.94 21.336-17.265 34.393-21.183 6.336-1.901 10.675-7.733 10.675-14.348v-16.204h23.932v16.203c0 6.615 4.339 12.446 10.674 14.348 11.418 3.426 22.097 9.553 30.883 17.718 4.839 4.499 12.056 5.296 17.763 1.957l14.886-8.71 12.086 20.656-14.824 8.673c-5.709 3.34-8.552 10.03-6.995 16.458 2.547 10.48 2.899 21.582 1.036 32.217-1.135 6.503 2.12 12.983 8.017 15.954l15.473 7.796-10.768 21.372-15.442-7.78c-5.908-2.978-13.073-1.725-17.62 3.081-9.461 9.998-21.388 17.36-34.492 21.291-6.336 1.901-10.675 7.733-10.675 14.348v18.471h-23.932v-18.471c0-6.615-4.339-12.447-10.676-14.348-11.463-3.439-22.178-9.6-30.986-17.815-4.841-4.514-12.069-5.318-17.783-1.976l-15.085 8.826-12.086-20.656 15.108-8.84c5.698-3.333 8.542-10.006 6.999-16.427zm-45.09 171.076h-37.333c-8.273 0-14.98 6.707-14.98 14.98v10.08h-12.612l-33.936-37.142 33.969-37.45h12.58v10.46c0 8.273 6.707 14.98 14.98 14.98h43.966c26.581 0 48.206-21.625 48.206-48.206v-29.711l1.354-.792c7.225 5.442 15.125 9.984 23.443 13.477v10.492c-.147 43.493-35.811 78.832-79.637 78.832zm158.537 117.333-37.143 33.937-37.45-33.969v-12.58h10.46c8.265 0 14.969-6.694 14.98-14.96l.192-141.169h23.948l-.048 141.143c-.001 3.973 1.576 7.786 4.386 10.595 2.81 2.811 6.62 4.39 10.594 4.39h10.08v12.613zm149.514-92.272h-12.613v-10.08c0-8.273-6.707-14.98-14.98-14.98h-37.332c-43.812 0-79.469-35.319-79.636-78.793v-10.524c8.866-3.715 17.205-8.615 24.796-14.53v31.55c0 26.581 21.626 48.206 48.207 48.206h43.965c8.273 0 14.98-6.707 14.98-14.98v-10.46h12.58l33.969 37.45z"/></g></svg>