<svg id="Capa_1" enable-background="new 0 0 505.979 505.979" height="512" viewBox="0 0 505.979 505.979" width="512" xmlns="http://www.w3.org/2000/svg"><g><path d="m420.99 213.677h-133.436v-19.569h74.265c2.055 0 4.06-.633 5.742-1.813l59.17-41.503c2.685-1.883 4.275-4.962 4.258-8.241s-1.642-6.341-4.346-8.194l-59.17-40.56c-1.665-1.141-3.636-1.752-5.654-1.752h-74.265v-19.712h65.769c5.523 0 10-4.477 10-10v-52.333c0-5.523-4.477-10-10-10h-200.667c-5.523 0-10 4.477-10 10v52.333c0 5.523 4.477 10 10 10h65.769v19.712h-133.435c-5.523 0-10 4.477-10 10v82.063c0 5.523 4.477 10 10 10h133.435v19.569h-74.265c-2.055 0-4.06.633-5.742 1.813l-59.17 41.503c-2.685 1.883-4.275 4.962-4.258 8.241s1.642 6.341 4.346 8.194l59.17 40.56c1.665 1.141 3.636 1.752 5.654 1.752h74.265v180.239c0 5.523 4.477 10 10 10h49.13c5.523 0 10-4.477 10-10v-180.239h133.435c5.523 0 10-4.477 10-10v-82.063c0-5.523-4.478-10-10-10zm-258.334-193.677h180.667v32.333h-65.769-49.13-65.769v-32.333zm75.769 52.333h29.13v19.712h-29.13zm-143.435 80.843h81c5.523 0 10-4.477 10-10s-4.477-10-10-10h-81v-21.131h133.435 49.13 81.167l44.72 30.654-44.778 31.409h-81.108-49.13-133.436zm143.435 40.932h29.13v19.569h-29.13zm29.129 291.871h-29.13v-170.239h29.13zm10-190.239h-49.13-81.167l-44.72-30.654 44.778-31.409h81.108 49.13 133.437v20.969h-81c-5.523 0-10 4.477-10 10s4.477 10 10 10h81v21.094z"/><circle cx="220.69" cy="142.646" r="10"/><circle cx="284.939" cy="263.646" r="10"/></g></svg>