<svg id="Capa_1" enable-background="new 0 0 501.763 501.763" height="512" viewBox="0 0 501.763 501.763" width="512" xmlns="http://www.w3.org/2000/svg"><g><path d="m361.759 210.7c0-5.522-4.477-10-10-10h-152.025v-89.163c0-28.454 22.756-51.722 50.729-51.866.09-.001.179-.001.269-.001 12.546 0 24.594 4.584 33.945 12.922 5.551 4.953 10.03 11.165 12.951 17.966 4.706 10.954 15.493 18.032 27.481 18.032 10.146 0 19.535-5.069 25.116-13.56 5.524-8.403 6.451-18.908 2.481-28.1-6.351-14.701-16.049-28.126-28.046-38.825-20.014-17.847-45.806-27.826-72.624-28.1-29.384-.284-57.266 11.104-78.487 32.108-21.631 21.412-33.544 49.848-33.544 80.069v98.516c0 .029.004.058.004.087v180.103c0 61.137 49.739 110.875 110.875 110.875s110.875-49.738 110.875-110.875v-47.706c0-5.522-4.477-10-10-10s-10 4.478-10 10v47.706c0 50.108-40.767 90.875-90.875 90.875s-90.875-40.767-90.875-90.875v-170.188h181.751v33.482c0 5.522 4.477 10 10 10s10-4.478 10-10v-43.482zm-201.755-10v-88.517c0-24.841 9.807-48.229 27.614-65.855 17.175-17 39.62-26.328 63.294-26.328.306 0 .613.001.919.004 21.978.225 43.115 8.403 59.517 23.028 9.84 8.775 17.792 19.782 22.997 31.83 1.311 3.035 1.008 6.382-.833 9.182-1.899 2.889-4.962 4.546-8.403 4.546-3.984 0-7.558-2.326-9.105-5.927-4.067-9.467-10.295-18.109-18.015-24.997-13.118-11.695-30.035-18.136-47.63-17.995-38.942.202-70.625 32.441-70.625 71.866v89.163z"/><path d="m184.29 383.516c0 37.862 30.804 68.666 68.667 68.666s68.667-30.804 68.667-68.666c0-37.863-30.804-68.667-68.667-68.667s-68.667 30.804-68.667 68.667zm68.667-48.667c9.973 0 19.252 3.02 26.979 8.187l-67.459 67.459c-5.167-7.727-8.187-17.006-8.187-26.979 0-26.835 21.832-48.667 48.667-48.667zm0 97.333c-9.641 0-18.628-2.829-26.197-7.685l67.179-67.179c4.856 7.569 7.685 16.557 7.685 26.198 0 26.835-21.832 48.666-48.667 48.666z"/><circle cx="351.291" cy="298.182" r="10"/></g></svg>