<svg id="Capa_1" enable-background="new 0 0 503.33 503.33" height="512" viewBox="0 0 503.33 503.33" width="512" xmlns="http://www.w3.org/2000/svg"><g><path d="m477.71 289.879-1.043-.663v-109.993c7.11-1.236 13.516-5.025 18.068-10.816 5.605-7.13 7.585-16.267 5.432-25.07-12.209-49.829-56.78-84.63-108.388-84.63h-280.218c-61.515 0-111.561 49.794-111.561 111v204.916c0 16.445 13.428 29.824 29.934 29.824h62.938c4.781 22.911 25.131 40.176 49.44 40.176 24.31 0 44.659-17.265 49.441-40.176h154.132c4.781 22.911 25.131 40.176 49.44 40.176 24.31 0 44.659-17.265 49.441-40.176h48.565c5.523 0 10-4.478 10-10v-58.011c-.001-18.955-9.579-36.36-25.621-46.557zm-57.389-36.49-.121-64.41c-.004-2.485.965-4.828 2.731-6.596 1.796-1.797 4.192-2.786 6.741-2.786h.009l26.985.045v96.856zm-400.321 121.234v-135.996h19.833v145.82h-9.899c-5.477 0-9.934-4.407-9.934-9.824zm61 9.824h-21.167v-145.82h8.035c7.241 0 13.131 5.891 13.131 13.132v132.688zm61.312 40.176c-16.821 0-30.506-13.686-30.506-30.507s13.685-30.506 30.506-30.506 30.507 13.685 30.507 30.506-13.686 30.507-30.507 30.507zm253.013 0c-16.821 0-30.506-13.686-30.506-30.507s13.685-30.506 30.506-30.506c40.8 0 40.175 61.013 0 61.013zm88.005-40.176h-38.438c-4.525-23.238-25.025-40.837-49.568-40.837-24.542 0-45.042 17.599-49.567 40.837h-153.877c-4.525-23.238-25.025-40.837-49.568-40.837-17.062 0-32.164 8.513-41.312 21.505v-113.356c0-18.269-14.863-33.132-33.131-33.132h-47.869v-48.92c0-50.178 41.074-91 91.561-91h280.218c42.37 0 78.953 28.534 88.961 69.386.683 2.789.052 5.688-1.729 7.954-1.809 2.301-4.535 3.62-7.48 3.62-.005 0-.01 0-.016 0l-41.808-.07c-.01 0-.018 0-.028 0-7.902 0-15.323 3.072-20.897 8.651-5.549 5.554-8.597 12.93-8.583 20.768l.131 69.89c.006 3.414 1.754 6.588 4.634 8.42l62.014 39.432c10.238 6.508 16.351 17.604 16.351 29.68v48.009z"/><path d="m369.125 297.925h-238.75c-5.523 0-10 4.478-10 10s4.477 10 10 10h238.75c5.523 0 10-4.478 10-10s-4.477-10-10-10z"/><path d="m368 188.098c0-5.522-4.477-10-10-10h-247.75c-5.523 0-10 4.478-10 10s4.477 10 10 10h247.75c5.523 0 10-4.477 10-10z"/><path d="m208.246 158.747h75.5c5.523 0 10-4.478 10-10v-40.317c0-5.522-4.477-10-10-10h-75.5c-5.523 0-10 4.478-10 10v40.316c0 5.523 4.477 10.001 10 10.001zm10-40.317h55.5v20.316h-55.5z"/><path d="m378.086 98.43h-55.342c-5.523 0-10 4.478-10 10v40.316c0 5.522 4.477 10 10 10h55.342c16.629 0 30.158-13.529 30.158-30.158s-13.528-30.158-30.158-30.158zm0 40.317h-45.342v-20.317h45.342c5.601 0 10.158 4.557 10.158 10.158.001 5.602-4.556 10.159-10.158 10.159z"/><path d="m178.745 148.747v-40.317c0-5.522-4.477-10-10-10h-75.5c-5.523 0-10 4.478-10 10v40.316c0 5.522 4.477 10 10 10h75.5c5.523.001 10-4.477 10-9.999zm-20-10h-55.5v-20.317h55.5z"/><path d="m260.502 217.759c-5.523 0-10 4.478-10 10v40.316c0 5.522 4.477 10 10 10h75.5c5.523 0 10-4.478 10-10v-40.316c0-5.522-4.477-10-10-10zm65.5 40.317h-55.5v-20.316h55.5z"/><path d="m145.501 217.759c-5.523 0-10 4.478-10 10v40.316c0 5.522 4.477 10 10 10h75.5c5.523 0 10-4.478 10-10v-40.316c0-5.522-4.477-10-10-10zm65.5 40.317h-55.5v-20.316h55.5z"/><circle cx="142.229" cy="394.116" r="10"/><circle cx="395.242" cy="394.116" r="10"/><circle cx="414.5" cy="308.044" r="10"/><circle cx="65.25" cy="188.044" r="10"/></g></svg>