<svg id="Layer_1" enable-background="new 0 0 511.883 511.883" height="512" viewBox="0 0 511.883 511.883" width="512" xmlns="http://www.w3.org/2000/svg"><path d="m298.777 511.83h-87c-44.112 0-80-35.888-80-80v-148c0-44.112 35.888-80 80-80h87c44.112 0 80 35.888 80 80v148c0 44.113-35.888 80-80 80zm-87-268c-22.056 0-40 17.944-40 40v148c0 22.056 17.944 40 40 40h87c22.056 0 40-17.944 40-40v-148c0-22.056-17.944-40-40-40zm-113.369 124.824c2.112-10.842-4.964-21.343-15.806-23.455-48.652-9.659-58.631-75.226-14.612-98.409 9.028-4.725 13.061-15.482 9.363-24.978-18.713-46.96 21.214-98.181 71.354-91.461 10.677 1.328 20.492-6.039 22.205-16.663 18.99-104.098 168.942-94.808 174.8 10.963.188 5.323 2.492 10.352 6.4 13.97 3.909 3.618 9.092 5.526 14.421 5.306 103.716-3.293 145.253 131.783 56.728 186.891-9.396 5.808-12.304 18.133-6.497 27.528 5.808 9.396 18.131 12.304 27.528 6.497 20.102-12.425 36.955-29.778 48.738-50.185 51.82-87.625-9.239-202.299-109.396-210.247-4.795-26.009-17.536-49.88-36.878-68.591-45.469-45.673-124.254-47.857-172.367-5.1-18.359 15.78-31.804 36.378-38.889 59.214-65.419 2.033-115.096 66.406-100.223 130.54-62.267 48.043-37.8 149.265 39.675 163.987 1.292.252 2.578.373 3.847.373 9.378 0 17.748-6.629 19.609-16.18zm214.369-35.846c0-11.046-8.954-20-20-20h-12.022c-6.053 0-10.978-4.925-10.978-10.978v-12.022c-1.056-26.536-38.953-26.516-40 0v12.022c0 28.109 22.869 50.978 50.978 50.978h12.022c11.046 0 20-8.954 20-20z"/></svg>