<svg id="Layer_1" enable-background="new 0 0 511.981 511.981" height="512" viewBox="0 0 511.981 511.981" width="512" xmlns="http://www.w3.org/2000/svg"><g><path d="m496.981 61.845h-103.367v-26.237c0-8.284-6.716-15-15-15h-245.246c-8.284 0-15 6.716-15 15v26.236h-103.368c-8.284 0-15 6.716-15 15v367.936c0 25.661 20.877 46.538 46.538 46.538h159.61c.646.035 1.296.055 1.951.055h95.784c.655 0 1.305-.02 1.951-.055h159.609c25.661 0 46.538-20.877 46.538-46.538v-367.935c0-8.284-6.715-15-15-15zm-133.367-11.237v211.534h-31.84v-166.697c0-8.284-6.716-15-15-15h-121.566c-8.284 0-15 6.716-15 15v166.697h-31.839v-185.239c.003-.039.003-.077 0-.116v-26.179zm-61.84 166.072c-25.669-20.406-65.902-20.402-91.566 0v-106.235h91.566zm-45.783 14.567c20.042 0 37.107 12.938 43.315 30.896h-86.629c6.206-17.958 23.272-30.896 43.314-30.896zm-137.623 30.896h-6.422c-19.902.793-19.887 29.215 0 30h278.937c18.276-.516 20.45-26.011 2.731-29.74v-170.558h88.368v315.421h-451.982v-315.421h88.368zm191.512 193.232c0 3.047-2.285 5.565-5.231 5.943h-97.318c-2.945-.379-5.231-2.896-5.231-5.943v-18.109h107.78zm-279.88-10.595v-7.515h142.102v18.109c0 2.025.177 4.009.499 5.943h-126.063c-9.119.001-16.538-7.418-16.538-16.537zm435.443 16.538h-126.062c.323-1.935.499-3.918.499-5.943v-18.109h142.101v7.515c0 9.118-7.419 16.537-16.538 16.537z"/><path d="m255.991 171.11c8.284 0 15-6.716 15-15-.79-19.897-29.213-19.892-30 0 0 8.284 6.715 15 15 15z"/></g></svg>