<svg id="Layer_1" enable-background="new 0 0 512 512" height="512" viewBox="0 0 512 512" width="512" xmlns="http://www.w3.org/2000/svg"><path d="m392 512h-272c-66.168 0-120-53.832-120-120v-272c0-66.168 53.832-120 120-120h208c26.536 1.056 26.516 38.953 0 40h-208c-44.112 0-80 35.888-80 80v272c0 44.112 35.888 80 80 80h272c44.112 0 80-35.888 80-80v-185c1.056-26.536 38.953-26.516 40 0v185c0 66.168-53.832 120-120 120zm-6.664-275.162 112.143-133.956c.021-.026.044-.053.065-.079 22.082-26.654 18.362-66.305-8.292-88.389-26.655-22.082-66.305-18.362-88.389 8.291-.038.046-.075.092-.113.138l-110.265 135.535c-6.971 8.568-5.676 21.166 2.893 28.137 8.568 6.969 21.165 5.675 28.137-2.893l110.201-135.458c8.021-9.617 22.368-10.942 32.018-2.948 9.66 8.005 11.016 22.371 3.03 32.041l-112.1 133.905c-7.09 8.469-5.972 21.083 2.498 28.174 3.744 3.135 8.298 4.665 12.827 4.664 5.715 0 11.391-2.437 15.347-7.162zm-215.844 196.162c-20.629 0-40.549-11.188-50.749-28.5-8.693-14.756-9.022-31.622-.904-46.274 10.018-18.081 15.75-34.866 21.293-51.1 9.445-27.658 18.367-53.783 45.307-76.197 19.563-16.276 44.256-23.913 69.526-21.499 25.312 2.416 48.16 14.617 64.334 34.354 13.994 17.078 21.701 38.773 21.701 61.088 2.241 77.886-99.987 128.158-170.508 128.128zm75.403-184.003c-12.715 0-24.933 4.41-34.872 12.68-18.302 15.228-24.482 33.326-33.037 58.376-5.822 17.05-12.421 36.375-24.158 57.559-.593 1.07-1.696 3.062.379 6.584 2.578 4.375 9 8.805 16.286 8.805 44.294-.001 130.507-31.107 130.507-88.129 0-13.286-4.371-25.644-12.641-35.736-9.365-11.429-22.575-18.491-37.195-19.887-1.763-.169-3.521-.252-5.269-.252z"/></svg>