<?xml version="1.0" encoding="iso-8859-1"?>
<!-- Generator: Adobe Illustrator 19.0.0, SVG Export Plug-In . SVG Version: 6.00 Build 0)  -->
<svg version="1.1" id="Layer_1" xmlns="http://www.w3.org/2000/svg" xmlns:xlink="http://www.w3.org/1999/xlink" x="0px" y="0px"
	 viewBox="0 0 492.481 492.481" enable-background="new 0 0 492.481 492.481;" xml:space="preserve">
<g>
	<g>
		<path d="M467.683,24.803c-15.99-15.99-37.26-24.798-59.885-24.798s-43.894,8.808-59.885,24.798L2.067,370.639L0,492.476
			l121.836-2.067l345.837-345.837c16-16,24.808-37.26,24.808-59.885C492.481,62.072,483.673,40.803,467.683,24.803z
			 M113.548,470.851l-93.51,1.587l1.587-93.51l28.543-28.543l91.919,91.928L113.548,470.851z M156.01,428.389l-91.919-91.927
			L320.25,80.311l91.922,91.915L156.01,428.389z M453.75,130.649l-27.654,27.654l-91.922-91.913l27.664-27.663
			c12.269-12.269,28.596-19.029,45.961-19.029c17.365,0,33.692,6.76,45.962,19.029c12.269,12.279,19.029,28.606,19.029,45.962
			C472.788,102.053,466.029,118.37,453.75,130.649z"/>
	</g>
</g>
<g>
	<g>
		
			<rect x="243.481" y="229.33" transform="matrix(0.7071 -0.7071 0.7071 0.7071 -94.9257 249.1824)" width="19.692" height="19.692"/>
	</g>
</g>
<g>
	<g>
		
			<rect x="279.682" y="193.118" transform="matrix(0.7071 -0.7071 0.7071 0.7071 -58.7167 264.1743)" width="19.692" height="19.692"/>
	</g>
</g>
<g>
	<g>
		
			<rect x="207.26" y="265.533" transform="matrix(0.7071 -0.7071 0.7071 0.7071 -131.1335 234.1736)" width="19.692" height="19.692"/>
	</g>
</g>
<g>
	<g>
		
			<rect x="171.439" y="301.57" transform="matrix(0.7071 -0.7071 0.7071 0.7071 -167.1736 219.2397)" width="19.239" height="19.692"/>
	</g>
</g>
<g>
	<g>
		<rect x="235.37" y="472.613" width="247.237" height="19.692"/>
	</g>
</g>
<g>
</g>
<g>
</g>
<g>
</g>
<g>
</g>
<g>
</g>
<g>
</g>
<g>
</g>
<g>
</g>
<g>
</g>
<g>
</g>
<g>
</g>
<g>
</g>
<g>
</g>
<g>
</g>
<g>
</g>
</svg>
