<svg id="Layer_1" enable-background="new 0 0 511.936 511.936" height="512" viewBox="0 0 511.936 511.936" width="512" xmlns="http://www.w3.org/2000/svg"><path d="m404.936 252.294c16.399 0 31.625-7.388 41.773-20.27 43.281-54.942 65.227-96.854 65.227-124.571 0-59.088-48-107.16-107-107.16s-107 48.072-107 107.16c0 27.717 21.945 69.628 65.227 124.571 10.148 12.883 25.374 20.27 41.773 20.27zm0-212c36.944 0 67 30.128 67 67.16 0 13.491-14.882 46.798-56.648 99.818-5.455 6.748-15.239 6.758-20.703 0-41.767-53.02-56.648-86.327-56.648-99.818-.001-37.032 30.055-67.16 66.999-67.16zm-145.102 58.784c1.119 10.989-6.882 20.804-17.87 21.924-113.188 10.773-162.973 151.611-82.114 231.38 68.199 70.4 191.628 42.676 224.323-49.011 3.823-10.364 15.323-15.663 25.687-11.84 10.363 3.824 15.664 15.324 11.841 25.687-72.761 182.58-337.104 135.996-341.764-60.924-1.575-87.91 70.483-167.676 157.973-175.086 10.998-1.118 20.804 6.88 21.924 17.87zm-3.898 132.216c13.807 0 25 11.193 25 25-1.317 33.162-48.688 33.153-50 0 0-13.807 11.193-25 25-25zm240.754 113.95c-62.364 173.321-295.676 224.212-423.532 90.492-152.191-154.841-52.211-419.363 164.358-434.788 11.012-.782 20.584 7.512 21.369 18.53.784 11.018-7.512 20.585-18.529 21.37-111.697 7.95-199.73 101.992-200.415 214.095-.726 118.423 96.632 215.935 214.995 217.353 90.477 0 172.902-56.365 204.246-140.95 3.84-10.358 15.352-15.641 25.703-11.804 10.358 3.837 15.643 15.345 11.805 25.702zm-91.754-264.95c13.807 0 25 11.193 25 25-1.317 33.162-48.688 33.153-50 0 0-13.807 11.193-25 25-25zm-58.246 208.95c3.838-10.357-1.447-21.865-11.804-25.704-10.359-3.837-21.865 1.447-25.704 11.804-13.918 37.725-64.347 49.756-92.805 20.509-31.215-30.601-15.29-84.295 27.118-94.087 25.597-7.079 16.936-43.973-9.119-38.946-72.871 16.955-99.665 108.383-46.284 161.317 18.157 18.157 42.252 28.157 67.845 28.156 40.307.001 76.777-25.336 90.753-63.049z"/></svg>