<svg id="Capa_1" enable-background="new 0 0 502.976 502.976" height="512" viewBox="0 0 502.976 502.976" width="512" xmlns="http://www.w3.org/2000/svg"><g><path d="m453.548 117.042v-30.259c0-5.523-4.477-10-10-10h-81.137c-5.523 0-10 4.477-10 10v30.258h-20.924v-33.552c0-20.423-16.615-37.039-37.039-37.039h-85.923c-20.423 0-37.039 16.615-37.039 37.039v33.553h-19.939v-30.259c0-5.523-4.477-10-10-10h-81.135c-5.523 0-10 4.477-10 10v30.258s-50.412-5.425-50.412 40v259.484c0 22.056 17.944 40 40 40h166.489c5.523 0 10-4.477 10-10s-4.477-10-10-10h-166.489c-11.028 0-20-8.972-20-20v-259.483c0-11.028 8.972-20 20-20h422.976c11.028 0 20 8.972 20 20v259.484c0 11.028-8.972 20-20 20h-167.738c-5.523 0-10 4.477-10 10s4.477 10 10 10h167.737c22.056 0 40-17.944 40-40v-259.484c.001-44.509-49.427-40-49.427-40zm-81.136-20.259h61.137v20.258h-61.137zm-180.924-13.294c0-9.395 7.644-17.039 17.039-17.039h85.923c9.395 0 17.039 7.644 17.039 17.039v33.553h-120v-33.553zm-121.076 13.294h61.137v20.258h-61.137z"/><path d="m213.821 412.117h75.333c5.523 0 10-4.477 10-10v-62.667h62.667c5.523 0 10-4.477 10-10v-75.333c0-5.523-4.477-10-10-10h-62.667v-62.667c0-5.523-4.477-10-10-10h-75.333c-5.523 0-10 4.477-10 10v62.667h-62.667c-5.523 0-10 4.477-10 10v75.333c0 5.523 4.477 10 10 10h62.667v62.667c0 5.523 4.477 10 10 10zm-62.667-92.667v-55.333h62.667c5.523 0 10-4.477 10-10v-62.667h55.333v62.667c0 5.523 4.477 10 10 10h62.667v55.333h-62.667c-5.523 0-10 4.477-10 10v62.667h-55.333v-62.667c0-5.523-4.477-10-10-10z"/><circle cx="251.488" cy="446.283" r="10"/></g></svg>