<svg id="Layer_1" enable-background="new 0 0 512.068 512.068" height="512" viewBox="0 0 512.068 512.068" width="512" xmlns="http://www.w3.org/2000/svg"><g><path d="m256.042 198.81c-32.011 0-58.055 25.957-58.055 57.863 3.187 76.761 112.935 76.739 116.109 0 .001-31.906-26.042-57.863-58.054-57.863zm0 85.725c-15.415 0-27.957-12.499-27.957-27.862 1.534-36.963 54.385-36.953 55.913 0 .001 15.363-12.54 27.862-27.956 27.862z"/><path d="m510.962 251.033c-2.107-5.174-21.777-51.851-62.707-97.018-47.401-52.408-107.611-85.336-177.172-89.862v-22.742c-.794-19.902-29.311-19.887-30.098 0v22.496c-117.368 3.677-205.233 102.587-239.903 187.185-1.451 3.605-1.442 7.63.024 11.229 34.88 83.137 122.675 181.308 239.879 186.879v21.458c.795 19.902 29.311 19.887 30.098 0v-21.21c117.376-3.671 205.232-102.578 239.904-187.187 1.45-3.604 1.441-7.63-.025-11.228zm-254.92 97.424c-50.78 0-92.093-41.174-92.093-91.785 5.054-121.763 179.148-121.728 184.184.001.001 50.61-41.311 91.784-92.091 91.784zm-99.225 46.566c-56.268-27.313-107.47-96.007-125.387-138.389 6.228-13.897 23.864-49.491 54.654-83.78 44.065-49.073 96.125-75.574 154.901-78.922v41.88c-55.365 6.812-99.375 50.678-106.206 105.86h-58.765c-19.967.793-19.952 29.214 0 30h58.765c6.831 55.182 50.841 99.048 106.206 105.86v41.588c-29.674-2.251-57.92-10.313-84.168-24.097zm269.175-54.523c-44.065 49.077-96.127 75.578-154.909 78.922v-41.888c55.372-6.805 99.391-50.674 106.222-105.862h58.771c19.967-.793 19.952-29.214 0-30h-58.771c-6.832-55.188-50.85-99.057-106.222-105.862v-41.577c61.09 4.581 113.021 33.742 154.837 79.891 30.986 34.193 48.505 68.945 54.72 82.596-6.23 13.899-23.865 49.496-54.648 83.78z"/></g></svg>