<?xml version="1.0" encoding="iso-8859-1"?>
<!-- Generator: Adobe Illustrator 19.0.0, SVG Export Plug-In . SVG Version: 6.00 Build 0)  -->
<svg version="1.1" id="Layer_1" xmlns="http://www.w3.org/2000/svg" xmlns:xlink="http://www.w3.org/1999/xlink" x="0px" y="0px"
	 viewBox="0 0 492.308 492.308" enable-background="new 0 0 492.308 492.308;" xml:space="preserve">
<g>
	<g>
		<path d="M241.952,76.308l-60.721-59.077H0v457.846h492.308V76.308H241.952z M472.615,455.385H19.692V36.923h153.538L233.952,96
			h238.663V455.385z"/>
	</g>
</g>
<g>
	<g>
		<path d="M298.859,319.387c32.959-39.989,30.772-99.41-6.609-136.791c-19.25-19.25-44.837-29.846-72.058-29.846
			c-27.221,0-52.808,10.596-72.048,29.846c-39.731,39.731-39.731,104.375,0,144.106c19.24,19.25,44.827,29.846,72.048,29.846
			c23.912,0,46.555-8.188,64.757-23.224l75.32,75.32l13.923-13.923L298.859,319.387z M278.327,312.779
			c-15.529,15.529-36.173,24.077-58.135,24.077s-42.596-8.548-58.125-24.077c-32.048-32.058-32.048-84.202,0-116.26
			c15.529-15.529,36.163-24.077,58.125-24.077s42.606,8.548,58.135,24.077C310.375,228.577,310.375,280.721,278.327,312.779z"/>
	</g>
</g>
<g>
</g>
<g>
</g>
<g>
</g>
<g>
</g>
<g>
</g>
<g>
</g>
<g>
</g>
<g>
</g>
<g>
</g>
<g>
</g>
<g>
</g>
<g>
</g>
<g>
</g>
<g>
</g>
<g>
</g>
</svg>
