<?xml version="1.0" encoding="iso-8859-1"?>
<!-- Generator: Adobe Illustrator 19.0.0, SVG Export Plug-In . SVG Version: 6.00 Build 0)  -->
<svg version="1.1" id="Layer_1" xmlns="http://www.w3.org/2000/svg" xmlns:xlink="http://www.w3.org/1999/xlink" x="0px" y="0px"
	 viewBox="0 0 496.423 496.423" enable-background="new 0 0 496.423 496.423;" xml:space="preserve">
<g>
	<g>
		<path d="M197.733,53.135H97.243c-27.938,0-50.668,22.731-50.668,50.663V191h201.827v-87.202
			C248.401,75.865,225.671,53.135,197.733,53.135z M228.709,171.308H66.267v-67.51c0-17.077,13.894-30.971,30.976-30.971h100.49
			c17.082,0,30.976,13.894,30.976,30.971V171.308z"/>
	</g>
</g>
<g>
	<g>
		<path d="M403.978,0l-42.212,42.442l18.659,18.755c-0.058,0.058-0.13,0.101-0.188,0.159c-15.183,15.25-15.183,40.067,0,55.308
			c2.853,2.871,6.154,5.075,9.635,6.901v222.55c0,10.279-8.298,18.635-18.49,18.635c-10.192,0-18.481-8.356-18.481-18.635V241.163
			c0-26.961-21.846-48.904-48.702-48.904h-9.26V5.827H0.031v490.596H294.94V211.952h9.26c16,0,29.01,13.106,29.01,29.211v104.952
			c0,21.135,17.125,38.327,38.173,38.327c21.058,0,38.183-17.192,38.183-38.327V127.974c9.76-0.434,18.898-4.326,25.837-11.3
			c0.036-0.036,0.061-0.079,0.097-0.115l18.663,18.76l42.231-42.442L403.978,0z M275.248,476.731H19.724V25.519h255.524V476.731z
			 M421.45,102.779c-3.644,3.663-8.481,5.673-13.625,5.673h-0.01c-5.144,0-9.971-2.01-13.615-5.683
			c-7.558-7.587-7.558-19.923,0.01-27.529c0.032-0.031,0.078-0.046,0.109-0.077l27.272,27.414
			C421.532,102.637,421.508,102.719,421.45,102.779z M389.536,42.442l14.442-14.519l64.625,64.952l-14.442,14.519L389.536,42.442z"
			/>
	</g>
</g>
<g>
</g>
<g>
</g>
<g>
</g>
<g>
</g>
<g>
</g>
<g>
</g>
<g>
</g>
<g>
</g>
<g>
</g>
<g>
</g>
<g>
</g>
<g>
</g>
<g>
</g>
<g>
</g>
<g>
</g>
</svg>
