<svg id="Layer_1" enable-background="new 0 0 512.247 512.247" height="512" viewBox="0 0 512.247 512.247" width="512" xmlns="http://www.w3.org/2000/svg"><path d="m510.388 490.16-150.982-289.611c-.968-2.011-2.027-3.739-3.231-5.271-5.602-7.136-14.401-11.216-23.512-10.906-9.241.311-17.521 4.86-22.718 12.484-.807 1.185-1.4 2.298-1.84 3.183l-26.737 49.619-48-87.427c-.068-.125-.138-.248-.21-.371-2.451-4.178-5.807-7.552-9.739-9.966v-45.509l52.701.102-5.882 21.123c-2.794 9.268 4.774 19.229 14.45 19.023h154.887c6.519 0 12.291-4.21 14.283-10.417s-.253-12.99-5.556-16.782l-32.962-23.582 34.434-31.921c4.525-4.195 6.02-10.733 3.767-16.478-2.253-5.744-7.794-9.523-13.964-9.523h-85.847l5.17-18.99c1.228-4.51.283-9.334-2.555-13.047-2.838-3.714-7.245-5.893-11.919-5.893h-136.007c-8.284 0-15 6.716-15 15v136.868c-3.917 2.399-7.264 5.752-9.72 9.904-.073.123-.144.247-.212.372l-181.432 327.838c-5.577 9.786 1.864 22.404 13.124 22.263h385.01c.71 0 1.412-.054 2.103-.152h94.795c5.244 0 10.107-2.738 12.826-7.222 2.718-4.483 2.899-10.061.475-14.711zm-109.057-422.23-19.872 18.422c-3.305 3.064-5.057 7.452-4.772 11.949.285 4.498 2.578 8.629 6.243 11.251l9.897 7.08h-88.39l2.808-10.086 16.305.031h.029c6.766 0 12.696-4.53 14.473-11.06l7.51-27.587zm-177.912-37.93h101.377c-3.148 11.56-9.532 35.013-12.674 46.556l-88.704-.171v-46.385zm-15.02 149.086 79.665 145.102c-2.546 23.175-35.586 21.992-36.423-1.371v-4.826c-2.333-56.194-82.384-56.151-84.696 0v63.275c-1.094 26.347-38.626 26.327-39.71 0v-55.52zm-167.775 303.16 56.61-102.292v1.312c2.746 66.156 96.988 66.105 99.71 0v-63.275c.681-16.385 24.022-16.373 24.696 0v4.826c.118 43.925 54.25 64.663 83.644 32.737l69.557 126.691h-334.217zm368.357-.152c-12.765-23.25-100.25-182.596-110.415-201.111l35.04-65.027 138.744 266.138z"/></svg>