<svg id="Layer_1" enable-background="new 0 0 512 512" height="512" viewBox="0 0 512 512" width="512" xmlns="http://www.w3.org/2000/svg"><g><path d="m392.383 205.29c-7.841 0-15.252 1.856-21.834 5.137-9.623-29.217-46.432-42.637-72.669-25.413-11.617-20.083-39.192-29.56-61.103-19.766v-58.74c0-1.44-.075-2.861-.202-4.269l6.735-6.613c4.066-3.993 5.519-9.945 3.749-15.362s-6.457-9.363-12.097-10.185l-18.979-2.763c-11.402-8.068-28.095-10.507-41.597-5.725l-26.259-53.227c-2.526-5.121-7.741-8.364-13.45-8.364-5.71-.001-10.926 3.241-13.453 8.361l-26.833 54.369-60 8.718c-5.65.821-10.344 4.779-12.108 10.209-1.765 5.43-.293 11.391 3.795 15.376l43.416 42.32-10.25 59.757c-2.16 12.137 10.913 21.611 21.764 15.812l53.665-28.213 7.359 3.869v68.788c-18.481-30.535-61.825-40.379-91.688-20.81l-14.266 8.933c-6.744 4.223-9.017 12.979-5.179 19.949.635 1.153 63.788 115.931 89.407 170.83.438.937.877 1.862 1.319 2.777 10.318 21.347 26.483 39.277 46.748 51.851 20.143 12.498 43.352 19.104 67.119 19.104h76.068c34.219 0 66.453-13.263 90.763-37.346 24.311-24.083 37.876-56.19 38.198-90.408l.983-104.494c0-.024-.003-.048-.003-.072 0-.023.003-.045.003-.069v-25.201c0-27.085-22.035-49.12-49.121-49.12zm-250.727-48.803c-4.37-2.298-9.591-2.297-13.96 0l-33.744 17.74 6.445-37.574c.834-4.866-.779-9.831-4.314-13.277l-27.3-26.609 37.726-5.482c4.886-.71 9.109-3.779 11.294-8.206l16.869-34.18 15.406 31.229c-5.077 7.545-8.045 16.622-8.045 26.38v50.178zm239.554 296.855c-18.655 18.48-43.391 28.658-69.65 28.658h-76.068c-36.903 0-70.996-21.2-86.854-54.007-.382-.792-.764-1.594-1.144-2.409-21.266-45.57-66.276-128.646-83.499-160.178l2.271-1.422c8.311-5.203 18.151-6.855 27.704-4.651 9.555 2.205 17.675 8 22.865 16.32l27.471 44.032c3.543 5.679 10.422 8.323 16.856 6.48 6.435-1.843 10.871-7.727 10.871-14.42v-205.237c.957-23.051 33.795-23.034 34.743 0v173.104c.793 19.902 29.215 19.887 30 0v-69.118c1.053-25.373 37.199-25.353 38.243 0v69.118c.793 19.902 29.215 19.887 30 0v-53.118c1.053-25.373 37.198-25.353 38.242 0v53.118c.793 19.902 29.215 19.887 30 0v-25.201c1.053-25.373 37.199-25.354 38.243 0v25.112l-.982 104.442c-.247 26.258-10.657 50.896-29.312 69.377z"/><path d="m489.717 51.97c-1.764-5.43-6.458-9.388-12.109-10.209l-30.984-4.502-13.856-28.076c-5.383-11.082-21.522-11.078-26.902 0l-13.856 28.076-30.984 4.502c-5.65.821-10.345 4.779-12.109 10.209-1.765 5.43-.293 11.391 3.795 15.376l22.42 21.854-5.292 30.859c-.965 5.627 1.348 11.315 5.967 14.671 4.629 3.363 10.759 3.792 15.797 1.142l27.713-14.569 27.713 14.569c5.053 2.657 11.178 2.214 15.797-1.142s6.933-9.043 5.967-14.671l-5.293-30.859 22.42-21.854c4.089-3.985 5.56-9.946 3.796-15.376zm-52.804 21.253c-3.535 3.446-5.148 8.411-4.314 13.277l1.488 8.675-7.791-4.096c-4.369-2.298-9.591-2.298-13.96 0l-7.791 4.096 1.488-8.675c.834-4.866-.779-9.831-4.314-13.277l-6.303-6.144 8.71-1.266c4.886-.71 9.109-3.778 11.294-8.206l3.896-7.893 3.895 7.893c2.185 4.427 6.409 7.496 11.294 8.206l8.71 1.266z"/></g></svg>