<svg id="Layer_1" enable-background="new 0 0 511.731 511.731" height="512" viewBox="0 0 511.731 511.731" width="512" xmlns="http://www.w3.org/2000/svg"><g><path d="m290.499 168.762c-11.092-1.985-22.274.467-31.483 6.91-4.205 2.942-7.758 6.561-10.568 10.674l-39.475-7.068c-3.245-16.568-16.377-30.304-33.979-33.455-11.092-1.983-22.275.468-31.483 6.91-9.171 6.416-15.282 16.022-17.206 27.049-3.971 22.748 11.343 44.575 34.138 48.656 10.957 1.981 22.271-.443 31.483-6.91 4.883-3.416 8.887-7.742 11.865-12.7l37.8 6.768c1.006 7.243 3.898 14.081 8.286 19.842l-25.4 35.45c-.853-.208-1.714-.4-2.591-.557-11.091-1.987-22.273.467-31.482 6.908-9.172 6.416-15.284 16.022-17.208 27.05-3.971 22.746 11.343 44.573 34.137 48.655 0 0 .001.001.001.001 4.315.772 8.651.881 12.96.308l25.133 36.39c-2.689 4.412-4.561 9.329-5.477 14.574-3.971 22.748 11.344 44.575 34.138 48.656l-.001-.001c2.511.45 5.025.673 7.522.672 8.531 0 16.837-2.597 23.961-7.58 9.172-6.416 15.284-16.022 17.208-27.05 3.971-22.746-11.343-44.573-34.138-48.656-6.581-1.178-13.19-.781-19.402 1.071l-22.47-32.535c4.754-5.599 7.959-12.379 9.256-19.809 1.965-11.259-.8-22.288-6.851-31.056l26.266-36.659c.17.033.338.074.509.104 2.511.45 5.025.673 7.522.672 8.531 0 16.837-2.597 23.961-7.58 9.172-6.416 15.284-16.022 17.208-27.05 3.969-22.746-11.345-44.573-34.14-48.654zm-115.77 28.183c-2.623 1.835-5.818 2.532-9 1.961-6.582-1.178-11.01-7.443-9.872-13.967.542-3.108 2.265-5.816 4.85-7.625 2.624-1.844 5.869-2.53 9-1.961 6.582 1.178 11.01 7.443 9.872 13.967-.543 3.109-2.265 5.817-4.85 7.625zm28.019 112.502c.542-3.109 2.265-5.817 4.851-7.626 2.622-1.833 5.819-2.531 8.999-1.96 6.582 1.178 11.01 7.443 9.872 13.967-.543 3.108-2.266 5.816-4.851 7.625-.26.182-.53.344-.801.503-.574.235-1.137.507-1.689.819-2.043.803-4.278 1.04-6.51.639-6.581-1.179-11.009-7.444-9.871-13.967zm78.437 90.149c.718 0 1.442.064 2.166.193 6.583 1.18 11.011 7.445 9.873 13.968-.542 3.109-2.265 5.817-4.85 7.626-2.623 1.833-5.82 2.526-8.998 1.961 0 0-.001-.001-.001-.001-6.582-1.178-11.01-7.443-9.872-13.967.542-3.108 2.265-5.816 4.85-7.625 2.025-1.417 4.393-2.155 6.832-2.155zm13.899-187.335c-.542 3.108-2.265 5.816-4.85 7.625-2.622 1.833-5.818 2.527-8.998 1.961-.001-.001-.001-.001-.002-.001-.821-.146-1.622-.374-2.381-.676-.548-.218-1.067-.481-1.568-.769-.042-.024-.084-.046-.125-.07-4.271-2.527-6.664-7.486-5.797-12.453.542-3.107 2.265-5.815 4.85-7.624 2.624-1.844 5.869-2.53 9-1.961 6.581 1.178 11.009 7.443 9.871 13.968z"/><path d="m460.919 56.483h-146.23v-.928c0-14.705-11.963-26.668-26.668-26.668h-13.719c-20.834-38.526-76.84-38.509-97.661 0h-14.721c-14.705 0-26.668 11.963-26.668 26.668v.928h-84.44c-8.284 0-15 6.716-15 15v425.247c0 8.284 6.716 15 15 15h410.108c8.284 0 15-6.716 15-15v-425.247c-.001-8.284-6.717-15-15.001-15zm-295.668 2.405h21.311c6.649 0 12.505-4.378 14.387-10.756 7.433-24.276 41.618-24.262 49.043 0 1.882 6.378 7.738 10.756 14.387 10.756h20.309v22.066h-119.437zm-99.44 27.595h69.44v4.36c0 11.089 9.021 20.11 20.11 20.11h139.218c11.088 0 20.11-9.021 20.11-20.11v-4.36h70.442v395.247h-319.32zm380.108 395.248h-30.789v-395.248h30.789z"/></g></svg>