<svg id="Layer_1" enable-background="new 0 0 511.918 511.918" height="512" viewBox="0 0 511.918 511.918" width="512" xmlns="http://www.w3.org/2000/svg"><g><path d="m191.438 197.821h-99.213c-8.284 0-15 6.716-15 15v193.274c0 8.284 6.716 15 15 15h99.214c8.284 0 15-6.716 15-15v-193.274c-.001-8.284-6.716-15-15.001-15zm-84.213 94.425h69.214v34.425h-69.214zm69.213-64.425v34.425h-69.214v-34.425zm-69.213 163.274v-34.425h69.214v34.425z"/><path d="m462.142.053h-412.367c-27.446 0-49.775 22.329-49.775 49.776v412.261c0 27.446 22.329 49.775 49.775 49.775h412.366c27.447 0 49.776-22.329 49.776-49.775v-412.261c.001-27.447-22.328-49.776-49.775-49.776zm-412.367 30h412.366c10.904 0 19.776 8.871 19.776 19.775v68.462h-451.917v-68.461c0-10.905 8.871-19.776 19.775-19.776zm412.367 451.812h-412.367c-10.904 0-19.775-8.871-19.775-19.775v-313.799h451.918v313.799c0 10.904-8.872 19.775-19.776 19.775z"/><path d="m75.319 90.155c8.341 0 15.102-6.757 15.102-15.093-.795-20.02-29.412-20.015-30.204 0 0 8.336 6.761 15.093 15.102 15.093z"/><path d="m136.726 90.155c8.341 0 15.102-6.757 15.102-15.093-.795-20.02-29.412-20.014-30.204 0 0 8.336 6.761 15.093 15.102 15.093z"/><path d="m200.917 90.155c8.341 0 15.102-6.757 15.102-15.093-.795-20.02-29.412-20.015-30.204 0 0 8.336 6.761 15.093 15.102 15.093z"/><path d="m392.697 189.097c-10.67-1.907-21.427.45-30.285 6.647-3.885 2.718-7.198 6.032-9.85 9.795l-35.982-6.443c-3.318-15.668-15.842-28.589-32.56-31.583-10.669-1.906-21.427.45-30.287 6.647-8.824 6.173-14.703 15.415-16.555 26.024-3.819 21.882 10.911 42.878 32.837 46.805 15.796 3.091 33.039-4.568 41.388-18.343l34.342 6.149c1.012 6.511 3.598 12.668 7.47 17.925l-23.166 32.332c-.631-.144-1.268-.277-1.912-.393-21.319-4.275-43.543 11.169-46.841 32.672-3.819 21.882 10.911 42.878 32.837 46.805 3.973.709 7.956.837 11.928.369l23.014 33.321c-14.383 23.632.502 55.825 27.865 60.332 10.54 1.905 21.424-.425 30.287-6.647 29.33-20.361 18.823-66.641-16.283-72.83-6.114-1.093-12.251-.779-18.047.847l-20.393-29.528c4.333-5.284 7.264-11.615 8.471-18.534 1.852-10.61-.667-21.004-6.242-29.353l24.023-33.529c10.521 1.888 21.378-.449 30.222-6.657 29.337-20.369 18.821-66.638-16.281-72.83zm-109.591 26.664c-2.273 1.589-5.04 2.196-7.804 1.698-9.017-1.535-11.929-13.485-4.373-18.716 2.275-1.597 5.089-2.193 7.804-1.698 9.017 1.536 11.929 13.485 4.373 18.716zm27.745 106.731c.47-2.691 1.961-5.035 4.198-6.601 2.274-1.598 5.088-2.193 7.803-1.698 9.017 1.535 11.929 13.485 4.373 18.716-.208.145-.423.273-.638.401-.539.224-1.069.48-1.589.771-1.751.674-3.662.871-5.576.526-5.714-1.023-9.559-6.458-8.571-12.115zm72.929 85.554c.623 0 1.252.055 1.88.168 5.714 1.022 9.559 6.458 8.571 12.116-.47 2.691-1.961 5.035-4.198 6.601-2.273 1.589-5.04 2.196-7.804 1.698-5.714-1.022-9.559-6.458-8.571-12.116.47-2.69 1.961-5.034 4.198-6.6 1.756-1.227 3.809-1.867 5.924-1.867zm12.201-177.301c-.47 2.69-1.961 5.035-4.199 6.601-2.272 1.589-5.043 2.195-7.802 1.698-.001 0-.001 0-.002 0-.712-.127-1.407-.324-2.069-.588-.477-.189-.929-.419-1.364-.669-.037-.021-.075-.041-.112-.062-3.701-2.193-5.774-6.492-5.023-10.796.47-2.69 1.961-5.035 4.199-6.601 2.274-1.598 5.088-2.193 7.802-1.698 5.713 1.021 9.558 6.456 8.57 12.115z"/></g></svg>