<svg id="Layer_1" enable-background="new 0 0 512.043 512.043" height="512" viewBox="0 0 512.043 512.043" width="512" xmlns="http://www.w3.org/2000/svg"><g><path d="m496.974 36.145h-59.081v-21.192c0-8.258-6.716-14.953-15-14.953s-15 6.695-15 14.953v21.192h-303.646v-21.192c0-8.258-6.716-14.953-15-14.953s-15 6.695-15 14.953v21.192h-59.177c-8.284 0-15 6.695-15 14.953v65.322c0 8.258 6.716 14.953 15 14.953h15.847v214.461c0 8.258 6.716 14.953 15 14.953h92.702l-7.744 59.849h-30.663c-8.284 0-15 6.695-15 14.953s6.716 14.953 15 14.953h26.793l-5.774 44.625c-1.06 8.19 4.742 15.687 12.958 16.744 8.048 1.089 15.773-4.692 16.796-12.918l6.269-48.451h197.356l6.223 48.437c1.015 8.228 8.734 14.015 16.784 12.933 8.217-1.049 14.025-8.541 12.973-16.732l-5.735-44.638h27.073c8.284 0 15-6.695 15-14.953s-6.716-14.953-15-14.953h-30.915l-7.689-59.849h92.803c8.284 0 15-6.695 15-14.953v-214.46h15.847c8.284 0 15-6.695 15-14.953v-65.322c0-8.259-6.716-14.954-15-14.954zm-146.207 384.491h-189.643l7.744-59.849h174.211zm100.359-89.755h-390.209v-199.507h390.209zm30.848-229.414h-451.904v-35.415h451.904z"/><path d="m229.562 299.069h170.707c8.284 0 15-6.695 15-14.953v-106.534c-.792-19.84-29.215-19.825-30 0v91.58h-26.902v-60.607c-.792-19.84-29.215-19.825-30 0v60.607h-26.902v-30.268c-.792-19.84-29.215-19.825-30 0v30.268h-26.902v-91.58c-.792-19.84-29.215-19.825-30 0v106.533c-.001 8.259 6.715 14.954 14.999 14.954z"/><path d="m161.669 269.162h-60.995c-19.902.791-19.887 29.123 0 29.907h60.995c19.902-.791 19.887-29.123 0-29.907z"/><path d="m100.674 242.005h60.995c19.902-.791 19.887-29.123 0-29.907h-60.995c-19.902.791-19.887 29.123 0 29.907z"/></g></svg>