<svg id="Layer_1" enable-background="new 0 0 512.358 512.358" height="512" viewBox="0 0 512.358 512.358" width="512" xmlns="http://www.w3.org/2000/svg"><g><path d="m497.437 482.02h-467.437v-33.681h178.51c142.12 0 259.569-111.159 267.383-253.063l3.879-70.431 6.04 6.765c2.963 3.318 7.069 5.01 11.193 5.009 3.556 0 7.125-1.257 9.985-3.811 6.18-5.518 6.716-15 1.198-21.18l-30.211-33.834c-5.038-5.688-15.049-7.071-21.243-1.141l-32.088 28.652c-14.318 13.846 4.624 35.038 19.98 22.378l5.198-4.641-3.887 70.585c-6.938 126.007-111.229 224.713-237.428 224.713h-178.509v-403.079c-.687-19.669-29.1-20.123-30 0v481.759c0 8.284 6.716 15 15 15h482.437c19.737-.734 20.053-29.131 0-30z"/><path d="m223.82 366.859c90.038 0 163.29-73.251 163.29-163.29-8.97-216.626-317.643-216.563-326.58.001 0 90.038 73.252 163.289 163.29 163.289zm-15-295.73v7.224c.793 19.902 29.215 19.887 30 0v-7.224c61.534 6.924 110.517 55.906 117.441 117.441h-7.224c-19.902.793-19.887 29.215 0 30h7.224c-6.924 61.534-55.906 110.517-117.441 117.441v-7.224c-.793-19.902-29.215-19.887-30 0v7.224c-61.534-6.924-110.517-55.906-117.441-117.441h7.224c19.902-.793 19.887-29.215 0-30h-7.224c6.924-61.535 55.907-110.518 117.441-117.441z"/><path d="m176.002 218.935h5.368c6.847 30.177 33.868 52.781 66.088 52.781 8.284 0 15-6.716 15-15s-6.716-15-15-15c-15.505 0-28.852-9.391-34.668-22.781h34.668c19.902-.793 19.887-29.215 0-30h-34.668c5.816-13.39 19.163-22.781 34.668-22.781 8.284 0 15-6.716 15-15s-6.716-15-15-15c-32.219 0-59.241 22.604-66.088 52.781h-5.368c-19.902.793-19.887 29.215 0 30z"/></g></svg>