<svg id="Layer_1" enable-background="new 0 0 511.869 511.869" height="512" viewBox="0 0 511.869 511.869" width="512" xmlns="http://www.w3.org/2000/svg"><path d="m507.409 145.147-104.786-103.485c-4.879-4.818-12.407-5.715-18.281-2.175l-80.904 48.743c-14.828 6.662-28.261 15.778-39.936 27.105l-6.317 6.129-130.244-79.419c-5.911-3.604-13.521-2.695-18.416 2.201l-104.131 104.13c-4.656 4.655-5.731 11.803-2.651 17.622l58.437 110.433-6.281 6.281c-18.38 18.38-18.38 48.287 0 66.667 8.779 8.779 20.183 13.352 31.708 13.746.394 11.524 4.969 22.931 13.746 31.708 8.778 8.778 20.185 13.353 31.71 13.747 1.423 40.902 51.125 60.828 80.413 31.708l5.665-5.665 26.342 26.342c8.743 8.744 20.369 13.56 32.735 13.56 24.4.47 45.704-20.429 46.226-44.333 11.191-.471 22.247-4.965 30.773-13.491 8.066-8.066 12.779-18.586 13.463-29.875 10.649-.464 21.161-4.749 29.274-12.863 14.214-13.73 17.023-37.155 6.694-53.87l29.933-28.307c14.315-13.539 25.396-29.612 32.946-47.791l44.486-80.954c3.232-5.874 2.167-13.181-2.604-17.894zm-432.297 158.778 40.697-40.697c6.381-6.649 17.861-6.649 24.242.001l3.814 3.814c4.579 4.58 4.579 12.032 0 16.612l-3.806 3.806c-.003.003-.006.006-.009.009l-40.697 40.697c-6.38 6.649-17.861 6.65-24.241 0-6.683-6.684-6.684-17.558 0-24.242zm45.454 45.455 40.702-40.701c6.684-6.679 17.556-6.677 24.237.004l3.815 3.816c4.557 4.372 4.556 12.239 0 16.611l-44.512 44.512c-6.38 6.649-17.863 6.649-24.242 0-6.683-6.684-6.683-17.559 0-24.242zm45.456 69.697c-6.683-6.684-6.683-17.558 0-24.242l40.697-40.697c6.38-6.649 17.861-6.649 24.241 0 6.683 6.684 6.683 17.558 0 24.242l-40.697 40.697c-6.684 6.684-17.558 6.682-24.241 0zm208.72-66.325c-5.516 5.515-14.488 5.515-20.004 0-.167-.167-.347-.312-.52-.469-5.636-6.747-15.997-7.334-22.214-1.051-5.858 5.858-5.857 15.355 0 21.213 6.321 6.066 6.321 16.978 0 23.044-6.353 6.354-16.691 6.354-23.045 0-5.857-5.858-15.355-5.858-21.213 0-.002.002-.003.004-.005.006 0 0 0 0-.001.001-5.857 5.858-5.858 15.355 0 21.213 6.353 6.354 6.353 16.691 0 23.044-6.066 6.322-16.979 6.322-23.045 0l-26.342-26.342 13.82-13.82c28.379-28.151 10.026-77.357-29.449-80.283-.37-10.59-4.66-20.494-12.19-28.024l-3.815-3.816c-8.208-8.208-18.716-12.739-29.468-13.616-.362-10.186-4.413-20.265-12.172-28.024l-3.814-3.814c-18.382-18.381-48.287-18.38-66.667 0l-12.221 12.221-48.937-92.479 87.956-87.956 113.551 69.239-36.121 35.044c-20.12 18.658-20.402 52.955-.592 71.941 18.782 19.574 52.578 19.574 71.358 0l11.214-11.213 90.644 90.644c.029.03.059.059.089.089l3.204 3.204c5.513 5.516 5.513 14.49-.001 20.004zm64.091-122.466c-.277.504-.525 1.024-.742 1.556-5.93 14.53-14.719 27.365-26.122 38.149l-29.582 27.975-90.975-90.974c-5.857-5.858-15.356-5.858-21.213 0l-21.82 21.82c-7.615 7.936-21.317 7.936-28.933 0-8.037-7.71-7.919-21.603.255-29.183l64.692-62.764c9.347-9.068 20.128-16.33 32.044-21.584.581-.256 1.146-.549 1.689-.877l71.711-43.204 88.427 87.33z"/></svg>