<?xml version="1.0" encoding="iso-8859-1"?>
<!-- Generator: Adobe Illustrator 19.0.0, SVG Export Plug-In . SVG Version: 6.00 Build 0)  -->
<svg version="1.1" id="Layer_1" xmlns="http://www.w3.org/2000/svg" xmlns:xlink="http://www.w3.org/1999/xlink" x="0px" y="0px"
	 viewBox="0 0 492.308 492.308" enable-background="new 0 0 492.308 492.308;" xml:space="preserve">
<g>
	<g>
		<path d="M458.442,296.826v-50.621c0-117.053-95.231-212.279-212.288-212.279c-117.048,0-212.279,95.226-212.279,212.279v50.616
			C13.444,310.81,0,334.292,0,360.868c0,39.998,30.427,73.005,69.351,77.136c3.881,11.788,14.866,20.379,27.938,20.379h14.808
			c16.288,0,29.538-13.25,29.538-29.538V292.892c0-16.288-13.25-29.538-29.538-29.538H97.288c-13.07,0-24.054,8.588-27.936,20.374
			c-5.453,0.579-10.727,1.749-15.785,3.402v-40.925c0-106.192,86.394-192.587,192.587-192.587
			c106.202,0,192.596,86.394,192.596,192.587v40.927c-5.06-1.653-10.332-2.825-15.785-3.404
			c-3.882-11.787-14.867-20.374-27.936-20.374h-14.808c-16.288,0-29.538,13.25-29.538,29.538v135.952
			c0,16.288,13.25,29.538,29.538,29.538h14.808c13.072,0,24.058-8.591,27.938-20.379c38.916-4.132,69.341-37.138,69.341-77.135
			C492.308,334.295,478.867,310.817,458.442,296.826z M87.442,292.892c0-5.428,4.413-9.846,9.846-9.846h14.808
			c5.433,0,9.846,4.418,9.846,9.846v135.952c0,5.428-4.413,9.846-9.846,9.846H97.288c-5.433,0-9.846-4.418-9.846-9.846V292.892z
			 M67.75,303.87v113.99c-27.249-4.695-48.058-28.431-48.058-56.993C19.692,332.302,40.501,308.566,67.75,303.87z M404.875,428.844
			c0,5.428-4.414,9.846-9.846,9.846h-14.808c-5.433,0-9.846-4.418-9.846-9.846V292.892c0-5.428,4.413-9.846,9.846-9.846h14.808
			c5.433,0,9.846,4.418,9.846,9.846V428.844z M424.567,417.86V303.871c27.24,4.696,48.048,28.432,48.048,56.997
			C472.615,389.428,451.808,413.163,424.567,417.86z"/>
	</g>
</g>
<g>
</g>
<g>
</g>
<g>
</g>
<g>
</g>
<g>
</g>
<g>
</g>
<g>
</g>
<g>
</g>
<g>
</g>
<g>
</g>
<g>
</g>
<g>
</g>
<g>
</g>
<g>
</g>
<g>
</g>
</svg>
