<?xml version="1.0" encoding="iso-8859-1"?>
<!-- Generator: Adobe Illustrator 19.0.0, SVG Export Plug-In . SVG Version: 6.00 Build 0)  -->
<svg version="1.1" id="Layer_1" xmlns="http://www.w3.org/2000/svg" xmlns:xlink="http://www.w3.org/1999/xlink" x="0px" y="0px"
	 viewBox="0 0 494.236 494.236" enable-background="new 0 0 494.236 494.236;" xml:space="preserve">
<g>
	<g>
		<path d="M355.877,0c-43.192,0-82.846,21.966-108.76,59.519C221.204,21.966,181.56,0,138.368,0
			C62.599,0,0.964,68.437,0.964,152.562c0,54.202,23.462,195.654,240.76,338.135l5.394,3.538l5.394-3.538
			c217.298-142.481,240.76-283.933,240.76-338.135C493.272,68.437,431.637,0,355.877,0z M247.118,470.659
			C105.185,376.039,20.656,257.462,20.656,152.562c0-73.264,52.808-132.87,117.712-132.87c41.01,0,78.433,23.663,100.115,63.308
			l8.635,15.793L255.752,83c21.683-39.644,59.106-63.308,100.125-63.308c64.904,0,117.702,59.606,117.702,132.87
			C473.579,257.462,389.05,376.039,247.118,470.659z"/>
	</g>
</g>
<g>
</g>
<g>
</g>
<g>
</g>
<g>
</g>
<g>
</g>
<g>
</g>
<g>
</g>
<g>
</g>
<g>
</g>
<g>
</g>
<g>
</g>
<g>
</g>
<g>
</g>
<g>
</g>
<g>
</g>
</svg>
