<?xml version="1.0" encoding="iso-8859-1"?>
<!-- Generator: Adobe Illustrator 19.0.0, SVG Export Plug-In . SVG Version: 6.00 Build 0)  -->
<svg version="1.1" id="Layer_1" xmlns="http://www.w3.org/2000/svg" xmlns:xlink="http://www.w3.org/1999/xlink" x="0px" y="0px"
	 viewBox="0 0 492.308 492.308" enable-background="new 0 0 492.308 492.308;" xml:space="preserve">
<g>
	<g>
		<polygon points="378.269,318.25 378.269,263.856 358.577,263.856 358.577,318.25 304.183,318.25 304.183,337.942 358.577,337.942 
			358.577,392.327 378.269,392.327 378.269,337.942 432.663,337.942 432.663,318.25 		"/>
	</g>
</g>
<g>
	<g>
		<path d="M492.308,161.721c0-75.76-61.635-137.394-137.404-137.394c-43.154,0-82.827,19.798-108.75,53.625
			c-25.933-33.827-65.606-53.625-108.76-53.625C61.635,24.327,0,85.962,0,161.721C0,210.433,23.5,337.5,241.173,465.058l4.981,2.923
			l4.981-2.923c20.99-12.305,40.912-25.142,59.437-38.197c17.006,10.002,36.737,15.841,57.852,15.841
			c63.192,0,114.606-51.413,114.606-114.606c0-23.344-7.05-45.055-19.081-63.185C482.695,229.535,492.308,194.839,492.308,161.721z
			 M246.154,445.135C104.221,360.683,19.692,255.01,19.692,161.721c0-64.904,52.798-117.702,117.702-117.702
			c41.221,0,78.74,21.106,100.365,56.442l8.394,13.731l8.394-13.731c21.625-35.337,59.144-56.442,100.356-56.442
			c64.904,0,117.712,52.798,117.712,117.702c0,27.581-7.45,56.632-22.153,86.511c-20.833-21.399-49.889-34.751-82.04-34.751
			c-63.192,0-114.606,51.414-114.606,114.615c0,34.594,15.472,65.587,39.785,86.618
			C278.623,425.065,262.757,435.262,246.154,445.135z M368.423,423.01c-52.337,0-94.913-42.577-94.913-94.913
			s42.577-94.923,94.913-94.923s94.914,42.587,94.914,94.923S420.76,423.01,368.423,423.01z"/>
	</g>
</g>
<g>
</g>
<g>
</g>
<g>
</g>
<g>
</g>
<g>
</g>
<g>
</g>
<g>
</g>
<g>
</g>
<g>
</g>
<g>
</g>
<g>
</g>
<g>
</g>
<g>
</g>
<g>
</g>
<g>
</g>
</svg>
