<?xml version="1.0" encoding="iso-8859-1"?>
<!-- Generator: Adobe Illustrator 19.0.0, SVG Export Plug-In . SVG Version: 6.00 Build 0)  -->
<svg version="1.1" id="Layer_1" xmlns="http://www.w3.org/2000/svg" xmlns:xlink="http://www.w3.org/1999/xlink" x="0px" y="0px"
	 viewBox="0 0 492.308 492.308" enable-background="new 0 0 492.308 492.308;" xml:space="preserve">
<g>
	<g>
		<path d="M435.644,368.096v-64.875H256v-82.047c56.513-5.006,100.99-52.546,100.99-110.338C356.99,49.721,307.269,0,246.154,0
			S135.317,49.721,135.317,110.837c0,57.792,44.477,105.332,100.99,110.338v82.047H56.664v64.875H4.404v124.212h124.212V368.096
			h-52.26v-45.183h159.952v45.183h-52.26v124.212H308.26V368.096H256v-45.183h159.952v45.183h-52.26v124.212h124.212V368.096
			H435.644z M108.923,387.788v84.827H24.096v-84.827H108.923z M288.567,387.788v84.827H203.74v-84.827H288.567z M246.154,201.981
			c-50.255,0-91.144-40.885-91.144-91.144c0-50.26,40.889-91.144,91.144-91.144s91.144,40.885,91.144,91.144
			C337.298,161.096,296.409,201.981,246.154,201.981z M468.212,472.615h-84.827v-84.827h84.827V472.615z"/>
	</g>
</g>
<g>
</g>
<g>
</g>
<g>
</g>
<g>
</g>
<g>
</g>
<g>
</g>
<g>
</g>
<g>
</g>
<g>
</g>
<g>
</g>
<g>
</g>
<g>
</g>
<g>
</g>
<g>
</g>
<g>
</g>
</svg>
