<?xml version="1.0" encoding="iso-8859-1"?>
<!-- Generator: Adobe Illustrator 19.0.0, SVG Export Plug-In . SVG Version: 6.00 Build 0)  -->
<svg version="1.1" id="Layer_1" xmlns="http://www.w3.org/2000/svg" xmlns:xlink="http://www.w3.org/1999/xlink" x="0px" y="0px"
	 viewBox="0 0 492.308 492.308" enable-background="new 0 0 492.308 492.308;" xml:space="preserve">
<g>
	<g>
		<path d="M246.154,0C110.423,0,0,110.423,0,246.154s110.423,246.154,246.154,246.154s246.154-110.423,246.154-246.154
			S381.885,0,246.154,0z M246.154,472.615c-124.87,0-226.462-101.587-226.462-226.462S121.284,19.692,246.154,19.692
			c124.875,0,226.462,101.587,226.462,226.462S371.029,472.615,246.154,472.615z"/>
	</g>
</g>
<g>
	<g>
		<path d="M285.356,113.019v100.577h-78.404V113.019h-61.207v266.269h61.207V278.712h78.404v100.577h61.212V113.019H285.356z
			 M326.875,359.596h-21.827V259.019H187.26v100.577h-21.822V132.712h21.822v100.577h117.788V132.712h21.827V359.596z"/>
	</g>
</g>
<g>
</g>
<g>
</g>
<g>
</g>
<g>
</g>
<g>
</g>
<g>
</g>
<g>
</g>
<g>
</g>
<g>
</g>
<g>
</g>
<g>
</g>
<g>
</g>
<g>
</g>
<g>
</g>
<g>
</g>
</svg>
