<svg id="Capa_1" enable-background="new 0 0 501.501 501.501" height="512" viewBox="0 0 501.501 501.501" width="512" xmlns="http://www.w3.org/2000/svg"><g><path d="m471.207 180.608c-16.703 0-30.293 13.59-30.293 30.293v28.691h-379.637v-87.952c0-16.894-13.744-30.639-30.639-30.639s-30.638 13.745-30.638 30.639v218.86c0 5.523 4.478 10 10 10h41.277c5.522 0 10-4.477 10-10v-33.02h142.766c5.522 0 10-4.477 10-10s-4.478-10-10-10h-142.766v-57.888h379.637v57.888h-146.121c-5.522 0-10 4.477-10 10s4.478 10 10 10h146.121v33.02c0 5.523 4.478 10 10 10h40.587c5.522 0 10-4.477 10-10v-159.599c0-16.703-13.59-30.293-30.294-30.293zm-429.93 179.892h-21.277v-208.86c0-5.866 4.772-10.639 10.639-10.639s10.639 4.772 10.639 10.639v97.952 77.888 33.02zm440.224 0h-20.587v-33.02-77.888-38.691c0-5.676 4.617-10.293 10.293-10.293s10.294 4.618 10.294 10.293z"/><path d="m203.46 219.027h207.333c5.522 0 10-4.477 10-10v-.853c0-45.48-37.001-82.48-82.48-82.48h-62.373c-45.479 0-82.48 37-82.48 82.48 0 .143.003.285.009.426-.006.142-.009.284-.009.427 0 5.523 4.478 10 10 10zm72.48-73.333h62.372c31.346 0 57.374 23.201 61.813 53.333h-185.997c4.438-30.132 30.467-53.333 61.812-53.333z"/><path d="m128.793 219.025c26.1 0 47.333-21.234 47.333-47.333s-21.233-47.333-47.333-47.333-47.333 21.233-47.333 47.332 21.233 47.334 47.333 47.334zm0-74.667c15.071 0 27.333 12.262 27.333 27.333 0 15.072-12.262 27.333-27.333 27.333s-27.333-12.262-27.333-27.333 12.262-27.333 27.333-27.333z"/><circle cx="249.793" cy="326.361" r="10"/></g></svg>