<svg id="Capa_1" enable-background="new 0 0 510.853 510.853" height="512" viewBox="0 0 510.853 510.853" width="512" xmlns="http://www.w3.org/2000/svg"><g><path d="m406.88 174.383c-5.431-.976-10.636 2.627-11.619 8.063-7.119 39.393-20.481 81.025-36.174 113.067h-24.755c19.432-42.944 47.337-119.103 42.779-194.476-1.049-17.347-7.979-45.242-7.979-45.242s17.927 6.557 28.967 41.84c1.43 4.57 5.161 7.872 9.761 7.872.706 0 1.423-.075 2.14-.231 5.396-1.177 8.817-6.505 7.641-11.9-6.998-32.097-24.354-47.356-37.68-54.506-9.006-4.832-17.338-6.686-22.66-7.391-5.229-7.508-11.455-13.54-18.671-18.064-21.864-13.706-45.851-9.029-55.976-6.049-8.021-4.895-17.09-7.366-27.095-7.366-10.009 0-19.079 2.47-27.099 7.363-10.127-2.98-34.11-7.653-55.971 6.051-7.22 4.526-13.449 10.563-18.68 18.077-6.59.892-17.843 3.542-29.063 11.295-27.692 19.137-34.006 53.877-34.427 79.653-.827 51.501 18.753 118.056 41.94 174.826 1.703 4.17 53.245 136.724 53.245 136.724-5.273-4.159-11.92-6.65-19.142-6.65-17.079 0-30.975 13.896-30.975 30.975s13.896 30.975 30.975 30.975c7.712 0 14.769-2.84 20.196-7.52v19.083c0 5.522 4.478 10 10 10h118c5.522 0 10-4.478 10-10v-17.571c5.132 3.772 11.461 6.007 18.304 6.007 17.079 0 30.975-13.896 30.975-30.975s-13.896-30.975-30.975-30.975c-5.777 0-11.187 1.594-15.821 4.359 0 0 78.017-202.096 87.901-245.697 1.221-5.384-2.628-10.635-8.062-11.617zm-66.149 165.47h-170.176l-9.409-24.34h188.887zm-32.483 85h-42.69v-27c0-5.522-4.478-10-10-10s-10 4.478-10 10v27h-42.145l-25.128-65h154.802zm19.902-394.402c16.771 10.614 26.798 35.44 28.997 71.793 4.569 75.575-25.854 152.924-44.396 192.304-.15.318-.281.64-.394.965h-18.887c18.616-54.999 28.258-110.855 28.659-166.137.344-48.319-7.024-83.553-21.918-105.023 8.188-.691 18.558.159 27.939 6.098zm-49.398-.806c10.91 10.988 23.822 37.186 23.377 99.588-.4 55.279-10.428 111.216-29.803 166.255-.003.008-.005.017-.008.025h-33.52c-.003-.008-.005-.017-.008-.025-19.375-55.039-29.402-110.976-29.803-166.254-.445-62.41 12.463-88.606 23.371-99.592 6.443-6.488 14.032-9.642 23.201-9.642 9.163 0 16.75 3.154 23.193 9.645zm-95.785.806c9.382-5.939 19.751-6.79 27.935-6.101-14.89 21.467-22.258 56.703-21.913 105.027.401 55.28 10.043 111.137 28.659 166.136h-18.888c-.114-.325-.245-.647-.394-.965-18.541-39.38-48.965-116.729-44.396-192.304 2.199-36.352 12.226-61.179 28.997-71.793zm-72.65 92.312c3.491-52.285 31.669-66.971 31.669-66.971s-6.93 27.897-7.979 45.245c-4.558 75.372 23.347 151.532 42.779 194.476h-24.086c-22.166-44.772-46.128-116.662-42.383-172.75zm56.045 346.526c-6.052 0-10.975-4.923-10.975-10.975s4.923-10.975 10.975-10.975 10.975 4.923 10.975 10.975-4.923 10.975-10.975 10.975zm138.197 21.564h-98v-46h98zm38.303-43.513c6.052 0 10.975 4.923 10.975 10.975s-4.923 10.975-10.975 10.975-10.975-4.923-10.975-10.975 4.923-10.975 10.975-10.975z"/><circle cx="410.559" cy="139.186" r="10"/></g></svg>