<svg id="Capa_1" enable-background="new 0 0 504.707 504.707" height="512" viewBox="0 0 504.707 504.707" width="512" xmlns="http://www.w3.org/2000/svg"><g><path d="m454.588 46.681c-5.522 0-10 4.477-10 10v18.407h-19.217v-18.407c0-5.523-4.478-10-10-10s-10 4.477-10 10v56.814c0 5.523 4.478 10 10 10s10-4.477 10-10v-18.407h19.217v18.407c0 5.523 4.478 10 10 10s10-4.477 10-10v-56.814c0-5.523-4.478-10-10-10z"/><path d="m479.149 9.273h-88.47c-14.093 0-25.558 11.465-25.558 25.557v40.258h-19.107v-55.459c0-5.523-4.478-10-10-10h-326.014c-5.523 0-10 4.477-10 10v465.805c0 5.523 4.477 10 10 10h326.015c5.522 0 10-4.477 10-10v-178.414c0-5.523-4.478-10-10-10s-10 4.477-10 10v168.414h-98.007v-54.664c0-5.523-4.477-10-10-10h-90c-5.523 0-10 4.477-10 10v54.664h-98.008v-445.805h306.015v185.641c0 5.523 4.478 10 10 10s10-4.477 10-10v-120.182h19.107v39.961c0 14.092 11.465 25.557 25.558 25.557h88.47c14.093 0 25.558-11.465 25.558-25.557v-100.218c-.001-14.093-11.466-25.558-25.559-25.558zm-341.142 421.497h70v44.664h-70zm346.7-295.721c0 3.064-2.493 5.557-5.558 5.557h-88.47c-3.064 0-5.558-2.493-5.558-5.557v-100.218c0-3.064 2.493-5.557 5.558-5.557h88.47c3.064 0 5.558 2.493 5.558 5.557z"/><path d="m120.676 78.603c0-5.523-4.477-10-10-10h-45.333c-5.523 0-10 4.477-10 10v45.333c0 5.523 4.477 10 10 10h45.333c5.523 0 10-4.477 10-10zm-20 35.333h-25.333v-25.333h25.333z"/><path d="m206.009 78.603c0-5.523-4.477-10-10-10h-45.333c-5.523 0-10 4.477-10 10v45.333c0 5.523 4.477 10 10 10h45.333c5.523 0 10-4.477 10-10zm-20 35.333h-25.333v-25.333h25.333z"/><path d="m290.672 78.603c0-5.523-4.478-10-10-10h-45.333c-5.523 0-10 4.477-10 10v45.333c0 5.523 4.477 10 10 10h45.333c5.522 0 10-4.477 10-10zm-20 35.333h-25.333v-25.333h25.333z"/><path d="m120.676 163.642c0-5.523-4.477-10-10-10h-45.333c-5.523 0-10 4.477-10 10v45.333c0 5.523 4.477 10 10 10h45.333c5.523 0 10-4.477 10-10zm-20 35.334h-25.333v-25.333h25.333z"/><path d="m206.009 163.642c0-5.523-4.477-10-10-10h-45.333c-5.523 0-10 4.477-10 10v45.333c0 5.523 4.477 10 10 10h45.333c5.523 0 10-4.477 10-10zm-20 35.334h-25.333v-25.333h25.333z"/><path d="m290.672 163.642c0-5.523-4.478-10-10-10h-45.333c-5.523 0-10 4.477-10 10v45.333c0 5.523 4.477 10 10 10h45.333c5.522 0 10-4.477 10-10zm-20 35.334h-25.333v-25.333h25.333z"/><path d="m120.676 248.682c0-5.523-4.477-10-10-10h-45.333c-5.523 0-10 4.477-10 10v45.333c0 5.523 4.477 10 10 10h45.333c5.523 0 10-4.477 10-10zm-20 35.333h-25.333v-25.333h25.333z"/><path d="m206.009 248.682c0-5.523-4.477-10-10-10h-45.333c-5.523 0-10 4.477-10 10v45.333c0 5.523 4.477 10 10 10h45.333c5.523 0 10-4.477 10-10zm-20 35.333h-25.333v-25.333h25.333z"/><path d="m290.672 248.682c0-5.523-4.478-10-10-10h-45.333c-5.523 0-10 4.477-10 10v45.333c0 5.523 4.477 10 10 10h45.333c5.522 0 10-4.477 10-10zm-20 35.333h-25.333v-25.333h25.333z"/><path d="m110.676 323.721h-45.333c-5.523 0-10 4.477-10 10v45.333c0 5.523 4.477 10 10 10h45.333c5.523 0 10-4.477 10-10v-45.333c0-5.523-4.477-10-10-10zm-10 45.333h-25.333v-25.333h25.333z"/><path d="m196.009 323.721h-45.333c-5.523 0-10 4.477-10 10v45.333c0 5.523 4.477 10 10 10h45.333c5.523 0 10-4.477 10-10v-45.333c0-5.523-4.477-10-10-10zm-10 45.333h-25.333v-25.333h25.333z"/><path d="m280.672 323.721h-45.333c-5.523 0-10 4.477-10 10v45.333c0 5.523 4.477 10 10 10h45.333c5.522 0 10-4.477 10-10v-45.333c0-5.523-4.478-10-10-10zm-10 45.333h-25.333v-25.333h25.333z"/><circle cx="336.039" cy="261.603" r="10"/></g></svg>