<?xml version="1.0" encoding="iso-8859-1"?>
<!-- Generator: Adobe Illustrator 19.0.0, SVG Export Plug-In . SVG Version: 6.00 Build 0)  -->
<svg version="1.1" id="Layer_1" xmlns="http://www.w3.org/2000/svg" xmlns:xlink="http://www.w3.org/1999/xlink" x="0px" y="0px"
	 viewBox="0 0 479.337 479.337" enable-background="new 0 0 479.337 479.337;" xml:space="preserve">
<g>
	<g>
		<path d="M243.029,14.548l-3.361-1.212L0,100.327l6.721,18.519l36.173-13.132V466h154.135V346.75h85.279V466h154.139V105.716
			l36.168,13.13l6.721-18.519L243.029,14.548z M416.755,446.308H302v-119.25H177.337v119.25H62.587V98.565l177.082-64.287
			l177.087,64.288V446.308z"/>
	</g>
</g>
<g>
	<g>
		<path d="M87.413,121.442v77.913h140.264v-77.913H87.413z M207.986,179.663h-100.88v-38.529h100.88V179.663z"/>
	</g>
</g>
<g>
	<g>
		<path d="M251.659,121.442v77.913h140.269v-77.913H251.659z M372.236,179.663H271.351v-38.529h100.885V179.663z"/>
	</g>
</g>
<g>
	<g>
		<path d="M87.413,224.212v77.923h140.264v-77.923H87.413z M207.986,282.442h-100.88v-38.538h100.88V282.442z"/>
	</g>
</g>
<g>
	<g>
		<path d="M251.659,224.212v77.923h140.269v-77.923H251.659z M372.236,282.442H271.351v-38.538h100.885V282.442z"/>
	</g>
</g>
<g>
</g>
<g>
</g>
<g>
</g>
<g>
</g>
<g>
</g>
<g>
</g>
<g>
</g>
<g>
</g>
<g>
</g>
<g>
</g>
<g>
</g>
<g>
</g>
<g>
</g>
<g>
</g>
<g>
</g>
</svg>
