<?xml version="1.0" encoding="iso-8859-1"?>
<!-- Generator: Adobe Illustrator 19.0.0, SVG Export Plug-In . SVG Version: 6.00 Build 0)  -->
<svg version="1.1" id="Layer_1" xmlns="http://www.w3.org/2000/svg" xmlns:xlink="http://www.w3.org/1999/xlink" x="0px" y="0px"
	 viewBox="0 0 492.308 492.308" enable-background="new 0 0 492.308 492.308;" xml:space="preserve">
<g>
	<g>
		<path d="M145.019,150.038h19.692c0-44.914,36.534-81.452,81.442-81.452V48.894C190.389,48.894,145.019,94.269,145.019,150.038z"/>
	</g>
</g>
<g>
	<g>
		<path d="M246.154,0C163.418,0,96.111,67.308,96.111,150.038v195.288c0,21.721,17.668,39.385,39.385,39.385h68.615v107.596h84.087
			V384.712h68.615c21.716,0,39.385-17.663,39.385-39.385V150.038C396.197,67.308,328.889,0,246.154,0z M268.505,472.615h-44.702
			v-87.904h44.702V472.615z M376.505,345.327c0,10.856-8.832,19.692-19.692,19.692h-68.615h-84.087h-68.615
			c-10.861,0-19.692-8.837-19.692-19.692V150.038c0-71.875,58.476-130.346,130.351-130.346s130.351,58.471,130.351,130.346V345.327z
			"/>
	</g>
</g>
<g>
</g>
<g>
</g>
<g>
</g>
<g>
</g>
<g>
</g>
<g>
</g>
<g>
</g>
<g>
</g>
<g>
</g>
<g>
</g>
<g>
</g>
<g>
</g>
<g>
</g>
<g>
</g>
<g>
</g>
</svg>
