<svg id="Layer_1" enable-background="new 0 0 511.842 511.842" height="512" viewBox="0 0 511.842 511.842" width="512" xmlns="http://www.w3.org/2000/svg"><g><path d="m255.921.381c-160.016.006-231.022 208.911-95.575 300.753v22.26c-17.633 14.995-19.651 43.644-4.034 60.944-24.288 27.536-4.261 72.013 32.791 71.866h.572c14.523 73.703 117.999 73.65 132.492 0h.572c37.07.141 57.069-44.341 32.791-71.866 15.621-17.306 13.594-45.954-4.034-60.944v-22.259c135.498-91.891 64.362-300.774-95.575-300.754zm66.818 342.089c17.825.74 17.812 26.134 0 26.867h-133.636c-17.826-.74-17.812-26.133 0-26.867zm-66.818 139.292c-16.464 0-30.459-10.728-35.389-25.558h70.779c-4.93 14.829-18.927 25.558-35.39 25.558zm66.818-55.558c-22.296-.002-111.846-.002-133.636 0-17.786-.721-17.85-26.116 0-26.866h133.636c17.784.719 17.851 26.116 0 26.866zm5.812-145.889c-4.389 2.74-7.055 7.549-7.055 12.723v19.432h-23.169v-66.627l32.272-31.79c5.902-5.813 5.974-15.311.16-21.212-5.814-5.903-15.312-5.974-21.212-.16l-36.746 36.196c-2.862 2.819-4.474 6.668-4.474 10.686v72.907h-24.917v-72.907c0-3.978-1.581-7.793-4.394-10.606l-36.196-36.196c-5.857-5.858-15.355-5.858-21.213 0s-5.858 15.355 0 21.213l31.803 31.803v66.694h-23.064v-19.432c0-5.174-2.667-9.983-7.055-12.723-118.626-71.868-61.497-249.799 72.632-249.935 134.131.142 191.253 178.083 72.628 249.934z"/><path d="m455.915 110.926c2.107 0 4.25-.446 6.288-1.39l28.366-13.122c7.519-3.478 10.794-12.393 7.316-19.912-3.478-7.518-12.393-10.796-19.911-7.316l-28.366 13.122c-14.567 6.985-9.592 28.48 6.307 28.618z"/><path d="m496.921 144.321h-31.308c-19.902.793-19.887 29.215 0 30h31.308c19.902-.792 19.887-29.215 0-30z"/><path d="m490.125 222.228-28.365-13.122c-18.395-7.638-30.315 18.166-12.596 27.228l28.365 13.122c7.345 3.448 16.425.279 19.912-7.316 3.479-7.519.203-16.434-7.316-19.912z"/><path d="m49.638 209.106-28.366 13.122c-7.519 3.478-10.794 12.393-7.316 19.912 3.487 7.596 12.566 10.764 19.912 7.316l28.366-13.122c7.519-3.478 10.794-12.393 7.316-19.912s-12.393-10.794-19.912-7.316z"/><path d="m46.229 174.321c19.902-.793 19.887-29.215 0-30h-31.308c-19.902.793-19.887 29.215 0 30z"/><path d="m62.678 82.309-28.366-13.122c-7.519-3.479-16.434-.202-19.912 7.316-3.479 7.519-.203 16.434 7.316 19.912l28.366 13.122c7.344 3.448 16.425.278 19.911-7.316 3.479-7.52.203-16.434-7.315-19.912z"/></g></svg>