<?xml version="1.0" encoding="iso-8859-1"?>
<!-- Generator: Adobe Illustrator 19.0.0, SVG Export Plug-In . SVG Version: 6.00 Build 0)  -->
<svg version="1.1" id="Layer_1" xmlns="http://www.w3.org/2000/svg" xmlns:xlink="http://www.w3.org/1999/xlink" x="0px" y="0px"
	 viewBox="0 0 492.308 492.308" enable-background="new 0 0 492.308 492.308;" xml:space="preserve">
<g>
	<g>
		<path d="M0,29.365v433.577h492.308V29.365H0z M472.615,443.25H19.692V49.058h452.923V443.25z"/>
	</g>
</g>
<g>
	<g>
		<path d="M335.615,162.308l-141.769,141.76l-51.25-51.25l-93.365,93.356v67.538h393.846V269.769L335.615,162.308z M423.385,394.019
			H68.923v-39.692l73.673-73.663l51.25,51.25l141.769-141.76l87.769,87.769V394.019z"/>
	</g>
</g>
<g>
	<g>
		<path d="M144.606,101.164c-28.048,0-50.875,22.817-50.875,50.865s22.827,50.875,50.875,50.875
			c28.048,0,50.865-22.827,50.865-50.875S172.654,101.164,144.606,101.164z M144.606,183.212c-17.192,0-31.183-13.99-31.183-31.183
			s13.99-31.173,31.183-31.173c17.192,0,31.173,13.981,31.173,31.173S161.798,183.212,144.606,183.212z"/>
	</g>
</g>
<g>
</g>
<g>
</g>
<g>
</g>
<g>
</g>
<g>
</g>
<g>
</g>
<g>
</g>
<g>
</g>
<g>
</g>
<g>
</g>
<g>
</g>
<g>
</g>
<g>
</g>
<g>
</g>
<g>
</g>
</svg>
