<?xml version="1.0" encoding="iso-8859-1"?>
<!-- Generator: Adobe Illustrator 19.0.0, SVG Export Plug-In . SVG Version: 6.00 Build 0)  -->
<svg version="1.1" id="Layer_1" xmlns="http://www.w3.org/2000/svg" xmlns:xlink="http://www.w3.org/1999/xlink" x="0px" y="0px"
	 viewBox="0 0 492.308 492.308" enable-background="new 0 0 492.308 492.308;" xml:space="preserve">
<g>
	<g>
		<path d="M400.784,2.608H91.524L0,258.772V489.7h492.308V258.781L400.784,2.608z M105.399,22.3h281.51l81.579,228.332H304.442
			v9.846c0,32.139-26.149,58.288-58.288,58.288s-58.288-26.149-58.288-58.288v-9.846H23.823L105.399,22.3z M472.615,470.007H19.692
			V270.325h149.101c4.856,38.365,37.697,68.135,77.361,68.135s72.505-29.769,77.361-68.135h149.101V470.007z"/>
	</g>
</g>
<g>
	<g>
		<rect x="130.462" y="66.609" width="231.385" height="19.692"/>
	</g>
</g>
<g>
	<g>
		<rect x="131.692" y="419.427" width="19.692" height="19.692"/>
	</g>
</g>
<g>
	<g>
		<rect x="340.431" y="419.427" width="19.692" height="19.692"/>
	</g>
</g>
<g>
	<g>
		<rect x="288.197" y="419.427" width="19.692" height="19.692"/>
	</g>
</g>
<g>
	<g>
		<rect x="236.062" y="419.427" width="19.692" height="19.692"/>
	</g>
</g>
<g>
	<g>
		<rect x="183.877" y="419.427" width="19.692" height="19.692"/>
	</g>
</g>
<g>
	<g>
		<rect x="112" y="126.917" width="268.308" height="19.692"/>
	</g>
</g>
<g>
	<g>
		<rect x="87.385" y="187.175" width="317.538" height="19.692"/>
	</g>
</g>
<g>
</g>
<g>
</g>
<g>
</g>
<g>
</g>
<g>
</g>
<g>
</g>
<g>
</g>
<g>
</g>
<g>
</g>
<g>
</g>
<g>
</g>
<g>
</g>
<g>
</g>
<g>
</g>
<g>
</g>
</svg>
