<?xml version="1.0" encoding="iso-8859-1"?>
<!-- Generator: Adobe Illustrator 19.0.0, SVG Export Plug-In . SVG Version: 6.00 Build 0)  -->
<svg version="1.1" id="Layer_1" xmlns="http://www.w3.org/2000/svg" xmlns:xlink="http://www.w3.org/1999/xlink" x="0px" y="0px"
	 viewBox="0 0 492.308 492.308" enable-background="new 0 0 492.308 492.308;" xml:space="preserve">
<g>
	<g>
		<polygon points="332.298,65.827 215.106,184.332 160,128.615 146,142.462 215.106,212.332 346.298,79.673 		"/>
	</g>
</g>
<g>
	<g>
		<path d="M400.808,0H91.5L0.567,257.365L0,258.952v233.356h492.308V258.957L400.808,0z M105.423,19.692h281.462l81.656,231.101
			H304.442v9.846c0,32.558-26.144,59.048-58.288,59.048s-58.288-26.49-58.288-59.048v-9.846H23.769L105.423,19.692z
			 M472.615,472.615H19.692v-39.413h452.923V472.615z M472.615,413.51H19.692V270.486h149.087
			c4.817,38.788,37.673,68.894,77.375,68.894s72.558-30.106,77.375-68.894h149.087V413.51z"/>
	</g>
</g>
<g>
</g>
<g>
</g>
<g>
</g>
<g>
</g>
<g>
</g>
<g>
</g>
<g>
</g>
<g>
</g>
<g>
</g>
<g>
</g>
<g>
</g>
<g>
</g>
<g>
</g>
<g>
</g>
<g>
</g>
</svg>
