<?xml version="1.0" encoding="iso-8859-1"?>
<!-- Generator: Adobe Illustrator 19.0.0, SVG Export Plug-In . SVG Version: 6.00 Build 0)  -->
<svg version="1.1" id="Layer_1" xmlns="http://www.w3.org/2000/svg" xmlns:xlink="http://www.w3.org/1999/xlink" x="0px" y="0px"
	 viewBox="0 0 492.312 492.312" enable-background="new 0 0 492.312 492.312;" xml:space="preserve">
<g>
	<g>
		<polygon points="486.813,19.413 472.889,5.49 318.313,160.075 318.313,46.48 298.62,46.48 298.62,193.692 445.832,193.692 
			445.832,173.999 332.234,173.999 		"/>
	</g>
</g>
<g>
	<g>
		<path d="M489.428,376.48L385.159,272.211c-2.038-2.038-4.769-3.106-7.721-2.856c-2.865,0.221-5.49,1.683-7.192,4
			c-19.202,26.26-45.567,55.308-54.221,56.702c-28.731,4.625-69.644-14.788-104.312-49.452
			c-34.683-34.683-54.096-75.635-49.462-104.327c1.394-8.635,30.442-35.01,56.697-54.231c2.322-1.692,3.784-4.317,4.005-7.183
			c0.221-2.865-0.822-5.692-2.856-7.721L115.832,2.884c-3.269-3.279-8.404-3.817-12.308-1.308C86.236,12.749,0.005,70.451,0,108.874
			c0,136.173,247.264,383.433,383.438,383.433c38.423,0,96.125-86.231,107.298-103.519
			C493.255,384.894,492.707,379.759,489.428,376.48z M107.587,22.49l90.563,90.558c-9.681,7.451-22.998,18.276-34.169,29.413
			L70.963,49.443C83.038,39.74,95.812,30.399,107.587,22.49z M383.438,472.615c-125.779,0-363.745-237.962-363.745-363.74
			c0.002-10.859,15.612-28.639,36.13-46.725l95.077,95.077c-4.315,5.753-7.334,11.219-8.092,15.918
			c-6.808,42.154,23.938,90.346,54.981,121.385c31.034,31.029,79.187,61.712,121.37,54.971c4.7-0.756,10.169-3.776,15.926-8.094
			l95.079,95.079C412.076,457.004,394.297,472.615,383.438,472.615z M442.869,421.344l-93.02-93.02
			c11.135-11.171,21.957-24.489,29.406-34.171l90.567,90.567C461.913,396.495,452.572,409.269,442.869,421.344z"/>
	</g>
</g>
<g>
</g>
<g>
</g>
<g>
</g>
<g>
</g>
<g>
</g>
<g>
</g>
<g>
</g>
<g>
</g>
<g>
</g>
<g>
</g>
<g>
</g>
<g>
</g>
<g>
</g>
<g>
</g>
<g>
</g>
</svg>
