<?xml version="1.0" encoding="iso-8859-1"?>
<!-- Generator: Adobe Illustrator 18.0.0, SVG Export Plug-In . SVG Version: 6.00 Build 0)  -->
<!DOCTYPE svg PUBLIC "-//W3C//DTD SVG 1.1//EN" "http://www.w3.org/Graphics/SVG/1.1/DTD/svg11.dtd">
<svg version="1.1" id="Capa_1" xmlns="http://www.w3.org/2000/svg" xmlns:xlink="http://www.w3.org/1999/xlink" x="0px" y="0px"
	 viewBox="0 0 209.281 209.281"  xml:space="preserve">
<g>
	<path d="M104.641,72.862c5.812,0,10.541-4.723,10.541-10.528c0-5.826-4.729-10.566-10.541-10.566
		c-5.812,0-10.541,4.74-10.541,10.566C94.1,68.139,98.828,72.862,104.641,72.862z"/>
	<path d="M123.349,142.412H112.14v-42.016c0-4.142-3.357-7.5-7.5-7.5H85.933c-4.142,0-7.5,3.358-7.5,7.5c0,4.142,3.358,7.5,7.5,7.5
		h11.208v42.016c0,4.142,3.358,7.5,7.5,7.5h18.709c4.143,0,7.5-3.358,7.5-7.5C130.849,145.77,127.492,142.412,123.349,142.412z"/>
	<path d="M104.641,0.001C46.941,0.001,0,46.942,0,104.64s46.941,104.64,104.641,104.64c57.699,0,104.64-46.941,104.64-104.64
		S162.339,0.001,104.641,0.001z M104.641,194.28C55.212,194.28,15,154.068,15,104.64s40.212-89.64,89.641-89.64
		s89.64,40.212,89.64,89.64S154.069,194.28,104.641,194.28z"/>
</g>
<g>
</g>
<g>
</g>
<g>
</g>
<g>
</g>
<g>
</g>
<g>
</g>
<g>
</g>
<g>
</g>
<g>
</g>
<g>
</g>
<g>
</g>
<g>
</g>
<g>
</g>
<g>
</g>
<g>
</g>
</svg>
