<?xml version="1.0" encoding="iso-8859-1"?>
<!-- Generator: Adobe Illustrator 19.0.0, SVG Export Plug-In . SVG Version: 6.00 Build 0)  -->
<svg version="1.1" id="Layer_1" xmlns="http://www.w3.org/2000/svg" xmlns:xlink="http://www.w3.org/1999/xlink" x="0px" y="0px"
	 viewBox="0 0 492.308 492.308" enable-background="new 0 0 492.308 492.308;" xml:space="preserve">
<g>
	<g>
		<path d="M246.154,0C110.423,0,0,110.423,0,246.154s110.423,246.154,246.154,246.154s246.154-110.423,246.154-246.154
			S381.885,0,246.154,0z M180.612,29.399c-19.313,18.77-35.683,45.715-47.788,78.445c-13.961-8.108-27.079-17.777-39.23-28.898
			C118.243,56.437,147.876,39.317,180.612,29.399z M79.471,93.043c14.422,13.299,30.178,24.664,46.943,34.029
			c-9.721,32.432-15.507,69.49-16.334,109.236H19.942C22.313,181.191,44.459,131.127,79.471,93.043z M19.942,256h90.138
			c0.822,39.522,6.542,76.395,16.165,108.697c-16.826,9.417-32.63,20.854-47.09,34.235C44.322,360.889,22.306,310.954,19.942,256z
			 M93.254,413.037c12.19-11.203,25.364-20.936,39.385-29.097c12.124,32.962,28.558,60.099,47.973,78.968
			C147.722,452.945,117.972,435.703,93.254,413.037z M236.308,471.708c-34.916-5.996-65.985-43.431-85.461-97.257
			c26.59-12.365,55.469-19.43,85.461-20.71V471.708z M236.308,333.808c-32.107,1.255-63.098,8.649-91.668,21.594
			c-8.712-29.881-14.035-63.715-14.867-99.402h106.535V333.808z M236.308,236.308H129.773c0.837-35.911,6.226-69.944,15.035-99.962
			c28.524,12.898,59.456,20.267,91.5,21.52V236.308z M236.308,137.933c-29.917-1.278-58.727-8.308-85.261-20.615
			c19.488-53.535,50.463-90.742,85.261-96.718V137.933z M472.366,236.308h-90.138c-0.827-39.747-6.614-76.807-16.335-109.24
			c16.766-9.364,32.519-20.733,46.939-34.03C447.847,131.123,469.994,181.189,472.366,236.308z M398.719,78.951
			c-12.151,11.118-25.274,20.781-39.236,28.888c-12.106-32.728-28.475-59.671-47.787-78.441
			C344.434,39.317,374.069,56.44,398.719,78.951z M256,20.6c34.797,5.975,65.772,43.181,85.26,96.714
			c-26.538,12.308-55.35,19.343-85.26,20.62V20.6z M256,157.866c32.036-1.253,62.972-8.622,91.5-21.522
			c8.809,30.019,14.198,64.052,15.035,99.963H256V157.866z M256,256h106.535c-0.832,35.688-6.156,69.522-14.867,99.403
			c-28.574-12.947-59.569-20.341-91.668-21.596V256z M256,471.708V353.739c29.985,1.281,58.866,8.349,85.46,20.715
			C321.984,428.279,290.915,465.712,256,471.708z M311.696,462.909c19.414-18.868,35.847-46.004,47.972-78.965
			c14.023,8.16,27.201,17.887,39.392,29.087C374.341,435.7,344.589,452.944,311.696,462.909z M413.149,398.937
			c-14.459-13.38-30.261-24.82-47.087-34.236c9.623-32.303,15.344-69.177,16.166-108.701h90.138
			C470.001,310.956,447.984,360.894,413.149,398.937z"/>
	</g>
</g>
<g>
</g>
<g>
</g>
<g>
</g>
<g>
</g>
<g>
</g>
<g>
</g>
<g>
</g>
<g>
</g>
<g>
</g>
<g>
</g>
<g>
</g>
<g>
</g>
<g>
</g>
<g>
</g>
<g>
</g>
</svg>
