<?xml version="1.0" encoding="iso-8859-1"?>
<!-- Generator: Adobe Illustrator 18.0.0, SVG Export Plug-In . SVG Version: 6.00 Build 0)  -->
<!DOCTYPE svg PUBLIC "-//W3C//DTD SVG 1.1//EN" "http://www.w3.org/Graphics/SVG/1.1/DTD/svg11.dtd">
<svg version="1.1" id="Capa_1" xmlns="http://www.w3.org/2000/svg" xmlns:xlink="http://www.w3.org/1999/xlink" x="0px" y="0px"
	 viewBox="0 0 217.109 217.109"  xml:space="preserve">
<g>
	<path d="M199.609,0H17.5C7.851,0,0,7.851,0,17.5v182.109c0,9.649,7.851,17.5,17.5,17.5h182.109c9.649,0,17.5-7.851,17.5-17.5V17.5
		C217.109,7.851,209.259,0,199.609,0z M199.609,202.109H17.5c-1.355,0-2.5-1.145-2.5-2.5V17.5c0-1.355,1.145-2.5,2.5-2.5h182.109
		c1.355,0,2.5,1.145,2.5,2.5v85.055h-13.621v-3.557c0-12.492-10.163-22.655-22.656-22.655h-17.461
		c-12.493,0-22.656,10.163-22.656,22.655v3.557h-17.16c-3.313,0-6,2.686-6,6s2.687,6,6,6h93.555v85.055
		C202.109,200.964,200.965,202.109,199.609,202.109z M137.715,102.555v-3.557c0-5.876,4.78-10.655,10.656-10.655h17.461
		c5.876,0,10.656,4.78,10.656,10.655v3.557H137.715z"/>
	<path d="M70.537,32.079H47.186c-9.65,0-17.5,7.851-17.5,17.5v118.317c0,9.649,7.85,17.5,17.5,17.5h23.352
		c9.649,0,17.5-7.851,17.5-17.5V49.579C88.037,39.93,80.187,32.079,70.537,32.079z M73.037,167.896c0,1.355-1.145,2.5-2.5,2.5
		H47.186c-1.355,0-2.5-1.145-2.5-2.5V49.579c0-1.355,1.145-2.5,2.5-2.5h23.352c1.355,0,2.5,1.145,2.5,2.5V167.896z"/>
	<path d="M157.033,73.195c12.798,0,23.209-10.414,23.209-23.216s-10.411-23.216-23.209-23.216c-12.8,0-23.213,10.415-23.213,23.216
		S144.233,73.195,157.033,73.195z M157.033,38.764c6.181,0,11.209,5.031,11.209,11.216s-5.028,11.216-11.209,11.216
		c-6.183,0-11.213-5.031-11.213-11.216S150.851,38.764,157.033,38.764z"/>
	<path d="M182.367,128.639H131.84c-3.314,0-6,2.687-6,6c0,3.314,2.687,6,6,6h50.527c3.313,0,6-2.686,6-6
		C188.367,131.325,185.681,128.639,182.367,128.639z"/>
	<path d="M108.555,127.145c-1.98,0-3.91,0.8-5.3,2.19c-1.4,1.4-2.2,3.33-2.2,5.3c0,1.98,0.8,3.91,2.2,5.31
		c1.39,1.39,3.33,2.19,5.3,2.19c1.97,0,3.899-0.8,5.3-2.19c1.4-1.4,2.2-3.33,2.2-5.31c0-1.97-0.8-3.9-2.2-5.3
		C112.465,127.944,110.534,127.145,108.555,127.145z"/>
	<path d="M182.367,151.753H131.84c-3.314,0-6,2.687-6,6c0,3.314,2.687,6,6,6h50.527c3.313,0,6-2.686,6-6
		C188.367,154.439,185.681,151.753,182.367,151.753z"/>
	<path d="M108.555,150.254c-1.97,0-3.91,0.8-5.3,2.2c-1.4,1.39-2.2,3.32-2.2,5.3c0,1.97,0.8,3.91,2.2,5.3c1.39,1.4,3.33,2.2,5.3,2.2
		c1.97,0,3.91-0.8,5.3-2.2c1.4-1.4,2.2-3.33,2.2-5.3c0-1.97-0.8-3.91-2.2-5.3C112.465,151.055,110.524,150.254,108.555,150.254z"/>
	<path d="M182.367,174.867H131.84c-3.314,0-6,2.686-6,6c0,3.313,2.687,6,6,6h50.527c3.313,0,6-2.687,6-6
		C188.367,177.554,185.681,174.867,182.367,174.867z"/>
	<path d="M108.555,173.365c-1.97,0-3.91,0.8-5.3,2.2c-1.4,1.39-2.2,3.33-2.2,5.3c0,1.98,0.8,3.91,2.2,5.31
		c1.39,1.39,3.33,2.19,5.3,2.19c1.97,0,3.91-0.8,5.3-2.19c1.4-1.4,2.2-3.34,2.2-5.31c0-1.97-0.8-3.9-2.2-5.3
		C112.465,174.165,110.524,173.365,108.555,173.365z"/>
</g>
<g>
</g>
<g>
</g>
<g>
</g>
<g>
</g>
<g>
</g>
<g>
</g>
<g>
</g>
<g>
</g>
<g>
</g>
<g>
</g>
<g>
</g>
<g>
</g>
<g>
</g>
<g>
</g>
<g>
</g>
</svg>
