<?xml version="1.0" encoding="iso-8859-1"?>
<!-- Generator: Adobe Illustrator 18.0.0, SVG Export Plug-In . SVG Version: 6.00 Build 0)  -->
<!DOCTYPE svg PUBLIC "-//W3C//DTD SVG 1.1//EN" "http://www.w3.org/Graphics/SVG/1.1/DTD/svg11.dtd">
<svg version="1.1" id="Capa_1" xmlns="http://www.w3.org/2000/svg" xmlns:xlink="http://www.w3.org/1999/xlink" x="0px" y="0px"
	 viewBox="0 0 209.28 209.28"  xml:space="preserve">
<path d="M104.64,0C46.941,0,0,46.941,0,104.641c0,57.699,46.941,104.64,104.64,104.64s104.64-46.941,104.64-104.64
	C209.28,46.941,162.339,0,104.64,0z M104.64,194.28c-3.985,0-10.41-7.212-15.781-23.323c-2.508-7.524-4.53-16.142-6.028-25.501
	c7.052-0.56,14.366-0.856,21.809-0.856s14.757,0.296,21.809,0.857c-1.498,9.359-3.52,17.976-6.028,25.5
	C115.05,187.068,108.625,194.28,104.64,194.28z M104.64,129.6c-8.112,0-16.045,0.326-23.684,0.949
	c-0.783-8.309-1.196-17.004-1.196-25.909c0-8.905,0.413-17.6,1.196-25.91c7.638,0.623,15.571,0.949,23.681,0.949
	c8.113,0,16.047-0.326,23.687-0.949c0.783,8.31,1.196,17.005,1.196,25.91c0,8.905-0.413,17.6-1.196,25.909
	C120.685,129.927,112.751,129.6,104.64,129.6z M15,104.641c0-13.89,3.176-27.051,8.838-38.797
	c11.079,5.063,25.643,8.91,42.221,11.246c-0.863,9.004-1.3,18.287-1.3,27.551c0,9.264,0.437,18.547,1.3,27.551
	c-16.579,2.335-31.142,6.183-42.221,11.247C18.176,131.691,15,118.53,15,104.641z M104.64,15c3.985,0,10.41,7.212,15.781,23.323
	c2.508,7.524,4.53,16.141,6.028,25.5c-7.053,0.561-14.367,0.857-21.812,0.857c-7.442,0-14.755-0.296-21.806-0.856
	c1.498-9.359,3.52-17.977,6.028-25.5C94.23,22.212,100.655,15,104.64,15z M143.22,77.088c16.579-2.336,31.142-6.184,42.22-11.248
	c5.664,11.747,8.84,24.91,8.84,38.8c0,13.889-3.176,27.051-8.838,38.797c-11.079-5.063-25.643-8.91-42.221-11.246
	c0.863-9.003,1.3-18.287,1.3-27.551C144.52,95.376,144.083,86.092,143.22,77.088z M177.765,52.848
	c-9.493,4.108-22.095,7.307-36.409,9.337c-2.714-17.36-7.159-32.878-13.279-44.071C148.398,23.625,165.879,36.115,177.765,52.848z
	 M81.204,18.115c-6.12,11.193-10.565,26.711-13.279,44.072c-14.314-2.03-26.917-5.229-36.411-9.336
	C43.4,36.116,60.881,23.625,81.204,18.115z M31.515,156.431c9.493-4.108,22.096-7.307,36.41-9.337
	c2.714,17.36,7.159,32.878,13.279,44.071C60.881,185.655,43.4,173.165,31.515,156.431z M128.077,191.165
	c6.12-11.193,10.565-26.711,13.278-44.071c14.314,2.03,26.917,5.229,36.411,9.337C165.88,173.165,148.399,185.655,128.077,191.165z"
	/>
<g>
</g>
<g>
</g>
<g>
</g>
<g>
</g>
<g>
</g>
<g>
</g>
<g>
</g>
<g>
</g>
<g>
</g>
<g>
</g>
<g>
</g>
<g>
</g>
<g>
</g>
<g>
</g>
<g>
</g>
</svg>
