<?xml version="1.0" encoding="iso-8859-1"?>
<!-- Generator: Adobe Illustrator 19.0.0, SVG Export Plug-In . SVG Version: 6.00 Build 0)  -->
<svg version="1.1" id="Layer_1" xmlns="http://www.w3.org/2000/svg" xmlns:xlink="http://www.w3.org/1999/xlink" x="0px" y="0px"
	 viewBox="0 0 492.308 492.308" enable-background="new 0 0 492.308 492.308;" xml:space="preserve">
<g>
	<g>
		<path d="M37.385,165.813v67.043h67.26v-67.043H37.385z M84.952,213.164H57.077v-27.659h27.875V213.164z"/>
	</g>
</g>
<g>
	<g>
		<path d="M123.481,165.813v67.043h67.26v-67.043H123.481z M171.048,213.164h-27.875v-27.659h27.875V213.164z"/>
	</g>
</g>
<g>
	<g>
		<path d="M209.577,165.813v67.043h67.25v-67.043H209.577z M257.135,213.164h-27.865v-27.659h27.865V213.164z"/>
	</g>
</g>
<g>
	<g>
		<path d="M295.663,165.813v67.043h67.26v-67.043H295.663z M343.231,213.164h-27.875v-27.659h27.875V213.164z"/>
	</g>
</g>
<g>
	<g>
		<path d="M381.76,165.813v67.043h67.26v-67.043H381.76z M429.327,213.164h-27.875v-27.659h27.875V213.164z"/>
	</g>
</g>
<g>
	<g>
		<path d="M123.481,266.077v67.043h67.26v-67.043H123.481z M171.048,313.428h-27.875v-27.659h27.875V313.428z"/>
	</g>
</g>
<g>
	<g>
		<path d="M209.577,266.077v67.043h67.25v-67.043H209.577z M257.135,313.428h-27.865v-27.659h27.865V313.428z"/>
	</g>
</g>
<g>
	<g>
		<path d="M295.663,266.077v67.043h67.26v-67.043H295.663z M343.231,313.428h-27.875v-27.659h27.875V313.428z"/>
	</g>
</g>
<g>
	<g>
		<path d="M37.385,366.341v67.043h67.26v-67.043H37.385z M84.952,413.692H57.077v-27.659h27.875V413.692z"/>
	</g>
</g>
<g>
	<g>
		<path d="M123.481,366.341v67.043h239.442v-67.043H123.481z M343.231,413.692H143.173v-27.659h200.058V413.692z"/>
	</g>
</g>
<g>
	<g>
		<path d="M381.76,366.341v67.043h67.26v-67.043H381.76z M429.327,413.692h-27.875v-27.659h27.875V413.692z"/>
	</g>
</g>
<g>
	<g>
		<path d="M256,107.212V74.192c0-6.716,4.413-12.178,9.846-12.178h52.519c16.288,0,29.538-14.293,29.538-31.865V4.923h-19.692
			v25.226c0,6.712-4.413,12.173-9.846,12.173h-52.519c-16.288,0-29.538,14.298-29.538,31.87v33.019H0v380.173h492.308V107.212H256z
			 M472.615,467.692H19.692V126.904h452.923V467.692z"/>
	</g>
</g>
<g>
</g>
<g>
</g>
<g>
</g>
<g>
</g>
<g>
</g>
<g>
</g>
<g>
</g>
<g>
</g>
<g>
</g>
<g>
</g>
<g>
</g>
<g>
</g>
<g>
</g>
<g>
</g>
<g>
</g>
</svg>
