<?xml version="1.0" encoding="iso-8859-1"?>
<!-- Generator: Adobe Illustrator 18.0.0, SVG Export Plug-In . SVG Version: 6.00 Build 0)  -->
<!DOCTYPE svg PUBLIC "-//W3C//DTD SVG 1.1//EN" "http://www.w3.org/Graphics/SVG/1.1/DTD/svg11.dtd">
<svg version="1.1" id="Capa_1" xmlns="http://www.w3.org/2000/svg" xmlns:xlink="http://www.w3.org/1999/xlink" x="0px" y="0px"
	 viewBox="0 0 259.816 259.816"  xml:space="preserve">
<g>
	<path d="M252.316,73.446H137.408V56.465c0-17.635-14.347-31.982-31.981-31.982H7.5c-4.143,0-7.5,3.358-7.5,7.5s3.357,7.5,7.5,7.5
		h97.927c9.363,0,16.981,7.618,16.981,16.982v16.981H7.5c-4.143,0-7.5,3.358-7.5,7.5v146.888c0,4.142,3.357,7.5,7.5,7.5h244.816
		c4.143,0,7.5-3.358,7.5-7.5V80.946C259.816,76.804,256.459,73.446,252.316,73.446z M244.816,220.334H15V88.446h229.816V220.334z"/>
	<path d="M112.927,122.409v-19.982c0-4.142-3.358-7.5-7.5-7.5c-4.143,0-7.5,3.358-7.5,7.5v19.982H63.963v-19.982
		c0-4.142-3.357-7.5-7.5-7.5s-7.5,3.358-7.5,7.5v19.982h-19.98c-4.143,0-7.5,3.358-7.5,7.5c0,4.142,3.357,7.5,7.5,7.5h19.98v33.962
		h-19.98c-4.143,0-7.5,3.358-7.5,7.5c0,4.142,3.357,7.5,7.5,7.5h19.98v19.982c0,4.142,3.357,7.5,7.5,7.5s7.5-3.358,7.5-7.5v-19.982
		h131.891v19.982c0,4.142,3.357,7.5,7.5,7.5s7.5-3.358,7.5-7.5v-19.982h19.982c4.142,0,7.5-3.358,7.5-7.5c0-4.142-3.358-7.5-7.5-7.5
		h-19.982v-33.962h19.982c4.142,0,7.5-3.358,7.5-7.5c0-4.142-3.358-7.5-7.5-7.5h-19.982v-19.982c0-4.142-3.357-7.5-7.5-7.5
		s-7.5,3.358-7.5,7.5v19.982h-33.963v-19.982c0-4.142-3.357-7.5-7.5-7.5c-4.143,0-7.5,3.358-7.5,7.5v19.982H112.927z
		 M146.891,137.409v33.962h-33.964v-33.962H146.891z M63.963,137.409h33.964v33.962H63.963V137.409z M195.854,137.409v33.962
		h-33.963v-33.962H195.854z"/>
</g>
<g>
</g>
<g>
</g>
<g>
</g>
<g>
</g>
<g>
</g>
<g>
</g>
<g>
</g>
<g>
</g>
<g>
</g>
<g>
</g>
<g>
</g>
<g>
</g>
<g>
</g>
<g>
</g>
<g>
</g>
</svg>
