<?xml version="1.0" encoding="iso-8859-1"?>
<!-- Generator: Adobe Illustrator 19.0.0, SVG Export Plug-In . SVG Version: 6.00 Build 0)  -->
<svg version="1.1" id="Layer_1" xmlns="http://www.w3.org/2000/svg" xmlns:xlink="http://www.w3.org/1999/xlink" x="0px" y="0px"
	 viewBox="0 0 492.308 492.308" enable-background="new 0 0 492.308 492.308;" xml:space="preserve">
<g>
	<g>
		<path d="M462.558,372.029V92.144c0-21.721-17.663-39.385-39.385-39.385H69.125c-21.721,0-39.385,17.663-39.385,39.385v279.885H0
			v40.952l28.077,26.567h436.154l28.077-26.567v-40.952H462.558z M49.433,92.144c0-10.856,8.837-19.692,19.692-19.692h354.048
			c10.856,0,19.692,8.837,19.692,19.692v279.885H49.433V92.144z M472.615,404.5l-16.231,15.356H35.923L19.692,404.5v-12.779H29.74
			h432.817h10.058V404.5z"/>
	</g>
</g>
<g>
	<g>
		<path d="M78.971,101.99v240.5h334.356v-240.5H78.971z M393.635,322.798H98.663V121.683h294.971V322.798z"/>
	</g>
</g>
<g>
</g>
<g>
</g>
<g>
</g>
<g>
</g>
<g>
</g>
<g>
</g>
<g>
</g>
<g>
</g>
<g>
</g>
<g>
</g>
<g>
</g>
<g>
</g>
<g>
</g>
<g>
</g>
<g>
</g>
</svg>
