<?xml version="1.0" encoding="iso-8859-1"?>
<!-- Generator: Adobe Illustrator 18.0.0, SVG Export Plug-In . SVG Version: 6.00 Build 0)  -->
<!DOCTYPE svg PUBLIC "-//W3C//DTD SVG 1.1//EN" "http://www.w3.org/Graphics/SVG/1.1/DTD/svg11.dtd">
<svg version="1.1" id="Capa_1" xmlns="http://www.w3.org/2000/svg" xmlns:xlink="http://www.w3.org/1999/xlink" x="0px" y="0px"
	 viewBox="0 0 306.976 306.976"  xml:space="preserve">
<g>
	<path d="M38.578,226.406h229.82c4.142,0,7.5-3.358,7.5-7.5V66.543c0-10.298-8.38-18.676-18.682-18.676H49.77
		c-10.307,0-18.691,8.378-18.691,18.676v152.364C31.078,223.048,34.436,226.406,38.578,226.406z M46.078,66.543
		c0-1.993,1.691-3.676,3.691-3.676h207.447c1.996,0,3.682,1.683,3.682,3.676v144.864H46.078V66.543z"/>
	<path d="M233.777,78.82H73.193c-4.142,0-7.5,3.358-7.5,7.5v101.621c0,4.142,3.358,7.5,7.5,7.5h160.584c4.142,0,7.5-3.358,7.5-7.5
		V86.32C241.277,82.178,237.919,78.82,233.777,78.82z M226.277,180.441H80.693V93.82h145.584V180.441z"/>
	<path d="M288.14,221.406c-4.142,0-7.5,3.358-7.5,7.5c0,4.142,3.358,7.5,7.5,7.5c2.115,0,3.836,1.723,3.836,3.841
		c0,2.129-1.721,3.861-3.836,3.861H18.861c-2.129,0-3.861-1.732-3.861-3.861c0-2.118,1.732-3.841,3.861-3.841
		c4.142,0,7.5-3.358,7.5-7.5c0-4.142-3.358-7.5-7.5-7.5C8.461,221.406,0,229.858,0,240.248c0,10.4,8.461,18.861,18.861,18.861
		H288.14c10.386,0,18.836-8.461,18.836-18.861C306.976,229.858,298.526,221.406,288.14,221.406z"/>
</g>
<g>
</g>
<g>
</g>
<g>
</g>
<g>
</g>
<g>
</g>
<g>
</g>
<g>
</g>
<g>
</g>
<g>
</g>
<g>
</g>
<g>
</g>
<g>
</g>
<g>
</g>
<g>
</g>
<g>
</g>
</svg>
