<svg id="Capa_1" enable-background="new 0 0 490.363 490.363" height="512" viewBox="0 0 490.363 490.363" width="512" xmlns="http://www.w3.org/2000/svg"><g><path d="m450.451 329.335c6.758-16.383 11.562-33.559 14.215-51.084 1.668-10.995 2.514-22.267 2.514-33.501s-.846-22.506-2.513-33.498c-2.749-18.155-7.816-35.931-14.961-52.842 22.678-16.143 36.444-42.09 36.444-69.66 0-47.598-39.912-86.32-88.97-86.32-28.333 0-55.079 13.321-71.73 35.253-10.805-4.183-21.967-7.517-33.447-9.98-5.396-1.153-10.716 2.279-11.875 7.68-1.159 5.399 2.279 10.717 7.68 11.875 12.766 2.739 25.095 6.675 36.933 11.749.18.088.364.161.547.238 2.822 1.219 5.617 2.498 8.381 3.848.182.096.364.191.551.275 7.169 3.53 14.141 7.496 20.897 11.898l-39.633 39.633c-14.969-8.105-31.305-13.624-48.124-16.155-14.613-2.211-29.943-2.203-44.561.03-16.822 2.556-33.154 8.099-48.113 16.228l-39.62-39.62c20.563-13.43 43.121-22.861 67.22-28.067 5.398-1.166 8.829-6.487 7.663-11.886-1.166-5.397-6.487-8.834-11.886-7.663-12.454 2.69-24.527 6.421-36.18 11.134-15.985-24.138-42.797-38.9-71.348-38.9-47.598 0-86.321 39.912-86.321 88.97 0 28.407 13.392 55.218 35.427 71.86-6.617 16.188-11.334 33.135-13.948 50.419-1.668 10.995-2.514 22.267-2.514 33.501s.846 22.506 2.513 33.496c2.781 18.388 7.949 36.39 15.246 53.503-22.847 16.128-36.724 42.181-36.724 69.864 0 47.598 39.912 86.32 88.971 86.32 28.642 0 55.655-13.619 72.264-35.98 14.859 5.724 30.321 9.862 46.068 12.255 11.042 1.686 22.367 2.541 33.662 2.541 11.194 0 22.414-.839 33.339-2.493 16.957-2.552 33.582-7.132 49.483-13.532 15.923 24.573 42.988 39.639 71.828 39.639 47.597 0 86.319-39.912 86.319-88.97.001-28.521-13.502-55.431-35.697-72.058zm-16.371 48.309c0 31.981-26.019 58-58 58-4.922 0-9.805-.628-14.525-1.844 5.138-3.165 10.161-6.523 15.028-10.105 18.11-13.312 34.062-29.247 47.408-47.36 2.967-4.024 5.778-8.157 8.461-12.37 1.076 4.452 1.628 9.043 1.628 13.679zm-42.906-155.173.001.002c-2.553-16.858-8.104-33.225-16.248-48.215l39.615-39.615c15.631 24.025 26.066 51.316 30.35 79.606 1.518 10.005 2.287 20.267 2.287 30.501 0 10.233-.77 20.496-2.288 30.504-4.282 28.287-14.717 55.576-30.349 79.603l-39.615-39.615c8.145-14.99 13.694-31.356 16.247-48.213 1.109-7.316 1.672-14.812 1.672-22.279s-.562-14.963-1.672-22.279zm39.366-99.879c-2.105-3.192-4.277-6.342-6.548-9.423-13.349-18.116-29.3-34.052-47.405-47.359-4.873-3.586-9.861-6.952-14.954-10.104 3.859-.798 7.811-1.206 11.795-1.206 31.981 0 58 26.019 58 58 .001 3.396-.303 6.773-.888 10.092zm-27.89-4.342-38.724 38.724c-8.792-11.877-19.266-22.338-31.139-31.096l38.73-38.73c11.478 9.206 21.905 19.622 31.133 31.102zm-38.724 214.276 38.724 38.724c-9.227 11.477-19.653 21.893-31.133 31.102l-38.73-38.73c11.877-8.761 22.35-19.221 31.139-31.096zm102.223-243.776c0 16.348-6.379 31.973-17.383 43.958 1.755-6.56 2.664-13.358 2.664-20.208 0-43.01-34.99-78-78-78-6.503 0-12.94.817-19.173 2.393 12.052-9.196 27.16-14.464 42.923-14.464 38.029.001 68.969 29.752 68.969 66.321zm-240.34 29.795c6.353-.97 12.87-1.462 19.37-1.462 6.444 0 12.899.482 19.194 1.436 20.296 3.054 39.785 11.117 56.366 23.32 10.419 7.657 19.597 16.826 27.279 27.251 12.221 16.578 20.307 36.073 23.381 56.377.001.001.001.001.001.002.959 6.327 1.445 12.814 1.445 19.281s-.486 12.954-1.446 19.283c-3.074 20.304-11.16 39.799-23.383 56.378-7.681 10.424-16.858 19.593-27.282 27.254-16.576 12.199-36.065 20.263-56.37 23.317-12.626 1.913-25.897 1.905-38.563-.028-20.269-3.079-39.73-11.158-56.284-23.366-10.424-7.681-19.593-16.858-27.253-27.28-12.184-16.563-20.243-36.021-23.308-56.276-.959-6.327-1.445-12.814-1.445-19.281s.486-12.954 1.446-19.284c3.063-20.253 11.123-39.711 23.31-56.276 7.657-10.419 16.826-19.597 27.253-27.28 16.552-12.207 36.014-20.286 56.289-23.366zm-169.524-5.825c0-31.981 26.019-58 58-58 4.557 0 9.081.542 13.474 1.588-4.818 3.016-9.542 6.223-14.161 9.629-18.116 13.349-34.052 29.3-47.361 47.407-2.971 4.038-5.784 8.185-8.469 12.412-.977-4.252-1.483-8.623-1.483-13.036zm70.023 44.422-38.731-38.731c9.206-11.477 19.622-21.904 31.102-31.133l38.724 38.724c-11.877 8.792-22.337 19.266-31.095 31.14zm-50.607-22.321 39.627 39.627c-8.091 14.943-13.606 31.243-16.144 48.023-1.109 7.316-1.672 14.812-1.672 22.279s.563 14.963 1.671 22.276c2.539 16.783 8.054 33.084 16.145 48.026l-39.627 39.627c-15.573-23.991-25.968-51.221-30.235-79.428-1.518-10.005-2.287-20.268-2.287-30.501 0-10.234.77-20.496 2.288-30.506 4.266-28.203 14.66-55.431 30.234-79.423zm-15.757 232.273c2.027 3.066 4.111 6.095 6.291 9.059 13.312 18.11 29.247 34.062 47.359 47.407 5.237 3.863 10.647 7.481 16.198 10.859-4.196.95-8.506 1.443-12.858 1.443-31.981 0-58-26.019-58-58 .001-3.626.345-7.232 1.01-10.768zm58.735 35.127c-11.478-9.227-21.894-19.654-31.102-31.133l38.73-38.73c8.761 11.877 19.221 22.35 31.096 31.139zm-94.465-313.251c0-38.03 29.751-68.97 66.32-68.97 16.348 0 31.973 6.379 43.958 17.383-6.56-1.755-13.358-2.663-20.208-2.663-43.01 0-78 34.99-78 78 0 6.503.817 12.94 2.393 19.173-9.195-12.052-14.463-27.161-14.463-42.923zm0 312.643c0-16.347 6.379-31.972 17.384-43.957-1.755 6.559-2.663 13.358-2.663 20.207 0 43.01 34.99 78 78 78 6.502 0 12.939-.817 19.172-2.393-12.052 9.195-27.16 14.463-42.922 14.463-38.03.001-68.971-29.75-68.971-66.32zm251.319 42.867c-19.979 3.026-40.986 3.014-61.004-.044-28.236-4.291-55.476-14.716-79.458-30.322l39.615-39.615c14.959 8.129 31.289 13.672 48.106 16.227 7.348 1.122 14.88 1.69 22.388 1.69 7.442 0 14.905-.559 22.171-1.658 16.826-2.532 33.165-8.051 48.133-16.156l39.627 39.627c-24.019 15.594-51.299 25.996-79.578 30.251zm124.297 25.883c-16.349 0-31.973-6.379-43.958-17.383 6.56 1.755 13.359 2.663 20.208 2.663 43.01 0 78-34.99 78-78 0-6.502-.817-12.938-2.393-19.171 9.195 12.052 14.462 27.159 14.462 42.921 0 38.031-29.751 68.97-66.319 68.97z"/><circle cx="245.179" cy="33" r="10"/></g></svg>