<svg id="Capa_1" enable-background="new 0 0 507.001 507.001" height="512" viewBox="0 0 507.001 507.001" width="512" xmlns="http://www.w3.org/2000/svg"><g><path d="m464.612 271.757c-.448-.366-44.759-37.261-42.978-96.055 1.634-54.297 38.626-84.957 42.838-88.274 2.592-2.041 4.01-5.228 3.792-8.519s-2.046-6.263-4.884-7.943l-24.615-14.57c-4.751-2.813-10.885-1.241-13.699 3.512-2.813 4.753-1.241 10.886 3.512 13.699l13 7.695c-14.867 15.235-38.517 46.716-39.934 93.797-1.774 58.58 34.675 97.669 46.643 108.884v21.519h-184.787v-112.252l78.92-168.975 13.803 8.269c4.736 2.836 10.878 1.297 13.717-3.44 2.838-4.738 1.298-10.879-3.44-13.718l-23.311-13.964c-2.429-1.454-5.359-1.813-8.066-.982-.053.016-.103.04-.156.057-26.607 5.477-53.814 8.283-80.876 8.339-.268.001-.536.001-.804.001-27.005 0-54.141-2.741-80.7-8.137-.211-.082-.419-.169-.637-.237-2.675-.843-5.581-.521-8.008.884l-120.236 69.569c-2.87 1.66-4.73 4.636-4.966 7.943-.236 3.308 1.183 6.517 3.788 8.568 4.212 3.317 41.204 33.978 42.838 88.276 1.771 58.464-42.548 95.697-42.978 96.053-2.325 1.898-3.674 4.742-3.674 7.744v217.5c0 5.522 4.477 10 10 10h409.571c5.523 0 10-4.478 10-10v-217.5c.001-3.001-1.348-5.845-3.673-7.743zm-16.326 113.414h-389.571v-20.34h389.571zm-389.571-40.34v-19.33h184.785v19.33zm0 60.34h184.785v19.33h-184.785zm204.785 0h184.786v19.33h-184.786zm184.786-79.67v19.33h-184.786v-19.33zm-194.999-296.665c.28 0 .564 0 .844-.001 22.238-.045 44.567-1.867 66.613-5.41l-67.244 143.974-67.206-143.895c22.172 3.537 44.623 5.332 66.993 5.332zm-147.929 146.264c-1.414-46.98-24.965-78.427-39.837-93.7l98.989-57.276 78.99 169.126v112.251h-184.785v-21.519c11.968-11.215 48.417-50.303 46.643-108.882zm-46.643 269.401h184.785v42.5h-184.785zm204.785 42.5v-42.5h184.786v42.5z"/><ellipse cx="397.576" cy="44.835" rx="9.157" ry="10"/></g></svg>