<?xml version="1.0" encoding="iso-8859-1"?>
<!-- Generator: Adobe Illustrator 19.0.0, SVG Export Plug-In . SVG Version: 6.00 Build 0)  -->
<svg version="1.1" id="Layer_1" xmlns="http://www.w3.org/2000/svg" xmlns:xlink="http://www.w3.org/1999/xlink" x="0px" y="0px"
	 viewBox="0 0 492.308 492.308" enable-background="new 0 0 492.308 492.308;" xml:space="preserve">
<g>
	<g>
		<path d="M486.269,266.18c0-11.485-4.662-21.895-12.184-29.459c10.986-7.542,18.222-20.168,18.222-34.469
			c0-23.053-18.76-41.808-41.798-41.808l-114.904-0.063c10.51-28.947,12.99-58.505,13.067-79.462
			c0.038-12.899-4.971-25.058-14.106-34.221c-9.135-9.168-21.279-14.216-34.183-14.216c-26.615,0-48.269,21.649-48.269,48.264v3.462
			c-12.644,81.442-82.048,103.822-91.942,106.611h-31.587v-31.317H0v300.322h128.587v-53.414h44.654l98.096,29.029l161.029,0.404
			c23.048,0,41.808-18.755,41.808-41.808c0-10.407-3.959-19.818-10.272-27.143c13.234-7.027,22.368-20.788,22.368-36.785
			c0-12.89-5.987-24.291-15.186-31.966C480.282,290.467,486.269,279.068,486.269,266.18z M108.894,440.132H19.692V179.195h89.202
			V440.132z M450.5,224.368h-6.048h-44.933v19.692h44.933c12.202,0,22.125,9.923,22.125,22.12c0,12.192-9.923,22.115-22.125,22.115
			h-55h-6.048v19.692h6.048h55c12.202,0,22.125,9.923,22.125,22.12c0,12.192-9.923,22.115-22.125,22.115h-12.087h-40.904v19.692
			h40.904c12.192,0,22.115,9.923,22.115,22.12c0,12.192-9.923,22.115-22.115,22.115H275.558l-98.096-29.029l-48.875-0.336V210.512
			h32.885l2.365-0.288c0.923-0.226,92.846-24.043,107.865-123.798l0.106-5.678c0-15.755,12.817-28.572,28.577-28.572
			c7.635,0,14.817,2.99,20.231,8.428c5.423,5.433,8.394,12.625,8.365,20.255c-0.077,22.375-3.087,55.322-17,85.207l-6.519,13.99
			l145.039,0.082c12.192,0,22.115,9.923,22.115,22.115S462.692,224.368,450.5,224.368z"/>
	</g>
</g>
<g>
</g>
<g>
</g>
<g>
</g>
<g>
</g>
<g>
</g>
<g>
</g>
<g>
</g>
<g>
</g>
<g>
</g>
<g>
</g>
<g>
</g>
<g>
</g>
<g>
</g>
<g>
</g>
<g>
</g>
</svg>
