<svg id="Layer_1" enable-background="new 0 0 512 512" height="512" viewBox="0 0 512 512" width="512" xmlns="http://www.w3.org/2000/svg"><path d="m301 421.259c-116.346 0-211-94.654-211-211 11.59-279.92 410.452-279.839 422 .002 0 116.344-94.655 210.998-211 210.998zm0-382c-94.29 0-171 76.71-171 171 9.393 226.855 332.642 226.789 342-.001 0-94.289-76.71-170.999-171-170.999zm57 278.946h-122c-33.084 0-60-26.916-60-60v-56c0-33.084 26.916-60 60-60h122c33.084 0 60 26.916 60 60v56c0 33.084-26.916 60-60 60zm-122-136c-11.028 0-20 8.972-20 20v56c0 11.028 8.972 20 20 20h122c11.028 0 20-8.972 20-20v-56c0-11.028-8.972-20-20-20zm86 48c0 13.807-11.193 25-25 25-33.162-1.317-33.153-48.688 0-50 13.807 0 25 11.193 25 25zm-287.898 275.627 90-89.5c7.832-7.789 7.867-20.452.079-28.284-7.791-7.834-20.454-7.867-28.284-.079l-90 89.5c-7.832 7.789-7.867 20.452-.079 28.284 3.909 3.931 9.045 5.897 14.182 5.897 5.1 0 10.201-1.938 14.102-5.818zm322.898-396.627c0-18.196-14.804-33-33-33h-54c-33.735-.495-47.402 50.049-13 53.001 8.583-.001 15.903-5.408 18.741-13.001h42.518c2.838 7.593 10.158 13 18.741 13 11.046 0 20-8.954 20-20z"/></svg>