<?xml version="1.0" encoding="iso-8859-1"?>
<!-- Generator: Adobe Illustrator 19.0.0, SVG Export Plug-In . SVG Version: 6.00 Build 0)  -->
<svg version="1.1" id="Layer_1" xmlns="http://www.w3.org/2000/svg" xmlns:xlink="http://www.w3.org/1999/xlink" x="0px" y="0px"
	 viewBox="0 0 492.308 492.308" enable-background="new 0 0 492.308 492.308;" xml:space="preserve">
<g>
	<g>
		<path d="M363.414,64.714H244.361c-71.072,0-128.894,57.822-128.894,128.894c0,71.077,57.822,128.899,128.894,128.899h90.082
			v-19.692h-90.082c-60.216,0-109.202-48.99-109.202-109.207c0-60.216,48.986-109.202,109.202-109.202h119.053
			c60.216,0,109.202,48.986,109.202,109.202c0,48.365-31.043,90.341-77.245,104.457l5.75,18.837
			c54.543-16.663,91.188-66.212,91.188-123.293C492.308,122.536,434.486,64.714,363.414,64.714z"/>
	</g>
</g>
<g>
	<g>
		<path d="M247.947,169.805h-90.005v19.692h90.005c60.216,0,109.202,48.986,109.202,109.202
			c0,60.216-48.986,109.202-109.202,109.202H128.899c-60.216,0-109.207-48.986-109.207-109.202
			c0-48.361,31.043-90.341,77.25-104.457l-5.76-18.837C36.644,192.074,0,241.623,0,298.699c0,71.072,57.822,128.894,128.899,128.894
			h119.048c71.072,0,128.894-57.822,128.894-128.894S319.019,169.805,247.947,169.805z"/>
	</g>
</g>
<g>
</g>
<g>
</g>
<g>
</g>
<g>
</g>
<g>
</g>
<g>
</g>
<g>
</g>
<g>
</g>
<g>
</g>
<g>
</g>
<g>
</g>
<g>
</g>
<g>
</g>
<g>
</g>
<g>
</g>
</svg>
