<svg id="Layer_1" enable-background="new 0 0 510.71 510.71" height="512" viewBox="0 0 510.71 510.71" width="512" xmlns="http://www.w3.org/2000/svg"><g><path d="m437.847 161.935h-93.499c-8.284 0-15 6.716-15 15v137.303c-4.049 98.137-143.928 98.154-147.984 0v-137.303c0-8.284-6.716-15-15-15h-93.5c-8.284 0-15 6.716-15 15-.001 35.023-.002 102.508 0 137.303 10.879 262.063 384.202 261.861 394.982 0v-137.303c.001-8.284-6.715-15-14.999-15zm-349.983 30h63.499v41.242h-63.499zm334.983 122.303c-9.226 222.254-325.839 222.083-334.982 0v-51.061h63.499v51.061c5.729 137.994 202.308 137.887 207.984 0v-51.061h63.499zm0-81.061h-63.499v-41.242h63.499z"/><path d="m300.658 109.328c3.839 0 7.678-1.465 10.606-4.394 5.858-5.857 5.858-15.355 0-21.213-30.834-30.836-81.01-30.839-111.849 0-5.858 5.857-5.858 15.355 0 21.213 5.857 5.857 15.355 5.857 21.213 0 19.14-19.139 50.281-19.139 69.423 0 2.929 2.929 6.768 4.394 10.607 4.394z"/><path d="m167.011 66.316c3.839 0 7.678-1.465 10.606-4.394 40.914-42.641 114.532-42.641 155.446.001 5.857 5.856 15.356 5.856 21.213-.001 5.858-5.857 5.858-15.355 0-21.213-52.081-54.281-145.793-54.278-197.872 0-5.858 5.857-5.858 15.355 0 21.213 2.93 2.929 6.768 4.394 10.607 4.394z"/><path d="m244.734 127.966c-5.858 5.858-5.858 15.355 0 21.213 14.628 13.511 34.722-6.591 21.213-21.213-5.858-5.858-15.355-5.858-21.213 0z"/></g></svg>