<?xml version="1.0" encoding="iso-8859-1"?>
<!-- Generator: Adobe Illustrator 19.0.0, SVG Export Plug-In . SVG Version: 6.00 Build 0)  -->
<svg version="1.1" id="Layer_1" xmlns="http://www.w3.org/2000/svg" xmlns:xlink="http://www.w3.org/1999/xlink" x="0px" y="0px"
	 viewBox="0 0 492.308 492.308" enable-background="new 0 0 492.308 492.308;" xml:space="preserve">
<g>
	<g>
		<path d="M466.149,246.514L438.764,0H289.702l29.659,262.827c3.168,28.466-10.12,48.087-18.327,57.255
			c-8.192,9.163-26.216,24.534-54.88,24.534c-28.644,0-46.678-15.365-54.875-24.524c-8.202-9.173-21.49-28.808-18.322-57.322
			L200.899,0H53.548L26.159,246.514c-6.947,62.495,13.125,125.212,55.063,172.067s102.053,73.726,164.933,73.726
			c62.885,0,123-26.875,164.938-73.731C453.029,371.726,473.096,309.01,466.149,246.514z M317.717,72.663l-5.977-52.971h109.399
			l5.885,52.971H317.717z M71.173,19.692h107.832l-5.633,52.971H65.287L71.173,19.692z M396.418,405.447
			c-38.207,42.688-92.976,67.168-150.264,67.168c-57.284,0-112.053-24.481-150.26-67.168c-38.207-42.683-56.49-99.822-50.168-156.76
			L63.098,92.356h108.179L153.38,260.639c-4.01,36.077,12.832,60.957,23.226,72.582c10.389,11.611,33.24,31.087,69.548,31.087
			c36.327,0,59.178-19.486,69.558-31.096c10.394-11.611,27.236-36.481,23.216-72.582L319.94,92.356h109.273l17.369,156.332
			C452.909,305.625,434.625,362.76,396.418,405.447z"/>
	</g>
</g>
<g>
</g>
<g>
</g>
<g>
</g>
<g>
</g>
<g>
</g>
<g>
</g>
<g>
</g>
<g>
</g>
<g>
</g>
<g>
</g>
<g>
</g>
<g>
</g>
<g>
</g>
<g>
</g>
<g>
</g>
</svg>
