<?xml version="1.0" encoding="iso-8859-1"?>
<!-- Generator: Adobe Illustrator 19.0.0, SVG Export Plug-In . SVG Version: 6.00 Build 0)  -->
<svg version="1.1" id="Layer_1" xmlns="http://www.w3.org/2000/svg" xmlns:xlink="http://www.w3.org/1999/xlink" x="0px" y="0px"
	 viewBox="0 0 502.341 502.341" enable-background="new 0 0 502.341 502.341;" xml:space="preserve">
<g>
	<g>
		<path d="M334.394,6.063l-2.079-0.83L330.356,4l-0.548,0.232l-0.606-0.242l-1.833,1.275L172.4,70.897L5.014,0v427.284L168,496.313
			l1.975,0.786l2.059,1.305l0.591-0.251l0.52,0.207l1.57-1.093l155.233-65.812l167.379,70.886V75.067L334.394,6.063z
			 M162.553,472.62L24.707,414.236V29.731l137.846,58.385V472.62z M320.096,414.236L182.245,472.62V88.115l137.851-58.385V414.236z
			 M477.635,472.62l-137.846-58.385V29.731l137.846,58.385V472.62z"/>
	</g>
</g>
<g>
</g>
<g>
</g>
<g>
</g>
<g>
</g>
<g>
</g>
<g>
</g>
<g>
</g>
<g>
</g>
<g>
</g>
<g>
</g>
<g>
</g>
<g>
</g>
<g>
</g>
<g>
</g>
<g>
</g>
</svg>
