<svg id="Layer_1" enable-background="new 0 0 513 513" height="512" viewBox="0 0 513 513" width="512" xmlns="http://www.w3.org/2000/svg"><path d="m296 512.5h-176c-66.168 0-120-53.832-120-120v-272c0-66.168 53.832-120 120-120h272c66.168 0 120 53.832 120 120v101c-1.056 26.536-38.953 26.516-40 0v-101c0-44.112-35.888-80-80-80h-272c-44.112 0-80 35.888-80 80v272c0 44.112 35.888 80 80 80h176c26.536 1.056 26.516 38.953 0 40zm-24.809-335.906 61.951-61.952c7.811-7.811 7.81-20.474-.001-28.284-7.809-7.811-20.474-7.811-28.284 0l-61.951 61.952c-3.788 3.788-8.833 5.836-14.181 5.858-5.356-.01-10.384-2.11-14.157-5.912l-61.372-61.843c-7.781-7.841-20.445-7.889-28.284-.108-7.84 7.781-7.889 20.444-.108 28.284l61.372 61.843c11.319 11.406 26.403 17.705 42.473 17.736h.119c16.024-.001 31.087-6.239 42.423-17.574zm-155.95 155.948 42.959-43.566c22.985-23.311 22.919-61.174-.148-84.404l-42.861-43.164c-7.783-7.837-20.445-7.882-28.284-.1-7.838 7.783-7.882 20.446-.1 28.284l42.861 43.164c7.689 7.743 7.711 20.365.049 28.135l-42.959 43.566c-7.755 7.865-7.667 20.528.199 28.284 3.896 3.842 8.97 5.759 14.042 5.759 5.166 0 10.329-1.989 14.242-5.958zm332.532 159.688c43.282-54.942 65.227-96.854 65.227-124.57 0-59.088-48-107.16-107-107.16s-107 48.072-107 107.16c0 27.717 21.945 69.628 65.227 124.571 10.148 12.882 25.374 20.27 41.773 20.27s31.625-7.389 41.773-20.271zm-15.711-12.376h.01zm40.938-112.194c0 13.491-14.882 46.798-56.648 99.818-5.455 6.748-15.239 6.758-20.703 0-41.767-53.02-56.649-86.327-56.649-99.818 0-37.032 30.056-67.16 67-67.16s67 30.128 67 67.16zm-352 64.84c-17.561.106-26.752-21.608-14.142-34.142l291-291c7.811-7.811 20.475-7.811 28.285 0s7.81 20.474 0 28.284l-291 291c-3.906 3.905-9.024 5.858-14.143 5.858zm260-67c0 13.807 11.193 25 25 25 33.162-1.317 33.153-48.688 0-50-13.807 0-25 11.193-25 25z"/></svg>