<svg id="Layer_1" enable-background="new 0 0 512.583 512.583" height="512" viewBox="0 0 512.583 512.583" width="512" xmlns="http://www.w3.org/2000/svg"><g><path d="m375.197 0c-8.284 0-15 6.716-15 15v27.952l-146.685 94.3h-140.991c-8.284 0-15 6.716-15 15v5.899h-25.309c-17.659 0-32.026 14.367-32.026 32.026v83.38c0 17.659 14.367 32.026 32.026 32.026h25.309v5.899c0 8.284 6.716 15 15 15h19.183v171.1c0 8.284 6.716 15 15 15h23.723c32.505 0 58.95-26.445 58.95-58.95v-51.491h21.5c19.902-.793 19.887-29.215 0-30h-21.5v-45.66h24.455l146.365 86.129v26.535c.793 19.902 29.215 19.887 30 0v-424.145c0-8.284-6.716-15-15-15zm-317.676 275.583h-25.309c-1.117 0-2.026-.909-2.026-2.026v-83.38c0-1.117.909-2.026 2.026-2.026h25.309zm30 20.9v-129.23h41.02v129.23c-10.188-.001-30.82 0-41.02 0zm71.856 157.15c0 15.963-12.987 28.95-28.95 28.95h-8.723v-156.1h37.673zm43.541-157.15h-44.377v-129.23h44.377zm157.279 81.32-127.279-74.898v-142.463l127.279-81.825z"/><path d="m431.841 163.724c2.107 0 4.25-.446 6.288-1.39l45.4-21.002c17.731-9.074 5.782-34.867-12.596-27.228l-45.4 21.002c-14.567 6.985-9.592 28.48 6.308 28.618z"/><path d="m497.477 212.157h-50.109c-19.902.793-19.887 29.215 0 30h50.109c19.902-.792 19.887-29.215 0-30z"/><path d="m482.818 312.814-45.4-21.002c-7.519-3.479-16.434-.203-19.912 7.316-3.479 7.519-.203 16.434 7.316 19.912l45.4 21.002c7.345 3.448 16.426.279 19.912-7.316 3.479-7.519.203-16.434-7.316-19.912z"/></g></svg>