<?xml version="1.0" encoding="iso-8859-1"?>
<!-- Generator: Adobe Illustrator 19.0.0, SVG Export Plug-In . SVG Version: 6.00 Build 0)  -->
<svg version="1.1" id="Layer_1" xmlns="http://www.w3.org/2000/svg" xmlns:xlink="http://www.w3.org/1999/xlink" x="0px" y="0px"
	 viewBox="0 0 492.308 492.308" enable-background="new 0 0 492.308 492.308;" xml:space="preserve">
<g>
	<g>
		<path d="M329.712,0v19.692h128.982L308.748,169.646c-32.817-29.523-76.068-47.665-123.584-47.665
			C83.067,121.981,0,205.043,0,307.144s83.067,185.163,185.164,185.163c102.106,0,185.173-83.063,185.173-185.163
			c0-47.512-18.142-90.76-47.666-123.575L472.615,33.617v128.984h19.692V0H329.712z M350.644,307.144
			c0,91.24-74.231,165.471-165.481,165.471c-91.24,0-165.471-74.231-165.471-165.471s74.231-165.471,165.471-165.471
			C276.413,141.673,350.644,215.904,350.644,307.144z"/>
	</g>
</g>
<g>
</g>
<g>
</g>
<g>
</g>
<g>
</g>
<g>
</g>
<g>
</g>
<g>
</g>
<g>
</g>
<g>
</g>
<g>
</g>
<g>
</g>
<g>
</g>
<g>
</g>
<g>
</g>
<g>
</g>
</svg>
