<?xml version="1.0" encoding="iso-8859-1"?>
<!-- Generator: Adobe Illustrator 19.0.0, SVG Export Plug-In . SVG Version: 6.00 Build 0)  -->
<svg version="1.1" id="Layer_1" xmlns="http://www.w3.org/2000/svg" xmlns:xlink="http://www.w3.org/1999/xlink" x="0px" y="0px"
	 viewBox="0 0 492.317 492.317" enable-background="new 0 0 492.317 492.317;" xml:space="preserve">
<g>
	<g>
		<path d="M293.587,0.005v77.712h66.067l-79.494,79.498c-28.352-18.239-61.984-28.955-98.131-28.955
			C81.654,128.26,0,209.913,0,310.284s81.654,182.029,182.029,182.029s182.029-81.659,182.029-182.029
			c0-36.144-10.715-69.773-28.953-98.124l79.492-79.496v66.067h77.721V0.005H293.587z M344.365,310.284
			c0,89.514-72.827,162.337-162.337,162.337S19.692,399.798,19.692,310.284c0-89.51,72.827-162.332,162.337-162.332
			S344.365,220.774,344.365,310.284z M472.625,179.038h-38.337V85.115L323.472,195.945c-8.063-9.955-17.142-19.035-27.098-27.099
			L407.192,58.024h-93.914V19.697h159.346V179.038z"/>
	</g>
</g>
<g>
	<g>
		<path d="M182.029,186.279c-68.375,0-124,55.63-124,124.005c0,68.38,55.625,124.01,124,124.01s124.01-55.63,124.01-124.01
			C306.038,241.909,250.404,186.279,182.029,186.279z M182.029,414.601c-57.519,0-104.308-46.798-104.308-104.317
			s46.788-104.313,104.308-104.313s104.317,46.793,104.317,104.313S239.548,414.601,182.029,414.601z"/>
	</g>
</g>
<g>
</g>
<g>
</g>
<g>
</g>
<g>
</g>
<g>
</g>
<g>
</g>
<g>
</g>
<g>
</g>
<g>
</g>
<g>
</g>
<g>
</g>
<g>
</g>
<g>
</g>
<g>
</g>
<g>
</g>
</svg>
