<?xml version="1.0" encoding="iso-8859-1"?>
<!-- Generator: Adobe Illustrator 19.0.0, SVG Export Plug-In . SVG Version: 6.00 Build 0)  -->
<svg version="1.1" id="Layer_1" xmlns="http://www.w3.org/2000/svg" xmlns:xlink="http://www.w3.org/1999/xlink" x="0px" y="0px"
	 viewBox="0 0 503.635 503.635" enable-background="new 0 0 503.635 503.635;" xml:space="preserve">
<g>
	<g>
		<path d="M503.635,6.284L352.789,5.649L281.85,155.757c-9.755-1.774-19.744-2.858-29.994-2.858
			c-10.273,0-20.286,1.087-30.062,2.868L150.837,5.649L0,6.284l107.797,228.103c-16.284,26.469-25.855,57.615-25.855,91.06
			c0,95.135,76.221,172.538,169.913,172.538s169.914-77.404,169.914-172.538c0-33.478-9.59-64.654-25.904-91.139L503.635,6.284z
			 M365.231,25.399l107.385,0.442L382.873,215.7c-20.981-25.786-49.202-45.257-81.453-55.267L365.231,25.399z M31.019,25.841
			l107.375-0.442l63.825,135.052c-32.249,10.025-60.464,29.513-81.436,55.311L31.019,25.841z M402.077,325.447
			c0,84.279-67.385,152.846-150.221,152.846s-150.221-68.567-150.221-152.846c0-84.288,67.385-152.856,150.221-152.856
			S402.077,241.159,402.077,325.447z"/>
	</g>
</g>
<g>
	<g>
		<path d="M359.904,294.659l-72.519-13.827l-35.529-66.173l-35.519,66.173l-72.529,13.827l50.663,54.49l-9.5,74.587l66.885-32.24
			l66.885,32.24l-9.5-74.587L359.904,294.659z M251.856,369.63l-42.769,20.625l6.077-47.76l-32.683-35.164l46.76-8.923
			l22.615-42.115l22.625,42.115l46.75,8.923l-32.683,35.164l6.077,47.76L251.856,369.63z"/>
	</g>
</g>
<g>
</g>
<g>
</g>
<g>
</g>
<g>
</g>
<g>
</g>
<g>
</g>
<g>
</g>
<g>
</g>
<g>
</g>
<g>
</g>
<g>
</g>
<g>
</g>
<g>
</g>
<g>
</g>
<g>
</g>
</svg>
