<svg id="Layer_1" enable-background="new 0 0 511.981 511.981" height="512" viewBox="0 0 511.981 511.981" width="512" xmlns="http://www.w3.org/2000/svg"><path d="m462.864 0h-413.746c-27.03 0-49.02 21.99-49.02 49.02v309.651c0 27.029 21.99 49.02 49.02 49.02h123.005l-11.665 74.291h-22.761c-19.902.793-19.887 29.215 0 30h237.588c19.902-.793 19.887-29.215 0-30h-24.825l-10.471-74.291h122.874c6.422 0 12.553-1.254 18.178-3.509.743-.255 1.463-.559 2.148-.922 16.91-7.74 28.694-24.809 28.694-44.589v-309.651c.001-27.03-21.99-49.02-49.019-49.02zm19.02 49.02v301.921c-9.932-19.433-27.154-34.455-48.4-41.87 12.624-13.716 20.349-32.006 20.349-52.072-.019-.956.037-39.143-.019-40.249-.202-18.267-7.844-34.772-20.036-46.634 12.955-37.912-16.696-79.255-56.932-78.72-40.273-.556-69.875 40.902-56.96 78.779-12.322 12.019-19.993 28.784-19.993 47.315v39.509c0 20.202 7.835 38.601 20.612 52.348-21.454 7.902-39.03 23.958-49.013 44.416v-323.763h191.373c10.486 0 19.019 8.532 19.019 19.02zm-187.426 328.67c6.609-25.138 29.343-43.721 56.304-43.721h52.201c28.236 0 51.166 18.417 56.85 43.721zm-241.309 0c5.782-25.319 28.664-43.721 56.822-43.721h52.201c26.965 0 49.7 18.586 56.288 43.721zm129.893-155.769-91.919-16.325c4.93-14.097 18.356-24.24 34.113-24.24h21.671c19.925 0 36.135 16.21 36.135 36.134zm-93.941 13.785 93.94 16.684v4.609c0 25.899-21.071 46.971-46.97 46.971-25.899 0-46.97-21.071-46.97-46.971zm257.856-84.421c0-16.481 13.409-29.89 29.89-29.89 17.488-.098 31.497 15.342 29.757 32.729-5.994-1.792-12.337-2.768-18.906-2.768h-21.671c-6.583 0-12.939.98-18.944 2.779-.075-.926-.126-1.869-.126-2.85zm-17.065 89.95c28.682 10.11 65.276 10.165 93.94.056v15.708c-2.588 62.328-91.376 62.28-93.94 0zm36.135-59.879h21.671c17.123 0 31.492 11.975 35.197 27.987-24.714 12.629-67.362 12.466-92.048-.074 3.733-15.974 18.084-27.913 35.18-27.913zm-316.909-151.356h192.373v323.878c-9.964-20.512-27.566-36.615-49.061-44.532 12.777-13.746 20.611-32.145 20.611-52.347 0-9.902 0-29.54 0-39.509 0-36.467-29.668-66.134-66.135-66.134h-21.671c-36.467 0-66.134 29.667-66.134 66.134v39.509c0 20.096 7.75 38.411 20.407 52.133-21.237 7.315-39.829 23.659-49.411 43.954v-304.066c.001-10.488 8.533-19.02 19.021-19.02zm271.003 451.682-129.25.01 11.62-74.001c23.048-.001 85.249.004 107.202 0z"/></svg>