<?xml version="1.0" encoding="iso-8859-1"?>
<!-- Generator: Adobe Illustrator 18.0.0, SVG Export Plug-In . SVG Version: 6.00 Build 0)  -->
<!DOCTYPE svg PUBLIC "-//W3C//DTD SVG 1.1//EN" "http://www.w3.org/Graphics/SVG/1.1/DTD/svg11.dtd">
<svg version="1.1" id="Capa_1" xmlns="http://www.w3.org/2000/svg" xmlns:xlink="http://www.w3.org/1999/xlink" x="0px" y="0px"
	 viewBox="0 0 230.754 230.754"  xml:space="preserve">
<g>
	<path d="M208.254,33.376H22.5C10.094,33.376,0,43.47,0,55.876v119.002c0,12.406,10.094,22.5,22.5,22.5h185.754
		c12.406,0,22.5-10.094,22.5-22.5V55.876C230.754,43.47,220.66,33.376,208.254,33.376z M15,86.467h200.754v57.82H15V86.467z
		 M22.5,48.376h185.754c4.136,0,7.5,3.364,7.5,7.5v15.591H15V55.876C15,51.74,18.364,48.376,22.5,48.376z M208.254,182.378H22.5
		c-4.136,0-7.5-3.364-7.5-7.5v-15.591h200.754v15.591C215.754,179.014,212.39,182.378,208.254,182.378z"/>
	<path d="M175.418,107.877H55.336c-4.143,0-7.5,3.357-7.5,7.5s3.357,7.5,7.5,7.5h120.082c4.143,0,7.5-3.357,7.5-7.5
		S179.561,107.877,175.418,107.877z"/>
</g>
<g>
</g>
<g>
</g>
<g>
</g>
<g>
</g>
<g>
</g>
<g>
</g>
<g>
</g>
<g>
</g>
<g>
</g>
<g>
</g>
<g>
</g>
<g>
</g>
<g>
</g>
<g>
</g>
<g>
</g>
</svg>
