<?xml version="1.0" encoding="iso-8859-1"?>
<!-- Generator: Adobe Illustrator 18.0.0, SVG Export Plug-In . SVG Version: 6.00 Build 0)  -->
<!DOCTYPE svg PUBLIC "-//W3C//DTD SVG 1.1//EN" "http://www.w3.org/Graphics/SVG/1.1/DTD/svg11.dtd">
<svg version="1.1" id="Capa_1" xmlns="http://www.w3.org/2000/svg" xmlns:xlink="http://www.w3.org/1999/xlink" x="0px" y="0px"
	 viewBox="0 0 237.02 237.02"  xml:space="preserve">
<g>
	<path d="M229.52,9.834H7.5c-4.142,0-7.5,3.358-7.5,7.5v153.85c0,4.142,3.358,7.5,7.5,7.5h55.492c4.142,0,7.5-3.358,7.5-7.5
		c0-4.142-3.358-7.5-7.5-7.5H15V24.834h207.02v138.85h-89.062c-1.527,0-3.018,0.466-4.273,1.337l-69.966,48.502
		c-3.404,2.359-4.25,7.032-1.891,10.437c1.456,2.101,3.793,3.228,6.171,3.228c1.474,0,2.963-0.433,4.266-1.337l68.038-47.166h94.216
		c4.142,0,7.5-3.358,7.5-7.5V17.334C237.02,13.192,233.662,9.834,229.52,9.834z"/>
	<path d="M146.265,69.451c4.142,0,7.5-3.358,7.5-7.5s-3.358-7.5-7.5-7.5H90.759c-4.142,0-7.5,3.358-7.5,7.5s3.358,7.5,7.5,7.5
		H146.265z"/>
	<path d="M55.507,94.26c0,4.142,3.358,7.5,7.5,7.5h111.01c4.142,0,7.5-3.358,7.5-7.5c0-4.142-3.358-7.5-7.5-7.5H63.007
		C58.865,86.76,55.507,90.117,55.507,94.26z"/>
	<path d="M63.007,134.066h111.01c4.142,0,7.5-3.358,7.5-7.5c0-4.142-3.358-7.5-7.5-7.5H63.007c-4.142,0-7.5,3.358-7.5,7.5
		C55.507,130.708,58.865,134.066,63.007,134.066z"/>
</g>
<g>
</g>
<g>
</g>
<g>
</g>
<g>
</g>
<g>
</g>
<g>
</g>
<g>
</g>
<g>
</g>
<g>
</g>
<g>
</g>
<g>
</g>
<g>
</g>
<g>
</g>
<g>
</g>
<g>
</g>
</svg>
