<svg id="Layer_1" enable-background="new 0 0 511.805 511.805" height="512" viewBox="0 0 511.805 511.805" width="512" xmlns="http://www.w3.org/2000/svg"><g><path d="m385.088 253.695c-8.538-5.343-13.634-14.423-13.634-24.288v-.057c0-24.962-12.838-46.966-32.237-59.768 10.075-13.586 10.359-34.594.619-48.459 10.778-8.87 17.665-22.319 17.665-37.35v-35.622c.56-30.283-29.505-54.244-58.875-46.774-12.311 2.894-25.615 6.928-39.542 11.99-24.783 9.006-46.413 8.348-60.194 6.206-11.212-1.739-22.569 1.491-31.158 8.865-8.532 7.325-13.425 17.984-13.425 29.245v26.091c0 15.031 6.887 28.48 17.665 37.35-9.752 13.881-9.452 34.913.647 48.499-19.365 12.808-32.175 34.793-32.175 59.728 0 9.87-5.101 18.952-13.646 24.294-88.006 53.466-94.257 158.398-9.793 217.113 73.405 54.727 204.393 54.733 277.799-.002 84.408-58.688 78.243-163.574-9.716-217.061zm-79.588-121.597c16.04 2.187 14.938 25.124-1.318 25.685h-96.557c-16.269-.567-17.347-23.504-1.318-25.685zm-121.194-74.416c0-3.388 1.846-5.479 2.947-6.424.994-1.075 4.427-2.587 7.042-1.986 24.731 3.84 50.673 1.194 75.018-7.654 12.827-4.661 24.995-8.356 36.165-10.982 5.355-1.26 10.902-.017 15.216 3.409 4.326 3.434 6.806 8.575 6.806 14.105v35.622c0 10.074-8.181 18.271-18.237 18.271-2.023.029-5.279-.095-8.614-.068v-29.577c0-8.299-6.716-15.027-15-15.027s-15 6.728-15 15.027v29.578h-26.491v-9.69c0-8.299-6.716-15.027-15-15.027s-15 6.728-15 15.027v9.69c-4.167-.027-6.67.027-11.614.068-10.056 0-18.237-8.196-18.237-18.271v-26.091zm193.073 388.61c-63.295 47.331-179.659 47.332-242.953-.002-67.032-46.589-61.602-124.677 8.254-167.149 17.384-10.868 27.762-29.482 27.762-49.791 0-22.871 18.573-41.478 41.402-41.478h88.206c22.829 0 41.402 18.607 41.402 41.478v.057c0 20.298 10.37 38.906 27.739 49.777 69.804 42.493 75.192 120.536 8.188 167.108z"/><path d="m280.631 300.113c8.284 0 15-6.728 15-15.027s-6.716-15.027-15-15.027c-32.219 0-59.24 22.645-66.087 52.877h-5.369c-19.902.794-19.887 29.268 0 30.055h5.369c6.847 30.232 33.868 52.877 66.087 52.877 8.284 0 15-6.728 15-15.027s-6.716-15.027-15-15.027c-15.505 0-28.852-9.408-34.668-22.822h34.668c19.902-.794 19.887-29.268 0-30.055h-34.668c5.817-13.416 19.164-22.824 34.668-22.824z"/></g></svg>