<svg id="Capa_1" enable-background="new 0 0 507.412 507.412" height="512" viewBox="0 0 507.412 507.412" width="512" xmlns="http://www.w3.org/2000/svg"><g><path d="m76.581 117.644h117.657c28.811 0 52.25-23.439 52.25-52.25s-23.439-52.25-52.25-52.25h-22.497c-21.231 0-32.788 13.181-37.813 24.205h-57.347c-10.71 0-20.79 4.173-28.396 11.765-7.578 7.593-11.751 17.672-11.751 28.383-.001 22.137 18.01 40.147 40.147 40.147zm-14.255-54.388c3.816-3.809 8.879-5.907 14.254-5.907h64.473c4.755 0 8.852-3.348 9.799-8.008.135-.661 3.493-16.197 20.888-16.197h22.497c17.783 0 32.25 14.467 32.25 32.25s-14.467 32.25-32.25 32.25h-117.656c-11.109 0-20.147-9.038-20.147-20.147-.001-5.376 2.097-10.439 5.892-14.241z"/><path d="m369.951 146.644h68.577c15.203 0 27.571-12.969 27.571-28.909 0-7.574-2.774-14.737-7.827-20.186-5.239-5.625-12.251-8.723-19.744-8.723h-30.684c-3.889-7.391-11.607-15.182-24.781-15.182h-13.112c-19.093 0-34.626 16.374-34.626 36.5s15.533 36.5 34.626 36.5zm0-53h13.112c5.794 0 7.566 4.894 8.069 7.094.792 4.828 4.917 8.087 9.817 8.087h37.578c2.537 0 4.289 1.474 5.093 2.337 1.599 1.724 2.479 4.058 2.479 6.572 0 4.913-3.396 8.909-7.571 8.909h-68.577c-8.064 0-14.626-7.402-14.626-16.5s6.561-16.499 14.626-16.499z"/><circle cx="441.599" cy="376.644" r="10"/><path d="m505.238 490.509c2.427-3.039 2.868-7.346 1.088-10.811l-34.767-67.662c-2.524-4.913-8.554-6.85-13.465-4.324-4.912 2.524-6.849 8.552-4.324 13.465l27.28 53.092h-269.537l86.319-178.148 35.765 29.173c1.838 1.499 4.079 2.251 6.321 2.251 2.152 0 4.307-.692 6.108-2.082l40.38-31.151 25.19 47.515c2.586 4.879 8.641 6.738 13.519 4.151 4.88-2.587 6.738-8.64 4.151-13.519l-80.246-151.365c-1.765-3.329-5.279-5.376-9.017-5.314-3.767.068-7.175 2.248-8.817 5.638l-102.426 211.39-93.443-222.043c-1.587-3.771-5.266-6.186-9.403-6.12-4.091.076-7.723 2.636-9.169 6.464l-41.137 108.871c-.139.318-.262.64-.366.967l-74.497 197.162c-1.289 3.41-.896 6.972 1.104 10.222 2.321 3.542 5.492 5.937 9.75 5.937h485.812c3.019 0 5.943-1.403 7.827-3.759zm-164.651-282.625 36.316 68.501-36.81 28.397-33.297-27.16zm-150.393 264.519c-.295.609-.521 1.234-.685 1.866h-165.933l65.651-173.747 30.371 24.773c1.838 1.499 4.078 2.251 6.321 2.251 2.152 0 4.306-.692 6.107-2.082l35.25-27.192 49.871 118.505zm-63.595-270.79 32.652 77.589-33.159 25.58-29.411-23.99z"/></g></svg>