<?xml version="1.0" encoding="iso-8859-1"?>
<!-- Generator: Adobe Illustrator 19.0.0, SVG Export Plug-In . SVG Version: 6.00 Build 0)  -->
<svg version="1.1" id="Layer_1" xmlns="http://www.w3.org/2000/svg" xmlns:xlink="http://www.w3.org/1999/xlink" x="0px" y="0px"
	 viewBox="0 0 492.308 492.308" enable-background="new 0 0 492.308 492.308;" xml:space="preserve">
<g>
	<g>
		<path d="M246.149,0C137.649,0,49.37,88.279,49.37,196.784v98.745c0,108.505,88.279,196.779,196.779,196.779
			c108.51,0,196.789-88.274,196.789-196.779v-98.745C442.938,88.279,354.659,0,246.149,0z M255.995,20.191
			c88.444,4.899,159.681,74.807,166.548,162.718H255.995V20.191z M236.303,20.191v162.718H69.765
			C76.631,94.999,147.868,25.091,236.303,20.191z M423.245,295.529c0,97.644-79.442,177.087-177.096,177.087
			c-97.644,0-177.087-79.442-177.087-177.087v-92.928h354.183V295.529z"/>
	</g>
</g>
<g>
</g>
<g>
</g>
<g>
</g>
<g>
</g>
<g>
</g>
<g>
</g>
<g>
</g>
<g>
</g>
<g>
</g>
<g>
</g>
<g>
</g>
<g>
</g>
<g>
</g>
<g>
</g>
<g>
</g>
</svg>
