<?xml version="1.0" encoding="iso-8859-1"?>
<!-- Generator: Adobe Illustrator 18.0.0, SVG Export Plug-In . SVG Version: 6.00 Build 0)  -->
<!DOCTYPE svg PUBLIC "-//W3C//DTD SVG 1.1//EN" "http://www.w3.org/Graphics/SVG/1.1/DTD/svg11.dtd">
<svg version="1.1" id="Capa_1" xmlns="http://www.w3.org/2000/svg" xmlns:xlink="http://www.w3.org/1999/xlink" x="0px" y="0px"
	 viewBox="0 0 230.438 230.438"  xml:space="preserve">
<g>
	<path d="M169.358,53.86h-46.639l-0.001-19.43C122.719,15.445,107.273,0,88.289,0H53.666c-4.142,0-7.5,3.357-7.5,7.5
		c0,4.142,3.358,7.5,7.5,7.5h34.623c10.713,0,19.43,8.717,19.43,19.431l0.001,19.43H61.076c-8.222,0-14.91,6.691-14.91,14.917
		v92.605c0,38.077,30.977,69.056,69.054,69.056c38.075,0,69.051-30.979,69.051-69.056V68.777
		C184.271,60.552,177.582,53.86,169.358,53.86z M169.271,161.382c0,29.807-24.247,54.056-54.051,54.056
		c-29.806,0-54.054-24.249-54.054-54.056V68.86h108.105V161.382z"/>
	<path d="M107.72,84.512v15.652H78.954c-4.142,0-7.5,3.357-7.5,7.5s3.358,7.5,7.5,7.5h72.532c4.142,0,7.5-3.357,7.5-7.5
		s-3.358-7.5-7.5-7.5H122.72V84.512c0-4.143-3.358-7.5-7.5-7.5C111.078,77.012,107.72,80.369,107.72,84.512z"/>
</g>
<g>
</g>
<g>
</g>
<g>
</g>
<g>
</g>
<g>
</g>
<g>
</g>
<g>
</g>
<g>
</g>
<g>
</g>
<g>
</g>
<g>
</g>
<g>
</g>
<g>
</g>
<g>
</g>
<g>
</g>
</svg>
