<?xml version="1.0" encoding="iso-8859-1"?>
<!-- Generator: Adobe Illustrator 19.0.0, SVG Export Plug-In . SVG Version: 6.00 Build 0)  -->
<svg version="1.1" id="Layer_1" xmlns="http://www.w3.org/2000/svg" xmlns:xlink="http://www.w3.org/1999/xlink" x="0px" y="0px"
	 viewBox="0 0 500.462 500.462" enable-background="new 0 0 500.462 500.462;" xml:space="preserve">
<g>
	<g>
		<polygon points="414.788,164.558 400.865,178.481 462.773,240.385 260.077,240.385 260.077,37.688 321.981,99.591 335.904,85.668 
			250.236,0 164.563,85.668 178.486,99.591 240.385,37.697 240.385,240.385 37.692,240.385 99.596,178.481 85.673,164.558 
			0,250.231 85.673,335.904 99.596,321.981 37.692,260.077 240.385,260.077 240.385,462.769 178.481,400.865 164.558,414.788 
			250.231,500.462 335.904,414.788 321.981,400.865 260.077,462.769 260.077,260.077 462.764,260.077 400.865,321.976 
			414.788,335.899 500.462,250.226 		"/>
	</g>
</g>
<g>
</g>
<g>
</g>
<g>
</g>
<g>
</g>
<g>
</g>
<g>
</g>
<g>
</g>
<g>
</g>
<g>
</g>
<g>
</g>
<g>
</g>
<g>
</g>
<g>
</g>
<g>
</g>
<g>
</g>
</svg>
