<svg id="Layer_1" enable-background="new 0 0 512 512" height="512" viewBox="0 0 512 512" width="512" xmlns="http://www.w3.org/2000/svg"><path d="m392 512h-272c-66.168 0-120-53.832-120-120v-272c0-66.168 53.832-120 120-120h272c66.168 0 120 53.832 120 120v272c0 66.168-53.832 120-120 120zm-272-472c-44.112 0-80 35.888-80 80v272c0 44.112 35.888 80 80 80h272c44.112 0 80-35.888 80-80v-272c0-44.112-35.888-80-80-80zm206.453 376.989c-8.403 0-16.853-2.01-24.673-6.08l-39.63-20.624c-3.852-2.004-8.449-2.006-12.301 0l-39.629 20.624c-18.112 9.427-39.594 7.801-56.065-4.24-16.287-11.907-24.273-31.607-20.842-51.414l7.568-43.683c.706-4.078-.673-8.25-3.689-11.16l-32.061-30.937c-31.632-30.008-13.751-84.247 29.362-90.009l44.307-6.374c4.273-.615 7.952-3.243 9.84-7.029l19.815-39.744c18.936-38.896 76.161-38.882 95.088 0l19.814 39.743c1.889 3.787 5.567 6.415 9.841 7.03l44.307 6.374c43.129 5.766 60.984 60.014 29.362 90.008l-32.061 30.938c-3.017 2.91-4.396 7.082-3.689 11.159l7.568 43.684c3.432 19.807-4.555 39.507-20.842 51.414-9.357 6.841-20.333 10.32-31.39 10.32zm-70.453-68.203c8.456 0 16.909 2.005 24.617 6.017l39.629 20.624c6.617 3.444 11.989.413 13.992-1.05 1.912-1.397 6.231-5.395 5.036-12.294l-7.568-43.683c-2.974-17.158 2.756-34.644 15.326-46.773l32.061-30.937c5.107-4.928 3.988-10.633 3.271-12.856-.739-2.288-3.246-7.725-10.553-8.775l-44.307-6.374c-17.267-2.483-32.198-13.24-39.943-28.775l-19.813-39.742c-4.753-9.601-18.727-9.618-23.494 0l-19.814 39.743c-7.744 15.534-22.676 26.291-39.942 28.774l-44.307 6.374c-7.307 1.051-9.813 6.487-10.553 8.775-.718 2.224-1.837 7.929 3.271 12.857l32.061 30.936c12.57 12.13 18.3 29.615 15.326 46.774l-7.568 43.682c-1.195 6.899 3.124 10.896 5.036 12.294 2.002 1.464 7.371 4.492 13.993 1.05l39.628-20.624c7.704-4.011 16.161-6.017 24.615-6.017z"/></svg>