<?xml version="1.0" encoding="iso-8859-1"?>
<!-- Generator: Adobe Illustrator 19.0.0, SVG Export Plug-In . SVG Version: 6.00 Build 0)  -->
<svg version="1.1" id="Layer_1" xmlns="http://www.w3.org/2000/svg" xmlns:xlink="http://www.w3.org/1999/xlink" x="0px" y="0px"
	 viewBox="0 0 492.308 492.308" enable-background="new 0 0 492.308 492.308;" xml:space="preserve">
<g>
	<g>
		<path d="M0,0v492.308h492.308V0H0z M123.817,472.615H19.692V19.692h104.125V472.615z M348.798,472.615H143.51V256h205.288V472.615
			z M348.798,236.308H143.51V19.692h205.288V236.308z M472.615,472.615H368.49V19.692h104.125V472.615z"/>
	</g>
</g>
<g>
	<g>
		<path d="M386.452,40.615v66.644h66.644V40.615H386.452z M433.404,87.567h-27.26v-27.26h27.26V87.567z"/>
	</g>
</g>
<g>
	<g>
		<path d="M386.452,126.721v66.644h66.644v-66.644H386.452z M433.404,173.673h-27.26v-27.26h27.26V173.673z"/>
	</g>
</g>
<g>
	<g>
		<path d="M386.452,212.837v66.635h66.644v-66.635H386.452z M433.404,259.779h-27.26v-27.25h27.26V259.779z"/>
	</g>
</g>
<g>
	<g>
		<path d="M386.452,298.942v66.644h66.644v-66.644H386.452z M433.404,345.894h-27.26v-27.26h27.26V345.894z"/>
	</g>
</g>
<g>
	<g>
		<path d="M386.452,385.048v66.644h66.644v-66.644H386.452z M433.404,432h-27.26v-27.26h27.26V432z"/>
	</g>
</g>
<g>
	<g>
		<path d="M39.216,40.615v66.644h66.639V40.615H39.216z M86.163,87.567H58.909v-27.26h27.255V87.567z"/>
	</g>
</g>
<g>
	<g>
		<path d="M39.216,126.721v66.644h66.639v-66.644H39.216z M86.163,173.673H58.909v-27.26h27.255V173.673z"/>
	</g>
</g>
<g>
	<g>
		<path d="M39.216,212.837v66.635h66.639v-66.635H39.216z M86.163,259.779H58.909v-27.25h27.255V259.779z"/>
	</g>
</g>
<g>
	<g>
		<path d="M39.216,298.942v66.644h66.639v-66.644H39.216z M86.163,345.894H58.909v-27.26h27.255V345.894z"/>
	</g>
</g>
<g>
	<g>
		<path d="M39.216,385.048v66.644h66.639v-66.644H39.216z M86.163,432H58.909v-27.26h27.255V432z"/>
	</g>
</g>
<g>
</g>
<g>
</g>
<g>
</g>
<g>
</g>
<g>
</g>
<g>
</g>
<g>
</g>
<g>
</g>
<g>
</g>
<g>
</g>
<g>
</g>
<g>
</g>
<g>
</g>
<g>
</g>
<g>
</g>
</svg>
