<svg id="Layer_1" enable-background="new 0 0 512.25 512.25" height="512" viewBox="0 0 512.25 512.25" width="512" xmlns="http://www.w3.org/2000/svg"><path d="m370.835 511.833h-229.534c-61.057 0-112.313-45.748-119.228-106.413l-21.521-188.85c-2.771-24.32 4.987-48.741 21.285-67.002 16.299-18.261 39.684-28.734 64.16-28.734 11.046 0 20 8.954 20 20s-8.954 20-20 20c-26.806-.579-49.312 24.641-45.703 51.208l21.521 188.851c4.609 40.443 38.781 70.942 79.485 70.942h229.534c40.705 0 74.877-30.498 79.485-70.941l21.521-188.852c1.504-13.199-2.539-25.926-11.385-35.837-8.846-9.912-21.033-15.37-34.318-15.37-26.516-1.046-26.534-38.946 0-40 50.288-.785 91.921 45.862 85.445 95.736l-21.521 188.851c-6.911 60.664-58.168 106.411-119.226 106.411zm-186.845-285v-114c4.022-96.868 142.015-96.793 146 0v8h-86c-26.536 1.056-26.516 38.953 0 40h106c11.046 0 20-8.954 20-20v-28c-6.225-149.947-219.831-149.831-226 0v114c0 11.046 8.954 20 20 20s20-8.954 20-20zm159.212 6.288c-6.47-8.953-18.972-10.969-27.924-4.5l-1.602 1.157c-3.406 2.459-7.921 2.632-11.506.441-11.382-6.961-25.678-7.23-37.315-.708-11.637 6.523-18.865 18.864-18.865 32.204v55.544c-38.1-14.099-80.581 15.827-79.999 56.573 3.293 79.593 116.714 79.578 119.999-.001v-106.946c16.505 7.854 36.045 6.199 51.107-4.681l1.604-1.159c8.955-6.468 10.97-18.97 4.501-27.924zm-117.212 160.712c-11.028 0-20-8.972-20-20 1.099-26.533 38.905-26.525 40 0 0 11.028-8.972 20-20 20z"/></svg>