<svg id="Layer_1" enable-background="new 0 0 512.532 512.532" height="512" viewBox="0 0 512.532 512.532" width="512" xmlns="http://www.w3.org/2000/svg"><path d="m496.774 326.992h-77.223v-26.168c13.743-4.53 24.76-15.098 29.895-28.557h48.061c10.774.192 18.304-11.675 13.594-21.31-1.852-6.183-7.579-10.693-14.365-10.693h-46.531c-14.569-43.886-76.756-43.858-91.308 0h-58.162c-4.746-14.476-16.191-25.935-30.658-30.702l.006-24.023h78.337c8.284 0 15-6.716 15-15v-155.273c0-8.284-6.716-15-15-15h-185.293c-8.284 0-15 6.716-15 15v155.273c0 8.284 6.716 15 15 15h76.957l-.006 24.025c-14.463 4.768-25.906 16.226-30.651 30.699h-59.361c-14.111-42.751-74.305-44.219-90.502-2.263h-45.058c-10.474-.206-17.656 11.822-13.122 21.31 1.788 6.184 7.316 10.693 13.867 10.693h43.463c4.723 14.528 16.193 26.04 30.698 30.82v26.168h-74.385c-8.284 0-15 6.716-15 15v155.274c0 8.284 6.716 15 15 15h181.294c8.284 0 15-6.716 15-15v-155.273c0-8.284-6.716-15-15-15h-76.91v-26.168c14.418-4.752 25.833-16.152 30.606-30.56h59.457c14.646 43.7 76.584 43.672 91.213 0h58.257c4.773 14.408 16.189 25.808 30.606 30.56v26.168h-78.07c-8.284 0-15 6.716-15 15v155.274c0 8.284 6.716 15 15 15h185.294c8.284 0 15-6.716 15-15v-155.274c0-8.285-6.716-15-15-15zm-315.453 30v125.274h-151.294v-125.274zm-76.91-83.757c-9.948 0-18.041-8.093-18.041-18.041.991-23.934 35.095-23.927 36.082 0 0 9.948-8.093 18.041-18.041 18.041zm73.716-117.696v-125.273h155.293v125.273zm76.953 117.696c-9.948 0-18.041-8.093-18.041-18.041.991-23.934 35.096-23.927 36.083 0 0 9.948-8.093 18.041-18.042 18.041zm131.43-18.041c0-9.948 8.093-18.041 18.041-18.041 23.934.991 23.927 35.095 0 36.082-9.948 0-18.041-8.093-18.041-18.041zm95.264 227.072h-155.294v-125.274h155.294z"/></svg>