<?xml version="1.0" encoding="iso-8859-1"?>
<!-- Generator: Adobe Illustrator 19.0.0, SVG Export Plug-In . SVG Version: 6.00 Build 0)  -->
<svg version="1.1" id="Layer_1" xmlns="http://www.w3.org/2000/svg" xmlns:xlink="http://www.w3.org/1999/xlink" x="0px" y="0px"
	 viewBox="0 0 492.308 492.308" enable-background="new 0 0 492.308 492.308;" xml:space="preserve">
<g>
	<g>
		<path d="M100.649,0v227.433H0v204.702c0,33.183,26.995,60.173,60.173,60.173h371.966c33.178,0,60.168-27.462,60.168-61.221V0
			H100.649z M100.649,432.135c0,22.317-18.159,40.481-40.476,40.481c-22.322,0-40.481-18.163-40.481-40.481v-185.01h80.957V432.135z
			 M472.615,431.087c0,22.894-18.159,41.529-40.481,41.529H104.561c9.766-10.701,15.78-24.883,15.78-40.481V237.279v-9.846V19.692
			h352.274V431.087z"/>
	</g>
</g>
<g>
	<g>
		<path d="M158.413,61.567v217.394h145.505V61.567H158.413z M284.226,259.269h-106.12V81.26h106.12V259.269z"/>
	</g>
</g>
<g>
	<g>
		<rect x="333.076" y="90.88" width="108.308" height="19.692"/>
	</g>
</g>
<g>
	<g>
		<rect x="333.076" y="151.483" width="108.308" height="19.692"/>
	</g>
</g>
<g>
	<g>
		<rect x="333.076" y="212.076" width="108.308" height="19.692"/>
	</g>
</g>
<g>
	<g>
		<rect x="153.167" y="338.58" width="288.197" height="19.692"/>
	</g>
</g>
<g>
	<g>
		<rect x="153.167" y="405.563" width="288.197" height="19.692"/>
	</g>
</g>
<g>
</g>
<g>
</g>
<g>
</g>
<g>
</g>
<g>
</g>
<g>
</g>
<g>
</g>
<g>
</g>
<g>
</g>
<g>
</g>
<g>
</g>
<g>
</g>
<g>
</g>
<g>
</g>
<g>
</g>
</svg>
