<svg id="Layer_1" enable-background="new 0 0 512.013 512.013" height="512" viewBox="0 0 512.013 512.013" width="512" xmlns="http://www.w3.org/2000/svg"><path d="m392.013 512.007h-272c-66.168 0-120-53.832-120-120v-120c-.793-46.334 33.711-89.427 79-97.999v-54.001c0-66.168 53.832-120 120-120h193c66.168 0 120 53.832 120 120v272c0 66.168-53.832 120-120 120zm-313-296.592c-22.956 8.16-39 30.119-39 56.591v120c0 44.112 35.888 80 80 80h272c44.112 0 80-35.888 80-80v-272c0-44.112-35.888-80-80-80h-193c-44.112 0-80 35.888-80 80v276c-1.056 26.536-38.953 26.516-40 0zm353-86.408c0-11.046-8.954-20-20-20h-233c-26.536 1.056-26.516 38.953 0 40h233c11.046 0 20-8.954 20-20zm1 187c0-11.046-8.954-20-20-20h-78c-26.536 1.056-26.516 38.953 0 40h78c11.046 0 20-8.954 20-20zm-157 0c0-11.046-8.954-20-20-20h-77c-26.536 1.056-26.516 38.953 0 40h77c11.046 0 20-8.954 20-20zm0 80c0-11.046-8.954-20-20-20h-77c-26.536 1.056-26.516 38.953 0 40h77c11.046 0 20-8.954 20-20zm116 0c0-11.046-8.954-20-20-20h-37c-26.536 1.056-26.516 38.953 0 40h37c11.046 0 20-8.954 20-20zm21-140h-145c-26.536-1.056-26.516-38.953 0-40h145c26.537 1.056 26.516 38.953 0 40zm-254-22c0 13.807 11.193 25 25 25 33.162-1.317 33.153-48.688 0-50-13.807 0-25 11.192-25 25z"/></svg>