<svg id="Layer_1" enable-background="new 0 0 512.676 512.676" height="512" viewBox="0 0 512.676 512.676" width="512" xmlns="http://www.w3.org/2000/svg"><g><path d="m14.921 96.986h21.71c1.122 53.662 45.119 96.972 99.045 96.972h12.991c54.628 0 99.071-44.443 99.071-99.071v-9.244c4.786-7.881 12.754-7.785 17.524.025v9.219c0 54.628 44.443 99.071 99.071 99.071h12.991c53.926 0 97.922-43.31 99.044-96.972h21.388c19.902-.793 19.887-29.215 0-30h-21.361v-18.355c0-26.629-21.664-48.293-48.292-48.293h-114.549c-26.628 0-48.292 21.664-48.292 48.293v2.117c-5.371-1.338-12.148-1.344-17.524-.015v-2.103c0-26.629-21.664-48.293-48.293-48.293h-114.548c-26.628 0-48.292 21.664-48.292 48.293v18.354h-21.684c-19.902.794-19.887 29.216 0 30.002zm298.633-66.648h114.548c10.086 0 18.292 8.206 18.292 18.293v46.255c0 38.086-30.985 69.071-69.071 69.071h-12.991c-32.48 0-59.779-22.541-67.117-52.796l14.031-8.147c16.812-10.68 2.53-35.248-15.064-25.943l-.921.535v-28.975c.001-10.087 8.207-18.293 18.293-18.293zm-246.95 18.293c0-10.087 8.206-18.293 18.292-18.293h114.548c10.087 0 18.293 8.206 18.293 18.293v28.784l-.896-.521c-17.609-9.309-31.867 15.28-15.063 25.943l14.044 8.154c-7.277 30.34-34.616 52.965-67.156 52.965h-12.991c-38.086 0-69.071-30.985-69.071-69.071v-46.254z"/><path d="m496.821 257.939h-15.151l-19.798-12.161c-15.765-9.686-33.878-14.805-52.382-14.805-77.255 0-285.623 0-362.086 0-8.284 0-15 6.716-15 15v11.966h-17.38c-8.284 0-15 6.716-15 15s6.716 15 15 15h17.38v11.979c0 8.284 6.716 15 15 15h362.777c17.972 0 35.639-4.85 51.09-14.025l21.816-12.953h13.734c19.899-.792 19.891-29.215 0-30.001zm-151.257 3.034v23.944h-219.787v-23.944zm-283.16 12.14c.009-.116.009-.232 0-.348v-11.792h33.373v23.944h-33.373zm383.551 1.984c-10.819 6.425-23.189 9.82-35.774 9.82h-34.617v-23.944h33.927c12.957 0 25.64 3.584 36.679 10.366l3.005 1.846z"/><path d="m356.742 363.687c-50.235 0-149.907 0-200.009 0-18.761 0-34.024 15.263-34.024 34.023v80.604c0 18.761 15.263 34.023 34.024 34.023h200.009c18.761 0 34.024-15.263 34.024-34.023v-80.604c0-18.761-15.264-34.023-34.024-34.023zm-204.034 114.628v-80.605c0-2.219 1.805-4.023 4.024-4.023h85.005v88.651h-85.005c-2.218 0-4.024-1.805-4.024-4.023zm208.058 0c0 2.219-1.805 4.023-4.024 4.023h-85.004v-88.651h85.004c2.219 0 4.024 1.805 4.024 4.023z"/></g></svg>