<svg id="Layer_1" enable-background="new 0 0 511.952 511.952" height="512" viewBox="0 0 511.952 511.952" width="512" xmlns="http://www.w3.org/2000/svg"><g><path d="m497.031 481.56h-25.033v-32.834c10.087-4.813 18.9-14.58 25.6-28.651 16.761-33.774 16.761-92.773 0-126.547-6.7-14.071-15.512-23.838-25.6-28.652v-67.777c0-8.284-6.716-15-15-15h-64.553v-45.66c0-8.284-6.716-15-15-15h-53.021v-45.179c0-8.284-6.716-15-15-15h-38.493v-45.953c-.793-19.902-29.215-19.887-30 0v45.953h-38.494c-8.284 0-15 6.716-15 15v45.179h-53.021c-8.284 0-15 6.716-15 15v45.66h-64.554c-8.284 0-15 6.716-15 15v67.777c-10.087 4.814-18.9 14.58-25.6 28.652-16.761 33.774-16.761 92.773 0 126.547 6.7 14.071 15.512 23.837 25.6 28.651v32.834h-24.941c-19.902.793-19.887 29.215 0 30 18.156-.009 479.703.016 482.11 0 19.902-.792 19.887-29.215 0-30zm-279.595-390.3h76.987v30.179h-76.987zm-162.574 330.904c-3.072 0-8.611-4.689-13.514-14.986-12.862-25.773-12.862-74.98.001-100.753 4.902-10.297 10.441-14.986 13.513-14.986s8.611 4.689 13.514 14.986c12.862 25.772 12.863 74.982 0 100.753-4.902 10.296-10.441 14.986-13.514 14.986zm156.151 59.396h-29.927v-51.229h29.927zm59.927 0h-29.928v-51.229h29.928zm59.927 0h-29.927v-51.229h29.927zm111.131 0h-81.131v-66.229c0-8.284-6.716-15-15-15h-179.781c-8.284 0-15 6.716-15 15v66.229h-81.224v-32.834c10.087-4.813 18.9-14.58 25.6-28.651 16.761-33.774 16.761-92.773 0-126.547-6.7-14.071-15.512-23.838-25.6-28.652v-52.777h64.553c8.284 0 15-6.716 15-15v-45.66h213.03v45.66c0 8.284 6.716 15 15 15h64.553v52.777c-44.674 23.987-45.86 114.144-25.6 155.199 6.7 14.071 15.513 23.837 25.6 28.651zm15-59.396c-3.071 0-8.61-4.689-13.513-14.986-12.864-25.772-12.864-74.981 0-100.753 4.902-10.297 10.441-14.986 13.513-14.986s8.611 4.689 13.514 14.986c12.862 25.772 12.863 74.982 0 100.753-4.903 10.296-10.442 14.986-13.514 14.986z"/><path d="m166.745 370.762c8.284 0 15-6.716 15-15-.79-19.897-29.213-19.892-30 0 0 8.284 6.716 15 15 15z"/><path d="m225.762 370.762c8.284 0 15-6.716 15-15-.79-19.897-29.213-19.892-30 0 0 8.284 6.715 15 15 15z"/><path d="m284.778 370.762c8.284 0 15-6.716 15-15-.79-19.897-29.213-19.892-30 0 0 8.284 6.715 15 15 15z"/><path d="m343.794 370.762c8.284 0 15-6.716 15-15-.79-19.897-29.213-19.892-30 0 0 8.284 6.716 15 15 15z"/><path d="m166.745 317.535c8.284 0 15-6.716 15-15-.79-19.897-29.213-19.892-30 0 0 8.285 6.716 15 15 15z"/><path d="m225.762 317.535c8.284 0 15-6.716 15-15-.79-19.897-29.213-19.892-30 0 0 8.285 6.715 15 15 15z"/><path d="m284.778 317.535c8.284 0 15-6.716 15-15-.79-19.897-29.213-19.892-30 0 0 8.285 6.715 15 15 15z"/><path d="m343.794 317.535c8.284 0 15-6.716 15-15-.79-19.897-29.213-19.892-30 0 0 8.285 6.716 15 15 15z"/><path d="m225.762 262.649c8.284 0 15-6.716 15-15-.79-19.897-29.213-19.892-30 0 0 8.284 6.715 15 15 15z"/><path d="m284.778 262.649c8.284 0 15-6.716 15-15-.79-19.897-29.213-19.892-30 0 0 8.284 6.715 15 15 15z"/><path d="m225.762 210.944c8.284 0 15-6.716 15-15-.79-19.897-29.213-19.892-30 0 0 8.285 6.715 15 15 15z"/><path d="m284.778 210.944c8.284 0 15-6.716 15-15-.79-19.897-29.213-19.892-30 0 0 8.285 6.715 15 15 15z"/></g></svg>