<?xml version="1.0" encoding="iso-8859-1"?>
<!-- Generator: Adobe Illustrator 18.0.0, SVG Export Plug-In . SVG Version: 6.00 Build 0)  -->
<!DOCTYPE svg PUBLIC "-//W3C//DTD SVG 1.1//EN" "http://www.w3.org/Graphics/SVG/1.1/DTD/svg11.dtd">
<svg version="1.1" id="Capa_1" xmlns="http://www.w3.org/2000/svg" xmlns:xlink="http://www.w3.org/1999/xlink" x="0px" y="0px"
	 viewBox="0 0 229.748 229.748"  xml:space="preserve">
<g>
	<path d="M215.463,214.748h-36.527V7.5c0-4.142-3.357-7.5-7.5-7.5H58.313c-4.143,0-7.5,3.358-7.5,7.5v207.248H14.285
		c-4.142,0-7.5,3.358-7.5,7.5s3.358,7.5,7.5,7.5h44.027h113.123h44.027c4.142,0,7.5-3.358,7.5-7.5S219.605,214.748,215.463,214.748z
		 M133.079,214.748H96.66v-51.205h36.419V214.748z M145.079,214.748v-57.205c0-3.313-2.687-6-6-6H90.66c-3.313,0-6,2.687-6,6v57.205
		H65.813V15h98.123v199.748H145.079z"/>
	<path d="M149.386,48.791c3.314,0,6-2.687,6-6s-2.686-6-6-6H80.361c-3.313,0-6,2.687-6,6s2.687,6,6,6h28.511V72.45H80.361
		c-3.313,0-6,2.687-6,6c0,3.313,2.687,6,6,6h28.511v24.425H80.361c-3.313,0-6,2.687-6,6s2.687,6,6,6h69.024c3.314,0,6-2.687,6-6
		s-2.686-6-6-6h-28.514V84.45h28.514c3.314,0,6-2.687,6-6c0-3.313-2.686-6-6-6h-28.514V48.791H149.386z"/>
</g>
<g>
</g>
<g>
</g>
<g>
</g>
<g>
</g>
<g>
</g>
<g>
</g>
<g>
</g>
<g>
</g>
<g>
</g>
<g>
</g>
<g>
</g>
<g>
</g>
<g>
</g>
<g>
</g>
<g>
</g>
</svg>
