<svg id="Layer_1" enable-background="new 0 0 512.017 512.017" height="512" viewBox="0 0 512.017 512.017" width="512" xmlns="http://www.w3.org/2000/svg"><g><path d="m465.64 83.533h-162.584v-38.171c0-24.962-20.309-45.271-45.271-45.271h-212.512c-24.963.001-45.271 20.309-45.271 45.271v334.091c-.002.026-.002.051 0 .077v87.122c0 24.963 20.309 45.271 45.271 45.271h212.512c24.963 0 45.271-20.309 45.271-45.271v-38.004h162.584c25.572 0 46.377-20.805 46.377-46.377v-252.361c0-25.572-20.805-46.377-46.377-46.377zm-162.584 198.386h178.961v43.402h-178.961zm162.584-168.386c9.03 0 16.377 7.347 16.377 16.377v122.009h-178.961v-138.386zm-420.367-83.441h212.512c8.421 0 15.271 6.851 15.271 15.271v221.499c-.003.039-.003.077 0 .116v97.515h-243.054v-319.131c0-8.42 6.85-15.27 15.271-15.27zm212.511 451.833h-212.511c-8.42 0-15.271-6.851-15.271-15.271v-72.161h243.054v72.161c0 8.42-6.851 15.271-15.272 15.271zm207.856-83.276h-162.584v-43.328h178.961v26.951c0 9.031-7.347 16.377-16.377 16.377z"/><path d="m97.784 242.382h7.616c6.962 33.989 37.102 59.635 73.119 59.635 8.284 0 15-6.716 15-15s-6.716-15-15-15c-19.35 0-35.858-12.381-42.034-29.635h42.034c19.902-.793 19.887-29.215 0-30h-42.034c6.176-17.253 22.683-29.634 42.034-29.634 8.284 0 15-6.716 15-15s-6.716-15-15-15c-36.017 0-66.157 25.645-73.119 59.634h-7.616c-19.902.792-19.887 29.215 0 30z"/><path d="m126.342 89.02h50.373c19.902-.793 19.887-29.215 0-30h-50.373c-19.902.792-19.887 29.214 0 30z"/><path d="m151.528 421.857c-8.284 0-15 6.716-15 15 .79 19.897 29.213 19.892 30 0 0-8.284-6.716-15-15-15z"/></g></svg>