<?xml version="1.0" encoding="iso-8859-1"?>
<!-- Generator: Adobe Illustrator 19.0.0, SVG Export Plug-In . SVG Version: 6.00 Build 0)  -->
<svg version="1.1" id="Layer_1" xmlns="http://www.w3.org/2000/svg" xmlns:xlink="http://www.w3.org/1999/xlink" x="0px" y="0px"
	 viewBox="0 0 492.308 492.308" enable-background="new 0 0 492.308 492.308;" xml:space="preserve">
<g>
	<g>
		<path d="M483.856,24.029c-77.822-11.136-159.897,1.983-237.701,37.818C168.355,26.006,86.284,12.888,8.452,24.029L0,25.236
			v408.111l11.24-1.611c75.327-10.788,155.072,2.356,230.077,37.716l1.507,0.808l2.825,1.73l0.213-0.1l0.456,0.245l3.613-2.163
			l0.55-0.26c75.51-35.62,155.245-48.731,230.587-37.976l11.24,1.611V25.236L483.856,24.029z M236.308,445.596
			c-56.755-24.63-115.582-37.212-173.192-37.212c-14.567,0-29.063,0.803-43.423,2.423V42.414
			c71.005-8.442,145.572,4.115,216.615,36.519V445.596z M472.615,410.808c-71.101-8.038-145.409,3.918-216.615,34.798V78.933
			c71.043-32.399,145.63-44.952,216.615-36.519V410.808z"/>
	</g>
</g>
<g>
	<g>
		<path d="M280.971,369.846l8.404,17.808c50.029-23.615,102.813-32.322,152.673-25.197l2.789-19.49
			C391.163,335.274,334.495,344.577,280.971,369.846z"/>
	</g>
</g>
<g>
	<g>
		<path d="M280.971,290.904l8.404,17.808c50.029-23.611,102.813-32.322,152.673-25.192l2.789-19.49
			C391.149,256.351,334.495,265.64,280.971,290.904z"/>
	</g>
</g>
<g>
	<g>
		<path d="M280.971,211.967l8.404,17.808c50.029-23.615,102.813-32.322,152.673-25.197l2.789-19.49
			C391.163,177.404,334.495,186.697,280.971,211.967z"/>
	</g>
</g>
<g>
	<g>
		<path d="M280.971,133.029l8.404,17.808c50.029-23.615,102.813-32.327,152.673-25.197l2.789-19.49
			C391.163,98.457,334.495,107.76,280.971,133.029z"/>
	</g>
</g>
<g>
	<g>
		<path d="M47.471,342.967l2.788,19.49c49.87-7.111,102.649,1.577,152.673,25.197l8.404-17.808
			C157.827,344.582,101.173,335.294,47.471,342.967z"/>
	</g>
</g>
<g>
	<g>
		<path d="M47.471,264.029l2.788,19.49c49.87-7.125,102.644,1.582,152.673,25.192l8.404-17.808
			C157.817,265.64,101.144,256.351,47.471,264.029z"/>
	</g>
</g>
<g>
	<g>
		<path d="M47.471,185.087l2.788,19.49c49.87-7.111,102.649,1.577,152.673,25.197l8.404-17.808
			C157.827,186.702,101.173,177.404,47.471,185.087z"/>
	</g>
</g>
<g>
	<g>
		<path d="M47.471,106.149l2.788,19.49c49.87-7.12,102.649,1.582,152.673,25.197l8.404-17.808
			C157.827,107.765,101.173,98.467,47.471,106.149z"/>
	</g>
</g>
<g>
</g>
<g>
</g>
<g>
</g>
<g>
</g>
<g>
</g>
<g>
</g>
<g>
</g>
<g>
</g>
<g>
</g>
<g>
</g>
<g>
</g>
<g>
</g>
<g>
</g>
<g>
</g>
<g>
</g>
</svg>
