<?xml version="1.0" encoding="iso-8859-1"?>
<!-- Generator: Adobe Illustrator 18.0.0, SVG Export Plug-In . SVG Version: 6.00 Build 0)  -->
<!DOCTYPE svg PUBLIC "-//W3C//DTD SVG 1.1//EN" "http://www.w3.org/Graphics/SVG/1.1/DTD/svg11.dtd">
<svg version="1.1" id="Capa_1" xmlns="http://www.w3.org/2000/svg" xmlns:xlink="http://www.w3.org/1999/xlink" x="0px" y="0px"
	 viewBox="0 0 230.754 230.754"  xml:space="preserve">
<g>
	<path d="M208.254,60.537H22.5c-12.406,0-22.5,10.094-22.5,22.5v119.002c0,12.406,10.094,22.5,22.5,22.5h185.754
		c12.406,0,22.5-10.094,22.5-22.5V83.037C230.754,70.631,220.66,60.537,208.254,60.537z M215.754,202.039c0,4.136-3.364,7.5-7.5,7.5
		H22.5c-4.136,0-7.5-3.364-7.5-7.5V83.037c0-4.136,3.364-7.5,7.5-7.5h185.754c4.136,0,7.5,3.364,7.5,7.5V202.039z"/>
	<path d="M175.254,93.537H55.5c-12.406,0-22.5,10.094-22.5,22.5v53.002c0,12.406,10.094,22.5,22.5,22.5h119.754
		c12.406,0,22.5-10.094,22.5-22.5v-53.002C197.754,103.631,187.66,93.537,175.254,93.537z M182.754,169.039
		c0,4.136-3.364,7.5-7.5,7.5H55.5c-4.136,0-7.5-3.364-7.5-7.5v-53.002c0-4.136,3.364-7.5,7.5-7.5h119.754c4.136,0,7.5,3.364,7.5,7.5
		V169.039z"/>
	<path d="M80.487,47.036l34.804-24.188l34.802,24.187c1.305,0.907,2.797,1.343,4.273,1.343c2.374,0,4.708-1.124,6.165-3.221
		c2.364-3.401,1.523-8.075-1.878-10.438L119.571,7.557c-2.574-1.789-5.988-1.788-8.56-0.001L71.927,34.718
		c-3.401,2.364-4.242,7.038-1.879,10.44C72.413,48.558,77.086,49.399,80.487,47.036z"/>
	<path d="M151.314,135.037H79.439c-4.143,0-7.5,3.357-7.5,7.5c0,4.142,3.357,7.5,7.5,7.5h71.875c4.143,0,7.5-3.358,7.5-7.5
		C158.814,138.394,155.457,135.037,151.314,135.037z"/>
</g>
<g>
</g>
<g>
</g>
<g>
</g>
<g>
</g>
<g>
</g>
<g>
</g>
<g>
</g>
<g>
</g>
<g>
</g>
<g>
</g>
<g>
</g>
<g>
</g>
<g>
</g>
<g>
</g>
<g>
</g>
</svg>
