<?xml version="1.0" encoding="iso-8859-1"?>
<!-- Generator: Adobe Illustrator 19.0.0, SVG Export Plug-In . SVG Version: 6.00 Build 0)  -->
<svg version="1.1" id="Layer_1" xmlns="http://www.w3.org/2000/svg" xmlns:xlink="http://www.w3.org/1999/xlink" x="0px" y="0px"
	 viewBox="0 0 492.308 492.308" enable-background="new 0 0 492.308 492.308;" xml:space="preserve">
<g>
	<g>
		<path d="M411.043,217.365h-34.394v-86.87C376.649,58.538,318.111,0,246.149,0c-71.952,0-130.49,58.539-130.49,130.495v86.87
			H81.264c-21.721,0-39.385,17.668-39.385,39.385v196.173c0,21.716,17.663,39.385,39.385,39.385h329.779
			c21.721,0,39.385-17.668,39.385-39.385V256.75C450.428,235.034,432.764,217.365,411.043,217.365z M135.351,130.495
			c0-61.096,49.702-110.803,110.798-110.803c61.096,0,110.808,49.707,110.808,110.803v86.87H135.351V130.495z M430.736,452.923
			c0,10.861-8.837,19.692-19.692,19.692H81.264c-10.856,0-19.692-8.832-19.692-19.692V256.75c0-10.861,8.837-19.692,19.692-19.692
			h34.394h260.99h34.394c10.856,0,19.692,8.832,19.692,19.692V452.923z"/>
	</g>
</g>
<g>
	<g>
		<path d="M291.678,428.447l-14.808-73.433c8.087-8.077,12.625-18.875,12.625-30.447c0-23.899-19.442-43.346-43.346-43.346
			c-23.904,0-43.346,19.447-43.346,43.346c0,11.572,4.538,22.37,12.625,30.447l-14.808,73.433H291.678z M246.149,300.913
			c13.039,0,23.654,10.611,23.654,23.654c0,7.457-3.5,14.341-9.606,18.889l-5,3.726l12.423,61.572h-42.942l12.423-61.572l-5-3.726
			c-6.106-4.548-9.606-11.433-9.606-18.889C222.495,311.524,233.111,300.913,246.149,300.913z"/>
	</g>
</g>
<g>
</g>
<g>
</g>
<g>
</g>
<g>
</g>
<g>
</g>
<g>
</g>
<g>
</g>
<g>
</g>
<g>
</g>
<g>
</g>
<g>
</g>
<g>
</g>
<g>
</g>
<g>
</g>
<g>
</g>
</svg>
