<?xml version="1.0" encoding="iso-8859-1"?>
<!-- Generator: Adobe Illustrator 19.0.0, SVG Export Plug-In . SVG Version: 6.00 Build 0)  -->
<svg version="1.1" id="Layer_1" xmlns="http://www.w3.org/2000/svg" xmlns:xlink="http://www.w3.org/1999/xlink" x="0px" y="0px"
	 viewBox="0 0 492.308 492.308" enable-background="new 0 0 492.308 492.308;" xml:space="preserve">
<g>
	<g>
		<path d="M306.664,221.404V175.26c0-33.356-27.144-60.5-60.51-60.5c-33.356,0-60.5,27.144-60.5,60.5v46.144h-39.99v138.548h200.99
			V221.404H306.664z M205.346,175.26c0-22.5,18.308-40.808,40.808-40.808c22.51,0,40.817,18.308,40.817,40.808v46.144h-81.625
			V175.26z M326.962,340.26H165.356v-99.163h20.298h121.01h20.298V340.26z"/>
	</g>
</g>
<g>
	<g>
		<rect x="236.308" y="262.134" width="19.692" height="19.692"/>
	</g>
</g>
<g>
	<g>
		<rect x="236.308" y="299.55" width="19.692" height="19.515"/>
	</g>
</g>
<g>
	<g>
		<path d="M489.221,207.087l-19.442,3.106c1.885,11.788,2.837,23.885,2.837,35.962c0,124.875-101.587,226.462-226.462,226.462
			S19.692,371.029,19.692,246.154S121.279,19.692,246.154,19.692c78.24,0,149.549,39.725,190.958,104.84l-78.891-16.35l-4,19.288
			l110.038,22.808L487.067,40.24l-19.288-4l-15.612,75.333C406.946,42.219,330.243,0,246.154,0C110.423,0,0,110.423,0,246.154
			s110.423,246.154,246.154,246.154s246.154-110.423,246.154-246.154C492.308,233.048,491.269,219.894,489.221,207.087z"/>
	</g>
</g>
<g>
</g>
<g>
</g>
<g>
</g>
<g>
</g>
<g>
</g>
<g>
</g>
<g>
</g>
<g>
</g>
<g>
</g>
<g>
</g>
<g>
</g>
<g>
</g>
<g>
</g>
<g>
</g>
<g>
</g>
</svg>
