<?xml version="1.0" encoding="iso-8859-1"?>
<!-- Generator: Adobe Illustrator 19.0.0, SVG Export Plug-In . SVG Version: 6.00 Build 0)  -->
<svg version="1.1" id="Layer_1" xmlns="http://www.w3.org/2000/svg" xmlns:xlink="http://www.w3.org/1999/xlink" x="0px" y="0px"
	 viewBox="0 0 492.308 492.308" enable-background="new 0 0 492.308 492.308;" xml:space="preserve">
<g>
	<g>
		<path d="M358.188,85.644v-39.38h-56.74C296.779,20,273.784,0,246.197,0c-27.582,0-50.577,20-55.245,46.264h-56.745v39.38H53.476
			v406.663h385.356V85.644H358.188z M153.899,85.644V65.957h55.88v-9.846c0-20.082,16.337-36.418,36.418-36.418
			s36.423,16.337,36.423,36.418v9.846h55.875v19.688v40.736H153.899V85.644z M419.139,472.615H73.168V105.337h61.039v40.736h223.981
			v-40.736h60.952V472.615z"/>
	</g>
</g>
<g>
	<g>
		<path d="M98.462,206.971v87.798h87.798v-87.798H98.462z M166.567,275.077h-48.413v-48.413h48.413V275.077z"/>
	</g>
</g>
<g>
	<g>
		<rect x="215.385" y="220.721" width="89.403" height="19.692"/>
	</g>
</g>
<g>
	<g>
		<rect x="215.385" y="261.337" width="168.566" height="19.692"/>
	</g>
</g>
<g>
	<g>
		<path d="M98.462,344.202V432h87.798v-87.798H98.462z M166.567,412.308h-48.413v-48.413h48.413V412.308z"/>
	</g>
</g>
<g>
	<g>
		<rect x="215.385" y="357.908" width="89.403" height="19.692"/>
	</g>
</g>
<g>
	<g>
		<rect x="215.385" y="398.562" width="168.566" height="19.692"/>
	</g>
</g>
<g>
</g>
<g>
</g>
<g>
</g>
<g>
</g>
<g>
</g>
<g>
</g>
<g>
</g>
<g>
</g>
<g>
</g>
<g>
</g>
<g>
</g>
<g>
</g>
<g>
</g>
<g>
</g>
<g>
</g>
</svg>
