<?xml version="1.0" encoding="iso-8859-1"?>
<!-- Generator: Adobe Illustrator 19.0.0, SVG Export Plug-In . SVG Version: 6.00 Build 0)  -->
<svg version="1.1" id="Layer_1" xmlns="http://www.w3.org/2000/svg" xmlns:xlink="http://www.w3.org/1999/xlink" x="0px" y="0px"
	 viewBox="0 0 492.308 492.308" enable-background="new 0 0 492.308 492.308;" xml:space="preserve">
<g>
	<g>
		<path d="M477.067,239.769V68.226h-63.822V29.538C413.245,13.25,399.995,0,383.707,0H70.971C54.683,0,41.433,13.25,41.433,29.538
			v38.688H15.24v19.692h26.192v38.683c0,16.288,13.25,29.538,29.538,29.538h312.736c16.288,0,29.538-13.25,29.538-29.538V87.918
			h44.13v132.159h-239.88v74.827h-41.817v145.745c0,28.486,23.178,51.659,51.663,51.659S279,469.135,279,440.649V294.904h-41.812
			v-55.135H477.067z M393.553,126.601c0,5.428-4.418,9.846-9.846,9.846H70.971c-5.428,0-9.846-4.418-9.846-9.846V29.538
			c0-5.428,4.418-9.846,9.846-9.846h312.736c5.428,0,9.846,4.418,9.846,9.846V126.601z M259.308,314.596v126.053
			c0,17.625-14.341,31.966-31.966,31.966c-17.63,0-31.971-14.341-31.971-31.966V314.596H259.308z"/>
	</g>
</g>
<g>
</g>
<g>
</g>
<g>
</g>
<g>
</g>
<g>
</g>
<g>
</g>
<g>
</g>
<g>
</g>
<g>
</g>
<g>
</g>
<g>
</g>
<g>
</g>
<g>
</g>
<g>
</g>
<g>
</g>
</svg>
