<svg id="Capa_1" enable-background="new 0 0 497.217 497.217" height="512" viewBox="0 0 497.217 497.217" width="512" xmlns="http://www.w3.org/2000/svg"><g><path d="m384.911 49.644h-7.448v-16.942c0-9.812-4.346-19.014-11.922-25.248-7.575-6.234-17.441-8.725-27.072-6.837l-250.787 49.214c-4.616.885-8.074 5.123-8.074 9.813v54.807c0 5.523 4.478 10 10 10s10-4.477 10-10v-44.807h285.303c7.001 0 12.697 5.696 12.697 12.697v382.178c0 7.001-5.696 12.697-12.697 12.697h-285.303v-273.765c0-5.523-4.478-10-10-10s-10 4.477-10 10v283.766c0 5.523 4.478 10 10 10h295.303c18.029 0 32.697-14.668 32.697-32.697v-382.179c0-18.029-14.668-32.697-32.697-32.697zm-42.591-29.401c3.736-.734 7.57.234 10.513 2.655s4.63 5.995 4.63 9.805v16.941h-164.965z"/><path d="m248.608 120.117c-62.125 0-112.667 50.542-112.667 112.667s50.542 112.667 112.667 112.667 112.667-50.542 112.667-112.667-50.542-112.667-112.667-112.667zm8.676 177.415c-3.044 15.012-6.492 22.805-8.676 26.236-2.184-3.431-5.632-11.224-8.676-26.236-3.635-17.929-5.637-40.923-5.637-64.748s2.002-46.819 5.637-64.748c3.044-15.012 6.492-22.805 8.676-26.236 2.184 3.431 5.632 11.224 8.676 26.236 3.635 17.929 5.637 40.924 5.637 64.748s-2.002 46.819-5.637 64.748zm-33.872-146.306c-.599 2.111-1.175 4.328-1.726 6.658-4.766 20.124-7.39 46.724-7.39 74.901 0 28.176 2.624 54.777 7.39 74.9.552 2.33 1.127 4.547 1.726 6.658-16.967-15.827-28.787-46.827-28.787-81.558s11.82-65.732 28.787-81.559zm50.393 163.117c.599-2.111 1.175-4.328 1.726-6.658 4.766-20.124 7.39-46.724 7.39-74.9 0-28.177-2.624-54.777-7.39-74.901-.552-2.33-1.127-4.547-1.726-6.658 16.967 15.827 28.787 46.828 28.787 81.559s-11.821 65.731-28.787 81.558zm-117.864-81.559c0-29.946 14.283-56.615 36.389-73.567-11.443 20.368-17.706 46.265-17.706 73.567s6.263 53.199 17.706 73.567c-22.106-16.951-36.389-43.62-36.389-73.567zm148.945 73.567c11.443-20.368 17.706-46.265 17.706-73.567s-6.263-53.199-17.706-73.567c22.107 16.952 36.389 43.621 36.389 73.567 0 29.947-14.282 56.616-36.389 73.567z"/><path d="m129.275 419.784c0 5.523 4.478 10 10 10h173.083c5.522 0 10-4.477 10-10s-4.478-10-10-10h-173.083c-5.522 0-10 4.477-10 10z"/><circle cx="89.608" cy="158.784" r="10"/><circle cx="357.608" cy="419.701" r="10"/></g></svg>