<?xml version="1.0" encoding="iso-8859-1"?>
<!-- Generator: Adobe Illustrator 19.0.0, SVG Export Plug-In . SVG Version: 6.00 Build 0)  -->
<svg version="1.1" id="Layer_1" xmlns="http://www.w3.org/2000/svg" xmlns:xlink="http://www.w3.org/1999/xlink" x="0px" y="0px"
	 viewBox="0 0 482.496 482.496" enable-background="new 0 0 482.496 482.496;" xml:space="preserve">
<g>
	<g>
		<path d="M392.503,231.424c-43.183,0-78.308,47.865-78.308,106.692c0,58.827,35.125,106.692,78.308,106.692
			s78.308-47.865,78.308-106.692C470.81,279.289,435.685,231.424,392.503,231.424z M392.503,425.116
			c-32.317,0-58.615-39.029-58.615-87c0-47.971,26.298-87,58.615-87s58.615,39.029,58.615,87
			C451.118,386.087,424.82,425.116,392.503,425.116z"/>
	</g>
</g>
<g>
	<g>
		<path d="M89.993,37.741c-43.183,0-78.308,47.856-78.308,106.683c0,58.827,35.125,106.692,78.308,106.692
			c43.173,0,78.298-47.865,78.298-106.692C168.291,85.597,133.166,37.741,89.993,37.741z M89.993,231.424
			c-32.317,0-58.615-39.029-58.615-87c0-47.971,26.298-86.99,58.615-86.99c32.317,0,58.606,39.019,58.606,86.99
			C148.599,192.395,122.31,231.424,89.993,231.424z"/>
	</g>
</g>
<g>
	<g>
		<rect x="-31.632" y="231.402" transform="matrix(0.5 -0.866 0.866 0.5 -88.3006 329.5544)" width="545.77" height="19.692"/>
	</g>
</g>
<g>
</g>
<g>
</g>
<g>
</g>
<g>
</g>
<g>
</g>
<g>
</g>
<g>
</g>
<g>
</g>
<g>
</g>
<g>
</g>
<g>
</g>
<g>
</g>
<g>
</g>
<g>
</g>
<g>
</g>
</svg>
