<?xml version="1.0" encoding="iso-8859-1"?>
<!-- Generator: Adobe Illustrator 19.0.0, SVG Export Plug-In . SVG Version: 6.00 Build 0)  -->
<svg version="1.1" id="Layer_1" xmlns="http://www.w3.org/2000/svg" xmlns:xlink="http://www.w3.org/1999/xlink" x="0px" y="0px"
	 viewBox="0 0 492.308 492.308" enable-background="new 0 0 492.308 492.308;" xml:space="preserve">
<g>
	<g>
		<path d="M489.423,376.469l-104.26-104.26c-2.034-2.038-4.851-3.096-7.716-2.856c-2.865,0.221-5.495,1.683-7.192,4
			c-19.216,26.26-45.596,55.308-54.236,56.702c-28.678,4.596-69.63-14.779-104.308-49.452
			c-34.683-34.683-54.096-75.635-49.462-104.327c1.394-8.635,30.442-35.01,56.697-54.231c2.322-1.692,3.784-4.317,4.005-7.183
			c0.221-2.865-0.822-5.692-2.856-7.721L115.832,2.882c-3.274-3.279-8.399-3.817-12.308-1.308C86.24,12.748,0.005,70.44,0,108.863
			c0,136.173,247.264,383.442,383.438,383.442c38.423,0,96.115-86.24,107.293-103.529
			C493.25,384.882,492.707,379.748,489.423,376.469z M107.587,22.488l90.562,90.558c-9.681,7.451-22.998,18.276-34.169,29.413
			L70.962,49.441C83.037,39.738,95.811,30.398,107.587,22.488z M383.438,472.613c-125.779,0-363.745-237.971-363.745-363.75
			c0.002-10.859,15.612-28.634,36.129-46.718l95.079,95.079c-4.315,5.753-7.333,11.219-8.092,15.918
			c-6.808,42.154,23.938,90.346,54.981,121.385s79.24,61.712,121.375,54.971c4.7-0.758,10.168-3.779,15.922-8.096l95.074,95.082
			C412.073,457.003,394.294,472.613,383.438,472.613z M442.865,421.343l-93.014-93.023c11.135-11.171,21.958-24.487,29.409-34.169
			l90.563,90.567C461.911,396.494,452.569,409.268,442.865,421.343z"/>
	</g>
</g>
<g>
	<g>
		<polygon points="483.803,22.43 469.88,8.507 394.161,84.224 318.442,8.507 304.519,22.43 380.238,98.147 304.519,173.863 
			318.442,187.786 394.161,112.07 469.88,187.786 483.803,173.863 408.084,98.147 		"/>
	</g>
</g>
<g>
</g>
<g>
</g>
<g>
</g>
<g>
</g>
<g>
</g>
<g>
</g>
<g>
</g>
<g>
</g>
<g>
</g>
<g>
</g>
<g>
</g>
<g>
</g>
<g>
</g>
<g>
</g>
<g>
</g>
</svg>
