<?xml version="1.0" encoding="iso-8859-1"?>
<!-- Generator: Adobe Illustrator 19.0.0, SVG Export Plug-In . SVG Version: 6.00 Build 0)  -->
<svg version="1.1" id="Layer_1" xmlns="http://www.w3.org/2000/svg" xmlns:xlink="http://www.w3.org/1999/xlink" x="0px" y="0px"
	 viewBox="0 0 492.307 492.307" enable-background="new 0 0 492.307 492.307;" xml:space="preserve">
<g>
	<g>
		<polygon points="317.673,27.422 317.673,47.114 431.27,47.114 276.692,201.7 290.615,215.623 445.192,61.038 445.192,174.633 
			464.885,174.633 464.885,27.422 		"/>
	</g>
</g>
<g>
	<g>
		<path d="M489.423,376.479l-104.26-104.26c-2.039-2.038-4.76-3.125-7.721-2.856c-2.865,0.221-5.49,1.683-7.183,4
			c-19.221,26.26-45.606,55.308-54.24,56.702c-28.76,4.625-69.635-14.788-104.317-49.462
			c-34.683-34.683-54.096-75.625-49.462-104.317c1.394-8.635,30.452-35.01,56.712-54.231c2.317-1.692,3.779-4.317,4-7.183
			c0.221-2.865-0.827-5.692-2.856-7.721L115.827,2.883c-3.289-3.288-8.404-3.817-12.308-1.308C86.231,12.748,0,70.45,0,108.873
			c0,136.173,247.26,383.433,383.433,383.433c38.423,0,96.125-86.231,107.298-103.519
			C493.25,384.893,492.702,379.758,489.423,376.479z M107.587,22.489l90.567,90.567c-9.682,7.45-23,18.27-34.173,29.404
			L70.963,49.442C83.038,39.739,95.812,30.398,107.587,22.489z M383.433,472.614c-125.779,0-363.74-237.962-363.74-363.74
			c0-10.859,15.611-28.639,36.13-46.726l95.076,95.076c-4.319,5.756-7.341,11.227-8.1,15.929
			c-6.808,42.144,23.933,90.337,54.981,121.375c31.029,31.048,79.163,61.712,121.375,54.981c4.703-0.759,10.174-3.78,15.931-8.098
			l95.074,95.074C412.072,457.003,394.292,472.614,383.433,472.614z M442.864,421.343l-93.013-93.013
			c11.136-11.171,21.958-24.486,29.409-34.168l90.558,90.558C461.908,396.494,452.567,409.268,442.864,421.343z"/>
	</g>
</g>
<g>
</g>
<g>
</g>
<g>
</g>
<g>
</g>
<g>
</g>
<g>
</g>
<g>
</g>
<g>
</g>
<g>
</g>
<g>
</g>
<g>
</g>
<g>
</g>
<g>
</g>
<g>
</g>
<g>
</g>
</svg>
