<svg id="Capa_1" enable-background="new 0 0 471.477 471.477" height="512" viewBox="0 0 471.477 471.477" width="512" xmlns="http://www.w3.org/2000/svg"><g><path d="m431.477 118.834h-278.84v-31.178c0-5.522-4.478-10-10-10h-79.899c-5.522 0-10 4.478-10 10v31.179h-12.738c-22.056 0-40 17.944-40 40v194.986c0 22.056 17.944 40 40 40h391.477c22.056 0 40-17.944 40-40v-194.987c0-22.055-17.945-40-40-40zm-358.739-21.178h59.898v21.179h-59.898zm378.739 256.165c0 11.028-8.972 20-20 20h-391.477c-11.028 0-20-8.972-20-20v-194.987c0-11.028 8.972-20 20-20h22.738 79.898 288.84c11.028 0 20 8.972 20 20v194.987z"/><path d="m235.738 159.06c-53.634 0-97.268 43.634-97.268 97.268s43.634 97.268 97.268 97.268 97.268-43.634 97.268-97.268-43.634-97.268-97.268-97.268zm0 174.535c-42.605 0-77.268-34.662-77.268-77.268s34.662-77.268 77.268-77.268 77.268 34.662 77.268 77.268-34.662 77.268-77.268 77.268z"/><path d="m235.738 198.818c-31.711 0-57.51 25.799-57.51 57.51s25.799 57.51 57.51 57.51 57.51-25.799 57.51-57.51-25.799-57.51-57.51-57.51zm0 95.019c-20.683 0-37.51-16.827-37.51-37.51s16.827-37.51 37.51-37.51 37.51 16.827 37.51 37.51-16.827 37.51-37.51 37.51z"/><path d="m50.489 220.328c-5.522 0-10 4.478-10 10v108c0 5.522 4.478 10 10 10s10-4.478 10-10v-108c0-5.523-4.477-10-10-10z"/><circle cx="50.49" cy="185.328" r="10"/><path d="m420.498 302.333c5.522 0 10-4.478 10-10v-108c0-5.522-4.478-10-10-10s-10 4.478-10 10v107.999c0 5.523 4.478 10.001 10 10.001z"/><circle cx="420.499" cy="337.333" r="10"/></g></svg>