<?xml version="1.0" encoding="iso-8859-1"?>
<!-- Generator: Adobe Illustrator 19.0.0, SVG Export Plug-In . SVG Version: 6.00 Build 0)  -->
<svg version="1.1" id="Layer_1" xmlns="http://www.w3.org/2000/svg" xmlns:xlink="http://www.w3.org/1999/xlink" x="0px" y="0px"
	 viewBox="0 0 492.308 492.308" enable-background="new 0 0 492.308 492.308;" xml:space="preserve">
<g>
	<g>
		<path d="M452.923,97.361H329.846V40.986H162.462v56.375H39.385C17.668,97.361,0,115.024,0,136.745v275.192
			c0,21.721,17.668,39.385,39.385,39.385h413.538c21.716,0,39.385-17.663,39.385-39.385V136.745
			C492.308,115.024,474.639,97.361,452.923,97.361z M182.154,60.678h128v36.683h-128V60.678z M472.615,411.938
			c0,10.856-8.832,19.692-19.692,19.692H39.385c-10.861,0-19.692-8.836-19.692-19.692V136.745c0-10.856,8.832-19.692,19.692-19.692
			h123.077h167.385h123.077c10.861,0,19.692,8.837,19.692,19.692V411.938z"/>
	</g>
</g>
<g>
	<g>
		<path d="M246.154,156.601c-64.923,0-117.745,52.817-117.745,117.74s52.822,117.74,117.745,117.74s117.745-52.817,117.745-117.74
			S311.077,156.601,246.154,156.601z M246.154,372.389c-54.067,0-98.053-43.981-98.053-98.048s43.986-98.048,98.053-98.048
			s98.053,43.981,98.053,98.048S300.221,372.389,246.154,372.389z"/>
	</g>
</g>
<g>
	<g>
		<polygon points="256,264.495 256,202.957 236.308,202.957 236.308,264.495 174.769,264.495 174.769,284.188 236.308,284.188 
			236.308,345.726 256,345.726 256,284.188 317.538,284.188 317.538,264.495 		"/>
	</g>
</g>
<g>
</g>
<g>
</g>
<g>
</g>
<g>
</g>
<g>
</g>
<g>
</g>
<g>
</g>
<g>
</g>
<g>
</g>
<g>
</g>
<g>
</g>
<g>
</g>
<g>
</g>
<g>
</g>
<g>
</g>
</svg>
