<svg id="Layer_1" enable-background="new 0 0 512.121 512.121" height="512" viewBox="0 0 512.121 512.121" width="512" xmlns="http://www.w3.org/2000/svg"><g><path d="m497.073 241.061h-226.013v-226.012c0-8.284-6.716-15-15-15-137.604-2.837-258.861 118.399-256.01 256.014-2.839 137.602 118.396 258.86 256.012 256.009 137.602 2.839 258.861-118.397 256.009-256.013.002-8.282-6.714-14.998-14.998-14.998zm-15.502 30c-.702 10.783-2.16 21.417-4.347 31.846h-222.421l11.721-31.846zm-26.432 92.209h-222.553l11.175-30.363h224.967c-3.765 10.44-8.306 20.584-13.589 30.363zm-39.263 52.606c-3.737 3.737-7.588 7.318-11.533 10.758h-195.078l12.28-33.364h214.143c-6.057 7.895-12.658 15.453-19.812 22.606zm-319.631-319.629c39.133-39.133 90.091-62.134 144.815-65.696v204.814l-194.743-63.787c11.22-27.866 28.047-53.45 49.928-75.331zm-66.197 159.814c0-19.13 2.368-37.895 6.952-55.966l199.612 65.381-72.561 197.15c-80.055-34.971-135.089-118.799-134.003-206.565zm162.166 216.901 6.009-16.328h162.217c-50.205 26.68-113.375 32.741-168.226 16.328z"/><path d="m330.229 213.727c8.284 0 15-6.716 15-15v-55.408c-.793-19.902-29.215-19.887-30 0v55.408c0 8.284 6.716 15 15 15z"/><path d="m390.738 213.727c8.284 0 15-6.716 15-15v-89.447c-.793-19.902-29.215-19.887-30 0v89.447c0 8.284 6.716 15 15 15z"/><path d="m451.246 213.727c8.284 0 15-6.716 15-15v-135.749c-.793-19.902-29.215-19.887-30 0v135.748c0 8.285 6.716 15.001 15 15.001z"/></g></svg>