<?xml version="1.0" encoding="iso-8859-1"?>
<!-- Generator: Adobe Illustrator 19.0.0, SVG Export Plug-In . SVG Version: 6.00 Build 0)  -->
<svg version="1.1" id="Layer_1" xmlns="http://www.w3.org/2000/svg" xmlns:xlink="http://www.w3.org/1999/xlink" x="0px" y="0px"
	 viewBox="0 0 492.308 492.308" enable-background="new 0 0 492.308 492.308;" xml:space="preserve">
<g>
	<g>
		<path d="M235.577,256.731V40.846h-9.846C101.264,40.846,0,142.106,0,266.577s101.264,225.731,225.731,225.731
			s225.726-101.26,225.726-225.731v-9.846H235.577z M225.731,472.615c-113.611,0-206.038-92.433-206.038-206.038
			c0-110.308,87.135-200.654,196.192-205.808v215.654h215.649C426.375,385.481,336.038,472.615,225.731,472.615z"/>
	</g>
</g>
<g>
	<g>
		<path d="M266.577,0h-9.846v235.577h235.577v-9.846C492.308,101.26,391.043,0,266.577,0z M276.423,215.885V19.923
			c105.793,5,190.957,90.173,195.962,195.962H276.423z"/>
	</g>
</g>
<g>
</g>
<g>
</g>
<g>
</g>
<g>
</g>
<g>
</g>
<g>
</g>
<g>
</g>
<g>
</g>
<g>
</g>
<g>
</g>
<g>
</g>
<g>
</g>
<g>
</g>
<g>
</g>
<g>
</g>
</svg>
