<svg id="Layer_1" enable-background="new 0 0 512.424 512.424" height="512" viewBox="0 0 512.424 512.424" width="512" xmlns="http://www.w3.org/2000/svg"><g><path d="m400.405 167.193c30.78 0 55.821-25.041 55.821-55.821-3.066-74.054-108.586-74.033-111.641 0-.001 30.78 25.04 55.821 55.82 55.821zm0-81.642c14.238 0 25.821 11.583 25.821 25.821-1.418 34.255-50.228 34.245-51.641 0-.001-14.238 11.582-25.821 25.82-25.821z"/><path d="m109.481 255.883c-8.284 0-15 6.716-15 15 .79 19.897 29.213 19.892 30 0 0-8.284-6.715-15-15-15z"/><path d="m281.868 216.463h-77.233c-19.902.793-19.887 29.215 0 30h77.233c19.902-.792 19.887-29.215 0-30z"/><path d="m497.504 217.262c-21.748 0-39.751 16.337-42.382 37.384h-16.048c-4.954-12.03-11.296-23.561-18.909-34.329 131.141-27.333 115.286-215.722-19.761-219.658-76.06-1.139-131.439 79.161-103.619 149.697-4.363-.349-8.698-.548-12.956-.548h-97.763c-17.464-23.415-45.409-37.318-74.955-36.821l-44.774.792c-4.888.086-9.427 2.549-12.164 6.601-2.736 4.051-3.327 9.182-1.583 13.749l23.783 62.275c-10.047 10.182-20.033 24.309-29.818 42.189-26.313 3.942-46.555 26.697-46.555 54.091v39.984c0 26.249 18.586 48.238 43.29 53.498 10.364 29.231 29.196 49.504 45.608 62.538v48.073c0 8.284 6.716 15 15 15h59.88c8.284 0 15-6.716 15-15v-11.128h105.051c5.136 0 10.277-.235 15.392-.702v11.83c0 8.284 6.716 15 15 15h58.88c8.284 0 15-6.716 15-15v-41.748c0-3.542 1.482-6.825 4.065-9.009 46.45-38.851 68.702-102.088 56.145-161.374h11.81c13.604 0 24.671-11.067 24.671-24.671 0-7.01 5.703-12.712 12.712-12.712 19.892-.788 19.895-29.213 0-30.001zm-97.099-186.603c44.505 0 80.713 36.208 80.713 80.713-4.433 107.077-157.009 107.046-161.426-.001 0-44.504 36.207-80.712 80.713-80.712zm-27.605 392.448c-9.342 7.896-14.7 19.531-14.7 31.922v26.748h-28.88v-14.153c0-.085-.013-.168-.014-.253v-30.597c-.793-19.902-29.215-19.887-30 0v18.013c-5.1.566-10.24.862-15.377.862h-105.051v-18.875c-.793-19.902-29.215-19.887-30 0v45.003h-29.88v-40.54c0-4.836-2.332-9.375-6.263-12.192-15.358-11.006-35.363-30.448-43.455-60.574-1.76-6.553-7.701-11.109-14.487-11.109-13.615 0-24.693-11.078-24.693-24.694v-39.984c0-13.617 11.078-24.694 24.694-24.694h1.203c5.619 0 10.767-3.14 13.337-8.136 14.672-28.512 26.657-41.558 34.126-47.482 5.128-4.067 7.027-10.99 4.692-17.104l-19.81-51.87 23.399-.414c21.77-.382 42.34 10.955 53.633 29.598 2.718 4.487 7.583 7.228 12.83 7.228h105.724c10.519 0 22.039 1.406 32.902 3.987 16.381 18.9 39.046 32.21 64.709 36.658 56.232 56.839 52.835 151.975-8.639 202.652z"/></g></svg>