<svg id="Capa_1" enable-background="new 0 0 493.916 493.916" height="512" viewBox="0 0 493.916 493.916" width="512" xmlns="http://www.w3.org/2000/svg"><g><path d="m406.311 226.127c-1.301-19.72-6.865-38.714-16.345-55.919l.586-1.184 24.686-47.931c9.205-17.874 3.645-39.929-12.935-51.3l-8.897-6.104c-4.555-3.124-10.78-1.964-13.903 2.589-3.124 4.554-1.965 10.779 2.589 13.903l8.898 6.104c8.29 5.686 11.07 16.713 6.467 25.65l-3.542 6.878c-24.679-13.888-76.655-37.313-146.457-37.313-75.031 0-130.078 31.208-150.515 44.818l-3.814-4.973c-3.311-4.317-4.704-9.66-3.922-15.043s3.635-10.11 8.037-13.308l95.206-69.173c3.44-2.499 7.505-3.82 11.757-3.82h83.951c7.401 0 12.538 4.489 18.335 8.324 6.202 4.103 15.391 2.966 16.841-5.687 1.203-7.175-5.142-10.542-10.117-13.955-7.597-5.211-15.677-8.683-25.06-8.683h-83.951c-8.502 0-16.633 2.642-23.512 7.639l-95.207 69.174c-8.803 6.396-14.511 15.848-16.074 26.616s1.224 21.453 7.845 30.086l27.261 35.697c-9.805 17.469-15.578 36.876-16.912 56.914-22.199 4.351-43.65 22.959-43.65 46.833v14.56c0 30.008 23.368 43.656 43.549 46.968.269 6.181.809 12.276 1.612 18.187 1.847 14.366 5.561 28.507 10.804 41.999 21.651 54.981 69.388 91.689 127.678 98.193 12.322 1.397 24.843 1.399 37.166.002 58.772-6.555 106.657-43.663 128.107-99.277 5.326-13.27 8.707-27.541 10.499-41.708.775-5.898 1.289-11.952 1.535-18.084 4.713-1.038 10.755-2.761 16.814-5.569 18.208-8.438 28.235-22.896 28.235-40.71v-14.56c.002-23.873-21.447-42.48-43.645-46.833zm-158.853-124.627c65.604 0 114.16 22.022 136.921 34.889l-8.57 17.331c-21.005-7.87-75.985-26.253-129.057-25.218-43.58.847-86.006 10.448-126.236 28.553l-11.344-14.791c19.267-12.53 70.239-40.764 138.286-40.764zm88.338 60.262c-14.404 16.066-48.155 47.738-90.338 47.738-40.748 0-72.701-29.52-87.171-45.726 28.767-9.552 58.516-14.687 88.854-15.276 31.237-.6 63.914 6.285 88.655 13.264zm94.162 125.758c0 24.314-34.293 27.696-35.726 27.826-5.177.439-9.154 4.77-9.154 9.964 0 8.158-.517 16.221-1.541 24.015-1.611 12.701-4.868 25.018-9.3 37.01-18.704 48.548-60.456 80.943-111.706 86.659-10.596 1.201-22.052 1.205-32.694-.002-50.809-5.668-92.418-37.686-111.289-85.605-4.661-11.996-7.954-24.562-9.602-37.333-1.087-8.002-1.639-16.328-1.639-24.743 0-5.523-4.477-10-10-10-4.117 0-13.103-1.142-20.673-5.42-8.53-4.822-12.677-12.139-12.677-22.37v-14.56c0-15.399 18.245-27.8 33.35-27.8 5.523 0 10-4.477 10-10 0-20.074 5.211-39.641 15.09-56.929 5.25-2.502 10.544-4.84 15.874-7.03 13.282 16.4 52.559 58.298 107.186 58.298 57.69 0 99.865-47.23 111.158-61.313 4.333 1.454 8.083 2.787 11.137 3.911 12.336 18.737 18.856 40.468 18.856 63.062 0 5.523 4.478 10 10 10 18.474 0 33.35 15.208 33.35 27.8z"/><path d="m209.273 261.295c4.851 2.64 10.923.85 13.564-4.001s.85-10.923-4.001-13.564c-37.387-20.355-66.117-.198-67.321.669-4.48 3.229-5.532 9.505-2.304 13.985 1.96 2.72 5.018 4.172 8.122 4.172 2.01 0 4.04-.61 5.801-1.879.809-.559 20.104-13.557 46.139.618z"/><circle cx="185.45" cy="283.667" r="10"/><path d="m339.336 243.729c-37.387-20.355-66.115-.198-67.321.669-4.48 3.229-5.495 9.479-2.267 13.959 3.229 4.48 9.478 5.496 13.96 2.267.192-.139 19.6-13.738 46.065.669 1.519.827 3.157 1.219 4.772 1.219 3.544 0 6.978-1.889 8.791-5.22 2.642-4.849.85-10.922-4-13.563z"/><circle cx="305.95" cy="283.667" r="10"/><path d="m208.722 329.779c-4.264 3.51-4.876 9.812-1.366 14.076 4.884 5.934 18.367 19.647 38.596 19.647.161 0 .325-.001.486-.002 19.994-.217 33.319-13.811 38.121-19.645 3.509-4.265 2.897-10.567-1.367-14.076s-10.565-2.896-14.076 1.367c-3.022 3.673-11.304 12.229-22.895 12.355-.087.001-.173.001-.259.001-11.72 0-20.093-8.626-23.164-12.357-3.51-4.264-9.811-4.875-14.076-1.366z"/><path d="m304.508 395.553c-7.36 4.341-27.731 14.456-57.836 14.614-30.866.158-51.722-10.166-59.264-14.614-4.756-2.805-10.888-1.223-13.693 3.534-2.806 4.757-1.223 10.888 3.534 13.693 8.903 5.25 33.326 17.388 68.713 17.388.27 0 .544 0 .816-.002 34.979-.184 59.131-12.22 67.891-17.386 4.757-2.806 6.339-8.937 3.533-13.694-2.806-4.756-8.935-6.338-13.694-3.533z"/><circle cx="245.958" cy="44.249" r="10"/><circle cx="350.291" cy="46.5" r="10"/></g></svg>