<?xml version="1.0" encoding="iso-8859-1"?>
<!-- Generator: Adobe Illustrator 19.0.0, SVG Export Plug-In . SVG Version: 6.00 Build 0)  -->
<svg version="1.1" id="Layer_1" xmlns="http://www.w3.org/2000/svg" xmlns:xlink="http://www.w3.org/1999/xlink" x="0px" y="0px"
	 viewBox="0 0 500.019 500.019" enable-background="new 0 0 500.019 500.019;" xml:space="preserve">
<g>
	<g>
		<path d="M250.01,90.923c-39.25,0-71.183,31.933-71.183,71.183c0,39.25,31.933,71.183,71.183,71.183s71.183-31.933,71.183-71.183
			C321.192,122.856,289.26,90.923,250.01,90.923z M250.01,213.596c-28.394,0-51.49-23.096-51.49-51.49
			c0-28.394,23.096-51.49,51.49-51.49s51.49,23.096,51.49,51.49C301.5,190.5,278.404,213.596,250.01,213.596z"/>
	</g>
</g>
<g>
	<g>
		<path d="M443.072,326.923h-88.4c31.043-42.175,57.337-96.805,57.337-161.067c0-89.327-72.673-162-162-162s-162,72.673-162,162
			c0,64.262,26.294,118.892,57.337,161.067h-88.4L0,496.163h500.019L443.072,326.923z M107.702,165.856
			c0-78.471,63.841-142.308,142.308-142.308s142.308,63.837,142.308,142.308c0,127.144-115.822,217.452-142.313,236.442
			C223.49,383.337,107.702,293.183,107.702,165.856z M71.101,346.615h89.768c39.319,46.656,80.512,73.8,83.794,75.923l5.346,3.452
			l5.346-3.452c3.282-2.123,44.475-29.267,83.794-75.923h89.768l43.697,129.856H27.404L71.101,346.615z"/>
	</g>
</g>
<g>
</g>
<g>
</g>
<g>
</g>
<g>
</g>
<g>
</g>
<g>
</g>
<g>
</g>
<g>
</g>
<g>
</g>
<g>
</g>
<g>
</g>
<g>
</g>
<g>
</g>
<g>
</g>
<g>
</g>
</svg>
