<?xml version="1.0" encoding="iso-8859-1"?>
<!-- Generator: Adobe Illustrator 19.0.0, SVG Export Plug-In . SVG Version: 6.00 Build 0)  -->
<svg version="1.1" id="Layer_1" xmlns="http://www.w3.org/2000/svg" xmlns:xlink="http://www.w3.org/1999/xlink" x="0px" y="0px"
	 viewBox="0 0 502.202 502.202" enable-background="new 0 0 502.202 502.202;" xml:space="preserve">
<g>
	<g>
		<path d="M251.101,0C150.053,0,67.841,82.212,67.841,183.26c0,65.053,34.721,125.438,90.808,158.264l92.452,160.678l92.5-160.711
			c56.048-32.832,90.76-93.212,90.76-158.231C434.361,82.212,352.149,0,251.101,0z M331.543,325.716l-2.346,1.322l-78.096,135.683
			l-78.048-135.654l-2.346-1.327c-51.308-29.01-83.173-83.606-83.173-142.481c0-90.192,73.375-163.567,163.567-163.567
			S414.668,93.067,414.668,183.26C414.668,242.106,382.813,296.692,331.543,325.716z"/>
	</g>
</g>
<g>
	<g>
		<path d="M251.101,86.894c-52.529,0-95.269,42.736-95.269,95.26c0,52.529,42.74,95.264,95.269,95.264
			c52.529,0,95.26-42.736,95.26-95.264C346.361,129.63,303.63,86.894,251.101,86.894z M251.101,257.726
			c-41.673,0-75.577-33.904-75.577-75.572s33.904-75.567,75.577-75.567c41.663,0,75.567,33.899,75.567,75.567
			S292.764,257.726,251.101,257.726z"/>
	</g>
</g>
<g>
</g>
<g>
</g>
<g>
</g>
<g>
</g>
<g>
</g>
<g>
</g>
<g>
</g>
<g>
</g>
<g>
</g>
<g>
</g>
<g>
</g>
<g>
</g>
<g>
</g>
<g>
</g>
<g>
</g>
</svg>
