<?xml version="1.0" encoding="iso-8859-1"?>
<!-- Generator: Adobe Illustrator 19.0.0, SVG Export Plug-In . SVG Version: 6.00 Build 0)  -->
<svg version="1.1" id="Layer_1" xmlns="http://www.w3.org/2000/svg" xmlns:xlink="http://www.w3.org/1999/xlink" x="0px" y="0px"
	 viewBox="0 0 502.202 502.202" enable-background="new 0 0 502.202 502.202;" xml:space="preserve">
<g>
	<g>
		<path d="M251.101,0C150.053,0,67.841,82.212,67.841,183.26c0,65.053,34.721,125.438,90.808,158.264l92.452,160.678l92.5-160.711
			c56.048-32.832,90.76-93.207,90.76-158.231C434.361,82.212,352.149,0,251.101,0z M331.543,325.716l-2.346,1.322l-78.096,135.683
			l-78.048-135.654l-2.346-1.327c-51.308-29.01-83.173-83.606-83.173-142.481c0-90.192,73.375-163.567,163.567-163.567
			S414.668,93.067,414.668,183.26C414.668,242.111,382.813,296.692,331.543,325.716z"/>
	</g>
</g>
<g>
	<g>
		<polygon points="260.947,172.303 260.947,79.457 241.255,79.457 241.255,172.303 148.409,172.303 148.409,191.995 
			241.255,191.995 241.255,284.846 260.947,284.846 260.947,191.995 353.793,191.995 353.793,172.303 		"/>
	</g>
</g>
<g>
</g>
<g>
</g>
<g>
</g>
<g>
</g>
<g>
</g>
<g>
</g>
<g>
</g>
<g>
</g>
<g>
</g>
<g>
</g>
<g>
</g>
<g>
</g>
<g>
</g>
<g>
</g>
<g>
</g>
</svg>
