<?xml version="1.0" encoding="iso-8859-1"?>
<!-- Generator: Adobe Illustrator 19.0.0, SVG Export Plug-In . SVG Version: 6.00 Build 0)  -->
<svg version="1.1" id="Layer_1" xmlns="http://www.w3.org/2000/svg" xmlns:xlink="http://www.w3.org/1999/xlink" x="0px" y="0px"
	 viewBox="0 0 494.183 494.183" enable-background="new 0 0 494.183 494.183;" xml:space="preserve">
<g>
	<g>
		<path d="M247.091,0C142.678,0,57.726,84.952,57.726,189.365c0,180.365,176.51,296.51,184.019,301.365l5.346,3.452l5.346-3.452
			c7.51-4.856,184.019-121,184.019-301.365C436.457,84.952,351.505,0,247.091,0z M247.082,470.51
			C217.697,449.663,77.418,342.106,77.418,189.365c0-93.558,76.115-169.673,169.673-169.673s169.673,76.115,169.673,169.673
			C416.764,341.913,276.466,449.635,247.082,470.51z"/>
	</g>
</g>
<g>
	<g>
		<rect x="186.508" y="180.522" width="121.177" height="19.692"/>
	</g>
</g>
<g>
	<g>
		<path d="M247.091,83.625c-58.856,0-106.74,47.885-106.74,106.74s47.885,106.74,106.74,106.74s106.74-47.885,106.74-106.74
			S305.947,83.625,247.091,83.625z M247.091,277.413c-48,0-87.048-39.048-87.048-87.048s39.048-87.048,87.048-87.048
			s87.048,39.048,87.048,87.048S295.091,277.413,247.091,277.413z"/>
	</g>
</g>
<g>
</g>
<g>
</g>
<g>
</g>
<g>
</g>
<g>
</g>
<g>
</g>
<g>
</g>
<g>
</g>
<g>
</g>
<g>
</g>
<g>
</g>
<g>
</g>
<g>
</g>
<g>
</g>
<g>
</g>
</svg>
