<?xml version="1.0" encoding="iso-8859-1"?>
<!-- Generator: Adobe Illustrator 19.0.0, SVG Export Plug-In . SVG Version: 6.00 Build 0)  -->
<svg version="1.1" id="Layer_1" xmlns="http://www.w3.org/2000/svg" xmlns:xlink="http://www.w3.org/1999/xlink" x="0px" y="0px"
	 viewBox="0 0 502.202 502.202" enable-background="new 0 0 502.202 502.202;" xml:space="preserve">
<g>
	<g>
		<path d="M251.101,0C150.053,0,67.841,82.212,67.841,183.26c0,65.048,34.726,125.438,90.813,158.264l92.447,160.678l92.5-160.707
			c56.053-32.832,90.76-93.207,90.76-158.236C434.361,82.212,352.149,0,251.101,0z M331.538,325.716l-2.341,1.322l-78.096,135.683
			l-78.043-135.654l-2.346-1.327c-51.308-29.01-83.178-83.606-83.178-142.481c0-90.192,73.375-163.567,163.567-163.567
			S414.668,93.067,414.668,183.26C414.668,242.115,382.817,296.697,331.538,325.716z"/>
	</g>
</g>
<g>
	<g>
		<polygon points="330.678,116.5 316.755,102.577 251.101,168.231 185.447,102.577 171.524,116.5 237.178,182.154 171.524,247.808 
			185.447,261.731 251.101,196.077 316.755,261.731 330.678,247.808 265.024,182.154 		"/>
	</g>
</g>
<g>
</g>
<g>
</g>
<g>
</g>
<g>
</g>
<g>
</g>
<g>
</g>
<g>
</g>
<g>
</g>
<g>
</g>
<g>
</g>
<g>
</g>
<g>
</g>
<g>
</g>
<g>
</g>
<g>
</g>
</svg>
