<?xml version="1.0" encoding="iso-8859-1"?>
<!-- Generator: Adobe Illustrator 19.0.0, SVG Export Plug-In . SVG Version: 6.00 Build 0)  -->
<svg version="1.1" id="Layer_1" xmlns="http://www.w3.org/2000/svg" xmlns:xlink="http://www.w3.org/1999/xlink" x="0px" y="0px"
	 viewBox="0 0 492.284 492.284" enable-background="new 0 0 492.284 492.284;" xml:space="preserve">
<g>
	<g>
		<path d="M419.144,71.514c-30.828-10.565-32.854-40.07-32.923-46.562v-1.066c0.002-0.067,0.004-0.204,0.005-0.237h-0.005V9.87
			h-19.692v14.922c-0.005,0.597-0.016,1.179,0,1.81v317.75c-24.85-23.673-67.872-33.422-111.716-21.867
			c-34.659,9.096-63.303,29.365-78.587,55.606c-10.577,18.163-13.615,37.385-8.793,55.577c9.553,36,48.404,58.615,94.067,58.615
			c12,0,24.481-1.567,37.014-4.865c34.659-9.096,63.303-29.365,78.587-55.606c10.277-17.648,13.372-36.287,9.12-54.019V73.607
			c6.65,6.797,15.283,12.685,26.538,16.542c40.087,13.731,57.918,47.615,54.505,103.577l19.654,1.192
			C490.89,129.803,468.087,88.284,419.144,71.514z M360.082,421.899c-12.481,21.433-37.365,38.808-66.572,46.481
			c-49.731,13.048-97.755-4.769-107.039-39.769c-3.457-13.019-1.115-27.067,6.774-40.606c12.481-21.433,37.365-38.808,66.567-46.481
			c11.063-2.904,22.038-4.279,32.524-4.279c36.659,0,67.303,16.837,74.519,44.048C370.313,394.313,367.971,408.351,360.082,421.899z
			"/>
	</g>
</g>
<g>
	<g>
		<rect x="4.923" width="304.01" height="19.692"/>
	</g>
</g>
<g>
	<g>
		<rect x="4.923" y="77.411" width="304.01" height="19.692"/>
	</g>
</g>
<g>
	<g>
		<rect x="4.923" y="154.801" width="304.01" height="19.692"/>
	</g>
</g>
<g>
	<g>
		<rect x="4.923" y="232.202" width="304.01" height="19.692"/>
	</g>
</g>
<g>
</g>
<g>
</g>
<g>
</g>
<g>
</g>
<g>
</g>
<g>
</g>
<g>
</g>
<g>
</g>
<g>
</g>
<g>
</g>
<g>
</g>
<g>
</g>
<g>
</g>
<g>
</g>
<g>
</g>
</svg>
