<?xml version="1.0" encoding="iso-8859-1"?>
<!-- Generator: Adobe Illustrator 19.0.0, SVG Export Plug-In . SVG Version: 6.00 Build 0)  -->
<svg version="1.1" id="Layer_1" xmlns="http://www.w3.org/2000/svg" xmlns:xlink="http://www.w3.org/1999/xlink" x="0px" y="0px"
	 viewBox="0 0 492.308 492.308" enable-background="new 0 0 492.308 492.308;" xml:space="preserve">
<g>
	<g>
		<path d="M452.923,0H39.385C17.668,0,0,17.668,0,39.385v413.538c0,21.716,17.668,39.385,39.385,39.385h413.538
			c21.716,0,39.385-17.668,39.385-39.385V39.385C492.308,17.668,474.639,0,452.923,0z M472.615,452.923
			c0,10.861-8.832,19.692-19.692,19.692H39.385c-10.861,0-19.692-8.832-19.692-19.692V39.385c0-10.861,8.832-19.692,19.692-19.692
			h413.538c10.861,0,19.692,8.832,19.692,19.692V452.923z"/>
	</g>
</g>
<g>
	<g>
		<path d="M119.654,118.995v254.313l261.75-127.154L119.654,118.995z M139.346,150.457l196.99,95.697l-196.99,95.692V150.457z"/>
	</g>
</g>
<g>
</g>
<g>
</g>
<g>
</g>
<g>
</g>
<g>
</g>
<g>
</g>
<g>
</g>
<g>
</g>
<g>
</g>
<g>
</g>
<g>
</g>
<g>
</g>
<g>
</g>
<g>
</g>
<g>
</g>
</svg>
