<svg id="Layer_1" enable-background="new 0 0 512.011 512.011" height="512" viewBox="0 0 512.011 512.011" width="512" xmlns="http://www.w3.org/2000/svg"><path d="m256.006 63.004c-63.411 0-115 51.589-115 115v125c0 56.591 41.089 103.766 95 113.259v40.774c-21.609 2.097-43.191 7.594-64.657 16.491-10.204 4.229-15.048 15.929-10.819 26.133s15.928 15.048 26.133 10.819c46.663-19.34 92.027-19.339 138.685 0 9.949 4.199 21.905-.51 26.134-10.817 4.229-10.204-.614-21.905-10.817-26.134-21.466-8.898-43.048-14.395-64.658-16.492v-40.773c53.911-9.493 95-56.667 95-113.259v-125c-.001-63.412-51.59-115.001-115.001-115.001zm75 240c-4.132 99.522-145.905 99.445-150 0v-125c4.132-99.522 145.905-99.445 150 0zm120-124.764c-1.048 26.512-38.941 26.541-40 0 0-59.609-34.835-114.625-88.746-140.16-9.983-4.729-14.242-16.654-9.514-26.636 4.729-9.982 16.654-14.242 26.636-9.514 67.133 31.094 112.351 102.158 111.624 176.31zm-350 0c-1.029 26.486-38.936 26.562-40 0-.728-74.151 44.492-145.217 111.624-176.31 9.98-4.728 21.907-.469 26.636 9.514 4.728 9.982.469 21.908-9.514 26.636-53.911 25.534-88.746 80.551-88.746 140.16zm180 117.764h-50c-26.536-1.056-26.516-38.953 0-40h50c26.536 1.057 26.515 38.954 0 40zm-242.498-206.888c8.35-20.348 19.522-39.421 33.207-56.691 6.86-8.657 5.403-21.236-3.254-28.096-8.656-6.86-21.236-5.403-28.096 3.254-16.014 20.209-29.089 42.531-38.862 66.348-4.193 10.219.691 21.902 10.91 26.095 2.485 1.02 5.056 1.503 7.585 1.503 7.872 0 15.337-4.679 18.51-12.413zm461.09 10.91c10.219-4.193 15.103-15.876 10.91-26.095-9.773-23.816-22.848-46.139-38.861-66.347-6.86-8.658-19.439-10.115-28.096-3.254-8.657 6.86-10.114 19.439-3.254 28.096 13.684 17.27 24.856 36.343 33.207 56.691 3.174 7.734 10.637 12.413 18.51 12.413 2.528-.001 5.1-.484 7.584-1.504z"/></svg>