<?xml version="1.0" encoding="iso-8859-1"?>
<!-- Generator: Adobe Illustrator 19.0.0, SVG Export Plug-In . SVG Version: 6.00 Build 0)  -->
<svg version="1.1" id="Layer_1" xmlns="http://www.w3.org/2000/svg" xmlns:xlink="http://www.w3.org/1999/xlink" x="0px" y="0px"
	 viewBox="0 0 492.308 492.308" enable-background="new 0 0 492.308 492.308;" xml:space="preserve">
<g>
	<g>
		<path d="M406.154,116.317V21.087h-320v95.231H0v293.808h106.567v61.096H385.74v-61.096h106.567V116.317H406.154z M105.846,40.779
			h280.615v75.538H105.846V40.779z M366.048,451.529H126.26v-144h239.788V451.529z M472.615,390.433H385.74V287.837H106.567v102.596
			H19.692V136.01h66.462h320h66.462V390.433z"/>
	</g>
</g>
<g>
	<g>
		<rect x="139.658" y="169.679" width="19.525" height="19.692"/>
	</g>
</g>
<g>
	<g>
		<rect x="54.971" y="169.679" width="19.692" height="19.692"/>
	</g>
</g>
<g>
	<g>
		<rect x="97.31" y="169.679" width="19.692" height="19.692"/>
	</g>
</g>
<g>
	<g>
		<rect x="172.308" y="347.569" width="147.692" height="19.692"/>
	</g>
</g>
<g>
	<g>
		<rect x="172.308" y="391.838" width="147.692" height="19.692"/>
	</g>
</g>
<g>
</g>
<g>
</g>
<g>
</g>
<g>
</g>
<g>
</g>
<g>
</g>
<g>
</g>
<g>
</g>
<g>
</g>
<g>
</g>
<g>
</g>
<g>
</g>
<g>
</g>
<g>
</g>
<g>
</g>
</svg>
