<svg id="Layer_1" enable-background="new 0 0 511.999 511.999" height="512" viewBox="0 0 511.999 511.999" width="512" xmlns="http://www.w3.org/2000/svg"><g><path d="m431.749 82.8-169.888-81.33c-4.108-1.966-8.888-1.961-12.992.019l-168.658 81.33c-5.188 2.501-8.484 7.752-8.484 13.511v45.441c0 8.284 6.716 15 15 15h66.146v65.435c-117.745 95.978-50.687 289.081 103.129 289.793 154.633-.771 221.143-195.449 101.895-290.783v-64.445h67.375c8.284 0 15-6.716 15-15v-45.441c0-5.775-3.314-11.037-8.523-13.53zm-43.309 250.91h-7.223c-19.902.793-19.887 29.215 0 30h7.223c-6.924 61.534-55.906 110.516-117.44 117.44v-7.223c-.793-19.902-29.215-19.887-30 0v7.223c-61.534-6.924-110.517-55.906-117.441-117.44h7.223c19.902-.793 19.887-29.215 0-30h-7.223c6.924-61.534 55.907-110.517 117.441-117.44v7.224c.793 19.902 29.215 19.887 30 0v-7.224c22.195 2.497 42.756 10.464 60.302 22.522 1.598 1.945 3.68 3.471 6.057 4.417 27.831 21.513 46.948 53.77 51.081 90.501zm21.832-206.939h-67.375c-8.284 0-15 6.716-15 15v60.357c-43.24-22.304-102.01-22.042-145.024.612v-60.969c0-8.284-6.716-15-15-15h-66.146v-21.021l153.682-74.108 154.864 74.138v20.991z"/><path d="m278.238 310.564c8.284 0 15-6.716 15-15s-6.716-15-15-15c-32.219 0-59.24 22.604-66.087 52.781h-5.369c-19.902.793-19.887 29.215 0 30h5.369c6.847 30.177 33.868 52.78 66.087 52.78 8.284 0 15-6.716 15-15s-6.716-15-15-15c-15.504 0-28.851-9.391-34.667-22.78h34.667c19.902-.793 19.887-29.215 0-30h-34.667c5.816-13.39 19.163-22.781 34.667-22.781z"/></g></svg>