<?xml version="1.0" encoding="iso-8859-1"?>
<!-- Generator: Adobe Illustrator 19.0.0, SVG Export Plug-In . SVG Version: 6.00 Build 0)  -->
<svg version="1.1" id="Layer_1" xmlns="http://www.w3.org/2000/svg" xmlns:xlink="http://www.w3.org/1999/xlink" x="0px" y="0px"
	 viewBox="0 0 482.462 482.462" enable-background="new 0 0 482.462 482.462;" xml:space="preserve">
<g>
	<g>
		<path d="M340.399,235.932V59.077C340.399,26.5,313.899,0,281.322,0h-80.183c-32.577,0-59.077,26.5-59.077,59.077V235.93
			c-36.576,12.164-63.058,46.651-63.058,87.262v9.846H231.38v149.423h19.692V333.038h152.385v-9.846
			C403.457,282.583,376.978,248.098,340.399,235.932z M161.755,59.077c0-21.716,17.663-39.385,39.385-39.385h80.183
			c21.721,0,39.385,17.668,39.385,39.385v172.12h-9.25H170.995h-9.24V59.077z M99.361,313.346
			c4.817-35.226,35.106-62.457,71.635-62.457h140.462c36.529,0,66.827,27.231,71.644,62.457H99.361z"/>
	</g>
</g>
<g>
</g>
<g>
</g>
<g>
</g>
<g>
</g>
<g>
</g>
<g>
</g>
<g>
</g>
<g>
</g>
<g>
</g>
<g>
</g>
<g>
</g>
<g>
</g>
<g>
</g>
<g>
</g>
<g>
</g>
</svg>
