<?xml version="1.0" encoding="iso-8859-1"?>
<!-- Generator: Adobe Illustrator 19.0.0, SVG Export Plug-In . SVG Version: 6.00 Build 0)  -->
<svg version="1.1" id="Layer_1" xmlns="http://www.w3.org/2000/svg" xmlns:xlink="http://www.w3.org/1999/xlink" x="0px" y="0px"
	 viewBox="0 0 492.308 492.308" enable-background="new 0 0 492.308 492.308;" xml:space="preserve">
<g>
	<g>
		<path d="M412.577,166.421c-10.452,0-23.591,4.726-33.553,9.125V56.642H0l0.005,151.524l14.649-8.188
			c9.591-5.361,28.553-13.865,38.591-13.865c33.106,0,60.038,26.933,60.038,60.038S86.351,306.19,53.245,306.19
			c-10.034,0-28.995-8.51-38.591-13.87L0,284.127v151.538h379.024V316.748c9.962,4.404,23.101,9.135,33.553,9.135
			c43.962,0,79.731-35.769,79.731-79.731S456.538,166.421,412.577,166.421z M412.577,306.19c-10.034,0-28.99-8.514-38.587-13.885
			l-14.659-8.197v131.865H19.692v-99.221c9.962,4.404,23.101,9.13,33.553,9.13c43.962,0,79.731-35.769,79.731-79.731
			s-35.769-79.731-79.731-79.731c-10.452,0-23.591,4.726-33.553,9.125V76.334h339.639v131.861l14.659-8.212
			c6.423-3.601,27.298-13.87,38.587-13.87c33.106,0,60.038,26.933,60.038,60.038S445.683,306.19,412.577,306.19z"/>
	</g>
</g>
<g>
</g>
<g>
</g>
<g>
</g>
<g>
</g>
<g>
</g>
<g>
</g>
<g>
</g>
<g>
</g>
<g>
</g>
<g>
</g>
<g>
</g>
<g>
</g>
<g>
</g>
<g>
</g>
<g>
</g>
</svg>
