<svg id="Layer_1" enable-background="new 0 0 512 512" height="512" viewBox="0 0 512 512" width="512" xmlns="http://www.w3.org/2000/svg"><path d="m461.066 306.076c-1.214 0-2.424.043-3.628.13v-86.974c29.662 1.232 54.624-23.026 54.561-52.993.063-29.966-24.9-54.226-54.561-52.993v-40.589c0-8.284-6.716-15-15-15h-36.926c2.63-30.598-21.855-57.525-52.328-57.366-30.471-.16-54.961 26.769-52.328 57.366h-88.624c2.723-30.565-21.729-57.541-52.18-57.376-30.449-.165-54.906 26.812-52.18 57.376h-38.449c-8.284 0-15 6.716-15 15v40.727c-29.586-1.229-54.485 22.966-54.423 52.856-.063 29.888 24.837 54.087 54.423 52.855v40.727c0 8.284 6.716 15 15 15h38.584c-3.63 30.964 21.081 59.006 52.045 58.789 30.96.218 55.679-27.827 52.045-58.789h28.833v172.165c0 8.284 6.716 15 15 15h45.449c4.092 66.336 97.542 66.286 101.609 0h39.449c8.284 0 15-6.716 15-15v-38.384c29.245 2.211 54.561-21.611 54.449-51.198.001-28.303-22.797-51.329-50.82-51.329zm-140.178-218.419c11.414.14 18.826-12.772 12.957-22.557-8.952-14.836 2.046-35.036 19.339-34.809 17.291-.228 28.293 19.975 19.339 34.809-5.871 9.788 1.547 22.697 12.957 22.557h41.958v44.713c0 5.239 2.733 10.099 7.211 12.819 4.477 2.719 10.049 2.908 14.7.494 14.689-7.88 32.914 3.794 32.65 20.555.265 16.759-17.963 28.437-32.65 20.555-4.65-2.413-10.224-2.226-14.7.495-4.478 2.72-7.211 7.58-7.211 12.819v44.713h-42.85c-5.207 0-10.042 2.701-12.772 7.135s-2.966 9.967-.622 14.617c7.766 14.835-3.334 33.785-20.01 33.566-16.672.219-27.778-18.733-20.009-33.566 2.344-4.65 2.108-10.183-.622-14.617-2.73-4.435-7.565-7.135-12.772-7.135h-46.85v-26.645c31.871 6.511 62.643-19.158 62.314-51.937.33-32.775-30.446-58.454-62.314-51.937v-26.644zm-79.958 157.165h-49.705c-5.506 0-10.57 3.017-13.191 7.859-2.622 4.842-2.379 10.731.631 15.342 9.889 14.781-.849 35.742-18.614 35.588-17.763.154-28.504-20.811-18.613-35.589 3.01-4.61 3.252-10.5.631-15.342-2.622-4.842-7.685-7.858-13.191-7.858h-44.455v-44.866c0-5.244-2.738-10.107-7.222-12.826-4.483-2.719-10.062-2.9-14.711-.476-14.604 7.866-32.753-3.737-32.49-20.415-.264-16.674 17.888-28.283 32.488-20.415 4.65 2.424 10.229 2.245 14.712-.475 4.484-2.719 7.223-7.582 7.223-12.826v-44.866h43.574c5.389 0 10.363-2.89 13.031-7.571 2.668-4.682 2.621-10.435-.124-15.071-9.026-14.739 1.892-34.962 19.148-34.734 17.253-.229 28.176 19.997 19.148 34.734-2.745 4.637-2.792 10.39-.124 15.071s7.643 7.571 13.031 7.571h48.822v50.373c0 5.939 3.504 11.318 8.936 13.719s11.77 1.372 16.161-2.626c14.298-13.152 37.366-2.31 37.219 17.116.148 19.423-22.924 30.27-37.218 17.115-4.394-3.998-10.73-5.028-16.161-2.626-5.432 2.401-8.936 7.781-8.936 13.72zm220.136 133.91c-3.798 0-7.511-1.055-10.736-3.05-9.839-6.199-22.986 1.131-22.892 12.756v43.548h-42.07c-4.98 0-9.637 2.472-12.427 6.599-2.789 4.126-3.349 9.368-1.493 13.99 5.734 13.46-4.701 29.743-19.264 29.425-14.559.319-25.002-15.967-19.263-29.425 1.855-4.622 1.296-9.864-1.493-13.99-2.79-4.126-7.446-6.599-12.427-6.599h-48.069v-157.164h27.799c-1.359 29.98 22.708 55.402 52.454 55.319 29.745.084 53.815-25.339 52.454-55.319h23.8v51.548c0 5.44 2.946 10.455 7.698 13.103s10.566 2.516 15.193-.347c13.683-8.636 31.759 2.027 31.557 18.278 0 11.76-9.341 21.328-20.821 21.328z"/></svg>