<?xml version="1.0" encoding="iso-8859-1"?>
<!-- Generator: Adobe Illustrator 19.0.0, SVG Export Plug-In . SVG Version: 6.00 Build 0)  -->
<svg version="1.1" id="Layer_1" xmlns="http://www.w3.org/2000/svg" xmlns:xlink="http://www.w3.org/1999/xlink" x="0px" y="0px"
	 viewBox="0 0 492.295 492.295" enable-background="new 0 0 492.295 492.295;" xml:space="preserve">
<g>
	<g>
		<path d="M198.064,184.257L384.196,71.251c0.386,0.126,0.73,0.334,1.122,0.448c3.375,0.981,6.817,1.466,10.24,1.466
			c6.087,0,12.106-1.539,17.587-4.553c8.558-4.707,14.769-12.471,17.49-21.856c2.721-9.385,1.625-19.264-3.087-27.827
			c-9.74-17.668-32.019-24.125-49.683-14.404c-8.558,4.712-14.769,12.476-17.49,21.856c-0.055,0.189-0.055,0.382-0.107,0.571
			L44.685,184.257H8.737v308.039h474.822V184.257H198.064z M379.289,31.867c1.25-4.332,4.125-7.913,8.077-10.091
			c2.577-1.418,5.356-2.087,8.106-2.087c5.962,0,11.75,3.159,14.827,8.736c4.49,8.159,1.51,18.447-6.654,22.937
			c-3.942,2.178-8.519,2.683-12.846,1.423c-4.327-1.255-7.913-4.125-10.086-8.077C378.539,40.757,378.03,36.199,379.289,31.867z
			 M361.042,48.573c0.672,1.917,1.421,3.817,2.421,5.631c0.921,1.673,2.049,3.176,3.192,4.662L160.111,184.257H88.833
			L361.042,48.573z M463.866,472.603H28.429V203.949h435.438V472.603z"/>
	</g>
</g>
<g>
	<g>
		<path d="M319.838,235.497c-54.058,0-98.039,43.981-98.039,98.038s43.981,98.038,98.039,98.038
			c54.058,0,98.038-43.981,98.038-98.038S373.895,235.497,319.838,235.497z M319.838,255.189c23.179,0,43.975,10.175,58.332,26.226
			H261.506C275.862,265.365,296.658,255.189,319.838,255.189z M248.604,301.108h142.468c3.218,7.039,5.419,14.619,6.425,22.582
			H242.179C243.184,315.727,245.386,308.146,248.604,301.108z M319.838,411.882c-23.179,0-43.975-10.175-58.332-26.226h116.664
			C363.813,401.706,343.017,411.882,319.838,411.882z M391.071,365.963H248.604c-3.218-7.038-5.419-14.619-6.425-22.582h155.317
			C396.491,351.345,394.289,358.925,391.071,365.963z"/>
	</g>
</g>
<g>
	<g>
		<path d="M110.929,235.497c-20.135,0-36.514,16.38-36.514,36.514c0,20.135,16.38,36.514,36.514,36.514
			c20.135,0,36.514-16.38,36.514-36.514C147.443,251.877,131.064,235.497,110.929,235.497z M110.929,288.834
			c-9.274,0-16.822-7.548-16.822-16.822s7.548-16.822,16.822-16.822s16.822,7.548,16.822,16.822S120.203,288.834,110.929,288.834z"
			/>
	</g>
</g>
<g>
	<g>
		<path d="M110.929,331.867c-20.135,0-36.514,16.38-36.514,36.514c0,20.135,16.38,36.514,36.514,36.514
			c20.135,0,36.514-16.38,36.514-36.514C147.443,348.247,131.064,331.867,110.929,331.867z M110.929,385.204
			c-9.274,0-16.822-7.548-16.822-16.822c0-9.274,7.548-16.822,16.822-16.822s16.822,7.548,16.822,16.822
			C127.751,377.656,120.203,385.204,110.929,385.204z"/>
	</g>
</g>
<g>
</g>
<g>
</g>
<g>
</g>
<g>
</g>
<g>
</g>
<g>
</g>
<g>
</g>
<g>
</g>
<g>
</g>
<g>
</g>
<g>
</g>
<g>
</g>
<g>
</g>
<g>
</g>
<g>
</g>
</svg>
