<?xml version="1.0" encoding="iso-8859-1"?>
<!-- Generator: Adobe Illustrator 19.0.0, SVG Export Plug-In . SVG Version: 6.00 Build 0)  -->
<svg version="1.1" id="Layer_1" xmlns="http://www.w3.org/2000/svg" xmlns:xlink="http://www.w3.org/1999/xlink" x="0px" y="0px"
	 viewBox="0 0 492.308 492.308" enable-background="new 0 0 492.308 492.308;" xml:space="preserve">
<g>
	<g>
		<path d="M377.567,131.414c-63.269,0-114.74,51.471-114.74,114.74c0,39.501,20.067,74.399,50.538,95.048H178.942
			c30.472-20.649,50.538-55.547,50.538-95.048c0-63.269-51.471-114.74-114.74-114.74S0,182.885,0,246.154
			s51.471,114.74,114.74,114.74h262.827c63.269,0,114.74-51.471,114.74-114.74S440.837,131.414,377.567,131.414z M19.692,246.154
			c0-52.413,42.635-95.048,95.048-95.048s95.048,42.635,95.048,95.048s-42.635,95.048-95.048,95.048S19.692,298.567,19.692,246.154z
			 M377.567,341.202c-52.413,0-95.048-42.635-95.048-95.048s42.635-95.048,95.048-95.048c52.414,0,95.048,42.635,95.048,95.048
			S429.981,341.202,377.567,341.202z"/>
	</g>
</g>
<g>
</g>
<g>
</g>
<g>
</g>
<g>
</g>
<g>
</g>
<g>
</g>
<g>
</g>
<g>
</g>
<g>
</g>
<g>
</g>
<g>
</g>
<g>
</g>
<g>
</g>
<g>
</g>
<g>
</g>
</svg>
