<svg id="Layer_1" enable-background="new 0 0 512.084 512.084" height="512" viewBox="0 0 512.084 512.084" width="512" xmlns="http://www.w3.org/2000/svg"><path d="m502.234 272.339c-4.294 7.531-5.711 16.438-3.99 25.076 24.852 130.51-119.414 217.781-242.203 214.583-122.952 3.21-267.3-84.274-242.126-214.959 1.667-8.257.119-17.217-4.36-25.222-6.457-11.54-9.742-24.663-9.5-37.951.349-19.261 8.057-37.474 21.702-51.282 13.649-13.812 31.771-21.731 51.029-22.301 10.534-.312 20.792 1.528 30.48 5.467 8.849 3.599 19.021 3.369 27.908-.628 29.722-13.367 62.225-21.661 96.605-24.651 4.633-.403 8.263-4.453 8.263-9.221 0-66.857 55.143-126.25 122-126.25 11.046 0 20 8.954 20 20s-8.954 20-20 20c-44.802 0-82 41.448-82 86.25 0 12.299-4.551 24.085-12.813 33.188-8.326 9.172-19.685 14.812-31.985 15.882-29.897 2.601-58.046 9.761-83.665 21.282-18.809 8.459-40.452 8.897-59.379 1.202-4.503-1.831-9.287-2.69-14.232-2.539-18.371.543-33.587 15.941-33.92 34.326-.113 6.213 1.414 12.331 4.414 17.693 9.144 16.342 12.22 35.049 8.662 52.676-18.464 105.356 105.13 169.167 202.918 167.038 97.634 2.158 221.231-61.61 202.974-166.769-3.604-18.084-.596-36.801 8.469-52.703 13.124-22.384-3.551-51.631-29.369-52.262-4.901-.14-9.646.694-14.116 2.492-19.113 7.688-40.746 7.291-59.352-1.09-12.836-5.784-26.559-10.54-40.788-14.136-10.709-2.706-17.197-13.581-14.491-24.29 2.707-10.708 13.581-17.193 24.29-14.491 16.499 4.169 32.453 9.703 47.421 16.447 8.726 3.93 18.928 4.094 27.992.449 9.616-3.867 19.799-5.675 30.224-5.364 19.26.569 37.383 8.489 51.031 22.301 13.646 13.809 21.354 32.021 21.704 51.282.242 13.503-3.145 26.806-9.797 38.475zm-488.319 24.7c.144-.774-.156.771 0 0zm175.057 53.309c-3.541-5.617-9.8-9.348-16.93-9.348-15.887-.162-25.538 18.225-16.588 31.177 51.827 75.546 149.81 75.025 201.185-.014 8.936-12.96-.719-31.324-16.597-31.163-7.098 0-13.332 3.697-16.881 9.271-36.515 51.356-97.919 51.063-134.189.077zm227.069-325.348c0 13.807 11.193 25 25 25 33.162-1.317 33.153-48.688 0-50-13.807 0-25 11.193-25 25zm-281.989 287.002c-5.698 0-11.355-2.421-15.312-7.121-7.113-8.451-6.028-21.067 2.423-28.181 32.051-26.557 51.961-25.129 87.879-24.698 26.536 1.056 26.516 38.953 0 40 0 0-27.322-.002-27.482-.002-10.92 0-22.572 5.147-34.639 15.304-3.751 3.156-8.323 4.698-12.869 4.698zm243.975-1c-4.26 0-8.553-1.355-12.188-4.155-13.116-10.103-25.68-15.091-37.356-14.837-.151.003-.341.017-.451.005l-25-.014c-26.536-1.071-26.495-38.966.021-40l24.791.014c20.956-.382 41.947 7.388 62.401 23.141 8.751 6.74 10.382 19.298 3.643 28.049-3.94 5.114-9.868 7.797-15.861 7.797z"/></svg>