<?xml version="1.0" encoding="iso-8859-1"?>
<!-- Generator: Adobe Illustrator 19.0.0, SVG Export Plug-In . SVG Version: 6.00 Build 0)  -->
<svg version="1.1" id="Layer_1" xmlns="http://www.w3.org/2000/svg" xmlns:xlink="http://www.w3.org/1999/xlink" x="0px" y="0px"
	 viewBox="0 0 486.538 486.538" enable-background="new 0 0 486.538 486.538;" xml:space="preserve">
<g>
	<g>
		<polygon points="486.538,13.923 472.615,0 310.808,161.803 310.808,28.154 291.115,28.154 291.115,195.418 458.385,195.423 
			458.385,175.731 324.731,175.727 		"/>
	</g>
</g>
<g>
	<g>
		<polygon points="175.731,28.154 175.731,161.803 13.923,0 0,13.923 161.808,175.727 28.163,175.731 28.163,195.423 
			195.423,195.418 195.423,28.154 		"/>
	</g>
</g>
<g>
	<g>
		<polygon points="324.731,310.812 458.385,310.808 458.385,291.115 291.115,291.12 291.115,458.385 310.808,458.385 
			310.808,324.735 472.615,486.538 486.538,472.615 		"/>
	</g>
</g>
<g>
	<g>
		<polygon points="28.163,291.115 28.163,310.808 161.808,310.812 0,472.615 13.923,486.538 175.731,324.735 175.731,458.385 
			195.423,458.385 195.423,291.12 		"/>
	</g>
</g>
<g>
</g>
<g>
</g>
<g>
</g>
<g>
</g>
<g>
</g>
<g>
</g>
<g>
</g>
<g>
</g>
<g>
</g>
<g>
</g>
<g>
</g>
<g>
</g>
<g>
</g>
<g>
</g>
<g>
</g>
</svg>
