<?xml version="1.0" encoding="iso-8859-1"?>
<!-- Generator: Adobe Illustrator 19.0.0, SVG Export Plug-In . SVG Version: 6.00 Build 0)  -->
<svg version="1.1" id="Layer_1" xmlns="http://www.w3.org/2000/svg" xmlns:xlink="http://www.w3.org/1999/xlink" x="0px" y="0px"
	 viewBox="0 0 482.827 482.827" enable-background="new 0 0 482.827 482.827;" xml:space="preserve">
<g>
	<g>
		<path d="M241.413,0C171.855,0,106.16,30.011,60.606,81.465v-81.1H40.913v119.433h119.433v-19.692H70.671
			c41.954-50.628,104.403-80.413,170.743-80.413c122.26,0,221.721,99.462,221.721,221.721s-99.462,221.721-221.721,221.721
			S19.692,363.673,19.692,241.413c0-18.471,2.279-36.851,6.779-54.625l-19.096-4.827C2.481,201.313,0,221.317,0,241.413
			c0,133.115,108.298,241.413,241.413,241.413s241.413-108.298,241.413-241.413S374.529,0,241.413,0z"/>
	</g>
</g>
<g>
</g>
<g>
</g>
<g>
</g>
<g>
</g>
<g>
</g>
<g>
</g>
<g>
</g>
<g>
</g>
<g>
</g>
<g>
</g>
<g>
</g>
<g>
</g>
<g>
</g>
<g>
</g>
<g>
</g>
</svg>
