<svg id="Layer_1" enable-background="new 0 0 511.642 511.642" height="512" viewBox="0 0 511.642 511.642" width="512" xmlns="http://www.w3.org/2000/svg"><g><path d="m449.829 62.031c-79.105-82.613-221.437-82.618-300.538.002-68.157 65.99-81.858 178.399-32.725 258.935l-101.329 101.549c-20.315 20.36-20.315 53.488 0 73.847 19.415 20.278 54.365 20.278 73.779 0l65.859-66.002 35.154-35.23c80.522 50.159 193.57 36.71 259.799-32.005 82.417-79.247 82.421-221.848.001-301.096zm-382.05 413.142c-8.244 8.61-23.062 8.609-31.307 0-8.657-8.675-8.657-22.791 0-31.466l55.264-55.384 31.352 31.42zm76.501-76.666-31.352-31.42 21.025-21.071c9.204 11.455 19.861 22.22 31.235 31.538zm284.312-56.569c-59.499 61.895-162.807 71.116-232.31 21.502-.026-.017-.051-.036-.077-.053-146.41-102.234-75.356-332.804 103.356-333.731 161.507-.608 243.322 198.347 129.031 312.282z"/><path d="m446.983 212.519c-1.065-83.714-67.875-147.567-147.424-147.465-86.539.153-149.734 72.6-147.108 151.595 2.222 81.813 69.677 143.706 147.108 143.458 85.468-.396 146.646-69.371 147.424-147.588zm-64.534 83.176c-18.587 18.627-42.315 30.225-67.975 33.471l.054-49.862c.009-8.284-6.699-15.007-14.983-15.016h-.017c-8.277 0-14.991 6.705-15 14.984l-.054 49.871c-51.386-5.452-95.77-50.779-101.115-101.34l49.37-.053c19.891-.812 19.86-29.217-.016-30h-.017l-49.397.053c5.173-50.831 49.771-96.457 101.426-101.821l-.054 50.068c-.009 8.284 6.699 15.007 14.983 15.016h.017c8.277 0 14.991-6.705 15-14.984l.054-50.055c51.423 5.49 95.798 50.918 101.06 101.524l-49.592.053c-19.891.812-19.86 29.217.017 30h.017l49.566-.053c-3.168 24.934-14.278 49.037-33.344 68.144z"/><path d="m299.616 197.703c-19.846.801-19.909 29.175-.032 29.949 19.845-.8 19.908-29.175.032-29.949z"/></g></svg>