<svg id="Capa_1" enable-background="new 0 0 491.297 491.297" height="512" viewBox="0 0 491.297 491.297" width="512" xmlns="http://www.w3.org/2000/svg"><g><circle cx="206.717" cy="311.847" r="10"/><circle cx="373.184" cy="311.847" r="10"/><path d="m383.298 10c0-5.522-4.477-10-10-10-13.727 0-40.635 4.553-54.4 16.77-12.339 10.952-19.416 26.216-19.416 41.878v170.199c0 2.283.781 4.498 2.214 6.275l20.354 25.253v200.298c0 16.886 13.738 30.624 30.624 30.624s30.625-13.738 30.625-30.624v-104.499c0-5.522-4.477-10-10-10s-10 4.478-10 10v104.499c0 5.858-4.766 10.624-10.625 10.624-5.858 0-10.624-4.766-10.624-10.624v-203.826c0-2.283-.781-4.498-2.214-6.275l-20.354-25.253v-166.672c0-10.095 4.507-19.655 12.692-26.919 5.992-5.318 19.294-9.396 31.124-10.994v246.436c0 5.522 4.477 10 10 10s10-4.478 10-10z"/><path d="m207.124 346.174c-5.523 0-10 4.478-10 10v104.11c0 5.824-4.738 10.563-10.563 10.563s-10.563-4.738-10.563-10.563v-282.437c0-5.522-4.477-10-10-10-20.953 0-38-17.047-38-38v-76c0-5.522-4.477-10-10-10s-10 4.478-10 10v76c0 28.571 20.769 52.384 48 57.138v273.3c0 16.853 13.71 30.563 30.563 30.563s30.563-13.71 30.563-30.563v-104.11c0-5.524-4.478-10.001-10-10.001z"/><path d="m255.541 43.847c-5.523 0-10 4.478-10 10v76c0 20.953-17.234 38-38.417 38-5.523 0-10 4.478-10 10v89.323c0 5.522 4.477 10 10 10s10-4.478 10-10v-80.174c27.463-4.724 48.417-28.553 48.417-57.149v-76c0-5.523-4.478-10-10-10z"/><path d="m158.1 143.514c5.523 0 10-4.478 10-10v-79.667c0-5.522-4.477-10-10-10s-10 4.478-10 10v79.667c0 5.522 4.477 10 10 10z"/><path d="m215.439 143.514c5.523 0 10-4.478 10-10v-79.667c0-5.522-4.477-10-10-10s-10 4.478-10 10v79.667c0 5.522 4.477 10 10 10z"/></g></svg>