<svg id="Layer_1" enable-background="new 0 0 511.9 511.9" height="512" viewBox="0 0 511.9 511.9" width="512" xmlns="http://www.w3.org/2000/svg"><g><path d="m245.985 363.896c-5.854 5.854-5.854 15.346 0 21.201 5.855 5.854 15.346 5.854 21.201 0 13.503-14.62-6.589-34.701-21.201-21.201z"/><path d="m496.909 73.742h-187.621c-18.762-38.764-41.071-61.304-42.678-62.898-2.895-2.873-6.823-4.443-10.915-4.345-4.078.097-7.94 1.852-10.696 4.859-17.342 18.925-31.556 39.832-42.435 62.384h-187.572c-8.279 0-14.991 6.712-14.991 14.991-.002 86.234-.001 256.618 0 342.98 0 8.279 6.712 14.991 14.991 14.991h109.378v28.718h-36.915c-19.89.792-19.875 29.198 0 29.983h336.991c19.891-.792 19.875-29.198 0-29.983h-36.915v-28.718h109.377c8.279 0 14.991-6.712 14.991-14.991v-342.98c.001-8.279-6.711-14.991-14.99-14.991zm-240.832-29.195c5.519 7.106 12.56 17.107 19.543 29.607 4.775 8.548 9.87 18.937 14.47 30.906h-68.349c8.203-21.764 19.712-42.054 34.336-60.513zm-43.324 90.495h86.612c9.389 38.901 6.674 80.053-1.615 122.685h-26.802v-54.781c0-8.279-6.712-14.991-14.991-14.991s-14.991 6.712-14.991 14.991v54.781h-24.334c-10.22-44.082-13.115-81.208-3.879-122.685zm-2.725 152.668h94.463l23.55 18.364c7.113 5.547 14.693 10.462 22.616 14.733.438.265.89.507 1.356.727.332.175.658.359.991.531-24.301 14.805-41.529 40.118-45.315 69.581-10.963 4.366-19.458 13.631-22.781 25.074h-59.741c-3.377-11.388-11.883-20.594-22.835-24.915-3.726-28.885-20.382-53.762-43.943-68.668 9.235-4.539 18.045-9.961 26.281-16.204zm116.433-20.889c2.907-13.103 4.868-25.905 6.181-37.419l10.756 10.326v40.301zm-158.154 14.894v-43.136l12.107-11.041c1.819 12.877 4.373 26.159 7.575 39.255zm-138.323-177.99h160.421c-9.214 27.607-13.702 56.708-13.175 86.138l-34.016 31.021c-3.115 2.841-4.89 6.862-4.89 11.077v67.385c-7.199 3.044-14.664 5.458-22.305 7.183-5.36-7.811-13.384-13.478-22.653-15.884-11.029-25.8-35.75-45.526-63.382-50.16zm0 312.997v-145.455c17.887 5.13 32.618 19.102 38.131 37.429 1.958 6.506 8.054 10.888 14.838 10.664 15.26 1.504 5.073 17.398 24.402 18.968 36.275.009 65.783 29.523 65.783 65.799 0 5.287 2.744 9.925 6.878 12.594h-150.032zm327.565 58.701h-203.196v-28.718h203.196zm124.369-58.701h-152.243c4.32-2.631 7.214-7.371 7.214-12.798 0-36.282 29.518-65.8 65.8-65.8 6.252.061 13.066-4.544 14.554-11.397 1.195-4.837 5.921-8.052 10.982-7.259 7.287 1.135 14.315-3.191 16.581-10.207 5.382-16.674 19.489-29.045 37.113-33.587v141.048zm0-171.674c-27.1 4.546-50.025 21.161-61.545 44.815-10.614 1.692-19.951 7.589-26.043 16.152-7.181-1.867-14.19-4.35-20.949-7.391v-65.286c0-4.082-1.665-7.988-4.61-10.815l-33.529-32.187c.7-31.608-5.145-62.079-13.624-86.613h160.298v141.325z"/></g></svg>