<svg id="Layer_1" enable-background="new 0 0 512.812 512.812" height="512" viewBox="0 0 512.812 512.812" width="512" xmlns="http://www.w3.org/2000/svg"><g><path d="m497.593 110.669c15.204-54.559 15.226-93.833 15.219-95.478-.016-4.081-1.695-7.98-4.649-10.796-2.954-2.817-6.925-4.306-11.005-4.13-123.02 5.176-239.728 63.545-314.594 161.695l-86.874-4.223c-4.224-.197-8.343 1.384-11.335 4.376l-79.961 79.962c-3.882 3.882-5.333 9.575-3.783 14.841 1.55 5.267 5.854 9.266 11.219 10.426l92.585 20.02c-12.645 23.813-20.575 40.534-21.483 42.46-2.698 5.725-1.513 12.527 2.962 17.002l6.693 6.693c-7.252 2.537-14.057 6.698-19.844 12.484-4.509 4.509-8.126 9.731-10.757 15.531l-59.491 108.1c-3.203 5.821-2.196 13.056 2.477 17.78 2.89 2.922 6.755 4.453 10.67 4.453 2.414 0 4.848-.583 7.082-1.78l109.337-58.614c1.698-.774 3.342-1.627 4.895-2.543.16-.091.317-.186.472-.282 3.655-2.208 7.042-4.861 10.07-7.889 5.786-5.786 9.947-12.592 12.485-19.844l7.535 7.535c4.702 4.708 11.933 5.725 17.72 2.6 1.969-1.061 17.789-9.608 40.104-22.34l19.905 92.051c2.345 11.461 17.051 15.827 25.268 7.436 0 0 79.962-79.961 79.962-79.961 2.992-2.992 4.581-7.108 4.376-11.335l-4.219-86.781c15.535-11.234 29.036-22.064 38.621-31.649 57.857-58.952 88.342-119.479 108.338-187.8zm-29.18-7.048c-3.195 11.358-7.291 23.997-12.507 37.468l-84.331-84.331c35.104-13.709 72.067-22.252 110.339-25.467-1.368 15.602-4.814 41.45-13.501 72.33zm-423.353 140.214 55.81-55.81 60.88 2.959c-15.743 23.24-30.203 47.395-42.327 68.93zm91.831 111.561-22.228-22.228c3.572-7.224 9.097-18.174 16.113-31.38l29.862 29.862zm-10.606 64.148c-1.346 1.345-2.851 2.519-4.475 3.487-.026.016-.053.032-.079.047-.725.429-1.519.833-2.359 1.205-.347.154-.688.32-1.023.5l-65.138 34.919 35.361-64.251c.22-.4.422-.81.604-1.228 1.146-2.623 2.754-4.98 4.78-7.006 8.913-8.913 23.415-8.912 32.328 0s8.913 23.414.001 32.327zm54.497-20.257-22.678-22.678 23.747-23.747 29.336 29.336c-12.67 7.242-23.279 13.156-30.405 17.089zm143.782 12.431-55.81 55.81-16.138-74.63c21.792-12.835 46.191-27.723 68.954-42.762zm43.477-134.462c-25.424 25.424-83.463 61.942-130.005 89.367l-34.973-34.973 49.292-49.292c5.858-5.858 5.858-15.355 0-21.213-5.857-5.858-15.355-5.858-21.213 0l-49.292 49.292-36.072-36.072c1.318-2.339 2.661-4.705 4.031-7.099 31.002-54.143 60.891-96.263 86.435-121.807 31.174-31.173 66.753-56.629 105.846-75.76l101 101c-16.547 34.484-40.477 71.984-75.049 106.557z"/><path d="m367.042 146.457c-39.135-39.307-107.305-11.085-107.077 44.354-.696 33.714 29.009 63.421 62.725 62.723 55.434.229 83.666-67.947 44.352-107.077zm-21.213 67.493c-12.182 12.694-34.098 12.695-46.279-.001-12.695-12.18-12.695-34.098 0-46.278 12.759-12.759 33.52-12.758 46.279 0 12.759 12.759 12.759 33.52 0 46.279z"/></g></svg>