<?xml version="1.0" encoding="iso-8859-1"?>
<!-- Generator: Adobe Illustrator 19.0.0, SVG Export Plug-In . SVG Version: 6.00 Build 0)  -->
<svg version="1.1" id="Layer_1" xmlns="http://www.w3.org/2000/svg" xmlns:xlink="http://www.w3.org/1999/xlink" x="0px" y="0px"
	 viewBox="0 0 500.462 500.462" enable-background="new 0 0 500.462 500.462;" xml:space="preserve">
<g>
	<g>
		<path d="M371.261,237.88l98.662-98.659l1.875-110.553l-110.548,1.87L262.585,129.2L133.385,0L0,133.389l129.196,129.196
			l-77.859,77.857c-14.51,14.514-22.5,33.813-22.5,54.337s7.99,39.822,22.5,54.337c14.519,14.514,33.817,22.51,54.346,22.51
			c20.519,0,39.817-7.995,54.337-22.51l77.852-77.85l129.206,129.196l133.385-133.385L371.261,237.88z M369.538,50.096l82.221-1.389
			l-1.394,82.216l-24.531,24.531l-80.825-80.829L369.538,50.096z M111.968,217.511l46.013-46.016l-13.923-13.923l-46.013,46.016
			l-23.812-23.812l46.017-46.017l-13.923-13.923L60.31,165.853l-32.464-32.464L133.385,27.846l115.277,115.277L143.119,248.662
			L111.968,217.511z M331.086,88.547l33.451,33.454L136.673,349.861l-33.454-33.454L331.086,88.547z M146.096,435.192
			c-10.798,10.793-25.154,16.74-40.414,16.74c-15.269,0-29.625-5.947-40.423-16.74c-10.789-10.793-16.731-25.144-16.731-40.413
			s5.942-29.62,16.731-40.413l24.037-24.035l80.831,80.831L146.096,435.192z M184.05,397.238l-33.454-33.454L378.46,135.924
			l33.451,33.453L184.05,397.238z M334.53,440.072l46.018-46.014l-13.923-13.923l-46.019,46.014l-23.81-23.808l46.011-46.019
			l-13.923-13.923l-46.011,46.019l-31.078-31.076l105.542-105.539l115.278,115.273L367.077,472.615L334.53,440.072z"/>
	</g>
</g>
<g>
</g>
<g>
</g>
<g>
</g>
<g>
</g>
<g>
</g>
<g>
</g>
<g>
</g>
<g>
</g>
<g>
</g>
<g>
</g>
<g>
</g>
<g>
</g>
<g>
</g>
<g>
</g>
<g>
</g>
</svg>
