<svg id="Layer_1" enable-background="new 0 0 513 513" height="512" viewBox="0 0 513 513" width="512" xmlns="http://www.w3.org/2000/svg"><path d="m301.546 422c-279.913-11.588-279.848-410.447.001-422 56.372 0 109.352 21.871 149.178 61.585 132.585 131.18 37.152 360.932-149.179 360.415zm0-382c-94.29 0-171 76.71-171 171 9.495 227.016 332.739 226.758 342-.393 0-94.072-76.71-170.607-171-170.607zm-281 473c-5.137 0-10.272-1.967-14.182-5.897-7.788-7.832-7.753-20.495.079-28.284l90-89.5c7.83-7.788 20.493-7.755 28.284.079 7.788 7.832 7.753 20.495-.079 28.284l-90 89.5c-3.901 3.88-9.002 5.818-14.102 5.818zm407.986-270.837c3.195-12.549.454-25.629-7.52-35.889-8.039-10.342-20.156-16.274-33.246-16.274h-65.221c-26.536 1.056-26.516 38.953 0 40h65.221c.681 0 1.24.276 1.664.821.537.69.393 1.257.338 1.47-16.237 67.133-103.486 90.705-151.317 40.89-55.831-56.05-15.136-152.973 63.797-153.18 12.308-.042 24.258 2.359 35.474 7.127 10.166 4.32 21.909-.415 26.23-10.582 4.321-10.166-.417-21.909-10.582-26.23-16.238-6.901-33.444-10.368-51.251-10.314-68.712-1.195-129.994 59.387-129.56 128.108-2.502 70.576 59.398 133.378 129.987 131.89 59.509 0 111.317-40.232 125.986-97.837z"/></svg>