<?xml version="1.0" encoding="iso-8859-1"?>
<!-- Generator: Adobe Illustrator 19.0.0, SVG Export Plug-In . SVG Version: 6.00 Build 0)  -->
<svg version="1.1" id="Layer_1" xmlns="http://www.w3.org/2000/svg" xmlns:xlink="http://www.w3.org/1999/xlink" x="0px" y="0px"
	 viewBox="0 0 492.308 492.308" enable-background="new 0 0 492.308 492.308;" xml:space="preserve">
<g>
	<g>
		<path d="M0,0v162.462h68.923V68.923h93.538V0H0z M142.769,49.231H49.231v93.539H19.692V19.692h123.077V49.231z"/>
	</g>
</g>
<g>
	<g>
		<path d="M68.923,423.389v-93.538H0v162.457h162.462v-68.918H68.923z M142.769,472.615H19.692V349.543h29.538v93.538h93.539
			V472.615z"/>
	</g>
</g>
<g>
	<g>
		<path d="M423.385,329.851v93.538h-93.538v68.918h162.462V329.851H423.385z M472.615,472.615H349.538v-29.534h93.538v-93.538
			h29.538V472.615z"/>
	</g>
</g>
<g>
	<g>
		<path d="M329.846,0v68.923h93.538v93.538h68.923V0H329.846z M472.615,142.769h-29.538V49.231h-93.538V19.692h123.077V142.769z"/>
	</g>
</g>
<g>
</g>
<g>
</g>
<g>
</g>
<g>
</g>
<g>
</g>
<g>
</g>
<g>
</g>
<g>
</g>
<g>
</g>
<g>
</g>
<g>
</g>
<g>
</g>
<g>
</g>
<g>
</g>
<g>
</g>
</svg>
