<svg id="Layer_1" enable-background="new 0 0 512.084 512.084" height="512" viewBox="0 0 512.084 512.084" width="512" xmlns="http://www.w3.org/2000/svg"><path d="m394.042 512.042c-31.634 0-61.38-12.444-83.761-35.042-22.356-22.572-34.513-52.403-34.234-84.012l-.005-96.945c0-8.09 4.872-15.383 12.346-18.479 7.47-3.098 16.075-1.385 21.797 4.335l1.625 1.625c7.75 7.752 19.409 9.726 29.017 4.913 16.411-8.225 34.151-12.396 52.728-12.396.039.001.079.001.118 0 31.36 0 60.918 12.083 83.213 34.027 22.366 22.014 34.851 51.426 35.151 82.818 1.919 64.071-53.843 120.485-117.995 119.156zm-77.998-182.456.003 63.492c0 .064 0 .129-.001.193-.201 20.889 7.845 40.628 22.655 55.581 49.267 49.638 134.051 14.317 133.337-55.581-.409-42.592-35.57-77.229-78.387-77.229-.025.001-.051.001-.078 0-12.316 0-24.027 2.744-34.826 8.156-13.529 6.782-28.576 8.445-42.703 5.388zm-198.025 182.456c-105.136-.005-157.562-127.744-82.935-201.761 22.318-22.105 51.741-34.239 82.954-34.239h98.003c17.684-.059 26.683 21.686 14.144 34.143l-1.625 1.625c-7.752 7.751-9.727 19.412-4.913 29.017 8.232 16.427 12.403 34.188 12.396 52.787 1.31 63.153-53.626 119.096-116.845 118.423-.394.003-.788.005-1.179.005zm.031-196c-20.607 0-40.047 8.028-54.818 22.659-30.709 29.071-30.651 81.814-.215 110.798 14.88 14.736 34.649 22.764 55.796 22.539 42.604-.409 77.249-35.59 77.229-78.425.005-12.332-2.739-24.057-8.156-34.866-6.781-13.531-8.442-28.58-5.388-42.703 0 0-63.621.003-63.686.002-.253-.002-.509-.004-.762-.004zm97.996-79.999c-5.204 0-10.32-2.033-14.146-5.858l-1.625-1.625c-7.751-7.752-19.41-9.727-29.017-4.913-16.411 8.225-34.151 12.396-52.728 12.396-.037.001-.077.001-.118 0-31.36 0-60.918-12.083-83.213-34.027-22.366-22.014-34.851-51.426-35.151-82.818-1.915-64.071 53.839-120.485 117.995-119.155 63.594-1.36 119.914 55.467 117.994 119.053l.005 96.945c0 8.09-4.872 15.383-12.346 18.479-2.474 1.025-5.073 1.523-7.65 1.523zm-97.576-40.001c12.329.006 24.057-2.738 34.867-8.156 13.531-6.78 28.578-8.442 42.703-5.388l-.003-63.492c0-.064 0-.129.001-.192.2-20.89-7.846-40.629-22.656-55.582-49.267-49.638-134.05-14.316-133.336 55.581.408 42.604 35.595 77.251 78.424 77.229zm177.573 40c-8.088 0-15.381-4.871-18.478-12.343-3.097-7.473-1.388-16.074 4.33-21.795l1.624-1.625c7.757-7.756 9.731-19.417 4.918-29.021-8.234-16.43-12.404-34.19-12.396-52.788-.015-31.382 12.069-60.962 34.027-83.271 22.014-22.366 51.426-34.851 82.818-35.151 105.712-1.035 159.127 127.326 84.114 201.755-22.318 22.105-51.741 34.239-82.954 34.239-.355 0-98.003 0-98.003 0zm97.991-40c20.607 0 40.047-8.028 54.818-22.659 30.709-29.071 30.651-81.814.215-110.798-14.879-14.737-34.665-22.737-55.796-22.539-42.604.409-77.25 35.59-77.229 78.424-.006 12.332 2.738 24.056 8.156 34.867 6.781 13.531 8.442 28.58 5.387 42.703 0 0 64.196.002 64.449.002zm20.008-58h-40c-26.536-1.056-26.516-38.953 0-40h40c26.536 1.056 26.516 38.954 0 40zm-256-20c0-11.046-8.954-20-20-20h-40c-26.536 1.056-26.516 38.953 0 40h40c11.046 0 20-8.954 20-20zm0 277c0-11.046-8.954-20-20-20h-40c-26.536 1.056-26.516 38.953 0 40h40c11.046 0 20-8.954 20-20zm276 0c0-11.046-8.954-20-20-20h-40c-26.536 1.056-26.516 38.953 0 40h40c11.046 0 20-8.954 20-20z"/></svg>