<svg id="Layer_1" enable-background="new 0 0 512 512" height="512" viewBox="0 0 512 512" width="512" xmlns="http://www.w3.org/2000/svg"><path d="m392 382h-272c-66.168 0-120-53.832-120-120v-42c0-59.355 43.318-108.784 100-118.333v-35.667c0-33.084 26.916-60 60-60 11.046 0 20 8.954 20 20s-8.954 20-20 20c-11.028 0-20 8.972-20 20v54c0 11.046-8.954 20-20 20-44.112 0-80 35.888-80 80v42c0 44.112 35.888 80 80 80h272c44.112 0 80-35.888 80-80v-42c0-44.112-35.888-80-80-80h-192c-26.536-1.056-26.516-38.953 0-40h192c66.168 0 120 53.832 120 120v42c0 66.168-53.832 120-120 120zm-24 70v-20c-1.056-26.536-38.953-26.516-40 0v20c0 11.028-8.972 20-20 20h-104c-11.028 0-20-8.972-20-20v-20c-1.056-26.536-38.953-26.516-40 0v20c0 33.084 26.916 60 60 60h104c33.084 0 60-26.916 60-60zm-133-452c13.807 0 25 11.193 25 25-1.317 33.162-48.688 33.153-50 0 0-13.807 11.193-25 25-25z"/></svg>