<?xml version="1.0" encoding="iso-8859-1"?>
<!-- Generator: Adobe Illustrator 18.0.0, SVG Export Plug-In . SVG Version: 6.00 Build 0)  -->
<!DOCTYPE svg PUBLIC "-//W3C//DTD SVG 1.1//EN" "http://www.w3.org/Graphics/SVG/1.1/DTD/svg11.dtd">
<svg version="1.1" id="Capa_1" xmlns="http://www.w3.org/2000/svg" xmlns:xlink="http://www.w3.org/1999/xlink" x="0px" y="0px"
	 viewBox="0 0 216.842 216.842"  xml:space="preserve">
<g>
	<path d="M167.524,0H49.317c-8.6,0-15.596,7.001-15.596,15.606v185.641c0,8.599,6.996,15.595,15.596,15.595h118.207
		c8.6,0,15.596-6.996,15.596-15.595V15.606C183.12,7.001,176.124,0,167.524,0z M48.722,59.188H168.12v92.432H48.722V59.188z
		 M49.317,15h118.207c0.334,0,0.596,0.266,0.596,0.606v28.582H48.722V15.606C48.722,15.271,48.989,15,49.317,15z M167.524,201.842
		H49.317c-0.317,0-0.596-0.278-0.596-0.595v-34.628H168.12v34.628C168.12,201.575,167.853,201.842,167.524,201.842z"/>
	<path d="M108.424,170.209c-7.725,0-14.01,6.29-14.01,14.023c0,7.72,6.285,14.001,14.01,14.001c7.727,0,14.012-6.281,14.012-14.001
		C122.437,176.499,116.151,170.209,108.424,170.209z M108.424,190.232c-3.335,0-6.01-2.681-6.01-6.001
		c0-3.326,2.675-6.023,6.01-6.023c3.331,0,6.012,2.697,6.012,6.023C114.437,187.551,111.755,190.232,108.424,190.232z"/>
	<path d="M96.716,34.602h23.416c2.761,0,5-2.239,5-5c0-2.761-2.239-5-5-5H96.716c-2.761,0-5,2.239-5,5
		C91.716,32.363,93.955,34.602,96.716,34.602z"/>
</g>
<g>
</g>
<g>
</g>
<g>
</g>
<g>
</g>
<g>
</g>
<g>
</g>
<g>
</g>
<g>
</g>
<g>
</g>
<g>
</g>
<g>
</g>
<g>
</g>
<g>
</g>
<g>
</g>
<g>
</g>
</svg>
