<svg id="Layer_1" enable-background="new 0 0 512 512" height="512" viewBox="0 0 512 512" width="512" xmlns="http://www.w3.org/2000/svg"><path d="m428.553 236h-10v-40h10c26.536-1.056 26.516-38.953 0-40h-11.063c-3.056-22.837-12.561-43.662-26.616-60.578-2.344-3.64-22.322-35.839-22.322-75.422 0-11.046-8.954-20-20-20s-20 8.954-20 20c0 13.184 1.652 25.632 4.174 36.956-10.834-3.224-22.305-4.956-34.173-4.956h-115c-11.868 0-23.339 1.732-34.174 4.956 2.522-11.324 4.174-23.773 4.174-36.956 0-11.046-8.954-20-20-20s-20 8.954-20 20c0 39.588-19.982 71.79-22.323 75.423-17.277 20.794-27.677 47.493-27.677 76.577v167c0 27.973 9.622 53.742 25.729 74.17.225.334 24.271 36.992 24.271 78.83 0 11.046 8.954 20 20 20s20-8.954 20-20c0-13.601-1.758-26.42-4.416-38.029 10.906 3.271 22.46 5.029 34.416 5.029h115c11.957 0 23.51-1.758 34.416-5.029-2.658 11.609-4.416 24.428-4.416 38.029 0 11.046 8.954 20 20 20s20-8.954 20-20c0-41.692 23.864-78.229 24.242-78.793 16.125-20.434 25.758-46.217 25.758-74.207v-63h10c26.536-1.056 26.516-38.953 0-40zm-50 103c0 44.112-35.888 80-80 80h-115c-44.112 0-80-35.888-80-80v-167c0-44.112 35.888-80 80-80h115c44.112 0 80 35.888 80 80zm-40-83c0 11.046-8.954 20-20 20h-55.783c-5.502 6.715-13.859 11-23.217 11-28.26-.105-40.555-35.578-19-53.217v-81.783c1.056-26.536 38.953-26.516 40 0v83.576c.143.14.284.281.424.424h57.576c11.046 0 20 8.954 20 20z"/></svg>