<?xml version="1.0" encoding="iso-8859-1"?>
<!-- Generator: Adobe Illustrator 18.0.0, SVG Export Plug-In . SVG Version: 6.00 Build 0)  -->
<!DOCTYPE svg PUBLIC "-//W3C//DTD SVG 1.1//EN" "http://www.w3.org/Graphics/SVG/1.1/DTD/svg11.dtd">
<svg version="1.1" id="Capa_1" xmlns="http://www.w3.org/2000/svg" xmlns:xlink="http://www.w3.org/1999/xlink" x="0px" y="0px"
	 viewBox="0 0 236.319 236.319"  xml:space="preserve">
<g>
	<path d="M219.932,12.834H16.378C7.347,12.834,0,20.18,0,29.211v129.613c0,9.03,7.347,16.377,16.378,16.377h43.998
		c4.142,0,7.5-3.358,7.5-7.5c0-0.015-0.002-0.029-0.002-0.044c0.001-0.015,0.002-0.029,0.002-0.044l0.001-139.779h100.566v132.367
		h-36.051c-1.527,0-3.018,0.466-4.273,1.336l-69.65,48.284c-3.404,2.36-4.25,7.032-1.891,10.436c1.457,2.101,3.794,3.228,6.17,3.228
		c1.474,0,2.963-0.434,4.266-1.337l67.722-46.948h85.193c9.036,0,16.388-7.347,16.388-16.377l0.001-129.613
		C236.319,20.18,228.968,12.834,219.932,12.834z M52.876,160.201H16.378c-0.76,0-1.378-0.618-1.378-1.377V29.211
		c0-0.747,0.631-1.377,1.378-1.377h36.499L52.876,160.201z M221.318,158.824c0,0.772-0.609,1.377-1.388,1.377h-36.487V27.834h36.488
		c0.765,0,1.388,0.618,1.388,1.377L221.318,158.824z"/>
	<path d="M202.393,80.02c-7.722,0-14.004,6.277-14.004,13.993c0,7.715,6.282,13.991,14.004,13.991
		c7.71,0,13.982-6.276,13.982-13.991C216.374,86.298,210.102,80.02,202.393,80.02z M202.393,100.005
		c-3.315,0-6.004-2.666-6.004-5.991c0-3.319,2.688-5.993,6.004-5.993c3.309,0,5.982,2.674,5.982,5.993
		C208.374,97.339,205.701,100.005,202.393,100.005z"/>
	<path d="M33.938,111.851c2.761,0,5-2.239,5-5V81.177c0-2.761-2.239-5-5-5c-2.761,0-5,2.239-5,5v25.675
		C28.938,109.613,31.177,111.851,33.938,111.851z"/>
</g>
<g>
</g>
<g>
</g>
<g>
</g>
<g>
</g>
<g>
</g>
<g>
</g>
<g>
</g>
<g>
</g>
<g>
</g>
<g>
</g>
<g>
</g>
<g>
</g>
<g>
</g>
<g>
</g>
<g>
</g>
</svg>
