<svg id="Layer_1" enable-background="new 0 0 511.971 511.971" height="512" viewBox="0 0 511.971 511.971" width="512" xmlns="http://www.w3.org/2000/svg"><path d="m255.169 511.971c-69.406.029-135.278-19.086-192.057-57.487-20.972-14.187-33.895-37.778-34.57-63.103-.678-25.415 10.511-48.758 30.698-64.043 9.968-7.548 18.006-15.484 23.891-23.59 1.36-1.873 1.219-3.757.86-5.007-.305-1.065-1.173-2.996-3.558-3.961l-27.63-11.181c-49.074-18.506-51.464-88.508-3.623-110.16 14.437-6.606 30.576-7.181 45.444-1.618.262.098 1.63.843 2.79.123.974-.605.956-1.466.956-1.779v-21.019c0-45.929 19.623-85.273 56.747-113.781 60.174-47.153 139.931-47.153 200.105-.001 37.387 28.71 57.148 68.055 57.148 113.782v20.033c-.008 3.047 3.421 3.538 4.745 2.642 14.867-5.563 31.006-4.989 45.444 1.618 14.497 6.635 25.534 18.546 31.08 33.539 11.379 30.761-4.227 65.104-34.795 76.656l-28.358 11.183c-2.423.955-3.307 2.908-3.618 3.987-.361 1.25-.504 3.129.858 4.983 5.836 7.946 13.771 15.733 23.585 23.147 42.899 31.222 40.642 98.819-3.632 127.686-57.04 38.229-123.065 57.382-192.51 57.351zm-181.328-303.92c-2.731 0-5.455.588-8.015 1.76-15.788 7.159-14.932 30.425 1.27 36.429.165.062 28.34 11.46 28.34 11.46 27.283 10.443 37.678 46.211 20.062 69.551-8.199 11.292-19.003 22.05-32.112 31.976-9.772 7.4-15.188 18.731-14.859 31.089.337 12.645 6.533 23.958 16.998 31.038 96.827 67.598 242.751 67.262 339.881.04 21.748-14.022 22.741-47.298 1.792-62.542-12.91-9.753-23.579-20.312-31.71-31.384-8.451-11.503-11.022-25.991-7.054-39.747 3.995-13.853 13.974-24.828 27.376-30.114s28.722-11.325 28.831-11.366c10.109-3.783 15.259-15.171 11.48-25.384-1.83-4.946-5.456-8.869-10.211-11.045-4.638-2.124-9.817-2.332-14.603-.592-13.215 5.237-28.112 3.639-39.918-4.31-11.911-8.017-19.021-21.374-19.021-35.73v-20.033c0-33.298-13.966-60.905-41.51-82.057-46.258-36.128-105.123-36.128-151.381 0-27.277 20.946-41.108 48.554-41.108 82.056v21.019c.42 29.456-30.93 50.518-58.029 39.022-2.118-.759-4.311-1.136-6.499-1.136zm154.528-32.08c0 13.807-11.193 25-25 25-33.162-1.317-33.153-48.688 0-50 13.807 0 25 11.193 25 25zm78-25c-13.807 0-25 11.193-25 25 1.317 33.162 48.688 33.153 50 0 0-13.807-11.193-25-25-25z"/></svg>