<svg id="Layer_1" enable-background="new 0 0 511.997 511.997" height="512" viewBox="0 0 511.997 511.997" width="512" xmlns="http://www.w3.org/2000/svg"><path d="m439.368 104.484c-.105-.111-.198-.23-.307-.339-.067-.067-.14-.122-.207-.187-.614-.626-1.216-1.261-1.837-1.882-160.905-160.55-436.796-46.162-437.017 181.021-.001 8.276 6.71 14.986 14.987 14.986h66.677c2.347 34.61 14.366 66.571 34.837 93.203-7.6.726-13.545 7.125-13.545 14.915v63.717c0 8.278 6.711 14.988 14.988 14.988h276.109c8.278 0 14.988-6.711 14.988-14.988v-63.717c0-7.73-5.853-14.089-13.367-14.897 20.387-26.424 32.344-58.384 34.666-93.221h66.669c8.278 0 14.988-6.711 14.988-14.988 0-67.256-25.776-130.541-72.629-178.611zm-69.963 48.121c-26.98-23.062-61.038-38.063-98.418-41.254v-53.778c50.732 3.3 98.224 23.309 136.064 57.387zm-209.647-13.023c-9.022-2.262-18.629-1.335-27.083 2.66l-27.493-27.492c37.801-33.949 85.2-53.884 135.827-57.177v53.806c-28.604 2.548-56.789 12.307-81.251 28.203zm66.875 145.907c0-16.2 13.18-29.38 29.38-29.38 38.977 1.614 38.965 57.152 0 58.76-16.2 0-29.38-13.18-29.38-29.38zm-25.3-23.091-59.574-77.52c-3.135-4.08-2.756-9.9.883-13.539 3.183-3.182 8.012-3.868 11.904-1.906.109.06.218.122.328.179.469.259.927.548 1.362.887l77.161 60.122c-14.409 5.961-25.983 17.43-32.064 31.777zm-117.106-126.211 28.091 28.091c-2.893 7.64-3.414 16.023-1.476 23.963-15.87 24.189-25.78 51.842-28.705 79.866h-51.676c3.18-48.901 21.903-94.783 53.766-131.92zm294.837 318.743h-246.132v-33.741h246.132zm-24.012-63.717h-198.094c-47.801-42.649-59.407-117.275-28.298-174.185l78.552 102.214c.027.035.059.065.087.1 10.734 15.399 28.562 25.504 48.715 25.504 55.884-.258 80.271-70.396 37.54-105.295-.226-.198-.443-.403-.683-.59l-104.496-81.422c94.105-50.82 211.357 18.784 212.389 125.316-.021.214-.005.427.008.641.605 42.235-15.723 80.648-45.72 107.717zm74.858-123.107c-3.527-35.587-17.772-68.066-39.454-94.161l37.518-37.518c31.738 37.095 50.388 82.885 53.56 131.679z"/></svg>