<svg id="Layer_1" enable-background="new 0 0 512 512" height="512" viewBox="0 0 512 512" width="512" xmlns="http://www.w3.org/2000/svg"><path d="m495.436 26.298c-10.501-8.89-24.3-12.69-37.854-10.419-5.556.929-11.299 1.424-16.607 1.431h-.16c-18.443 0-36.71-4.192-43.086-8.092-39.133-24.86-92.428 5.031-91.636 51.373v265.126c-67.143-53.772-169.512-4.685-169.091 82.094 5.394 136.949 200.051 139.301 208.963 2.777.085-.748.128-349.997.128-349.997 0-10.689 7.225-15.894 10.331-17.635 3.106-1.742 11.317-5.188 20.437.387 15.79 9.655 43.467 13.967 63.974 13.967h.193c7.465-.01 15.472-.694 23.154-1.979 2.647-.441 4.524.748 5.409 1.497.9.762 2.41 2.45 2.41 5.198v50.331c0 2.996-1.936 5.653-4.707 6.462-4.468 1.304-14.02 3.49-27.793 3.49-10.309 0-24.107-5.693-28.581-7.9-24.203-10.881-41.099 23.005-17.862 35.79 24.583 12.428 53.545 16.088 85.44 7.019 19.726-5.756 33.503-24.203 33.503-44.86v-50.333c-.001-13.793-6.039-26.815-16.565-35.727zm-253.936 446.011c-35.565 0-64.5-28.935-64.5-64.5 3.543-85.568 125.47-85.543 129 0 0 35.566-28.935 64.5-64.5 64.5zm-221.496-278.902c-5.308 0-10.604-2.1-14.538-6.261-7.588-8.027-7.231-20.686.795-28.273 63.827-60.335 147.547-93.564 235.739-93.564 11.046 0 20 8.954 20 20s-8.954 20-20 20c-77.93 0-151.892 29.346-208.261 82.632-3.865 3.654-8.805 5.466-13.735 5.466zm68.73 52.633c41.455-39.162 95.708-60.73 152.766-60.73 11.046 0 20-8.954 20-20s-8.954-20-20-20c-67.315 0-131.323 25.447-180.234 71.654-8.029 7.585-8.39 20.243-.804 28.272 3.935 4.165 9.231 6.266 14.542 6.266 4.928 0 9.866-1.811 13.73-5.462zm54.83 56.884c26.654-24.9 61.436-38.614 97.936-38.614 11.046 0 20-8.954 20-20s-8.954-20-20-20c-46.675 0-91.153 17.539-125.242 49.386-8.071 7.54-8.502 20.196-.961 28.268 3.938 4.216 9.271 6.347 14.618 6.347 4.892-.002 9.794-1.785 13.649-5.387z"/></svg>