<svg id="Layer_1" enable-background="new 0 0 512 512" height="512" viewBox="0 0 512 512" width="512" xmlns="http://www.w3.org/2000/svg"><path d="m438 431.809c-40.804 0-74-33.196-74-74v-174c4.077-98.195 143.96-98.119 148 0v174c0 40.804-33.196 74-74 74zm0-282c-18.748 0-34 15.252-34 34v174c1.873 45.117 66.144 45.082 68 0v-174c0-18.748-15.252-34-34-34zm-364 282c-40.804 0-74-33.196-74-74v-54c4.077-98.195 143.96-98.119 148 0v54c0 40.804-33.196 74-74 74zm0-162c-18.748 0-34 15.252-34 34v54c1.873 45.117 66.144 45.082 68 0v-54c0-18.748-15.252-34-34-34zm182 162c-40.804 0-74-33.196-74-74v-284c4.077-98.195 143.96-98.119 148 0v284c0 40.804-33.196 74-74 74zm0-392c-18.748 0-34 15.252-34 34v284c1.873 45.117 66.144 45.082 68 0v-284c0-18.748-15.252-34-34-34zm256 452c0-11.046-8.954-20-20-20h-472c-26.536 1.056-26.516 38.953 0 40h472c11.046 0 20-8.954 20-20z"/></svg>