<svg id="Layer_1" enable-background="new 0 0 511.981 511.981" height="512" viewBox="0 0 511.981 511.981" width="512" xmlns="http://www.w3.org/2000/svg"><g><path d="m496.981 57.67h-142.509c-55.226-43.807-141.746-43.799-196.963 0h-142.509c-8.284 0-15 6.716-15 15v367.936c0 25.661 20.877 46.538 46.538 46.538 123.104.025 295.966.026 418.905 0 25.661 0 46.538-20.877 46.538-46.538v-367.936c0-8.284-6.715-15-15-15zm-15 345.421h-451.981v-315.421h97.119c-83.134 105.067-6.261 264.115 128.875 263.448 135.125.67 212.013-158.408 128.87-263.448h97.118v315.421zm-172.101 48.111c0 3.046-2.285 5.564-5.23 5.942h-97.318c-2.945-.378-5.231-2.896-5.231-5.942v-18.11h107.779zm-136.015-368.285c18.939-14.858 41.986-24.699 67.126-27.527v7.223c.793 19.902 29.215 19.887 30 0v-7.223c61.534 6.924 110.516 55.906 117.44 117.44h-7.223c-19.902.793-19.887 29.215 0 30h7.223c-6.924 61.534-55.906 110.517-117.44 117.441v-7.223c-.793-19.902-29.215-19.887-30 0v7.223c-61.535-6.924-110.517-55.907-117.441-117.441h7.224c19.902-.793 19.887-29.215 0-30h-7.224c3.936-34.977 21.457-65.899 47.153-87.348 1.169-.711 2.232-1.573 3.162-2.565zm-143.865 357.689v-7.515h142.102v18.11c0 2.025.177 4.008.499 5.942h-126.063c-9.119.001-16.538-7.418-16.538-16.537zm435.443 16.538h-126.062c.323-1.935.499-3.918.499-5.942v-18.11h142.102v7.515c-.001 9.118-7.42 16.537-16.539 16.537z"/><path d="m208.172 203.195h5.369c6.847 30.178 33.868 52.781 66.087 52.781 8.284 0 15-6.716 15-15s-6.716-15-15-15c-15.504 0-28.851-9.391-34.667-22.781h34.667c19.902-.793 19.887-29.215 0-30h-34.667c5.816-13.39 19.163-22.78 34.667-22.78 8.284 0 15-6.716 15-15s-6.716-15-15-15c-32.219 0-59.24 22.603-66.087 52.78h-5.369c-19.902.792-19.887 29.215 0 30z"/></g></svg>