<svg id="Layer_1" enable-background="new 0 0 512.016 512.016" height="512" viewBox="0 0 512.016 512.016" width="512" xmlns="http://www.w3.org/2000/svg"><path d="m386.738 166.093c-10.492 3.457-21.796-2.248-25.252-12.74-22.328-67.791-85.324-113.337-156.757-113.337-170.764 1.798-227.77 227.486-78.544 310.146 18.213 10.143 10.959 37.464-9.554 37.584-3.222 0-6.488-.78-9.519-2.424-185.42-102.777-114.465-383.083 97.619-385.306 86.739-1.14 168.643 58.327 194.746 140.825 3.456 10.491-2.248 21.797-12.739 25.252zm-125.009 68.923c0-13.637-6.054-26.824-16.609-36.18-10.055-8.912-23.333-13.82-37.391-13.82-9.691 0-17-4.299-17-10 0-5.514 4.486-10 10-10 7.104 0 15.745.804 30.751 6.64 10.296 4.002 21.885-1.097 25.889-11.391 4.003-10.295-1.097-21.886-11.391-25.889-6.405-2.491-12.113-4.331-17.249-5.686v-4.674c-1.056-26.536-38.953-26.516-40 0v2.456c-59.061 17.879-46.651 98.728 19 98.543 7.589.001 14 4.58 14 10.001s-4.809 10-10.5 10c-4.18 0-18.457-1.363-34.112-7.585-10.263-4.08-21.894.934-25.973 11.198-4.08 10.265.933 21.893 11.198 25.973 9.148 3.636 18.239 6.163 26.388 7.816v2.599c1.056 26.536 38.953 26.516 40 0v-3.096c19.245-7.064 32.999-25.424 32.999-46.905zm230 143c-11.046 0-20 8.954-20 20v94c1.056 26.536 38.953 26.516 40 0v-94c0-11.046-8.954-20-20-20zm-80 23c-11.046 0-20 8.954-20 20v71c1.056 26.536 38.953 26.516 40 0v-71c0-11.046-8.954-20-20-20zm-80 44c-11.046 0-20 8.954-20 20v27c1.056 26.536 38.953 26.516 40 0v-27c0-11.046-8.954-20-20-20zm-80-17c-11.046 0-20 8.954-20 20v44c1.056 26.536 38.953 26.516 40 0v-44c0-11.046-8.954-20-20-20zm-150.409 84c-17.593.106-26.77-21.674-14.095-34.19l115.958-115.176c.234-.233.475-.459.72-.681 25.344-22.792 63.093-24.077 89.915-3.107l1.683 1.232c.201.146.399.297.594.452 12.38 9.791 30.35 8.271 40.908-3.462.095-.105.191-.209.288-.312l70.859-75.447c7.562-8.051 20.219-8.449 28.271-.886 8.052 7.562 8.448 20.219.887 28.27l-70.726 75.305c-24.567 27.12-66.164 30.68-94.98 8.158l-1.685-1.234c-.201-.146-.398-.297-.594-.452-11.39-9.008-27.447-8.592-38.346.938l-115.563 114.782c-3.901 3.874-8.999 5.81-14.094 5.81zm410.409-194v-54c0-33.084-26.916-60-60-60h-54c-26.536 1.056-26.516 38.953 0 40h54c11.028 0 20 8.972 20 20v54c0 11.046 8.954 20 20 20s20-8.955 20-20z"/></svg>