<svg id="Layer_1" enable-background="new 0 0 512 512" height="512" viewBox="0 0 512 512" width="512" xmlns="http://www.w3.org/2000/svg"><path d="m392 14h-272c-66.168 0-120 53.832-120 120v164.021c0 66.157 53.823 119.979 119.979 119.979h272.021c66.168 0 120-53.832 120-120v-164c0-66.168-53.832-120-120-120zm80 284c0 44.112-35.888 80-80 80h-272.021c-44.1 0-79.979-35.879-79.979-79.979v-164.021c0-44.112 35.888-80 80-80h272c44.112 0 80 35.888 80 80zm-100 180c0 11.046-8.954 20-20 20h-192c-26.536-1.056-26.516-38.953 0-40h192c11.046 0 20 8.954 20 20zm-16.094-361.348c54.703 54.705 54.703 143.716 0 198.421-7.811 7.81-20.473 7.812-28.284.001s-7.812-20.474-.001-28.284c39.108-39.109 39.108-102.745 0-141.854-7.811-7.811-7.81-20.474.001-28.284 7.81-7.809 20.473-7.811 28.284 0zm-171.528 28.284c-39.109 39.109-39.109 102.745 0 141.854 7.811 7.811 7.811 20.474 0 28.284-7.811 7.809-20.474 7.811-28.284-.001-54.705-54.705-54.705-143.716 0-198.422 19.513-18.015 46.293 8.795 28.284 28.285zm71.622 130.064c-33.084 0-60-26.916-60-60 3.296-79.598 116.716-79.575 120 0 0 33.084-26.916 60-60 60zm0-80c-11.028 0-20 8.972-20 20 1.099 26.533 38.906 26.525 40 0 0-11.028-8.972-20-20-20z"/></svg>