<svg id="Layer_1" enable-background="new 0 0 511.84 511.84" height="512" viewBox="0 0 511.84 511.84" width="512" xmlns="http://www.w3.org/2000/svg"><path d="m433.804 172.983c-.332-.08-.471-.273-.485-.308-7.995-61.943-67.797-110.133-130.137-105.399-37.149-70.456-132.615-89.057-189.724-39.129-21.029 18.004-34.995 42.851-39.323 69.963-.099.616-.497 1.115-.991 1.239-59.515 14.556-89.987 81.382-63.019 136.385-26.099 65.121 25.283 139.165 95.808 138.127h72.468v123.059c.796 19.901 29.403 19.886 30.192 0v-15.747h98.347v15.747c.796 19.901 29.403 19.886 30.192 0v-123.058h72.468c120.794-2.556 141.103-170.275 24.204-200.879zm-403.484 19.72c0-30.38 20.666-56.811 50.254-64.276 12.209-3.081 21.387-13.137 23.379-25.617 3.211-20.113 13.585-38.557 29.212-51.935 29.54-24.422 68.023-28.183 105.377-8.473 12.998 7.332 24.016 17.679 32.927 30.841-26.064 8.509-48.91 25.479-64.606 48.849-.149.223-.372.267-.391.268-39.554-14.7-86.436 7.338-99.966 47.234-29.887 1.58-55.746 11.736-75.313 32.741-.561-3.377-.873-6.643-.873-9.632zm178.274 126.471h98.347v24.687h-98.347zm0 54.794h98.347v23.464h-98.347zm0 77.205v-23.741h98.347v23.741zm201.006-107.311h-72.467v-75.318c-.796-19.902-29.403-19.886-30.192 0v20.631h-98.347v-20.631c-.796-19.902-29.403-19.886-30.192 0v75.318h-72.468c-95.979-3.965-95.916-139.812.001-143.745 12.999 0 24.668-8.247 29.037-20.52 8.293-24.478 37.081-37.995 61.338-28.988 13.166 4.679 27.833-.2 35.667-11.862 14.649-21.811 37.512-36.268 63.028-40.433 1.099-.036 2.202-.199 3.294-.482 49.565-7.121 98.578 29.558 105.142 79.161 1.802 12.31 10.931 22.182 23.256 25.147v.001c82.503 21.626 68.058 139.947-17.097 141.721z"/></svg>