<svg id="Layer_1" enable-background="new 0 0 512.003 512.003" height="512" viewBox="0 0 512.003 512.003" width="512" xmlns="http://www.w3.org/2000/svg"><g><path d="m402.031 290.179v-120.758c.401-33.465-35.084-57.246-65.799-44.233-3.832-39.121-51.849-57.033-80.257-29.929-17.563-17.229-47.896-17.225-65.455-.001-29.851-28.542-80.628-6.956-80.502 34.757v112.664c0 .054.008.106.008.159-.008.363-.028.722-.028 1.087v45.567l-8.3-16.818c-5.384-11.082-21.521-11.078-26.902 0l-19.141 38.783-42.799 6.219c-5.65.821-10.345 4.779-12.108 10.209-1.765 5.43-.293 11.391 3.796 15.377l30.97 30.187-7.312 42.625c-.965 5.627 1.348 11.315 5.967 14.671 4.62 3.355 10.741 3.8 15.797 1.142l38.281-20.125 38.279 20.125c5.039 2.651 11.168 2.222 15.797-1.142 4.619-3.356 6.933-9.043 5.968-14.671l-5.846-34.088c1.51 1.869 3.055 3.708 4.655 5.5 12.688 14.211 19.677 32.8 19.677 52.341v57.173c0 8.284 6.716 15 15 15h149.478c8.081.16 15.192-6.98 15-15.06l-.231-57.81c-.043-19.444 6.862-38 19.444-52.251 23.577-26.704 36.563-61.046 36.563-96.7zm-65.55-120.758c.979-23.587 34.58-23.567 35.55 0v73.987c0 9.399-7.646 17.045-17.046 17.045h-1.458c-9.399 0-17.046-7.646-17.046-17.045zm-47.781-57.181c9.801 0 17.774 7.974 17.774 17.775v65.055h-35.453v-65.055c0-.427-.021-.848-.032-1.272.657-9.207 8.339-16.503 17.711-16.503zm-65.454 0c9.374 0 17.057 7.298 17.711 16.509-.011.428-.032.854-.032 1.284l.078 65.037h-35.513l.078-65.055c0-.422-.021-.839-.032-1.259.65-9.214 8.335-16.516 17.71-16.516zm-65.454 0c9.379 0 17.064 7.305 17.712 16.505-.011.423-.032.844-.032 1.27v65.055h-16.619c-6.673 0-13.035 1.348-18.835 3.781v-68.836c0-9.801 7.973-17.775 17.774-17.775zm-47.713 258.507 3.506 20.442-18.357-9.651c-4.371-2.298-9.59-2.298-13.961 0l-18.358 9.651 3.507-20.442c.835-4.866-.778-9.831-4.314-13.277l-14.852-14.477 20.524-2.982c4.886-.71 9.108-3.778 11.294-8.206l9.18-18.6 9.179 18.599c2.185 4.427 6.408 7.496 11.294 8.206l19.301 2.804c.149.026.299.044.449.065l.776.113-14.852 14.477c-3.537 3.447-5.151 8.412-4.316 13.278zm86.698 111.253v-27.173h119.308l.109 27.173zm146.202-114.977c-14.289 16.184-23.287 36.313-26.044 57.804h-121.172c-2.906-21.354-11.986-41.306-26.284-57.321-3.495-3.915-6.718-8.075-9.655-12.425l12.126-11.82c4.089-3.985 5.561-9.946 3.796-15.376-1.764-5.43-6.458-9.388-12.108-10.209l-21.041-3.057c-1.718-8.033-2.598-16.218-2.598-24.439v-46.254c0-10.396 8.458-18.855 18.854-18.855h31.592.01.018.01 64.931c.204.008.404.031.61.031h.019c.201 0 .396-.023.595-.031h48.923c-1.479 12.009-4.914 21.176-10.382 27.803-9.012 10.921-24.65 16.23-47.809 16.23h-31.812c-19.9.792-19.89 29.213 0 30 12.896 0 23.389 10.492 23.389 23.389v32.905c.793 19.902 29.215 19.887 30 0v-32.905c0-8.698-2.104-16.908-5.809-24.171 23.809-2.477 41.854-10.852 54.083-25.03 8.636 10.474 21.706 17.162 36.309 17.162h1.458c6.011 0 11.757-1.146 17.046-3.21v2.935c-.003 28.336-10.321 55.626-29.055 76.844z"/><path d="m411.13 76.698-4.157 24.236c-.965 5.627 1.348 11.315 5.967 14.671 4.62 3.355 10.742 3.799 15.797 1.142l21.767-11.442 21.765 11.442c5.038 2.651 11.169 2.222 15.797-1.142 4.619-3.356 6.933-9.043 5.968-14.671l-4.156-24.236 17.608-17.165c8.875-8.544 3.884-23.891-8.313-25.585l-24.335-3.536-10.884-22.05c-5.383-11.082-21.521-11.077-26.902 0l-10.883 22.051-24.335 3.536c-12.202 1.696-17.186 17.046-8.312 25.585zm27.157-17.731c4.886-.71 9.108-3.778 11.294-8.206l.922-1.868.921 1.867c2.185 4.427 6.408 7.496 11.294 8.206l2.062.299-1.492 1.454c-3.535 3.446-5.147 8.411-4.313 13.276l.353 2.053-1.844-.969c-4.37-2.297-9.59-2.298-13.96 0l-1.845.969.353-2.053c.835-4.866-.778-9.831-4.314-13.277l-1.491-1.454z"/><path d="m499.171 417.993-29.91-4.346-13.375-27.103c-5.383-11.082-21.521-11.077-26.902 0l-13.376 27.104-29.91 4.346c-5.65.821-10.345 4.779-12.108 10.209-1.765 5.43-.293 11.391 3.796 15.376l21.643 21.097-5.109 29.789c-.965 5.627 1.349 11.315 5.968 14.671 4.618 3.355 10.739 3.799 15.797 1.142l26.752-14.064 26.751 14.064c5.039 2.651 11.168 2.222 15.797-1.142 4.619-3.356 6.933-9.043 5.968-14.671l-5.109-29.789 21.643-21.097c8.873-8.544 3.881-23.892-8.316-25.586zm-39.917 30.704c-3.536 3.446-5.149 8.411-4.314 13.277l1.305 7.605-6.829-3.59c-4.371-2.298-9.59-2.298-13.961 0l-6.83 3.591 1.305-7.606c.835-4.866-.778-9.831-4.314-13.277l-5.525-5.386 7.637-1.109c4.886-.71 9.108-3.779 11.294-8.206l3.415-6.919 3.414 6.919c2.185 4.427 6.408 7.496 11.294 8.206l7.637 1.109z"/><path d="m9.427 111.857 46.423 18.633c7.492 3.066 16.425-.568 19.508-8.333 3.085-7.688-.646-16.422-8.334-19.508l-46.423-18.632c-7.686-3.087-16.422.645-19.508 8.333-3.086 7.687.646 16.422 8.334 19.507z"/><path d="m96.944 61.753c5.69 6.036 15.186 6.301 21.203.627 6.029-5.682 6.31-15.175.627-21.204l-34.37-36.465c-5.682-6.027-15.175-6.309-21.204-.627-6.028 5.682-6.31 15.175-.627 21.204z"/></g></svg>