<svg id="Capa_1" enable-background="new 0 0 504 504" height="512" viewBox="0 0 504 504" width="512" xmlns="http://www.w3.org/2000/svg"><g><path d="m494 131.55h-102.005-41.348-20.647v-30.714c0-20.423-16.615-37.039-37.039-37.039h-85.923c-20.423 0-37.039 16.615-37.039 37.039v30.714h-22-41.348-96.651c-5.523 0-10 4.477-10 10v288.653c0 5.523 4.477 10 10 10h96.652 41.348 56.5c5.523 0 10-4.477 10-10s-4.477-10-10-10h-46.5v-268.653h61.327v30.248c0 5.523 4.477 10 10 10h41.348c5.523 0 10-4.477 10-10v-30.248h59.974v268.653h-45.649c-5.523 0-10 4.477-10 10s4.477 10 10 10h55.648 41.348 102.004c5.523 0 10-4.477 10-10v-288.653c0-5.523-4.477-10-10-10zm-10 216.02c-.076.052-.156.096-.231.151l-81.774 59.717v-241.948l81.774 59.717c.076.055.154.102.231.155zm0-146.96-67.182-49.061h67.182zm-294-99.774c0-9.395 7.644-17.039 17.039-17.039h85.923c9.395 0 17.039 7.644 17.039 17.039v30.714h-39.326-41.348-39.327zm-170 121.295 76.652-57.489v243.645l-76.652-57.49zm60.775-70.581-60.775 45.581v-45.581zm-60.775 224.247 59.207 44.405h-59.207zm118 44.406h-21.348v-268.653h21.348zm122.674-248.406h-21.348v-20.247h21.348zm99.973-20.247h21.348v268.653h-21.348zm57.781 268.653 65.572-47.885v47.885z"/><circle cx="250" cy="430.102" r="10"/></g></svg>