<svg id="Capa_1" enable-background="new 0 0 506.034 506.034" height="512" viewBox="0 0 506.034 506.034" width="512" xmlns="http://www.w3.org/2000/svg"><g><path d="m336.219 115.552h-31.535v-105.552c0-5.523-4.478-10-10-10h-83.334c-5.523 0-10 4.477-10 10v105.552h-31.536c-39.448 0-71.541 32.093-71.541 71.541v247.4c0 39.448 32.093 71.541 71.541 71.541h166.404c39.448 0 71.541-32.093 71.541-71.541v-247.4c.001-39.448-32.092-71.541-71.54-71.541zm-51.535-95.552v18.336h-63.334v-18.336zm-63.334 38.336h63.333v57.216h-63.333zm166.41 376.157c0 28.419-23.121 51.541-51.541 51.541h-166.405c-28.419 0-51.541-23.121-51.541-51.541v-247.4c0-28.419 23.121-51.541 51.541-51.541h166.404c28.42 0 51.541 23.121 51.541 51.541v247.4z"/><path d="m318.646 170.964h-131.259c-27.173 0-49.281 22.107-49.281 49.28v181.097c0 27.173 22.107 49.28 49.281 49.28h20.629c5.523 0 10-4.477 10-10s-4.477-10-10-10h-20.629c-16.146 0-29.281-13.135-29.281-29.28v-181.097c0-16.145 13.135-29.28 29.281-29.28h131.259c16.146 0 29.28 13.135 29.28 29.28v181.097c0 16.145-13.135 29.28-29.28 29.28h-20.963c-5.522 0-10 4.477-10 10s4.478 10 10 10h20.963c27.173 0 49.28-22.107 49.28-49.28v-181.097c.001-27.173-22.107-49.28-49.28-49.28z"/><path d="m209.685 265c5.523 0 10-4.477 10-10v-11.667h96.332c5.522 0 10-4.477 10-10s-4.478-10-10-10h-127.667c-5.523 0-10 4.477-10 10s4.477 10 10 10h11.335v11.667c0 5.523 4.477 10 10 10z"/><circle cx="253.138" cy="441" r="10"/></g></svg>