<svg id="Capa_1" enable-background="new 0 0 507 507" height="512" viewBox="0 0 507 507" width="512" xmlns="http://www.w3.org/2000/svg"><g><circle cx="200.542" cy="50.753" r="10"/><path d="m252.768 286.403c18.283 0 33.157-14.874 33.157-33.157s-14.874-33.157-33.157-33.157-33.157 14.874-33.157 33.157 14.873 33.157 33.157 33.157zm0-46.314c7.255 0 13.157 5.902 13.157 13.157s-5.902 13.157-13.157 13.157-13.157-5.902-13.157-13.157 5.902-13.157 13.157-13.157z"/><path d="m243.5 176.003v15.743c0 5.522 4.477 10 10 10s10-4.478 10-10v-15.743c0-5.522-4.477-10-10-10s-10 4.477-10 10z"/><path d="m253.5 304.254c-5.523 0-10 4.478-10 10v15.743c0 5.522 4.477 10 10 10s10-4.478 10-10v-15.743c0-5.523-4.477-10-10-10z"/><path d="m176.503 263h15.743c5.523 0 10-4.478 10-10s-4.477-10-10-10h-15.743c-5.523 0-10 4.478-10 10s4.477 10 10 10z"/><path d="m304.754 253c0 5.522 4.477 10 10 10h15.743c5.523 0 10-4.478 10-10s-4.477-10-10-10h-15.743c-5.523 0-10 4.478-10 10z"/><path d="m203.116 216.758c1.953 1.952 4.512 2.929 7.071 2.929s5.119-.977 7.071-2.929c3.905-3.905 3.905-10.237 0-14.143l-11.132-11.132c-3.905-3.904-10.237-3.904-14.142 0-3.905 3.905-3.905 10.237 0 14.143z"/><path d="m303.884 289.242c-3.905-3.904-10.237-3.904-14.142 0-3.905 3.905-3.905 10.237 0 14.143l11.132 11.132c1.953 1.952 4.512 2.929 7.071 2.929s5.119-.977 7.071-2.929c3.905-3.905 3.905-10.237 0-14.143z"/><path d="m203.116 289.242-11.132 11.132c-3.905 3.905-3.906 10.237 0 14.143 1.953 1.952 4.512 2.929 7.071 2.929s5.119-.977 7.071-2.929l11.132-11.132c3.905-3.905 3.906-10.237 0-14.143-3.905-3.903-10.237-3.903-14.142 0z"/><path d="m296.813 219.687c2.559 0 5.119-.977 7.071-2.929l11.132-11.132c3.905-3.905 3.906-10.237 0-14.143-3.905-3.903-10.237-3.904-14.142 0l-11.132 11.132c-3.905 3.905-3.906 10.237 0 14.143 1.953 1.952 4.511 2.929 7.071 2.929z"/><path d="m403.044 3.282c-1.896-2.09-4.586-3.282-7.407-3.282h-284.274c-2.821 0-5.512 1.192-7.407 3.282s-2.82 4.883-2.545 7.691l40 409c.501 5.121 4.807 9.026 9.953 9.026h27.136v38c0 22.056 17.944 40 40 40h74c22.056 0 40-17.944 40-40v-38h23.137c5.146 0 9.452-3.905 9.953-9.026l40-409c.274-2.808-.651-5.601-2.546-7.691zm-90.544 463.718c0 11.028-8.972 20-20 20h-74c-11.028 0-20-8.972-20-20v-38h114zm34.067-58h-186.134l-38.044-389h262.222z"/><path d="m245.542 60.753h70.916c5.523 0 10-4.478 10-10s-4.477-10-10-10h-70.916c-5.523 0-10 4.478-10 10s4.477 10 10 10z"/></g></svg>