<svg id="Capa_1" enable-background="new 0 0 458.91 458.91" height="512" viewBox="0 0 458.91 458.91" width="512" xmlns="http://www.w3.org/2000/svg"><g><ellipse cx="347.782" cy="209.811" rx="9.851" ry="9.851" transform="matrix(.987 -.16 .16 .987 -29.117 58.418)"/><path d="m457.175 204.196-66.415-97.547c-1.41-4.025-5.344-6.754-9.609-6.677-3.497-.085-6.848 1.712-8.705 4.68l-21.414 20.802c-9.195 8.932 4.648 23.372 13.936 14.346l14.547-14.132 50.488 74.156h-38.137c-5.522 0-10 4.478-10 10s4.478 10 10 10h27.74v67.213c0 28.621-23.284 51.905-51.904 51.905h-49.852c-28.62 0-51.904-23.284-51.904-51.905v-67.213h37.259c5.522 0 10-4.478 10-10s-4.478-10-10-10h-274.299l50.655-74.399 14.797 14.375c9.237 8.972 23.199-5.346 13.936-14.346l-23.333-22.667c-4.387-4.261-11.788-3.517-15.234 1.545l-67.993 99.864c-2.085 3.063-2.306 7.028-.574 10.304 1.733 3.275 5.134 5.324 8.84 5.324h10.583v67.213c0 39.648 32.256 71.905 71.905 71.905h42.885c39.648 0 71.905-32.257 71.905-71.905v-27.739h38.669v27.739c0 39.648 32.256 71.905 71.904 71.905h49.852c39.648 0 71.904-32.257 71.904-71.905v-67.213h9.303c3.705 0 7.107-2.049 8.84-5.324s1.511-7.242-.575-10.304zm-321.802 134.746h-42.885c-28.621 0-51.905-23.284-51.905-51.905v-67.213h146.694v67.213c.001 28.621-23.284 51.905-51.904 51.905zm71.905-99.645v-19.474h38.669v19.474z"/></g></svg>