<?xml version="1.0" encoding="iso-8859-1"?>
<!-- Generator: Adobe Illustrator 18.0.0, SVG Export Plug-In . SVG Version: 6.00 Build 0)  -->
<!DOCTYPE svg PUBLIC "-//W3C//DTD SVG 1.1//EN" "http://www.w3.org/Graphics/SVG/1.1/DTD/svg11.dtd">
<svg version="1.1" id="Capa_1" xmlns="http://www.w3.org/2000/svg" xmlns:xlink="http://www.w3.org/1999/xlink" x="0px" y="0px"
	 viewBox="0 0 223.847 223.847"  xml:space="preserve">
<g>
	<path d="M203.443,70.344C192.592,29.254,154.992,0,111.926,0C69.125,0,31.57,29.243,20.524,70.321
		C9.726,72.324,1.521,81.815,1.521,93.186v26.203c0,10.198,6.601,18.884,15.754,22.011v10.959c0,32.902,26.771,59.67,59.677,59.67
		h7.343c2.933,6.937,9.806,11.817,17.798,11.817h19.652c10.65,0,19.315-8.664,19.315-19.313c0-10.652-8.665-19.317-19.315-19.317
		h-19.652c-7.99,0-14.862,4.878-17.796,11.813h-7.345c-24.635,0-44.677-20.039-44.677-44.67v-17.219c0-4.142-3.358-7.5-7.5-7.5
		c-4.551,0-8.254-3.702-8.254-8.252V93.186c0-4.551,3.703-8.254,8.219-8.254l1.769,0.008c0.012,0,0.024,0,0.036,0
		c3.56,0,6.633-2.505,7.347-5.996C41.475,41.892,74.293,15,111.926,15c37.876,0,70.725,26.873,78.108,63.898
		c0.699,3.507,3.778,6.033,7.355,6.033h1.683c4.551,0,8.254,3.703,8.254,8.254v26.203c0,4.55-3.703,8.252-8.254,8.252
		c-4.142,0-7.5,3.358-7.5,7.5c0,4.142,3.358,7.5,7.5,7.5c12.822,0,23.254-10.431,23.254-23.252V93.186
		C222.325,81.857,214.182,72.395,203.443,70.344z M102.094,200.216h19.652c2.379,0,4.315,1.936,4.315,4.317
		c0,2.378-1.936,4.313-4.315,4.313h-19.652c-2.378,0-4.313-1.935-4.313-4.313C97.78,202.152,99.715,200.216,102.094,200.216z"/>
	<path d="M111.921,36.041c-38.733,0-70.245,31.509-70.245,70.238c0,38.735,31.512,70.249,70.245,70.249
		c38.733,0,70.244-31.514,70.244-70.249C182.165,67.55,150.654,36.041,111.921,36.041z M111.921,161.528
		c-30.462,0-55.245-24.785-55.245-55.249c0-30.458,24.783-55.238,55.245-55.238c30.462,0,55.244,24.78,55.244,55.238
		C167.165,136.744,142.383,161.528,111.921,161.528z"/>
</g>
<g>
</g>
<g>
</g>
<g>
</g>
<g>
</g>
<g>
</g>
<g>
</g>
<g>
</g>
<g>
</g>
<g>
</g>
<g>
</g>
<g>
</g>
<g>
</g>
<g>
</g>
<g>
</g>
<g>
</g>
</svg>
