<svg id="Capa_1" enable-background="new 0 0 508 508" height="512" viewBox="0 0 508 508" width="512" xmlns="http://www.w3.org/2000/svg"><g><path d="m498 162.076h-194.335v-57.666c0-3.676 2.991-6.667 6.667-6.667s6.666 2.991 6.666 6.667c0 5.522 4.478 10 10 10s10-4.478 10-10c0-14.704-11.963-26.667-26.667-26.667s-26.666 11.963-26.666 26.667v57.666h-70v-57.666c0-3.676 2.991-6.667 6.667-6.667s6.666 2.991 6.666 6.667c0 5.522 4.478 10 10 10s10-4.478 10-10c0-14.704-11.963-26.667-26.667-26.667s-26.666 11.963-26.666 26.667v57.666h-183.665c-5.522 0-10 4.478-10 10v248.181c0 5.522 4.478 10 10 10h198.5c5.522 0 10-4.478 10-10s-4.478-10-10-10h-188.5v-228.181h173.665v61.368c0 5.522 4.478 10 10 10s10-4.478 10-10v-21.521h70v21.521c0 5.522 4.478 10 10 10s10-4.478 10-10v-61.368h184.335v228.181h-189.249c-5.522 0-10 4.478-10 10s4.478 10 10 10h199.249c5.522 0 10-4.478 10-10v-248.181c0-5.522-4.478-10-10-10zm-214.335 39.848h-70v-19.848h70z"/><path d="m150.203 304.087c8.734 4.216 18.634 8.994 37.495 8.994s28.761-4.778 37.495-8.994c7.789-3.759 14.515-7.006 28.803-7.006s21.015 3.247 28.804 7.006c8.734 4.216 18.635 8.994 37.497 8.994s28.763-4.778 37.497-8.994c7.789-3.759 14.516-7.006 28.804-7.006 5.522 0 10-4.478 10-10s-4.478-10-10-10c-18.862 0-28.763 4.778-37.497 8.994-7.789 3.759-14.516 7.006-28.804 7.006s-21.015-3.247-28.804-7.006c-8.734-4.216-18.635-8.994-37.497-8.994s-28.762 4.778-37.496 8.994c-7.788 3.76-14.515 7.006-28.802 7.006s-21.014-3.247-28.802-7.006c-8.734-4.216-18.634-8.994-37.494-8.994-5.522 0-10 4.478-10 10s4.478 10 10 10c14.286 0 21.013 3.246 28.801 7.006z"/><path d="m72.333 354.579c0 5.522 4.478 10 10 10 19.654 0 29.256 3.58 39.422 7.37 10.85 4.045 23.147 8.63 46.408 8.63 23.262 0 35.56-4.585 46.409-8.63 10.166-3.79 19.769-7.37 39.423-7.37 19.655 0 29.258 3.58 39.425 7.37 10.851 4.045 23.148 8.63 46.411 8.63s35.561-4.585 46.411-8.63c10.167-3.79 19.77-7.37 39.425-7.37 5.522 0 10-4.478 10-10s-4.478-10-10-10c-23.263 0-35.561 4.585-46.411 8.63-10.167 3.79-19.77 7.37-39.425 7.37s-29.258-3.58-39.425-7.37c-10.851-4.045-23.148-8.63-46.411-8.63-23.262 0-35.56 4.585-46.409 8.63-10.166 3.79-19.769 7.37-39.423 7.37s-29.256-3.58-39.422-7.37c-10.85-4.045-23.147-8.63-46.408-8.63-5.522 0-10 4.478-10 10z"/><circle cx="254" cy="420" r="10"/></g></svg>