<svg id="Capa_1" enable-background="new 0 0 500.814 500.814" height="512" viewBox="0 0 500.814 500.814" width="512" xmlns="http://www.w3.org/2000/svg"><g><path d="m405.977 140.511c2.193-5.17-.451-11.306-5.7-13.27-13.335-4.991-30.383-19.919-35.87-62.69-3.525-27.478-.41-53.045-.38-53.294.801-6.35-4.366-11.232-10.466-11.252-3.17-.01-6.34 0-9.51 0-8.203 0-16.407 0-24.611 0-1.833 0-3.607.193-5.285 1.016-3.394 1.665-5.602 5.203-5.602 8.984 0 32.738-7.59 56.302-22.559 70.037-15.646 14.358-34.134 12.944-34.849 12.884-.29-.029-.581-.046-.873-.049-29.043-.353-54.537-37.084-58.039-83.622-.413-5.494-5.08-9.229-10.409-9.25-3.079-.012-6.159 0-9.239 0-8.245 0-16.491 0-24.736 0-1.666 0-3.286.086-4.866.721-4.164 1.674-6.754 6.07-6.197 10.525.031.255 3.146 25.822-.379 53.3-5.487 42.771-22.535 57.699-35.87 62.69-5.249 1.964-7.893 8.1-5.7 13.27l44.173 104.159c3.716 8.764 3.976 18.968.712 27.997l-39.751 109.953c-2.347 6.49 2.763 13.662 9.704 13.395.237-.003 24.08-.58 48.285 10.953 31.743 15.126 48.519 43.446 49.86 84.176.177 5.392 4.6 9.671 9.994 9.671h65.184c5.395 0 9.817-4.279 9.994-9.671 1.333-40.459 17.903-68.682 49.252-83.883 24.201-11.737 48.676-11.243 48.894-11.246 6.941.274 12.05-6.907 9.704-13.395l-39.75-109.952c-3.264-9.029-3.004-19.233.711-27.996zm-63.693 138.955 35.193 97.35c-10.987 1.243-26.991 4.359-43.228 12.096-25.368 12.089-55.719 37.775-60.651 91.902h-46.383c-4.933-54.127-35.283-79.813-60.651-91.902-16.236-7.736-32.24-10.853-43.228-12.096l35.193-97.35c4.959-13.719 4.556-29.247-1.107-42.604l-40.444-95.366c42.178-24.683 42.353-94.029 40.643-121.491h15.626c7.004 52.948 38.777 92.174 76.438 92.865 4.003.282 28.57 1.153 49.479-17.771 17.787-16.099 27.576-41.329 29.159-75.094h14.87c-1.71 27.462-1.535 96.809 40.643 121.491l-40.445 95.367c-5.663 13.356-6.066 28.885-1.107 42.603z"/><path d="m325.76 310.369-17.031-47.108c-1.877-5.193-7.606-7.885-12.805-6.004-5.193 1.878-7.882 7.61-6.004 12.805l17.031 47.108c1.472 4.071 5.312 6.603 9.405 6.603 1.128 0 2.276-.192 3.399-.599 5.194-1.879 7.882-7.611 6.005-12.805z"/><circle cx="333.657" cy="355.314" r="10"/></g></svg>