<svg id="Capa_1" enable-background="new 0 0 506.411 506.411" height="512" viewBox="0 0 506.411 506.411" width="512" xmlns="http://www.w3.org/2000/svg"><g><path d="m505.709 361.457-33.671-85.266c-2.932-7.424-13.361-8.46-17.698-1.756-3.215 4.969 2.814 18.519 3.558 20.402-2.627.355-5.283.545-7.957.545-32.497 0-58.936-26.438-58.936-58.936 0-19.23 9.489-37.141 24.852-48.073l4.297 10.881c2.029 5.137 7.837 7.659 12.974 5.628 5.137-2.028 7.657-7.837 5.628-12.974l-49.646-125.721c-1.727-4.372-6.198-6.854-10.661-6.236-40.852 3.861-82.368 5.848-123.395 5.905-42.279.035-85.024-1.929-127.092-5.905-4.468-.62-8.935 1.863-10.661 6.236l-78.024 197.574-38.575 97.696c-1.902 4.816.194 10.222 4.696 12.55.3.155.611.297.932.424l97.183 38.386c.002.001.005.001.007.002l83.707 33.052c5.07 2.004 10.973-.562 12.974-5.628l53.006-134.228 53.006 134.228c1.999 5.059 7.904 7.631 12.975 5.628l86.614-34.206 32.611-12.877c.014-.006.027-.013.042-.019l61.628-24.339c5.135-2.027 7.655-7.836 5.626-12.973zm-372.562-280.946c40.417 3.603 81.371 5.423 121.935 5.345 39.28-.055 79-1.853 118.181-5.345l12.098 30.638c-43.742 4.558-88.076 6.872-131.983 6.872-.427 0-.854-.001-1.281-.001-43.585-.044-87.607-2.37-131.035-6.908zm-29.144 310.991-81.026-32 32.184-81.5c16.036 2.106 30.833 9.529 42.234 21.309 13.057 13.491 20.248 31.262 20.248 50.036-.001 15.214-4.803 29.943-13.64 42.155zm264.279 13.475c-.371-1.868-6.384-25.764 16.423-34.887 18.75-7.5 31.702 5.442 36.906 13.827l-29.866 11.795zm72.101-28.473c-8.325-15.925-35.297-32.977-63.553-21.414-37.875 15.5-28.484 53.044-27.308 57.297l-28.381 11.208-58.634-148.479c-1.507-3.818-5.196-6.327-9.301-6.327s-7.793 2.509-9.301 6.327l-58.635 148.481-62.221-24.573c9.468-14.735 14.593-31.944 14.593-49.677 0-23.994-9.189-46.703-25.876-63.944-13.401-13.846-30.48-22.971-49.086-26.441l50.763-128.549c42.469 4.624 85.54 7.161 128.275 7.551-5.954 15.791-12.71 41.427-3.529 60.575 9.033 18.841-.747 35.409-1.129 36.044-2.694 4.31-1.645 10.123 2.38 13.223 4.619 3.557 11.495 2.312 14.58-2.623.664-1.062 16.088-26.331 2.204-55.29-6.315-13.17.356-35.611 5.897-49.096 7.659 3.033 19.319 9.171 25.982 20.107 5.88 9.651 6.937 21.687 3.139 35.772-7.128 26.437-6.548 47.278 1.733 60.237 7.981 12.49 21.255 13.58 21.827 13.58 4.767 0 8.989-3.422 9.839-8.278.952-5.44-2.687-10.622-8.127-11.574-2.975-.521-5.031-1.899-6.669-4.472-4.942-7.759-4.677-24.314.708-44.286 5.28-19.584 3.473-36.872-5.37-51.386-3.119-5.12-6.886-9.457-10.904-13.136 32.977-1.049 66.016-3.359 98.706-6.909l15.367 38.917c-22.949 14.271-37.346 39.671-37.346 67.08 0 43.525 35.41 78.936 78.936 78.936 5.22 0 10.394-.512 15.469-1.523l18.024 45.642z"/><path d="m167.51 161.244c-27.087 0-49.124 22.036-49.124 49.123s22.037 49.124 49.124 49.124 49.124-22.037 49.124-49.124-22.037-49.123-49.124-49.123zm0 78.247c-16.059 0-29.124-13.065-29.124-29.124s13.065-29.123 29.124-29.123 29.124 13.064 29.124 29.123-13.065 29.124-29.124 29.124z"/><circle cx="446.455" cy="237.465" r="10"/></g></svg>