<svg id="Layer_1" enable-background="new 0 0 511.894 511.894" height="512" viewBox="0 0 511.894 511.894" width="512" xmlns="http://www.w3.org/2000/svg"><path d="m511.169 78.107c-1.719-5.329-6.262-9.256-11.783-10.187l-28.095-4.734 14.876-14.876c5.858-5.858 5.858-15.355 0-21.213-5.857-5.858-15.355-5.858-21.213 0l-15.334 15.335-5.654-30.154c-1.024-5.462-4.985-9.911-10.292-11.56-5.312-1.651-11.093-.228-15.031 3.691l-49.831 49.583c-3.202 3.186-4.798 7.646-4.344 12.139l4.102 40.645c-86.418-71.555-224.178-64.061-302.237 17.147-75.856 73.127-88.206 199.514-29.004 285.98v86.714c0 8.284 6.716 15 15 15h42.607c1.887 0 3.756-.356 5.51-1.049l39.842-15.735c53.905 22.701 119.683 22.691 173.58-.027l39.909 15.762c1.754.693 3.623 1.049 5.51 1.049h42.607c8.284 0 15-6.716 15-15v-86.919c54.074-79.155 48.71-194.089-12.891-267.712l45.344 2.835c4.299.274 8.56-1.341 11.602-4.424l46.611-47.138c3.936-3.981 5.328-9.823 3.609-15.152zm-419.088 403.51h-24.753v-35.301c11.626 11.488 24.27 21.577 37.733 30.174zm270.06 0-13.064-5.159c13.496-8.623 26.169-18.744 37.817-30.272v35.431zm-135.097.296c-108.78 0-197.28-88.5-197.28-197.28-.682-167.713 200.15-258.842 325.455-149.841l-20.322 20.401c-107.494-91.109-277.04-12.797-276.417 129.442-.001 92.945 75.617 168.563 168.563 168.563 142.501.596 220.706-169.428 129.097-276.823l20.329-20.408c109.616 125.231 18.556 326.624-149.425 325.946zm79.264-197.28c-4.354 105.151-154.188 105.125-158.527-.001-.371-63.109 71.997-101.203 123.597-65.673l-23.646 23.738c-47.343-22.47-90.541 36.764-53.759 75.007 9.118 9.118 21.094 13.677 33.072 13.677 34.405.376 57.326-37.073 41.912-67.483l23.656-23.748c8.637 12.692 13.695 28.007 13.695 44.483zm-67.405-11.859c15.08 16.381-7.339 38.798-23.718 23.718-6.539-6.539-6.539-17.179 0-23.718 6.54-6.539 17.179-6.538 23.718 0zm53.911-75.334c-70.513-54.183-175.502-2.483-175.032 87.194-.001 60.247 49.014 109.262 109.262 109.262 89.82.455 141.473-104.798 87.011-175.271l20.823-20.904c72.81 88.755 8.005 226.019-107.835 225.476-76.403.001-138.563-62.159-138.563-138.564-.534-115.647 136.33-180.523 225.153-108.093zm151.597-82.986-45.2-2.826-4.179-41.406 24.673-24.549 5.67 30.238c1.024 5.423 5.492 10.953 12.251 12.027l28.292 4.767z"/></svg>