<svg id="Layer_1" enable-background="new 0 0 511.926 511.926" height="512" viewBox="0 0 511.926 511.926" width="512" xmlns="http://www.w3.org/2000/svg"><g><path d="m494.017 320.982c-18.349-13.625-43.864-11.222-59.349 5.587l-40.567 44.035c-.002.002-.004.004-.006.006l-7.39 7.975c3.182-26.743-18.338-50.878-45.291-50.701h-62.659c-10.324.307-30.605-12.059-40.633-15.923-39.108-16.988-85.467-9.491-118.102 19.096l-17.725 15.527-64.894-.549c-9.925-.069-19.353 3.766-26.426 10.791-7.071 7.024-10.965 16.382-10.965 26.35v73.178c0 20.481 16.662 37.144 37.144 37.144h336.841c24.302 0 46.977-10.847 62.226-29.763l65.512-79.419c15.964-18.804 12.298-48.914-7.716-63.334zm-15.428 44.243-65.57 79.491c-.039.048-.079.096-.117.145-9.526 11.844-23.707 18.637-38.907 18.637h-336.842c-3.938 0-7.144-3.205-7.144-7.144v-73.178c0-2.586 1.321-4.285 2.109-5.068.774-.781 2.535-2.102 5.056-2.076l70.58.597c3.657.055 7.243-1.292 10.011-3.716l22.022-19.292c23.953-20.982 57.859-26.537 86.382-14.146 14.859 6.29 35.357 19.093 52.585 18.407h62.659c8.59 0 15.578 6.989 15.578 15.579s-6.988 15.579-15.578 15.579h-121.892c-19.85.766-19.935 29.195 0 30h164.044c4.177 0 8.163-1.741 11.002-4.804l13.606-14.682c.165-.163.337-.314.495-.486l48.063-52.172c5.063-5.495 13.404-6.279 19.401-1.826 3.113 2.311 5.085 5.703 5.554 9.551.47 3.847-.63 7.613-3.097 10.604z"/><path d="m469.359 185.466c7.869-10.726 12.53-23.946 12.53-38.239-.004-9.128.029-25.909 0-35.191 0-29.027-23.615-52.642-52.642-52.642h-24.305c-29.026 0-52.642 23.615-52.642 52.642v35.191c0 14.293 4.661 27.513 12.53 38.239-10.114 3.49-19.079 9.468-26.135 17.221-7.595-9.618-17.92-16.977-29.803-20.896 8.026-10.896 12.782-24.343 12.782-38.884 0-8.639 0-27.105 0-35.84 0-29.41-23.927-53.336-53.336-53.336h-24.753c-29.409 0-53.336 23.926-53.336 53.336v35.84c0 14.541 4.755 27.988 12.781 38.884-11.883 3.92-22.208 11.278-29.804 20.897-7.056-7.754-16.021-13.732-26.135-17.221 7.869-10.726 12.53-23.946 12.53-38.239-.004-9.128.029-25.909 0-35.191 0-12.896-4.669-24.718-12.396-33.881.128-1.677.143-3.379.139-5.304l-.001-.956c0-29.195-23.747-53.179-52.937-53.465-14.142-.11-27.555 5.37-37.776 15.509-10.33 10.249-16.242 24.415-16.217 38.866.004 2.578.058 4.924.384 7.36-6.756 8.853-10.78 19.898-10.78 31.869v35.191c0 14.293 4.661 27.513 12.53 38.239-24.74 8.537-42.567 32.039-42.567 59.642v4.057c0 8.284 6.716 15 15 15h481.926c8.284 0 15-6.716 15-15v-4.057c0-27.603-17.827-51.105-42.567-59.641zm-87.057-38.239v-7.271h69.588v7.271c-1.917 46.171-67.689 46.135-69.588 0zm22.641-57.833h24.305c11.783 0 21.488 9.049 22.542 20.562h-69.389c1.054-11.513 10.759-20.562 22.542-20.562zm-184.692 53.512v-14.173l71.425 12.685v1.488c-1.967 47.389-69.475 47.353-71.425 0zm23.336-59.176h24.753c12.867 0 23.336 10.468 23.336 23.336v3.882l-69.809-12.398c3.41-8.667 11.857-14.82 21.72-14.82zm-183.551 63.497v-7.271h69.588v7.271c-1.917 46.171-67.688 46.135-69.588 0zm69.489-37.271h-69.39c1.054-11.513 10.759-20.562 22.542-20.562h24.305c11.783 0 21.489 9.049 22.543 20.562zm-35.388-61.528c8.43.083 15.824 4.671 19.895 11.451-2.308-.311-4.658-.486-7.05-.486h-24.304c-2.972 0-5.883.26-8.723.736 1.06-1.771 2.341-3.419 3.825-4.891 4.487-4.45 10.324-6.87 16.357-6.81zm-62.278 185.736c4.528-12.882 16.816-22.143 31.227-22.143h63.488c14.41 0 26.698 9.261 31.227 22.143zm158.668 0c3.421-14.623 16.569-25.545 32.22-25.545h66.433c15.65 0 28.798 10.922 32.219 25.545zm163.598 0c4.528-12.882 16.816-22.143 31.227-22.143h63.488c14.41 0 26.698 9.261 31.227 22.143z"/></g></svg>