<svg id="Layer_1" enable-background="new 0 0 511.994 511.994" height="512" viewBox="0 0 511.994 511.994" width="512" xmlns="http://www.w3.org/2000/svg"><path d="m496.932 407.262-.075-.075c-.017-.017-.034-.035-.052-.052l-24.028-24.049c-9.543-9.552-21.6-15.666-34.676-17.75 10.996-22.92 5.981-52.274-12.343-70.087l-39.2-39.235 39.064-39.099c18.987-19.005 23.036-47.376 12.166-70.386 12.678-2.047 24.852-7.935 34.605-17.698l24.155-24.176c20.083-20.101 20.083-52.808 0-72.909l-16.68-16.696c-19.173-20.001-53.672-20-72.844 0l-24.154 24.177c-9.513 9.52-15.611 21.542-17.712 34.581-22.941-11.158-52.429-6.179-70.292 12.234l-39.064 39.099-39.063-39.099c-17.86-18.413-47.355-23.392-70.292-12.234-2.066-12.82-8.006-24.649-17.247-34.092-.882-.954-24.005-24.026-24.619-24.665-19.172-20.001-53.672-20-72.843 0l-16.682 16.697c-19.889 19.907-20.068 52.171-.562 72.317.634.716 23.747 23.771 24.717 24.769 9.783 9.793 22.001 15.688 34.721 17.717-10.712 22.962-6.616 51.189 12.298 70.12l39.063 39.098c-.078.079-39.07 39.104-39.141 39.177-18.789 19.086-22.757 47.448-11.957 70.404-13.047 2.096-25.077 8.203-34.601 17.737-6.638 6.641-17.277 17.212-24.155 24.175-20.083 20.101-20.083 52.808-.001 72.909l16.682 16.697c19.172 20 53.673 20.001 72.843 0l24.155-24.176c9.513-9.52 15.611-21.542 17.712-34.581 22.941 11.158 52.429 6.179 70.292-12.234l39.063-39.098 39.063 39.098c18.856 18.824 46.932 23.187 70.323 12.178 2.045 12.69 7.927 24.874 17.681 34.637l24.155 24.176c10.041 10.05 23.232 15.076 36.421 15.076 13.19 0 26.381-5.026 36.422-15.076l16.682-16.697c20.083-20.101 20.083-52.808 0-72.909zm-37.781 4.564c-28.982 12.323-45.964 27.193-55.621 38.736-12.101-13.081-11.808-33.573.893-46.286h.001c12.42-12.956 34.764-12.955 47.184 0zm-55.11-304.183c-12.944-12.431-12.943-34.797 0-47.227l2.308-2.31 47.185 47.226-2.309 2.311c-13.009 13.02-34.174 13.021-47.184 0zm39.405-77.726c5.761 0 11.177 2.246 15.251 6.323l16.682 16.697c8.409 8.417 8.409 22.112 0 30.53l-.675.676-47.185-47.227.676-.677c4.073-4.077 9.49-6.322 15.251-6.322zm-127.409 77.314c11.91-12.424 33.341-12.424 45.251 0l43.165 43.204c12.475 12.487 12.475 32.805 0 45.292l-39.064 39.098-11.344-11.355c8.337-8.646 12.871-20.02 12.786-32.126-.086-12.304-4.944-23.895-13.678-32.635-17.89-17.905-46.738-18.24-64.702-.893l-11.478-11.489zm.71 187.247c1.421 5.191 5.513 9.221 10.723 10.557 12.06 2.9 16.837 18.732 7.975 27.368-8.636 8.879-24.452 4.075-27.343-7.982-1.334-5.214-5.36-9.31-10.547-10.732-5.185-1.421-10.736.051-14.539 3.857l-26.831 26.854-27.739-27.764c-4.202-4.215-10.516-5.508-15.986-3.379-5.528 2.14-9.273 7.343-9.552 13.269-.186 3.96-1.812 7.664-4.578 10.433-6.241 6.249-16.539 6.11-22.953-.31s-6.553-16.726-.311-22.974c2.767-2.768 6.467-4.396 10.422-4.582 5.92-.278 11.119-4.027 13.259-9.56 2.139-5.532.815-11.807-3.376-16.002l-27.74-27.765 27.348-27.372c8.386-8.265 4.03-22.924-7.508-25.258-3.164-.665-6.058-2.241-8.372-4.556-6.414-6.42-6.552-16.726-.31-22.975 2.969-2.971 6.939-4.603 11.19-4.603h.117c7.614-.076 14.738 5.816 16.197 13.291 1.129 5.383 5.113 9.714 10.381 11.283 5.265 1.566 10.969.124 14.855-3.766l24.272-24.293 24.511 24.533c3.701 3.704 9.065 5.203 14.147 3.959 5.083-1.247 9.147-5.059 10.718-10.055.763-2.428 2.059-4.569 3.853-6.364 6.242-6.249 16.54-6.109 22.954.311 3.135 3.137 4.878 7.276 4.909 11.655.133 6.831-4.446 13.197-10.956 15.174-4.992 1.572-8.802 5.638-10.047 10.726-1.247 5.087.253 10.457 3.954 14.161l24.511 24.534-23.754 23.775c-3.803 3.805-5.274 9.361-3.854 14.552zm-280.521-241.541 16.683-16.697c8.027-8.375 22.473-8.374 30.5 0l9.188 9.196-61.601 29.459c-2.426-7.479-.695-16.026 5.23-21.958zm14.967 45.511 62.386-29.835c6.7 12.497 4.22 29.104-6.015 39.031-13.009 13.022-34.175 13.021-47.184 0zm56.207 51.739 42.918-42.957c11.911-12.424 33.341-12.424 45.251 0l39.061 39.096-10.095 10.105c-.524-.58-1.065-1.149-1.621-1.706-8.733-8.741-20.314-13.604-32.606-13.69-40.996-.416-61.415 49.834-32.378 78.733.556.557 1.124 1.097 1.704 1.623l-13.172 13.184-39.062-39.095c-12.476-12.487-12.476-32.805 0-45.293zm-23.044 244.308c29.637.036 44.5 36.046 23.591 57.007l-3.521 3.524-47.184-47.226 3.521-3.524c6.303-6.307 14.681-9.781 23.593-9.781zm-31.065 81.184-16.681-16.697c-8.228-8.236-8.383-21.511-.51-29.965l47.131 47.172c-8.097 7.892-22.106 7.66-29.94-.51zm142.66-70.991c-11.91 12.424-33.341 12.424-45.251 0l-43.165-43.203c-12.445-12.457-12.482-32.845-.093-45.471l39.02-39.056 11.725 11.736c-21.756 16.689-23.642 49.722-3.983 69.143 8.733 8.742 20.314 13.604 32.606 13.69 12.354.09 23.986-4.665 32.688-13.38 1.359-1.359 2.622-2.795 3.786-4.297l11.728 11.739zm143.094 9.38c-8.547 0-16.583-3.331-22.626-9.38l-39.063-39.098 13.141-13.153c17.87 18.867 47.942 19.409 66.118 1.156 17.916-17.932 17.778-47.251-.31-65.354-.279-.279-.559-.554-.845-.825l10.065-10.073 39.063 39.099c12.413 11.921 12.413 33.371 0 45.292l-42.918 42.957c-6.043 6.048-14.079 9.379-22.625 9.379zm136.717 44.913-16.682 16.697c-8.41 8.417-22.094 8.416-30.502 0l-3.776-3.78c6.957-9.017 22.794-24.326 55.699-36.286 3.14 7.793 1.561 17.063-4.739 23.369z"/></svg>