<?xml version="1.0" encoding="iso-8859-1"?>
<!-- Generator: Adobe Illustrator 19.0.0, SVG Export Plug-In . SVG Version: 6.00 Build 0)  -->
<svg version="1.1" id="Layer_1" xmlns="http://www.w3.org/2000/svg" xmlns:xlink="http://www.w3.org/1999/xlink" x="0px" y="0px"
	 viewBox="0 0 492.288 492.288" enable-background="new 0 0 492.288 492.288;" xml:space="preserve">
<g>
	<g>
		<path d="M479.966,209.127c-46.471-46.481-151.26-63.038-233.817-63.038c-82.567,0-187.346,16.558-233.827,63.038
			c-23.846,23.841-6.404,111.889-2.663,129.293c0.971,4.539,4.981,7.779,9.625,7.779h126.625c2.875,0,5.606-1.26,7.471-3.442
			c1.875-2.183,2.702-5.067,2.26-7.913c-4.615-29.788-5.423-60.798-1.75-66.337c14.356-19.885,50.567-32.731,92.26-32.731h0.01
			c41.673,0,77.875,12.846,92.231,32.731c3.683,5.567,2.875,36.558-1.74,66.337c-0.442,2.846,0.385,5.731,2.26,7.913
			c1.865,2.183,4.596,3.442,7.471,3.442h126.625c4.644,0,8.654-3.24,9.625-7.779C486.37,321.017,503.812,232.969,479.966,209.127z
			 M27.322,326.507c-2.3-11.786-4.159-24.023-5.475-35.827h110.041c0.1,12.293,1.344,25.394,2.684,35.827H27.322z M464.966,326.507
			h-107.25c1.34-10.434,2.584-23.534,2.684-35.827h110.035C469.121,302.483,467.263,314.72,464.966,326.507z M472.12,270.988
			H359.174c-0.944-5.798-2.449-10.725-4.814-14c-21.76-30.159-70.163-40.904-108.202-40.904h-0.01
			c-38.048,0-86.452,10.745-108.221,40.904c-2.365,3.273-3.87,8.201-4.814,14H20.162c-1.313-23.222,0.252-42.103,6.083-47.938
			c34.798-34.788,121.106-57.269,219.904-57.269c98.788,0,185.106,22.481,219.894,57.269
			C471.87,228.88,473.431,247.762,472.12,270.988z"/>
	</g>
</g>
<g>
</g>
<g>
</g>
<g>
</g>
<g>
</g>
<g>
</g>
<g>
</g>
<g>
</g>
<g>
</g>
<g>
</g>
<g>
</g>
<g>
</g>
<g>
</g>
<g>
</g>
<g>
</g>
<g>
</g>
</svg>
