<?xml version="1.0" encoding="iso-8859-1"?>
<!-- Generator: Adobe Illustrator 19.0.0, SVG Export Plug-In . SVG Version: 6.00 Build 0)  -->
<svg version="1.1" id="Layer_1" xmlns="http://www.w3.org/2000/svg" xmlns:xlink="http://www.w3.org/1999/xlink" x="0px" y="0px"
	 viewBox="0 0 492.308 492.308" enable-background="new 0 0 492.308 492.308;" xml:space="preserve">
<g>
	<g>
		<path d="M452.923,23.014H39.385C17.663,23.014,0,40.678,0,62.399v290.212c0,21.721,17.664,39.385,39.385,39.385h132.039
			l-16.395,57.606h-44.98v19.692h39.375h193.462h39.365v-19.692h-44.972l-16.401-57.606h132.047
			c21.721,0,39.385-17.663,39.385-39.385V62.399C492.308,40.678,474.644,23.014,452.923,23.014z M175.5,449.601l16.394-57.606
			h108.51l16.404,57.606H175.5z M472.615,352.611c0,10.856-8.837,19.692-19.692,19.692H315.269h-138.24H39.385
			c-10.856,0-19.692-8.837-19.692-19.692V62.399c0-10.856,8.837-19.692,19.692-19.692h413.538c10.856,0,19.692,8.837,19.692,19.692
			V352.611z"/>
	</g>
</g>
<g>
	<g>
		<path d="M59.077,82.091v250.827h374.154V82.091H59.077z M413.538,313.226H78.769V101.784h334.769V313.226z"/>
	</g>
</g>
<g>
</g>
<g>
</g>
<g>
</g>
<g>
</g>
<g>
</g>
<g>
</g>
<g>
</g>
<g>
</g>
<g>
</g>
<g>
</g>
<g>
</g>
<g>
</g>
<g>
</g>
<g>
</g>
<g>
</g>
</svg>
