<svg id="Layer_1" enable-background="new 0 0 512.125 512.125" height="512" viewBox="0 0 512.125 512.125" width="512" xmlns="http://www.w3.org/2000/svg"><path d="m330.968 512.125c-205.193-1.541-445.585-300.526-269.925-476.33 6.241-6.344 12.847-12.447 19.634-18.141 14.353-12.041 32.538-18.251 51.194-17.487 18.731.767 36.343 8.499 49.591 21.77.086.086.172.174.257.262l33.836 35.161c36.618 35.83 23.641 100.444-24.099 119.141-14.779 6.028-24.207 11.381-26.726 13.192-18.632 18.985-30.493 49.833 39.198 119.645 22.615 22.654 56.11 52.771 85.766 52.771 12.031 0 23.074-5.091 33.734-15.558 1.387-2.033 6.178-10.195 12.357-25.591 18.506-48.067 83.246-61.43 119.208-24.557l34.753 33.631c.083.08.165.161.246.242 13.195 13.218 20.916 30.781 21.74 49.454.824 18.661-5.312 36.836-17.275 51.177-5.308 6.362-10.977 12.572-16.852 18.457-41.385 41.457-91.486 62.76-146.637 62.761zm-202.148-472.072c-7.906 0-15.859 2.729-22.435 8.245-5.815 4.879-11.478 10.11-16.83 15.55-93.645 95.114-42.176 225.036 47.795 313.985 89.161 88.712 218.43 137.217 311.948 43.27 5.037-5.046 9.896-10.369 14.445-15.821 11.544-13.837 10.696-33.86-1.95-46.638l-34.732-33.612c-.083-.08-.165-.161-.246-.242-7.96-7.974-18.851-11.257-29.874-9.005-11.059 2.257-19.818 9.575-24.033 20.076-2.796 6.964-12.543 30.314-20.582 38.367-18.469 18.5-39.541 27.88-62.631 27.88-44.029 0-84.091-34.476-114.075-64.511-45.495-43.648-98.076-118.077-38.704-176.664 8.416-8.431 32.311-18.565 39.434-21.47 10.347-4.22 17.558-12.953 19.783-23.958 2.242-11.09-1.046-22.032-9.022-30.022-.086-.086-.172-.174-.257-.262l-33.815-35.14c-6.708-6.658-15.434-10.028-24.219-10.028zm363.067 199.053c-10.234 0-18.959-7.815-19.896-18.206-8.67-96.198-84.782-172.31-180.979-180.979-11.001-.991-19.115-10.713-18.124-21.714.99-11.002 10.719-19.117 21.714-18.124 112.478 8.41 208.816 104.75 217.227 217.226.992 11.001-7.123 20.723-18.124 21.714-.61.056-1.217.083-1.818.083zm-155.822-.03c10.479-3.496 16.139-14.823 12.643-25.302-7.845-23.514-26.251-42.402-49.236-50.527-10.412-3.682-21.841 1.777-25.521 12.192-3.682 10.414 1.777 21.841 12.191 25.522 11.446 4.046 20.651 13.568 24.623 25.472 2.795 8.378 10.597 13.676 18.969 13.676 2.097.001 4.232-.332 6.331-1.033zm78.574-.173c10.935-1.564 18.53-11.696 16.967-22.631-10.019-70.037-65.93-125.948-135.967-135.967-26.394-2.707-31.787 34.787-5.664 39.597 52.557 7.518 94.515 49.476 102.033 102.033 1.427 9.975 9.982 17.17 19.773 17.17.943.002 1.898-.065 2.858-.202z"/></svg>