<svg id="Capa_1" enable-background="new 0 0 503.797 503.797" height="512" viewBox="0 0 503.797 503.797" width="512" xmlns="http://www.w3.org/2000/svg"><g><path d="m463.797 122.648h-166.566c-5.522 0-10 4.477-10 10s4.478 10 10 10h166.565c11.028 0 20 8.972 20 20v179c0 11.028-8.972 20-20 20h-423.796c-11.028 0-20-8.972-20-20v-179c0-11.028 8.972-20 20-20h166.231c5.522 0 10-4.477 10-10s-4.478-10-10-10h-166.231c-22.056 0-40 17.944-40 40v179c0 22.056 17.944 40 40 40h423.797c22.056 0 40-17.944 40-40v-179c0-22.056-17.944-40-40-40z"/><path d="m113.398 182.399h-48.49c-5.522 0-10 4.477-10 10s4.478 10 10 10h48.49c5.522 0 10-4.477 10-10s-4.477-10-10-10z"/><path d="m113.398 221.898h-48.49c-5.522 0-10 4.477-10 10s4.478 10 10 10h48.49c5.522 0 10-4.477 10-10s-4.477-10-10-10z"/><path d="m113.398 261.898h-48.49c-5.522 0-10 4.477-10 10s4.478 10 10 10h48.49c5.522 0 10-4.477 10-10s-4.477-10-10-10z"/><path d="m113.398 301.897h-48.49c-5.522 0-10 4.477-10 10s4.478 10 10 10h48.49c5.522 0 10-4.477 10-10s-4.477-10-10-10z"/><path d="m170.3 252.148c0 44.994 36.605 81.599 81.599 81.599s81.599-36.605 81.599-81.599-36.605-81.599-81.599-81.599-81.599 36.605-81.599 81.599zm100.004 0c0 40.013-13.063 61.599-18.405 61.599s-18.405-21.586-18.405-61.599 13.063-61.599 18.405-61.599 18.405 21.586 18.405 61.599zm-80.004 0c0-23.314 13.02-43.642 32.169-54.101-5.939 15.094-8.976 34.653-8.976 54.101s3.036 39.007 8.976 54.101c-19.149-10.459-32.169-30.787-32.169-54.101zm123.197 0c0 23.314-13.02 43.642-32.169 54.101 5.939-15.094 8.976-34.653 8.976-54.101s-3.036-39.007-8.976-54.101c19.149 10.459 32.169 30.788 32.169 54.101z"/><path d="m407.731 211.147c5.522 0 10-4.477 10-10v-22.5c0-5.523-4.478-10-10-10s-10 4.477-10 10v22.5c0 5.523 4.478 10 10 10z"/><path d="m397.731 263.399c0 5.523 4.478 10 10 10s10-4.477 10-10v-22.5c0-5.523-4.478-10-10-10s-10 4.477-10 10z"/><path d="m397.731 325.649c0 5.523 4.478 10 10 10s10-4.477 10-10v-22.5c0-5.523-4.478-10-10-10s-10 4.477-10 10z"/><circle cx="251.898" cy="132.148" r="10"/></g></svg>