<svg id="Layer_1" enable-background="new 0 0 512 512" height="512" viewBox="0 0 512 512" width="512" xmlns="http://www.w3.org/2000/svg"><path d="m392 456h-192c-66.168 0-120-53.832-120-120v-180c1.056-26.536 38.953-26.516 40 0v180c0 44.112 35.888 80 80 80h192c44.112 0 80-35.888 80-80v-188.586c0-21.67-8.523-41.959-24.001-57.132-7.888-7.732-8.014-20.396-.281-28.283 7.735-7.889 20.396-8.012 28.283-.281 23.214 22.758 35.999 53.192 35.999 85.696v188.586c0 66.168-53.832 120-120 120zm-327.719-5.999c7.732-7.888 7.607-20.55-.281-28.283-15.477-15.173-24-35.463-24-57.132v-188.586c0-44.112 35.888-80 80-80h192c44.112 0 80 35.888 80 80v180c1.056 26.536 38.953 26.516 40 0v-180c0-66.168-53.832-120-120-120h-192c-66.168 0-120 53.832-120 120v188.586c0 32.504 12.785 62.938 35.999 85.696 3.893 3.815 8.947 5.718 14 5.718 5.184 0 10.366-2.004 14.282-5.999zm175.175-141.205 55.819-33.723c14.3-8.639 14.3-29.507 0-38.146l-55.819-33.723c-14.724-8.895-33.456 1.784-33.456 19.073v67.446c0 17.289 18.732 27.968 33.456 19.073z"/></svg>