<svg id="Layer_1" enable-background="new 0 0 512 512" height="512" viewBox="0 0 512 512" width="512" xmlns="http://www.w3.org/2000/svg"><g><path d="m496.964 60.311h-22.811v-45.311c0-8.284-6.716-15-15-15h-85.897c-8.284 0-15 6.716-15 15v45.311h-198.523v-45.311c0-8.284-6.716-15-15-15h-85.897c-8.284 0-15 6.716-15 15v45.311h-28.8c-8.284 0-15 6.716-15 15v421.689c0 8.284 6.716 15 15 15h481.929c8.284 0 15-6.716 15-15v-421.689c-.001-8.285-6.716-15-15.001-15zm-108.708-30.311h55.897v30.311h-55.897zm-314.42 0h55.896v30.311h-55.896zm408.128 60.311v30.261h-451.928v-30.261zm-451.928 60.26h451.929v243.425h-73.003c-8.284 0-15 6.716-15 15v73.004h-363.926zm430.715 273.425-36.79 36.79v-36.79zm-15.577 58.004 36.79-36.791v36.791z"/><path d="m271.036 228.976v-16.143h9.645c19.902-.793 19.887-29.215 0-30h-49.289c-19.902.793-19.887 29.215 0 30h9.645v16.143c-54.942 7.356-97.457 54.531-97.457 111.454 6.178 149.19 218.76 149.145 224.914-.001-.001-56.923-42.516-104.097-97.458-111.453zm-15 193.911c-45.467 0-82.457-36.99-82.457-82.457 4.53-109.39 160.401-109.359 164.914.001 0 45.465-36.991 82.456-82.457 82.456z"/><path d="m281.583 331.178h-10.717v-26.633c-.793-19.902-29.215-19.887-30 0v41.633c0 8.284 6.716 15 15 15h25.717c19.903-.793 19.887-29.215 0-30z"/></g></svg>