<svg id="Layer_1" enable-background="new 0 0 512.053 512.053" height="512" viewBox="0 0 512.053 512.053" width="512" xmlns="http://www.w3.org/2000/svg"><path d="m229.533 512.05c-194.169.936-301.187-232.644-174.619-366.656 13.508-14.841 33.288-21.245 52.902-17.142 19.687 4.122 35.291 17.986 41.741 37.085.608 1.809.863 3.347 1.008 4.78 1.418 2.519 3.605 3.719 4.917 4.24 1.645.654 4.951 1.466 8.617-.448 31.914-16.679 36.071-55.159 40.209-116.561l.396-5.847c1.367-20.054 13.001-37.227 31.121-45.937 18.234-8.763 39.053-7.102 55.694 4.444 78.247 54.295 115.354 135.762 130.508 179.491 3.617 10.437-1.912 21.829-12.349 25.446-10.438 3.616-21.83-1.911-25.446-12.349-13.559-39.125-46.596-111.902-115.517-159.726-6.714-4.659-13.12-2.432-15.562-1.256-2.388 1.148-8.002 4.675-8.542 12.605l-.394 5.815c-3.169 56.636-8.693 122.971-61.591 149.321-13.016 6.803-28.302 7.592-41.939 2.162-13.509-5.377-23.962-16.322-28.68-30.027-.671-1.952-.93-3.653-1.074-5.185-3.006-6.49-8.811-8.382-11.315-8.906-2.692-.566-9.549-1.211-15.128 4.918-128.516 143.416 42.12 364.483 224.101 282.501 10.036-4.608 21.911-.206 26.519 9.831 4.61 10.038.209 21.912-9.829 26.521-30.162 13.856-62.377 20.88-95.748 20.88zm210.427-78.644c46.198-34.592 71.086-76.023 71.972-119.814.517-57.374-69.353-86.968-109.996-47.404-40.671-39.574-110.511-9.951-109.996 47.404.886 43.791 25.773 85.223 71.971 119.813 11.196 8.384 24.608 12.575 38.025 12.574 13.414-.001 26.832-4.192 38.024-12.573zm-83.024-145.356c13.785 0 25 11.215 25 25 1.054 26.53 38.95 26.522 40 0 1.388-33.109 48.446-33.2 49.999-.047-.901 39.091-30.908 69.634-55.95 88.385-8.271 6.192-19.824 6.194-28.099-.001-25.041-18.75-55.048-49.293-55.949-88.384.099-13.776 11.275-24.953 24.999-24.953zm105-212.222c1.319-32.929 48.727-32.825 50 .076-.487 23.88-16.529 43.276-35.535 57.381-8.56 6.353-20.37 6.353-28.93 0-19.006-14.105-35.048-33.501-35.535-57.381 1.285-32.926 48.693-32.98 50-.076"/></svg>