<svg id="Layer_1" enable-background="new 0 0 512.056 512.056" height="512" viewBox="0 0 512.056 512.056" width="512" xmlns="http://www.w3.org/2000/svg"><path d="m19.996 512.032c-2.577 0-5.175-.498-7.65-1.523-7.473-3.096-12.346-10.389-12.346-18.478l.011-233.584c-1.58-228.703 276.733-344.983 437.968-182.89 159.524 161.859 44.351 436.675-183.165 436.475-40.301.001-78.775-9.038-114.35-26.866-33.993-17.037-75.148-10.166-102.41 17.096l-3.912 3.912c-3.826 3.826-8.942 5.858-14.146 5.858zm81.271-76.149c19.422 0 38.961 4.422 57.119 13.522 29.959 15.014 62.409 22.627 96.447 22.627.065.001.143 0 .207 0 191.182.281 289.155-233.255 154.517-368.33-136.571-136.671-370.536-38.778-369.547 154.456 0 .064-.008 193.261-.008 193.261 18.952-10.248 40.036-15.536 61.265-15.536zm198.76-22.863 6.712-18c8.283-25.233-27.235-38.456-37.479-13.977l-1.86 4.988h-22.966l-1.486-4.401c-3.535-10.464-14.884-16.082-25.349-12.547s-16.083 14.884-12.547 25.349l6.081 18c2.746 8.128 10.369 13.599 18.948 13.599h51.207c8.35.001 15.821-5.187 18.739-13.011zm-9.663-63.988h-69.709c-4.166 0-8.228-1.301-11.618-3.721-3.31-2.361-81.037-58.722-81.037-135.944 0-34.454 13.459-66.033 37.897-88.919 46.489-45.582 133.719-45.58 180.206 0 24.438 22.886 37.897 54.465 37.897 88.919 0 77.301-78.768 133.656-82.121 136.018-3.371 2.373-7.393 3.647-11.515 3.647zm-62.891-40h56.119c15.004-12.025 60.408-52.334 60.408-99.665 0-47.509-37.832-83.335-88-83.335s-88 35.826-88 83.335c.403 42.104 34.093 78.636 59.473 99.665zm72.457-127.942c-27.349-19.873-62.752-19.709-89.859 0-8.866 6.588-10.711 19.117-4.123 27.982 3.925 5.282 9.957 8.072 16.068 8.072 4.146 0 8.331-1.286 11.914-3.949.004-.003.028-.02.07-.048v44.995c1.056 26.536 38.953 26.516 40 0v-46.216c1.291.74 2.045 1.25 2.07 1.268 3.583 2.664 7.768 3.949 11.914 3.949 6.111 0 12.143-2.79 16.068-8.072 6.589-8.864 4.743-21.393-4.122-27.981z"/></svg>