<svg id="Capa_1" enable-background="new 0 0 509.75 509.75" height="512" viewBox="0 0 509.75 509.75" width="512" xmlns="http://www.w3.org/2000/svg"><g><path d="m10.591 277.687h66.409c5.523 0 10-4.478 10-10s-4.477-10-10-10h-56.409v-20h208.159v20h-60.25c-5.523 0-10 4.478-10 10s4.477 10 10 10h70.25c5.523 0 10-4.478 10-10v-30h22.5v30c0 5.445 4.555 10 10 10l218.5-.001c5.522 0 10-4.478 10-10 0-57.761-43.6-104.752-97.19-104.752h-131.31c-5.522 0-10 4.478-10 10v44.753h-22.5v-44.753c0-5.522-4.477-10-10-10h-228.159c-5.523 0-10 4.478-10 10v94.753c0 5.522 4.477 10 10 10zm464.672-59.366h-42.921c-10.527 0-19.092-8.564-19.092-19.092v-16.277c25.516.248 48.115 14.149 62.013 35.369zm-184.013-35.387h102v16.295c0 21.556 17.536 39.092 39.092 39.092h52.622c2.077 6.154 3.529 12.639 4.252 19.366h-197.966zm-62.5 34.753h-94.667v-34.753h94.667zm-114.667-34.753v34.753h-93.492v-34.753z"/><path d="m497.5 311.691h-13.75v-5.125c0-5.522-4.478-10-10-10s-10 4.478-10 10v5.125h-20v-5.125c0-5.522-4.478-10-10-10s-10 4.478-10 10v5.125h-20v-5.125c0-5.522-4.478-10-10-10s-10 4.478-10 10v5.125h-20v-5.125c0-5.522-4.478-10-10-10s-10 4.478-10 10v5.125h-20v-5.125c0-5.522-4.478-10-10-10s-10 4.478-10 10v5.125h-20v-5.125c0-5.522-4.478-10-10-10s-10 4.478-10 10v5.125h-20v-5.125c0-5.522-4.477-10-10-10s-10 4.478-10 10v5.125h-20v-5.125c0-5.522-4.477-10-10-10s-10 4.478-10 10v5.125h-20v-5.125c0-5.522-4.477-10-10-10s-10 4.478-10 10v5.125h-20v-5.125c0-5.522-4.477-10-10-10s-10 4.478-10 10v5.125h-20v-5.125c0-5.522-4.477-10-10-10s-10 4.478-10 10v5.125h-20v-5.125c0-5.522-4.477-10-10-10s-10 4.478-10 10v5.125h-13.75c-5.523 0-10 4.478-10 10s4.477 10 10 10h13.75v5.125c0 5.522 4.477 10 10 10s10-4.478 10-10v-5.125h20v5.125c0 5.522 4.477 10 10 10s10-4.478 10-10v-5.125h20v5.125c0 5.522 4.477 10 10 10s10-4.478 10-10v-5.125h20v5.125c0 5.522 4.477 10 10 10s10-4.478 10-10v-5.125h20v5.125c0 5.522 4.477 10 10 10s10-4.478 10-10v-5.125h20v5.125c0 5.522 4.477 10 10 10s10-4.478 10-10v-5.125h20v5.125c0 5.522 4.478 10 10 10s10-4.478 10-10v-5.125h20v5.125c0 5.522 4.478 10 10 10s10-4.478 10-10v-5.125h20v5.125c0 5.522 4.478 10 10 10s10-4.478 10-10v-5.125h20v5.125c0 5.522 4.478 10 10 10s10-4.478 10-10v-5.125h20v5.125c0 5.522 4.478 10 10 10s10-4.478 10-10v-5.125h20v5.125c0 5.522 4.478 10 10 10s10-4.478 10-10v-5.125h13.75c5.522 0 10-4.478 10-10s-4.478-10-10-10z"/><circle cx="123.499" cy="268.071" r="10"/></g></svg>