<svg id="Capa_1" enable-background="new 0 0 507.5 507.5" height="512" viewBox="0 0 507.5 507.5" width="512" xmlns="http://www.w3.org/2000/svg"><g><path d="m497.5 468.879h-13.75v-5.125c0-5.522-4.478-10-10-10s-10 4.478-10 10v5.125h-20v-5.125c0-5.522-4.478-10-10-10s-10 4.478-10 10v5.125h-20v-5.125c0-5.522-4.478-10-10-10s-10 4.478-10 10v5.125h-20v-5.125c0-5.522-4.478-10-10-10s-10 4.478-10 10v5.125h-20v-5.125c0-5.522-4.478-10-10-10s-10 4.478-10 10v5.125h-20v-5.125c0-5.522-4.478-10-10-10s-10 4.478-10 10v5.125h-20v-5.125c0-5.522-4.478-10-10-10s-10 4.478-10 10v5.125h-20v-5.125c0-5.522-4.478-10-10-10s-10 4.478-10 10v5.125h-20v-5.125c0-5.522-4.478-10-10-10s-10 4.478-10 10v5.125h-20v-5.125c0-5.522-4.478-10-10-10s-10 4.478-10 10v5.125h-20v-5.125c0-5.522-4.478-10-10-10s-10 4.478-10 10v5.125h-20v-5.125c0-5.522-4.478-10-10-10s-10 4.478-10 10v5.125h-13.75c-5.522 0-10 4.478-10 10s4.478 10 10 10h13.75v5.125c0 5.522 4.478 10 10 10s10-4.478 10-10v-5.125h20v5.125c0 5.522 4.478 10 10 10s10-4.478 10-10v-5.125h20v5.125c0 5.522 4.478 10 10 10s10-4.478 10-10v-5.125h20v5.125c0 5.522 4.478 10 10 10s10-4.478 10-10v-5.125h20v5.125c0 5.522 4.478 10 10 10s10-4.478 10-10v-5.125h20v5.125c0 5.522 4.478 10 10 10s10-4.478 10-10v-5.125h20v5.125c0 5.522 4.478 10 10 10s10-4.478 10-10v-5.125h20v5.125c0 5.522 4.478 10 10 10s10-4.478 10-10v-5.125h20v5.125c0 5.522 4.478 10 10 10s10-4.478 10-10v-5.125h20v5.125c0 5.522 4.478 10 10 10s10-4.478 10-10v-5.125h20v5.125c0 5.522 4.478 10 10 10s10-4.478 10-10v-5.125h20v5.125c0 5.522 4.478 10 10 10s10-4.478 10-10v-5.125h13.75c5.522 0 10-4.478 10-10s-4.478-10-10-10z"/><path d="m46.197 23.524h190.523l-47.394 52.513c-3.498 3.877-3.426 9.792.168 13.581l55 58c4.016 4.236 11.008 4.064 14.825-.348 3.318-3.835 3.175-9.735-.314-13.414l-48.634-51.287 53.29-59.045h197.641c5.522 0 10-4.478 10-10s-4.478-10-10-10h-201.312c-.497-.037-.994-.037-1.49 0h-212.303c-5.522 0-10 4.478-10 10s4.478 10 10 10z"/><path d="m13.121 442.987h481.258c3.51 0 6.762-1.84 8.57-4.847 1.809-3.008 1.907-6.743.262-9.843l-18.832-35.468v-176.842c0-22.056-17.944-40-40-40h-146.297c-5.522 0-10 4.478-10 10s4.478 10 10 10h146.297c11.028 0 20 8.972 20 20v17h-421.258v-17c0-11.028 8.972-20 20-20h145.629c5.522 0 10-4.478 10-10s-4.478-10-10-10h-145.629c-22.056 0-40 17.944-40 40v176.843l-18.832 35.468c-1.646 3.1-1.547 6.835.262 9.843 1.808 3.006 5.06 4.846 8.57 4.846zm28.832-42.978c.767-1.444 1.168-3.055 1.168-4.689v-50.333h74.295v78h-87.663zm281.797-75.022h-60v-72h60zm20-72h26.665v72h-26.665zm-100 72h-60v-72h60zm-80 0h-26.334v-72h26.334zm206.665 20v78h-232.999v-78zm20 78v-78h73.964v50.333c0 1.635.401 3.245 1.168 4.689l12.2 22.978zm73.964-98h-73.964v-72h73.964zm-346.963-72v72h-74.295v-72z"/><circle cx="253.75" cy="185.654" r="10"/><path d="m169.25 403.738h123.875c5.522 0 10-4.478 10-10s-4.478-10-10-10h-123.875c-5.522 0-10 4.478-10 10s4.478 10 10 10z"/><circle cx="338.25" cy="393.654" r="10"/></g></svg>