<svg id="Layer_1" enable-background="new 0 0 512 512" height="512" viewBox="0 0 512 512" width="512" xmlns="http://www.w3.org/2000/svg"><path d="m470.974 208.161c-21.417-11.772-45.149-20.256-72.22-25.787-15.55-70.12-63.271-149.466-141.755-147.734-90.823-.001-155.809 18.864-198.672 57.672-43.263 39.517-58.184 93.35-58.327 154.327v111.062c.035 44.083 35.91 79.938 80 79.938h3.427c18.907 53.016 94.26 52.983 113.146 0h108.854c18.907 53.016 94.26 52.983 113.146 0h13.427c44.112 0 80-35.888 80-80v-79.611c0-29.184-15.72-55.956-41.026-69.867zm1.026 149.478c0 22.056-17.944 40-40 40h-30c-11.046 0-20 8.954-20 20-1.099 26.533-38.906 26.525-40 0 0-11.046-8.954-20-20-20h-142c-11.046 0-20 8.954-20 20-1.099 26.533-38.906 26.525-40 0 0-11.046-8.954-20-20-20h-20c-22.056 0-40-17.944-40-40v-111c0-80.08 24.665-172 217-172 77.119 0 101.149 106.534 105.184 127.891.934 7.429 7.436 15.528 16.613 16.852 28.213 4.578 52.062 12.374 72.909 23.833 12.517 6.881 20.294 20.22 20.294 34.812zm-150-158c0 11.046-8.954 20-20 20h-198c-26.536-1.056-26.516-38.953 0-40h79v-43c1.056-26.536 38.953-26.516 40 0v43h79c11.046 0 20 8.954 20 20zm-179 84c0 13.807-11.193 25-25 25-33.162-1.317-33.153-48.688 0-50 13.807 0 25 11.192 25 25zm61-25c-13.807 0-25 11.193-25 25 1.317 33.162 48.688 33.153 50 0 0-13.808-11.193-25-25-25zm86 0c-13.807 0-25 11.193-25 25 1.317 33.162 48.688 33.153 50 0 0-13.808-11.193-25-25-25zm-129 56c-13.807 0-25 11.193-25 25 1.317 33.162 48.688 33.153 50 0 0-13.808-11.193-25-25-25zm86 0c-13.807 0-25 11.193-25 25 1.317 33.162 48.688 33.153 50 0 0-13.808-11.193-25-25-25z"/></svg>