<svg id="Layer_1" enable-background="new 0 0 512 512" height="512" viewBox="0 0 512 512" width="512" xmlns="http://www.w3.org/2000/svg"><path d="m219.41 369.297c23.299 22.286 23.298 62.415 0 84.7l-33.294 33.171c-7.824 7.795-20.487 7.773-28.284-.053-7.796-7.825-7.772-20.488.053-28.284l33.289-33.166c7.693-7.361 7.721-20.579.061-27.976l-33.197-32.371c-7.908-7.712-8.068-20.374-.356-28.282 7.712-7.909 20.373-8.068 28.282-.356l33.289 32.461c.052.052.104.104.157.156zm-61.41 40.703c0-11.046-8.954-20-20-20h-18c-44.112 0-80-35.888-80-80v-47c-1.056-26.536-38.953-26.516-40 0v47c0 66.168 53.832 120 120 120h18c11.046 0 20-8.954 20-20zm195.963-261.319-33.197-32.371c-7.661-7.396-7.633-20.614.061-27.976l33.289-33.166c7.825-7.796 7.849-20.459.053-28.284-7.797-7.826-20.46-7.849-28.284-.053l-33.295 33.171c-23.299 22.286-23.298 62.415 0 84.7.052.052.105.104.158.156l33.289 32.461c7.903 7.707 20.565 7.556 28.282-.356 7.712-7.908 7.552-20.57-.356-28.282zm38.037-64.681h-18c-26.536 1.056-26.516 38.953 0 40h18c44.112 0 80 35.888 80 80v47c1.056 26.536 38.953 26.516 40 0v-47c0-66.168-53.832-120-120-120zm-197.32-48.319c-6.813-21.763-25.268-35.771-46.975-35.681-21.738.086-40.081 14.253-46.732 36.091-.137.448-32.467 141.44-32.467 141.44-2.467 10.767 4.26 21.495 15.027 23.962 10.762 2.465 21.495-4.26 23.962-15.027l5.607-24.466h70.578l5.863 24.631c2.514 10.827 13.625 17.402 24.088 14.825 10.746-2.558 17.383-13.342 14.825-24.088.001.001-33.637-141.243-33.776-141.687zm-72.41 86.319 17.144-74.804c2.192-6.459 6.614-7.188 8.45-7.196 1.864.002 6.234.684 8.466 7.094l17.829 74.906zm297.358 324.174c-3.44 5.025-7.042 9.773-10.799 14.241 13.057 7.047 28.655 11.585 47.171 11.585 11.046 0 20 8.954 20 20s-8.954 20-20 20c-28.646 0-55.077-8.118-77.927-23.533-22.791 15.517-49.127 23.533-78.073 23.533-11.046 0-20-8.954-20-20s8.954-20 20-20c17.232 0 32.969-3.844 47.119-11.478-6.235-7.352-12.012-15.446-17.282-24.254-5.671-9.479-2.584-21.76 6.895-27.431 9.477-5.67 21.76-2.584 27.431 6.895 3.771 6.303 8.328 12.904 13.77 19.275 3.009-3.556 5.906-7.367 8.689-11.431 13.664-19.957 20.755-40.752 23.693-53.576h-116.315c-26.536-1.056-26.516-38.953 0-40h65v-20c1.056-26.536 38.953-26.516 40 0v20h63c26.536 1.056 26.516 38.953 0 40h-10.995c-2.882 18.505-12.277 48.276-31.377 76.174z"/></svg>