<svg id="Layer_1" enable-background="new 0 0 512.006 512.006" height="512" viewBox="0 0 512.006 512.006" width="512" xmlns="http://www.w3.org/2000/svg"><path d="m352.003 511.992h-192c-26.536-1.056-26.516-38.953 0-40h192c26.536 1.056 26.516 38.953 0 40zm38-252v-179.978c0-44.112-35.888-80-80-80h-107c-44.112 0-80 35.888-80 80v179.978c0 44.112 35.888 80 80 80h107c44.113 0 80-35.888 80-80zm-80-219.978c22.056 0 40 17.944 40 40v179.978c0 22.056-17.944 40-40 40h-107c-22.056 0-40-17.944-40-40v-179.978c0-22.056 17.944-40 40-40zm202 271.978v-164c.316-41.746-22.774-82.122-58.729-103.188-23.326-12.657-42.714 19.907-20.45 34.377 24.167 14.376 39.179 40.743 39.179 68.812v164c0 44.112-35.888 80-80 80h-272.02c-44.101 0-79.979-35.879-79.979-79.979v-164.022c0-28.068 15.012-54.436 39.179-68.812 9.493-5.646 12.611-17.92 6.963-27.413-5.646-9.492-17.918-12.611-27.414-6.964-35.955 21.067-59.045 61.443-58.729 103.189v164.021c0 66.157 53.823 119.979 119.979 119.979h272.021c66.169 0 120-53.832 120-120zm-222-191.978h-67c-26.536-1.056-26.516-38.953 0-40h67c26.536 1.057 26.516 38.954 0 40zm20 50c0-11.046-8.954-20-20-20h-67c-26.536 1.056-26.516 38.953 0 40h67c11.046 0 20-8.954 20-20zm-40 70c0-11.046-8.954-20-20-20h-27c-26.536 1.056-26.516 38.953 0 40h27c11.046 0 20-8.954 20-20z"/></svg>