<svg id="Layer_1" enable-background="new 0 0 512.094 512.094" height="512" viewBox="0 0 512.094 512.094" width="512" xmlns="http://www.w3.org/2000/svg"><path d="m392.047 512.094h-272.02c-66.157 0-119.979-53.823-119.979-119.98v-154.02c0-66.168 53.832-120 120-120h272c66.168 0 120 53.832 120 120v154c-.001 66.169-53.833 120-120.001 120zm-272-354c-44.112 0-80 35.888-80 80v154.02c0 44.101 35.879 79.979 79.979 79.979h272.021c44.112 0 80-35.888 80-80v-154c0-44.112-35.888-80-80-80h-272zm182 274h-160c-33.084 0-60-26.916-60-60v-114c0-33.084 26.916-60 60-60h160c33.084 0 60 26.916 60 60v114c0 33.084-26.916 60-60 60zm-160-194c-11.028 0-20 8.972-20 20v114c0 11.028 8.972 20 20 20h160c11.028 0 20-8.972 20-20v-114c0-11.028-8.972-20-20-20zm275 32c-13.807 0-25-11.193-25-25 1.317-33.162 48.688-33.153 50 0 0 13.808-11.193 25-25 25m0 80c13.807 0 25-11.193 25-25-1.317-33.162-48.688-33.153-50 0 0 13.808 11.193 25 25 25m-118.297-269.59c.035-.035.07-.071.105-.106l45.461-46.289c7.739-7.881 7.625-20.543-.256-28.283-7.88-7.741-20.544-7.625-28.283.255l-45.398 46.226c-7.4 7.684-20.627 7.665-28.005-.046l-46.166-46.29c-19.488-18.042-46.305 8.733-28.322 28.247l46.163 46.286c11.307 11.343 26.353 17.592 42.35 17.591 16.001-.001 31.043-6.248 42.351-17.591z"/></svg>