<svg id="Layer_1" enable-background="new 0 0 511.982 511.982" height="512" viewBox="0 0 511.982 511.982" width="512" xmlns="http://www.w3.org/2000/svg"><path d="m391.991 343c-11.046 0-20-8.954-20-20 0-16.542-13.458-30-30-30h-172c-16.542 0-30 13.458-30 30 0 11.046-8.954 20-20 20s-20-8.954-20-20c0-38.599 31.401-70 70-70h172c38.599 0 70 31.401 70 70 0 11.046-8.954 20-20 20zm-197.364 160.407 85.601-59.407h72.842c32.054 0 62.188-12.482 84.854-35.146l18.922-18.922c22.664-22.665 35.146-52.8 35.146-84.854v-125c0-65.037-52.008-118.156-116.619-119.953-.456-.031-.916-.047-1.381-.047h-2c-26.529 1.054-26.524 38.949 0 40 44.112 0 80 35.888 80 80v125c0 21.369-8.321 41.459-23.432 56.568l-18.922 18.922c-15.11 15.111-35.2 23.432-56.569 23.432h-79.102c-4.076 0-8.055 1.245-11.403 3.569l-90.821 63.03c-3.229 2.263-6.23 1.29-7.731.51-1.502-.781-4.021-2.681-4.021-6.623v-40.486c0-11.046-8.954-20-20-20-44.112 0-80-35.888-80-80v-125c0-21.369 8.321-41.459 23.431-56.568l18.923-18.921c11.347-11.348 25.674-18.951 41.431-21.987 10.847-2.09 17.944-12.577 15.854-23.423-2.091-10.847-12.585-17.949-23.423-15.854-23.636 4.555-45.126 15.959-62.146 32.979l-18.923 18.921c-22.664 22.665-35.146 52.8-35.146 84.854v125c0 59.355 43.318 108.784 100 118.333v22.153c0 17.771 9.794 33.906 25.56 42.108 6.935 3.607 14.459 5.388 21.948 5.388 9.538-.002 19.018-2.891 27.127-8.576zm121.364-443.407c0-33.084-26.916-60-60-60-67.648 1.282-82.617 93.409-20 116.573v86.427c1.056 26.536 38.953 26.516 40 0v-86.427c23.281-8.255 40-30.498 40-56.573zm-60 20c-11.028 0-20-8.972-20-20 1.098-26.533 38.906-26.525 40 0 0 11.028-8.971 20-20 20z"/></svg>