<svg id="Capa_1" enable-background="new 0 0 505.5 505.5" height="512" viewBox="0 0 505.5 505.5" width="512" xmlns="http://www.w3.org/2000/svg"><g><path d="m494.248 89.401h-78.666v-23.705c0-5.522-4.477-10-10-10h-63.55c-16.614-34.046-50.948-55.696-89.282-55.696s-72.668 21.65-89.282 55.696h-63.55c-5.523 0-10 4.478-10 10v23.705h-78.666c-5.523 0-10 4.478-10 10v396.099c0 5.522 4.477 10 10 10h482.995c5.523 0 10-4.478 10-10v-396.099c.001-5.522-4.476-10-9.999-10zm-241.498-69.401c27.177 0 51.835 13.622 66.319 35.696h-132.638c14.484-22.074 39.142-35.696 66.319-35.696zm-142.832 55.696h285.664v47.401h-285.664zm209.156 67.402c-14.476 22.079-39.136 35.704-66.324 35.704s-51.848-13.625-66.324-35.704zm-229.156-33.697v23.696c0 5.522 4.477 10 10 10h63.548c16.604 34.052 50.937 55.704 89.284 55.704s72.68-21.652 89.284-55.704h63.548c5.523 0 10-4.478 10-10v-23.696h68.666v284.16c-8.962-21.551-20.818-41.724-35.324-59.813-37.303-46.516-89.177-77.024-150.014-88.229-5.43-.996-10.646 2.592-11.646 8.023-1 5.432 2.592 10.646 8.023 11.646 56.046 10.321 103.777 38.355 138.033 81.071 31.03 38.692 48.876 87.834 50.747 139.238h-25.913c-4.729-109.216-95.046-196.613-205.405-196.613s-200.676 87.4-205.404 196.616h-25.899c4.185-106.259 82.103-197.847 188.372-219.693 5.41-1.112 8.894-6.398 7.781-11.809-1.111-5.409-6.395-8.894-11.809-7.781-84.507 17.372-152.48 75.455-184.538 150.681v-287.497zm-1.691 299.243 66.808 47.719v29.137h-87.677c1.325-27.619 8.72-53.669 20.869-76.856zm82.62 34.435-72.362-51.687c33.337-49.715 90.041-82.506 154.265-82.506 65.578 0 123.321 34.184 156.348 85.668l-67.934 48.524c-2.628 1.878-4.188 4.908-4.188 8.138v34.284h-161.941v-34.283c0-3.23-1.56-6.26-4.188-8.138zm186.13 13.284 62.036-44.311c11.114 22.32 17.869 47.174 19.129 73.448h-81.166v-29.137z"/><circle cx="252.638" cy="253.011" r="10"/></g></svg>