<svg id="Layer_1" enable-background="new 0 0 512.001 512.001" height="512" viewBox="0 0 512.001 512.001" width="512" xmlns="http://www.w3.org/2000/svg"><path d="m256.002 511.751c-227.238-.228-341.538-276.195-181.018-437.02 95.289-99.301 266.749-99.317 362.037.004 160.519 160.84 46.205 436.801-181.019 437.016zm0-472c-119.103 0-216 96.897-216 216 11.865 286.553 420.178 286.47 432-.002 0-119.1-96.898-215.998-216-215.998zm-14 331.001h-62c-48.377 1-91.001-41.626-90-90.002l.001-50.001c0-49.626 40.375-89.999 90-89.999h61.999c33.851 0 63.943 19.032 79.288 47.865l43.143-26.999c.042-.026.085-.053.128-.079 12.021-7.396 27.141-7.716 39.463-.831 12.321 6.886 19.976 19.931 19.977 34.045v.001l.002 121.998c0 14.114-7.654 27.159-19.976 34.045-12.321 6.885-27.442 6.567-39.464-.83l-43.244-26.388c-15.309 28.416-45.405 47.175-79.317 47.175zm-61.999-190.002c-27.57 0-50 22.43-50 49.999l-.001 50.001c0 13.356 5.201 25.913 14.645 35.357 9.444 9.443 22 14.645 35.355 14.645h62c24.183 0 44.858-17.074 49.161-40.599 2.3-13.618 18.401-20.827 30.092-13.474l62.747 38.289-.002-118.41-62.554 39.146c-5.62 3.516-12.616 4.02-18.681 1.346-6.064-2.675-10.41-8.182-11.603-14.702-4.337-23.715-25.472-41.598-49.161-41.598zm23.087 113.712 40.19-24.088c10.296-6.171 10.296-21.076 0-27.247l-40.19-24.088c-10.601-6.354-24.088 1.274-24.088 13.624v48.176c0 12.349 13.487 19.977 24.088 13.623z"/></svg>