<svg id="Layer_1" enable-background="new 0 0 512.007 512.007" height="512" viewBox="0 0 512.007 512.007" width="512" xmlns="http://www.w3.org/2000/svg"><path d="m274 292.947c0 4.249-1.325 8.188-3.585 11.428-43.88 61.836-127.269 61.478-170.831 0-9.226-12.929.39-31.589 16.416-31.428 6.963 0 13.094 3.558 16.676 8.956 28.686 38.548 76.177 38.304 104.647 0 10.876-16.3 36.531-8.839 36.677 11.044zm63.422 113.421c16.433-16.434 27.723-36.642 33.06-58.667l67.646 41.278c31.492 20.132 74.514-3.92 73.872-41.281l-.003-182.803c-.001-17.808-9.282-33.625-24.828-42.312-15.544-8.685-33.88-8.3-49.046 1.033-.042.026-67.334 42.137-67.334 42.137-12.816-55.33-62.509-96.693-121.68-96.693h-124.218c-68.863 0-124.889 56.024-124.89 124.887l-.001 124.109c-.001 33.359 12.99 64.722 36.578 88.312 23.589 23.588 54.951 36.58 88.311 36.58h124.223c33.359-.001 64.721-12.992 88.31-36.58zm-88.313-297.308c46.808 0 84.889 38.081 84.89 84.887v5.907c0 7.272 3.948 13.972 10.31 17.496 6.363 3.525 14.137 3.315 20.3-.542l94.526-59.155c3.664-2.228 6.91-1.054 8.523-.152 1.62.905 4.339 3.07 4.339 7.395l.003 182.802c0 4.324-2.719 6.489-4.339 7.395-1.619.906-4.889 2.085-8.634-.219l-94.609-57.732c-6.174-3.768-13.899-3.908-20.207-.369-6.307 3.54-10.211 10.208-10.211 17.441v3.843c0 22.675-8.829 43.993-24.863 60.026-16.033 16.034-37.351 24.864-60.025 24.864h-124.223c-22.675 0-43.992-8.83-60.025-24.864-16.035-16.033-24.864-37.351-24.864-60.026l.001-124.109c.001-46.807 38.082-84.888 84.89-84.888zm-128.109 71.887c13.807 0 25 11.193 25 25-1.317 33.162-48.688 33.153-50 0 0-13.807 11.193-25 25-25zm106 25c0 13.807 11.193 25 25 25 33.162-1.317 33.153-48.688 0-50-13.807 0-25 11.193-25 25z"/></svg>