<?xml version="1.0" encoding="iso-8859-1"?>
<!-- Generator: Adobe Illustrator 18.0.0, SVG Export Plug-In . SVG Version: 6.00 Build 0)  -->
<!DOCTYPE svg PUBLIC "-//W3C//DTD SVG 1.1//EN" "http://www.w3.org/Graphics/SVG/1.1/DTD/svg11.dtd">
<svg version="1.1" id="Capa_1" xmlns="http://www.w3.org/2000/svg" xmlns:xlink="http://www.w3.org/1999/xlink" x="0px" y="0px"
	 viewBox="0 0 230.359 230.359"  xml:space="preserve">
<g>
	<path d="M210.322,5.604H20.024C8.982,5.604,0,14.587,0,25.628v142.519c0,11.048,8.982,20.037,20.024,20.037h62.141v21.572H58.242
		c-4.143,0-7.5,3.358-7.5,7.5s3.357,7.5,7.5,7.5h31.422h51.01h31.432c4.143,0,7.5-3.358,7.5-7.5s-3.357-7.5-7.5-7.5h-23.932v-21.572
		h62.148c11.049,0,20.037-8.988,20.037-20.037V25.628C230.359,14.587,221.371,5.604,210.322,5.604z M133.174,209.755h-36.01v-21.572
		h36.01V209.755z M215.359,168.147c0,2.777-2.26,5.037-5.037,5.037h-69.648h-51.01H20.024c-2.77,0-5.024-2.259-5.024-5.037V25.628
		c0-2.77,2.254-5.024,5.024-5.024h190.299c2.777,0,5.037,2.254,5.037,5.024V168.147z"/>
	<path d="M119.399,39.797h-0.003c-3.314,0-6,2.686-6,6c0,3.313,2.687,6,6,6c10.366,0,20.111,4.036,27.441,11.365
		c7.33,7.33,11.366,17.075,11.365,27.441c0,3.313,2.686,6,6,6c3.314,0,6-2.686,6-5.999c0.001-13.572-5.283-26.331-14.88-35.928
		C145.728,45.082,132.97,39.797,119.399,39.797z"/>
	<path d="M135.803,90.605c0.001,3.313,2.687,5.999,6,5.999h0.001c3.314,0,6-2.687,5.999-6.001
		c-0.003-15.659-12.745-28.4-28.405-28.402h-0.001c-3.313,0-5.999,2.686-6,5.999c-0.001,3.314,2.686,6.001,5.999,6.001
		C128.441,74.202,135.802,81.561,135.803,90.605z"/>
	<path d="M129.523,108.123c-7.041-0.366-10.661,4.866-12.188,7.1c-1.869,2.735-1.167,6.469,1.568,8.339
		c2.737,1.87,6.47,1.167,8.34-1.568c0.978-1.432,1.402-1.802,1.53-1.879c3.498,0.932,14.225,8.794,16.038,11.767
		c0.077,0.262,0.108,0.616-0.102,1.247c-0.827,2.455-2.448,5.672-5.47,7.058c-2.835,1.299-6.029,0.514-8.207-0.371
		c-13.507-5.505-25.299-13.182-35.048-22.814c-0.004-0.004-0.008-0.008-0.012-0.012c-9.604-9.736-17.26-21.507-22.753-34.982
		c-0.887-2.181-1.671-5.376-0.372-8.212c1.386-3.021,4.604-4.642,7.051-5.466c0.629-0.21,0.982-0.184,1.258-0.103
		c2.971,1.815,10.814,12.515,11.76,16.023c-0.116,0.188-0.521,0.617-1.873,1.541c-2.737,1.868-3.44,5.602-1.572,8.338
		c1.869,2.736,5.604,3.44,8.338,1.572c2.234-1.525,7.466-5.097,7.101-12.204c-0.379-7.002-12.927-24.08-19.436-26.474
		c-3.018-1.125-6.178-1.149-9.396-0.069c-6.738,2.27-11.627,6.364-14.138,11.84c-2.442,5.329-2.386,11.461,0.167,17.738
		c6.104,14.974,14.646,28.08,25.392,38.953c0.038,0.039,0.077,0.077,0.116,0.115c10.862,10.715,23.945,19.237,38.892,25.329
		c3.206,1.304,6.374,1.957,9.419,1.957c2.91,0,5.708-0.597,8.314-1.79c5.477-2.51,9.571-7.398,11.845-14.146
		c1.075-3.211,1.052-6.368-0.063-9.365C153.619,121.053,136.542,108.504,129.523,108.123z"/>
</g>
<g>
</g>
<g>
</g>
<g>
</g>
<g>
</g>
<g>
</g>
<g>
</g>
<g>
</g>
<g>
</g>
<g>
</g>
<g>
</g>
<g>
</g>
<g>
</g>
<g>
</g>
<g>
</g>
<g>
</g>
</svg>
