<?xml version="1.0" encoding="iso-8859-1"?>
<!-- Generator: Adobe Illustrator 18.0.0, SVG Export Plug-In . SVG Version: 6.00 Build 0)  -->
<!DOCTYPE svg PUBLIC "-//W3C//DTD SVG 1.1//EN" "http://www.w3.org/Graphics/SVG/1.1/DTD/svg11.dtd">
<svg version="1.1" id="Capa_1" xmlns="http://www.w3.org/2000/svg" xmlns:xlink="http://www.w3.org/1999/xlink" x="0px" y="0px"
	 viewBox="0 0 260.666 260.666"  xml:space="preserve">
<g>
	<path d="M236.666,40.882H24c-13.233,0-24,10.767-24,24v130.902c0,13.233,10.767,24,24,24h212.666c13.233,0,24-10.767,24-24V64.882
		C260.666,51.648,249.899,40.882,236.666,40.882z M245.666,195.784c0,4.962-4.037,9-9,9H24c-4.963,0-9-4.038-9-9V64.882
		c0-4.962,4.037-9,9-9h212.666c4.963,0,9,4.038,9,9V195.784z"/>
	<path d="M216.04,83.703h-68.933c-3.314,0-6,2.687-6,6s2.686,6,6,6h68.933c3.314,0,6-2.687,6-6S219.354,83.703,216.04,83.703z"/>
	<path d="M216.04,164.963h-68.933c-3.314,0-6,2.686-6,6c0,3.313,2.686,6,6,6h68.933c3.314,0,6-2.687,6-6
		C222.04,167.649,219.354,164.963,216.04,164.963z"/>
	<path d="M216.04,118.411h-41.718c-3.313,0-6,2.687-6,6s2.687,6,6,6h41.718c3.314,0,6-2.687,6-6S219.354,118.411,216.04,118.411z"/>
	<path d="M216.04,141.686h-41.718c-3.313,0-6,2.687-6,6c0,3.314,2.687,6,6,6h41.718c3.314,0,6-2.686,6-6
		C222.04,144.373,219.354,141.686,216.04,141.686z"/>
	<path d="M85.256,83.703c-25.711,0-46.629,20.917-46.629,46.629c0,25.712,20.918,46.631,46.629,46.631c3.313,0,6-2.687,6-6
		c0-3.314-2.687-6-6-6c-19.095,0-34.629-15.535-34.629-34.631c0-19.094,15.534-34.629,34.629-34.629
		c19.095,0,34.629,15.535,34.629,34.629v10.16c0,2.292-1.865,4.156-4.158,4.156c-2.292,0-4.157-1.864-4.157-4.156v-10.16
		c0-14.51-11.804-26.314-26.313-26.314c-14.51,0-26.314,11.805-26.314,26.314c0,14.511,11.805,26.316,26.314,26.316
		c6.688,0,12.798-2.512,17.444-6.638c2.942,4.015,7.678,6.638,13.026,6.638c8.91,0,16.158-7.247,16.158-16.156v-10.16
		C131.885,104.621,110.967,83.703,85.256,83.703z M85.256,144.648c-7.893,0-14.314-6.422-14.314-14.316
		c0-7.893,6.422-14.314,14.314-14.314c7.893,0,14.313,6.421,14.313,14.314C99.569,138.226,93.148,144.648,85.256,144.648z"/>
</g>
<g>
</g>
<g>
</g>
<g>
</g>
<g>
</g>
<g>
</g>
<g>
</g>
<g>
</g>
<g>
</g>
<g>
</g>
<g>
</g>
<g>
</g>
<g>
</g>
<g>
</g>
<g>
</g>
<g>
</g>
</svg>
