<svg id="Layer_1" enable-background="new 0 0 512 512" height="512" viewBox="0 0 512 512" width="512" xmlns="http://www.w3.org/2000/svg"><path d="m392 512h-272c-66.168 0-120-53.832-120-120v-272c0-66.168 53.832-120 120-120h272c66.168 0 120 53.832 120 120v272c0 66.168-53.832 120-120 120zm-272-472c-44.112 0-80 35.888-80 80v272c0 44.112 35.888 80 80 80h272c44.112 0 80-35.888 80-80v-272c0-44.112-35.888-80-80-80zm138.647 389.995c21.801-.327 38.876-16.842 41.546-40.173l6.833-57.46c1.304-10.969-6.53-20.917-17.499-22.222-10.962-1.307-20.917 6.53-22.222 17.499l-6.838 57.504c-.004.038-.009.075-.013.113-.314 2.777-1.305 4.728-2.408 4.745-1.187-.015-2.061-2.161-2.414-4.294l-27.417-260.633c-.005-.052-.011-.104-.017-.156-2.33-20.595-18.428-35.359-39.147-35.902-20.714-.581-37.57 13.354-40.978 33.799-.066.399-.121.801-.163 1.203l-15.61 148.932c-.198.906-.687 1.965-2.762 2.047-2.336.089-2.764-1.205-3.002-2.146l-7.055-30.375c-2.499-10.76-13.248-17.458-24.006-14.957-10.759 2.499-17.456 13.247-14.957 24.006l7.093 30.542c.023.1.047.201.072.3 4.972 20.002 22.807 33.401 43.423 32.599 20.595-.809 37.346-15.573 40.734-35.903.066-.399.121-.801.163-1.203l15.599-148.824c.001-.003.001-.007.002-.01.239-.041.552-.033.789.021.018.084.036.19.052.319l27.455 260.987c.026.251.058.502.093.752 3.304 22.994 20.524 38.898 41.998 38.897.218-.002.439-.003.656-.007zm165.669-147.628c.025-.1.049-.2.072-.301l7.093-30.542c2.499-10.759-4.198-21.507-14.957-24.005-10.763-2.501-21.508 4.199-24.006 14.958l-7.055 30.377c-.238.941-.69 2.228-3.002 2.144-2.445-.096-2.688-1.549-2.848-2.51-.018-.105-.035-.21-.055-.315l-15.663-85.536c-3.476-20.346-20.287-34.171-40.947-33.622-20.693.543-36.778 15.272-39.139 35.829l-7.468 62.795c-1.304 10.969 6.53 20.917 17.499 22.222 10.969 1.309 20.918-6.53 22.222-17.498l7.472-62.835c.004-.038.009-.075.013-.113.018-.152.038-.274.058-.369.237-.052.551-.062.788-.021.024.093.052.214.077.365.018.105.035.21.055.315l15.665 85.542c3.459 20.234 20.17 34.912 40.702 35.719.591.023 1.179.035 1.765.035 19.844-.001 36.83-13.205 41.659-32.634z"/></svg>