<?xml version="1.0" encoding="iso-8859-1"?>
<!-- Generator: Adobe Illustrator 19.0.0, SVG Export Plug-In . SVG Version: 6.00 Build 0)  -->
<svg version="1.1" id="Layer_1" xmlns="http://www.w3.org/2000/svg" xmlns:xlink="http://www.w3.org/1999/xlink" x="0px" y="0px"
	 viewBox="0 0 492.308 492.308" enable-background="new 0 0 492.308 492.308;" xml:space="preserve">
<g>
	<g>
		<path d="M398.539,220.543c0,45.077-18.644,88.101-51.144,118.039c-31.221,28.774-71.596,42.721-113.837,39.245
			c-28.474-2.34-54.648-12.71-76.511-28.642l29.136-29.136c17.349,11.097,37.894,17.62,59.972,17.62
			c61.596,0,111.712-50.115,111.712-111.712v-77.591L489.423,16.808L475.5,2.885L357.865,120.519v-8.813
			C357.865,50.111,307.75,0,246.154,0S134.442,50.111,134.442,111.707v114.25c0,32.392,13.944,61.519,36.044,81.942l-28.631,28.631
			c-29.569-27.983-48.086-67.435-48.086-110.573v-88.644H74.077v88.644c0,48.51,20.748,92.88,53.895,124.456L2.885,475.5
			l13.923,13.923l126.124-126.124c25.189,19.066,55.742,31.419,89.01,34.153c1.461,0.12,2.908,0.097,4.365,0.18v74.983h-89.644
			v19.692h198.981v-19.692H256v-75.023c38.866-2.221,75.41-17.502,104.74-44.525c36.538-33.659,57.49-81.962,57.49-132.524v-83.231
			h-19.692V220.543z M338.173,225.957c0,50.74-41.279,92.019-92.019,92.019c-16.623,0-32.188-4.496-45.661-12.238l137.68-137.68
			V225.957z M154.135,225.957V183.75h45.615v-19.692h-45.615v-27.26h45.615v-19.692h-45.615v-5.399
			c0-50.736,41.279-92.014,92.019-92.014c50.74,0,92.019,41.279,92.019,92.014v28.505l-153.77,153.77
			C165.864,277.136,154.135,252.921,154.135,225.957z"/>
	</g>
</g>
<g>
</g>
<g>
</g>
<g>
</g>
<g>
</g>
<g>
</g>
<g>
</g>
<g>
</g>
<g>
</g>
<g>
</g>
<g>
</g>
<g>
</g>
<g>
</g>
<g>
</g>
<g>
</g>
<g>
</g>
</svg>
