<svg id="Layer_1" enable-background="new 0 0 512 512" height="512" viewBox="0 0 512 512" width="512" xmlns="http://www.w3.org/2000/svg"><path d="m362 477.5c-26.075 0-48.318-16.719-56.573-40h-108.854c-18.907 53.016-94.26 52.983-113.146 0h-3.427c-44.09 0-79.965-35.854-80-79.938 0-.011 0-.021 0-.031v-111.031c.133-60.95 15.075-114.836 58.327-154.326 42.863-38.809 107.849-57.674 198.673-57.674 48.035 0 88.069 27.032 115.773 78.174 13.982 25.812 21.896 52.439 25.98 69.562 27.07 5.531 50.803 14.015 72.22 25.787 25.307 13.911 41.027 40.682 41.027 69.866v79.611c0 44.112-35.888 80-80 80h-13.427c-8.255 23.281-30.498 40-56.573 40zm-182-80h142c11.046 0 20 8.954 20 20 1.098 26.533 38.906 26.525 40 0 0-11.046 8.954-20 20-20h30c22.056 0 40-17.944 40-40v-79.611c0-14.592-7.776-27.932-20.295-34.813-20.848-11.459-44.696-19.256-72.908-23.833-9.189-1.322-15.685-9.444-16.613-16.853-4.036-21.357-28.069-127.89-105.184-127.89-192.335 0-217 91.92-217 172v111c0 22.056 17.944 40 40 40h20c11.046 0 20 8.954 20 20 1.099 26.533 38.906 26.525 40 0 0-11.046 8.954-20 20-20zm105-136c-7.029 0-13.21 3.626-16.777 9.109-31.756 43.693-85.068 43.27-116.455-.013-3.568-5.476-9.745-9.096-16.768-9.096-15.939-.162-25.578 18.33-16.523 31.272 46.786 67.069 136.004 67.265 182.98.096 9.161-12.935-.467-31.53-16.457-31.368zm-108-64c0 13.807-11.193 25-25 25-33.162-1.317-33.153-48.688 0-50 13.807 0 25 11.193 25 25zm91-25c-13.807 0-25 11.193-25 25 1.317 33.162 48.688 33.153 50 0 0-13.807-11.193-25-25-25z"/></svg>