<svg id="Layer_1" enable-background="new 0 0 512.521 512.521" height="512" viewBox="0 0 512.521 512.521" width="512" xmlns="http://www.w3.org/2000/svg"><g><path d="m497.225 342.349h-145.64v-58.131l47.834-16.749c7.002-2.451 11.16-9.653 9.782-16.942l-9.779-51.749 26.888-45.282c3.788-6.378 2.344-14.567-3.397-19.266l-40.754-33.355-8.509-51.973c-1.194-7.323-7.586-12.671-14.986-12.575l-52.772.646-39.964-33.472c-5.574-4.668-13.689-4.668-19.264 0l-39.963 33.472-52.773-.646c-7.4-.096-13.792 5.253-14.986 12.575l-8.509 51.973-40.754 33.355c-5.741 4.698-7.186 12.888-3.397 19.266l26.888 45.282-9.779 51.749c-1.377 7.289 2.78 14.491 9.782 16.942l47.771 16.727v102.829h-145.648c-8.284 0-15 6.716-15 15v95.496c0 8.284 6.716 15 15 15h481.929c8.284 0 15-6.716 15-15v-140.172c0-8.285-6.716-15-15-15zm-336.287 140.172h-130.642v-65.496h130.643v65.496zm160.643 0h-130.639v-218.769h130.643zm15.004-248.769h-160.643c-8.284 0-15 6.716-15 15v3.658l-25.679-8.992 8.437-44.64c.678-3.589.023-7.303-1.842-10.443l-23.194-39.062 35.155-28.773c2.827-2.313 4.713-5.579 5.303-9.184l7.34-44.833 45.428.557c3.562.057 7.067-1.197 9.815-3.5l34.591-28.973 34.591 28.973c2.749 2.303 6.257 3.571 9.815 3.5l45.427-.557 7.34 44.833c.59 3.604 2.476 6.87 5.303 9.184l35.155 28.773-23.194 39.062c-1.865 3.141-2.52 6.854-1.842 10.443l8.437 44.64-25.742 9.014v-3.68c-.001-8.284-6.717-15-15.001-15zm145.64 248.769h-130.64v-110.172h130.64z"/><path d="m261.019 99.475h-20.857c-19.902.793-19.887 29.215 0 30h5.857v64.127c.793 19.902 29.215 19.887 30 0v-79.127c0-8.285-6.716-15-15-15z"/></g></svg>