<svg id="Layer_1" enable-background="new 0 0 512.363 512.363" height="512" viewBox="0 0 512.363 512.363" width="512" xmlns="http://www.w3.org/2000/svg"><path d="m483.199 311.891h-44.066c4.745-12.132 7.268-20.946 7.812-22.912 17.163-53.838 13.223-111.469-11.401-166.678-32.223-76.997-118.288-122.647-198.691-122.252-.413-.026-.827-.028-1.243-.019-.066.001-.132-.003-.198-.001-.081.003-.162.003-.243.008-118.315-2.273-223.272 102.435-220.967 221.092-.279 110.181 83.456 204.278 192.774 219.813v56.422c0 8.284 6.716 15 15 15h261.223c8.284 0 15-6.716 15-15v-170.473c0-8.284-6.716-15-15-15zm-130.611 77.014c-74.465 0-101.057-28.287-110.505-47.015 46.885-.001 176.183.004 221.01 0-9.448 18.728-36.041 47.015-110.505 47.015zm-34.325-77.014v-22.979h63.65v22.979zm78.65-52.98h-32.343c-.182-7.668-.489-15.224-.953-22.635h63.233c-1.131 14.85-3.98 29.523-8.574 43.86l-.202.685c-.031.115-2.04 7.473-6.161 18.262v-25.172c0-8.284-6.716-15-15-15zm-62.348 0h-31.302c-8.284 0-15 6.716-15 15v37.979h-37.394l.016-75.614h82.629c.524 7.76.862 15.327 1.051 22.635zm-83.675-52.634.034-165.482c9.532 7.138 20.774 17.605 31.505 32.005 28.464 38.198 42.125 87.335 48.143 133.478h-79.682zm-29.965-163.35-.034 163.349h-77.145c2.591-53.522 19.026-99.042 48.971-135.472 9.879-12.019 19.83-21.194 28.208-27.877zm-.041 193.35-.016 75.67c-7.765.569-13.892 7.034-13.892 14.944v59.231c-28.345-29.166-59.45-77.287-63.219-149.845zm187.261-101.755c10.562 23.681 16.788 47.811 18.658 71.755h-65.934c-3.062-25.285-7.913-48.819-14.558-70.364-12.318-39.159-28.736-70.435-53.676-97.695 9.447 2.693 18.862 6.035 28.193 10.077 39.051 16.911 70.061 47.534 87.317 86.227zm-277.374-73.19c16.136-10.596 33.428-18.498 51.432-23.715-3.816 3.917-7.693 8.175-11.567 12.816-24.526 29.383-53.47 79.731-56.919 155.844h-68.892c4.673-58.794 36.042-112.176 85.946-144.945zm-85.991 174.945h68.942c3.769 81.159 38.144 135.593 70.068 169.033-76.152-22.351-132.749-89.639-139.01-169.033zm192.196 246.086v-98.838c9.763 8.829 21.526 16.094 35.114 21.676v20.192c.793 19.902 29.215 19.887 30 0v-11.217c30.452 6.421 72.755 6.306 102.978-.403v11.619c.793 19.902 29.215 19.887 30 0v-21.013c12.756-5.466 23.844-12.457 33.131-20.855v98.838h-231.223z"/></svg>