<svg id="Capa_1" enable-background="new 0 0 496.311 496.311" height="512" viewBox="0 0 496.311 496.311" width="512" xmlns="http://www.w3.org/2000/svg"><g><path d="m491.755 200.592c-1.052-5.421-6.297-8.964-11.723-7.911-5.421 1.053-8.963 6.301-7.911 11.723 2.78 14.315 4.189 29.035 4.189 43.751 0 3.197-.08 6.382-.21 9.558l-53.712-25.096c-1.837-.858-3.893-1.137-5.894-.801l-63 10.611c-2.042.344-3.928 1.314-5.395 2.775l-26.085 25.973-28.003-12.831-.664-29.443 35.444-5.881c5.057-.839 8.66-5.365 8.344-10.481l-2.22-35.971 30.577-30.279 39.724-12.772c4.555-1.464 7.434-5.95 6.869-10.701l-4.626-38.888c12.664 12.321 23.631 26.036 32.538 40.875 2.843 4.736 8.987 6.271 13.721 3.428 4.735-2.843 6.27-8.985 3.428-13.721-20.567-34.264-50.948-63.097-87.858-83.382-37.052-20.365-78.939-31.128-121.133-31.128-66.284 0-128.602 25.813-175.472 72.683-46.87 46.87-72.683 109.188-72.683 175.472s25.813 128.602 72.683 175.472c46.87 46.871 109.188 72.683 175.472 72.683s128.602-25.813 175.472-72.683c46.871-46.87 72.683-109.188 72.683-175.472.001-15.992-1.532-31.995-4.555-47.563zm-469.606 16.143 4.594 12.798c.701 1.953 1.992 3.639 3.694 4.826l28.803 20.075.891 54.326-13.849 45.921c-17.169-32.439-26.282-68.781-26.282-106.526 0-10.603.735-21.092 2.149-31.42zm38.007 160.774c.225-.467.419-.955.574-1.466l19-63c.298-.989.441-2.018.424-3.051l-1-61c-.053-3.212-1.645-6.203-4.281-8.04l-30.383-21.177-12.922-35.998c-.374-1.042-.909-1.979-1.559-2.804 10.784-35.171 30.066-67.397 56.817-94.148 11.862-11.862 24.804-22.247 38.598-31.084l52.145 66.562-42.428 56.872c-1.617 2.167-2.288 4.898-1.858 7.568s1.923 5.052 4.138 6.604l25.998 18.199 1.382 26.953-52.839 20.917c-3.416 1.352-5.815 4.468-6.249 8.116l-5 42c-.57 4.789 2.359 9.303 6.965 10.732l90.413 28.065-37.706 46.53c-1.841 2.272-2.596 5.237-2.064 8.114l10.978 59.39c-30.628-11.256-58.713-29.116-82.474-52.877-9.943-9.944-18.841-20.651-26.669-31.977zm130.726 91.579-12.055-65.218 44.098-54.419c4.382-5.409 1.825-13.788-4.805-15.846l-96.563-29.975 3.312-27.813 53.968-21.364c3.989-1.579 6.526-5.526 6.306-9.81l-2-39c-.158-3.079-1.727-5.912-4.252-7.68l-21.556-15.089 40.836-54.739c2.699-3.617 2.64-8.594-.143-12.146l-55.126-70.367c32.116-16.739 68-25.622 105.253-25.622 38.835 0 77.392 9.908 111.5 28.654 8.949 4.918 17.462 10.394 25.511 16.346-.006.441.005.886.059 1.337l6.027 50.661-34.158 10.983c-1.497.481-2.858 1.309-3.976 2.415l-35.5 35.155c-2.049 2.029-3.122 4.844-2.944 7.722l1.944 31.496-35.1 5.824c-4.91.815-8.473 5.115-8.361 10.09l1 44.372c.086 3.828 2.351 7.271 5.832 8.866l40 18.328c3.752 1.719 8.297.906 11.221-2.005l28.745-28.621 56.789-9.565 57.505 26.868c-4.234 31.596-14.971 61.648-31.558 88.573l-34.458-47.235c-1.833-2.513-4.73-4.029-7.839-4.104l-69.667-1.667c-2.508-.067-4.927.817-6.81 2.458l-36.333 31.667c-2.072 1.806-3.309 4.385-3.421 7.131l-2 49c-.169 4.155 2.25 7.981 6.076 9.609l43.04 18.315 9.036 24.327c-28.654 12.656-59.895 19.311-92.16 19.311-19.586 0-38.791-2.465-57.273-7.223zm218.603-59.603c-15.398 15.398-32.617 28.309-51.159 38.563l-9.797-26.375c-.957-2.575-2.931-4.644-5.458-5.72l-40.642-17.294 1.542-37.794 30.161-26.287 60.852 1.456 35.744 48.999c-6.448 8.563-13.529 16.739-21.243 24.452z"/><path d="m301.396 142.499c3.615 7.156 14.164 7.193 17.824.052l35.123-68.523c1.24-2.418 1.442-5.237.56-7.808-.882-2.57-2.773-4.671-5.236-5.818l-49.377-22.998c-2.749-1.281-5.93-1.244-8.648.098-2.719 1.342-4.682 3.845-5.337 6.805l-9.745 44.021c-.499 2.254-.203 4.611.838 6.671zm1.742-81.706 28.67 13.353-21.422 41.795-13.529-26.776z"/><circle cx="468.739" cy="159.572" r="10"/></g></svg>