<svg id="Layer_1" enable-background="new 0 0 511.982 511.982" height="512" viewBox="0 0 511.982 511.982" width="512" xmlns="http://www.w3.org/2000/svg"><path d="m255.991 455.991c-65.145 0-122.316-4.258-158.806-7.83-46.194-4.521-82.997-39.75-89.5-85.668-10.247-72.729-10.247-140.275 0-213.005 6.503-45.917 43.306-81.146 89.5-85.667 36.489-3.572 93.661-7.83 158.806-7.83s122.316 4.258 158.806 7.83c46.194 4.521 82.997 39.75 89.5 85.668 10.247 72.729 10.247 140.275 0 213.005-6.503 45.917-43.306 81.146-89.5 85.667-36.49 3.572-93.661 7.83-158.806 7.83zm0-360c-63.53 0-119.306 4.154-154.909 7.641-27.766 2.718-49.885 23.881-53.791 51.465-4.844 34.204-7.3 68.149-7.3 100.895s2.456 66.69 7.3 100.894c3.906 27.585 26.025 48.748 53.791 51.466 35.604 3.486 91.379 7.641 154.909 7.641s119.306-4.154 154.909-7.641c27.766-2.718 49.885-23.881 53.791-51.465 4.844-34.204 7.3-68.149 7.3-100.895s-2.456-66.69-7.3-100.894c-3.906-27.585-26.025-48.748-53.791-51.466-35.603-3.487-91.379-7.641-154.909-7.641zm-25.943 254.796c-26.74.364-50.683-22.824-50.057-49.881v-90.33c0-18.09 9.423-34.249 25.207-43.225 15.908-9.048 34.796-8.862 50.519.492l75.914 45.165c32.302 18.533 32.294 66.938 0 85.465l-75.914 45.165c-8.006 4.763-16.834 7.149-25.669 7.149zm.047-150.043c-2.333 0-4.189.848-5.123 1.379-1.86 1.058-4.98 3.562-4.98 8.453v90.33c0 4.892 3.12 7.396 4.98 8.453 1.557.886 5.676 2.651 10.294-.098l75.914-45.165c6.463-3.858 6.472-12.845 0-16.711l-75.914-45.165c-1.848-1.099-3.616-1.476-5.171-1.476z"/></svg>